<svg xmlns="http://www.w3.org/2000/svg" width="1400" height="1730" viewBox="0 0 1400 1730" role="img">
<title>MA migration-group socioeconomic profile, 2000</title>
<rect width="100%" height="100%" fill="#FFFFFF"/>
<text x="54.0" y="54.0" text-anchor="start" font-family="Arial, sans-serif" font-size="29" font-weight="600" fill="#1F2937">MA: immigrants, emigrants, and stayers</text>
<text x="54.0" y="84.0" text-anchor="start" font-family="Arial, sans-serif" font-size="19" font-weight="400" fill="#374151">2000</text>
<text x="54.0" y="111.0" text-anchor="start" font-family="Arial, sans-serif" font-size="14" font-weight="400" fill="#6B7280">Five-year state of residence</text>
<rect x="54" y="136" width="18" height="18" rx="2" fill="#0072B2"/>
<text x="83.0" y="150.0" text-anchor="start" font-family="Arial, sans-serif" font-size="15" font-weight="400" fill="#1F2937">Immigrants  |  N = 100.8k</text>
<rect x="474" y="136" width="18" height="18" rx="2" fill="#D55E00"/>
<text x="503.0" y="150.0" text-anchor="start" font-family="Arial, sans-serif" font-size="15" font-weight="400" fill="#1F2937">Emigrants  |  N = 274.5k</text>
<rect x="894" y="136" width="18" height="18" rx="2" fill="#6B7280"/>
<text x="923.0" y="150.0" text-anchor="start" font-family="Arial, sans-serif" font-size="15" font-weight="400" fill="#1F2937">Stayers  |  N = 4,529.4k</text>
<text x="54.0" y="208.0" text-anchor="start" font-family="Arial, sans-serif" font-size="17" font-weight="600" fill="#1F2937">Age</text>
<line x1="108.0" y1="481.0" x2="690.0" y2="481.0" stroke="#E5E7EB" stroke-width="1"/>
<text x="100.0" y="485.0" text-anchor="end" font-family="Arial, sans-serif" font-size="11" font-weight="400" fill="#6B7280">0%</text>
<line x1="108.0" y1="417.8" x2="690.0" y2="417.8" stroke="#E5E7EB" stroke-width="1"/>
<text x="100.0" y="421.8" text-anchor="end" font-family="Arial, sans-serif" font-size="11" font-weight="400" fill="#6B7280">10%</text>
<line x1="108.0" y1="354.5" x2="690.0" y2="354.5" stroke="#E5E7EB" stroke-width="1"/>
<text x="100.0" y="358.5" text-anchor="end" font-family="Arial, sans-serif" font-size="11" font-weight="400" fill="#6B7280">20%</text>
<line x1="108.0" y1="291.2" x2="690.0" y2="291.2" stroke="#E5E7EB" stroke-width="1"/>
<text x="100.0" y="295.2" text-anchor="end" font-family="Arial, sans-serif" font-size="11" font-weight="400" fill="#6B7280">30%</text>
<line x1="108.0" y1="228.0" x2="690.0" y2="228.0" stroke="#E5E7EB" stroke-width="1"/>
<text x="100.0" y="232.0" text-anchor="end" font-family="Arial, sans-serif" font-size="11" font-weight="400" fill="#6B7280">40%</text>
<line x1="108.0" y1="228.0" x2="108.0" y2="481.0" stroke="#9CA3AF"/>
<line x1="108.0" y1="481.0" x2="690.0" y2="481.0" stroke="#9CA3AF"/>
<rect x="117.1" y="316.0" width="20.0" height="165.0" fill="#0072B2" opacity="0.92"><title>Immigrants: 26.1%</title></rect>
<rect x="139.6" y="334.4" width="20.0" height="146.6" fill="#D55E00" opacity="0.92"><title>Emigrants: 23.2%</title></rect>
<rect x="162.0" y="299.3" width="20.0" height="181.7" fill="#6B7280" opacity="0.92"><title>Stayers: 28.7%</title></rect>
<text x="149.6" y="499.0" text-anchor="middle" font-family="Arial, sans-serif" font-size="11" fill="#374151"><tspan x="149.6" dy="0">5-14</tspan></text>
<rect x="200.3" y="324.9" width="20.0" height="156.1" fill="#0072B2" opacity="0.92"><title>Immigrants: 24.7%</title></rect>
<rect x="222.7" y="246.1" width="20.0" height="234.9" fill="#D55E00" opacity="0.92"><title>Emigrants: 37.1%</title></rect>
<rect x="245.2" y="323.5" width="20.0" height="157.5" fill="#6B7280" opacity="0.92"><title>Stayers: 24.9%</title></rect>
<text x="232.7" y="499.0" text-anchor="middle" font-family="Arial, sans-serif" font-size="11" fill="#374151"><tspan x="232.7" dy="0">15-24</tspan></text>
<rect x="283.4" y="330.5" width="20.0" height="150.5" fill="#0072B2" opacity="0.92"><title>Immigrants: 23.8%</title></rect>
<rect x="305.9" y="350.0" width="20.0" height="131.0" fill="#D55E00" opacity="0.92"><title>Emigrants: 20.7%</title></rect>
<rect x="328.3" y="387.3" width="20.0" height="93.7" fill="#6B7280" opacity="0.92"><title>Stayers: 14.8%</title></rect>
<text x="315.9" y="499.0" text-anchor="middle" font-family="Arial, sans-serif" font-size="11" fill="#374151"><tspan x="315.9" dy="0">25-34</tspan></text>
<rect x="366.6" y="393.9" width="20.0" height="87.1" fill="#0072B2" opacity="0.92"><title>Immigrants: 13.8%</title></rect>
<rect x="389.0" y="418.1" width="20.0" height="62.9" fill="#D55E00" opacity="0.92"><title>Emigrants: 9.9%</title></rect>
<rect x="411.5" y="407.3" width="20.0" height="73.7" fill="#6B7280" opacity="0.92"><title>Stayers: 11.7%</title></rect>
<text x="399.0" y="499.0" text-anchor="middle" font-family="Arial, sans-serif" font-size="11" fill="#374151"><tspan x="399.0" dy="0">35-44</tspan></text>
<rect x="449.7" y="439.3" width="20.0" height="41.7" fill="#0072B2" opacity="0.92"><title>Immigrants: 6.6%</title></rect>
<rect x="472.2" y="448.7" width="20.0" height="32.3" fill="#D55E00" opacity="0.92"><title>Emigrants: 5.1%</title></rect>
<rect x="494.6" y="428.7" width="20.0" height="52.3" fill="#6B7280" opacity="0.92"><title>Stayers: 8.3%</title></rect>
<text x="482.1" y="499.0" text-anchor="middle" font-family="Arial, sans-serif" font-size="11" fill="#374151"><tspan x="482.1" dy="0">45-54</tspan></text>
<rect x="532.9" y="461.6" width="20.0" height="19.4" fill="#0072B2" opacity="0.92"><title>Immigrants: 3.1%</title></rect>
<rect x="555.3" y="467.0" width="20.0" height="14.0" fill="#D55E00" opacity="0.92"><title>Emigrants: 2.2%</title></rect>
<rect x="577.8" y="443.7" width="20.0" height="37.3" fill="#6B7280" opacity="0.92"><title>Stayers: 5.9%</title></rect>
<text x="565.3" y="499.0" text-anchor="middle" font-family="Arial, sans-serif" font-size="11" fill="#374151"><tspan x="565.3" dy="0">55-64</tspan></text>
<rect x="616.0" y="468.3" width="20.0" height="12.7" fill="#0072B2" opacity="0.92"><title>Immigrants: 2.0%</title></rect>
<rect x="638.5" y="470.1" width="20.0" height="10.9" fill="#D55E00" opacity="0.92"><title>Emigrants: 1.7%</title></rect>
<rect x="660.9" y="444.6" width="20.0" height="36.4" fill="#6B7280" opacity="0.92"><title>Stayers: 5.7%</title></rect>
<text x="648.4" y="499.0" text-anchor="middle" font-family="Arial, sans-serif" font-size="11" fill="#374151"><tspan x="648.4" dy="0">65+</tspan></text>
<text x="746.0" y="208.0" text-anchor="start" font-family="Arial, sans-serif" font-size="17" font-weight="600" fill="#1F2937">Income rank</text>
<line x1="800.0" y1="481.0" x2="1382.0" y2="481.0" stroke="#E5E7EB" stroke-width="1"/>
<text x="792.0" y="485.0" text-anchor="end" font-family="Arial, sans-serif" font-size="11" font-weight="400" fill="#6B7280">0%</text>
<line x1="800.0" y1="417.8" x2="1382.0" y2="417.8" stroke="#E5E7EB" stroke-width="1"/>
<text x="792.0" y="421.8" text-anchor="end" font-family="Arial, sans-serif" font-size="11" font-weight="400" fill="#6B7280">12.5%</text>
<line x1="800.0" y1="354.5" x2="1382.0" y2="354.5" stroke="#E5E7EB" stroke-width="1"/>
<text x="792.0" y="358.5" text-anchor="end" font-family="Arial, sans-serif" font-size="11" font-weight="400" fill="#6B7280">25%</text>
<line x1="800.0" y1="291.2" x2="1382.0" y2="291.2" stroke="#E5E7EB" stroke-width="1"/>
<text x="792.0" y="295.2" text-anchor="end" font-family="Arial, sans-serif" font-size="11" font-weight="400" fill="#6B7280">37.5%</text>
<line x1="800.0" y1="228.0" x2="1382.0" y2="228.0" stroke="#E5E7EB" stroke-width="1"/>
<text x="792.0" y="232.0" text-anchor="end" font-family="Arial, sans-serif" font-size="11" font-weight="400" fill="#6B7280">50%</text>
<line x1="800.0" y1="228.0" x2="800.0" y2="481.0" stroke="#9CA3AF"/>
<line x1="800.0" y1="481.0" x2="1382.0" y2="481.0" stroke="#9CA3AF"/>
<rect x="810.7" y="268.0" width="23.3" height="213.0" fill="#0072B2" opacity="0.92"><title>Immigrants: 42.1%</title></rect>
<rect x="836.9" y="276.5" width="23.3" height="204.5" fill="#D55E00" opacity="0.92"><title>Emigrants: 40.4%</title></rect>
<rect x="863.0" y="256.6" width="23.3" height="224.4" fill="#6B7280" opacity="0.92"><title>Stayers: 44.4%</title></rect>
<text x="848.5" y="499.0" text-anchor="middle" font-family="Arial, sans-serif" font-size="11" fill="#374151"><tspan x="848.5" dy="0">No</tspan><tspan x="848.5" dy="13">income</tspan></text>
<rect x="907.7" y="361.4" width="23.3" height="119.6" fill="#0072B2" opacity="0.92"><title>Immigrants: 23.6%</title></rect>
<rect x="933.9" y="382.4" width="23.3" height="98.6" fill="#D55E00" opacity="0.92"><title>Emigrants: 19.5%</title></rect>
<rect x="960.0" y="310.8" width="23.3" height="170.2" fill="#6B7280" opacity="0.92"><title>Stayers: 33.6%</title></rect>
<text x="945.5" y="499.0" text-anchor="middle" font-family="Arial, sans-serif" font-size="11" fill="#374151"><tspan x="945.5" dy="0">Q1</tspan></text>
<rect x="1004.7" y="450.8" width="23.3" height="30.2" fill="#0072B2" opacity="0.92"><title>Immigrants: 6.0%</title></rect>
<rect x="1030.9" y="432.9" width="23.3" height="48.1" fill="#D55E00" opacity="0.92"><title>Emigrants: 9.5%</title></rect>
<rect x="1057.0" y="451.2" width="23.3" height="29.8" fill="#6B7280" opacity="0.92"><title>Stayers: 5.9%</title></rect>
<text x="1042.5" y="499.0" text-anchor="middle" font-family="Arial, sans-serif" font-size="11" fill="#374151"><tspan x="1042.5" dy="0">Q2</tspan></text>
<rect x="1101.7" y="434.2" width="23.3" height="46.8" fill="#0072B2" opacity="0.92"><title>Immigrants: 9.2%</title></rect>
<rect x="1127.9" y="398.1" width="23.3" height="82.9" fill="#D55E00" opacity="0.92"><title>Emigrants: 16.4%</title></rect>
<rect x="1154.1" y="442.8" width="23.3" height="38.2" fill="#6B7280" opacity="0.92"><title>Stayers: 7.6%</title></rect>
<text x="1139.5" y="499.0" text-anchor="middle" font-family="Arial, sans-serif" font-size="11" fill="#374151"><tspan x="1139.5" dy="0">Q3</tspan></text>
<rect x="1198.7" y="439.9" width="23.3" height="41.1" fill="#0072B2" opacity="0.92"><title>Immigrants: 8.1%</title></rect>
<rect x="1224.9" y="434.1" width="23.3" height="46.9" fill="#D55E00" opacity="0.92"><title>Emigrants: 9.3%</title></rect>
<rect x="1251.1" y="456.7" width="23.3" height="24.3" fill="#6B7280" opacity="0.92"><title>Stayers: 4.8%</title></rect>
<text x="1236.5" y="499.0" text-anchor="middle" font-family="Arial, sans-serif" font-size="11" fill="#374151"><tspan x="1236.5" dy="0">Q4</tspan></text>
<rect x="1295.7" y="425.7" width="23.3" height="55.3" fill="#0072B2" opacity="0.92"><title>Immigrants: 10.9%</title></rect>
<rect x="1321.9" y="456.0" width="23.3" height="25.0" fill="#D55E00" opacity="0.92"><title>Emigrants: 4.9%</title></rect>
<rect x="1348.1" y="461.9" width="23.3" height="19.1" fill="#6B7280" opacity="0.92"><title>Stayers: 3.8%</title></rect>
<text x="1333.5" y="499.0" text-anchor="middle" font-family="Arial, sans-serif" font-size="11" fill="#374151"><tspan x="1333.5" dy="0">Q5</tspan></text>
<text x="54.0" y="583.0" text-anchor="start" font-family="Arial, sans-serif" font-size="17" font-weight="600" fill="#1F2937">Sex</text>
<line x1="108.0" y1="856.0" x2="690.0" y2="856.0" stroke="#E5E7EB" stroke-width="1"/>
<text x="100.0" y="860.0" text-anchor="end" font-family="Arial, sans-serif" font-size="11" font-weight="400" fill="#6B7280">0%</text>
<line x1="108.0" y1="792.8" x2="690.0" y2="792.8" stroke="#E5E7EB" stroke-width="1"/>
<text x="100.0" y="796.8" text-anchor="end" font-family="Arial, sans-serif" font-size="11" font-weight="400" fill="#6B7280">15%</text>
<line x1="108.0" y1="729.5" x2="690.0" y2="729.5" stroke="#E5E7EB" stroke-width="1"/>
<text x="100.0" y="733.5" text-anchor="end" font-family="Arial, sans-serif" font-size="11" font-weight="400" fill="#6B7280">30%</text>
<line x1="108.0" y1="666.2" x2="690.0" y2="666.2" stroke="#E5E7EB" stroke-width="1"/>
<text x="100.0" y="670.2" text-anchor="end" font-family="Arial, sans-serif" font-size="11" font-weight="400" fill="#6B7280">45%</text>
<line x1="108.0" y1="603.0" x2="690.0" y2="603.0" stroke="#E5E7EB" stroke-width="1"/>
<text x="100.0" y="607.0" text-anchor="end" font-family="Arial, sans-serif" font-size="11" font-weight="400" fill="#6B7280">60%</text>
<line x1="108.0" y1="603.0" x2="108.0" y2="856.0" stroke="#9CA3AF"/>
<line x1="108.0" y1="856.0" x2="690.0" y2="856.0" stroke="#9CA3AF"/>
<rect x="140.0" y="643.3" width="69.8" height="212.7" fill="#0072B2" opacity="0.92"><title>Immigrants: 50.4%</title></rect>
<rect x="218.6" y="632.8" width="69.8" height="223.2" fill="#D55E00" opacity="0.92"><title>Emigrants: 52.9%</title></rect>
<rect x="297.1" y="644.5" width="69.8" height="211.5" fill="#6B7280" opacity="0.92"><title>Stayers: 50.2%</title></rect>
<text x="253.5" y="874.0" text-anchor="middle" font-family="Arial, sans-serif" font-size="11" fill="#374151"><tspan x="253.5" dy="0">Women</tspan></text>
<rect x="431.0" y="647.0" width="69.8" height="209.0" fill="#0072B2" opacity="0.92"><title>Immigrants: 49.6%</title></rect>
<rect x="509.6" y="657.5" width="69.8" height="198.5" fill="#D55E00" opacity="0.92"><title>Emigrants: 47.1%</title></rect>
<rect x="588.1" y="645.8" width="69.8" height="210.2" fill="#6B7280" opacity="0.92"><title>Stayers: 49.8%</title></rect>
<text x="544.5" y="874.0" text-anchor="middle" font-family="Arial, sans-serif" font-size="11" fill="#374151"><tspan x="544.5" dy="0">Men</tspan></text>
<text x="746.0" y="583.0" text-anchor="start" font-family="Arial, sans-serif" font-size="17" font-weight="600" fill="#1F2937">Literacy (age 15+)</text>
<line x1="800.0" y1="856.0" x2="1382.0" y2="856.0" stroke="#E5E7EB" stroke-width="1"/>
<text x="792.0" y="860.0" text-anchor="end" font-family="Arial, sans-serif" font-size="11" font-weight="400" fill="#6B7280">0%</text>
<line x1="800.0" y1="792.8" x2="1382.0" y2="792.8" stroke="#E5E7EB" stroke-width="1"/>
<text x="792.0" y="796.8" text-anchor="end" font-family="Arial, sans-serif" font-size="11" font-weight="400" fill="#6B7280">22.5%</text>
<line x1="800.0" y1="729.5" x2="1382.0" y2="729.5" stroke="#E5E7EB" stroke-width="1"/>
<text x="792.0" y="733.5" text-anchor="end" font-family="Arial, sans-serif" font-size="11" font-weight="400" fill="#6B7280">45%</text>
<line x1="800.0" y1="666.2" x2="1382.0" y2="666.2" stroke="#E5E7EB" stroke-width="1"/>
<text x="792.0" y="670.2" text-anchor="end" font-family="Arial, sans-serif" font-size="11" font-weight="400" fill="#6B7280">67.5%</text>
<line x1="800.0" y1="603.0" x2="1382.0" y2="603.0" stroke="#E5E7EB" stroke-width="1"/>
<text x="792.0" y="607.0" text-anchor="end" font-family="Arial, sans-serif" font-size="11" font-weight="400" fill="#6B7280">90%</text>
<line x1="800.0" y1="603.0" x2="800.0" y2="856.0" stroke="#9CA3AF"/>
<line x1="800.0" y1="856.0" x2="1382.0" y2="856.0" stroke="#9CA3AF"/>
<rect x="832.0" y="817.6" width="69.8" height="38.4" fill="#0072B2" opacity="0.92"><title>Immigrants: 13.7%</title></rect>
<rect x="910.6" y="814.8" width="69.8" height="41.2" fill="#D55E00" opacity="0.92"><title>Emigrants: 14.7%</title></rect>
<rect x="989.1" y="778.4" width="69.8" height="77.6" fill="#6B7280" opacity="0.92"><title>Stayers: 27.6%</title></rect>
<text x="945.5" y="874.0" text-anchor="middle" font-family="Arial, sans-serif" font-size="11" fill="#374151"><tspan x="945.5" dy="0">Not</tspan><tspan x="945.5" dy="13">literate</tspan></text>
<rect x="1123.0" y="613.3" width="69.8" height="242.7" fill="#0072B2" opacity="0.92"><title>Immigrants: 86.3%</title></rect>
<rect x="1201.6" y="616.1" width="69.8" height="239.9" fill="#D55E00" opacity="0.92"><title>Emigrants: 85.3%</title></rect>
<rect x="1280.2" y="652.5" width="69.8" height="203.5" fill="#6B7280" opacity="0.92"><title>Stayers: 72.4%</title></rect>
<text x="1236.5" y="874.0" text-anchor="middle" font-family="Arial, sans-serif" font-size="11" fill="#374151"><tspan x="1236.5" dy="0">Literate</tspan></text>
<text x="54.0" y="958.0" text-anchor="start" font-family="Arial, sans-serif" font-size="17" font-weight="600" fill="#1F2937">Years of schooling (age 15+)</text>
<line x1="108.0" y1="1231.0" x2="690.0" y2="1231.0" stroke="#E5E7EB" stroke-width="1"/>
<text x="100.0" y="1235.0" text-anchor="end" font-family="Arial, sans-serif" font-size="11" font-weight="400" fill="#6B7280">0%</text>
<line x1="108.0" y1="1167.8" x2="690.0" y2="1167.8" stroke="#E5E7EB" stroke-width="1"/>
<text x="100.0" y="1171.8" text-anchor="end" font-family="Arial, sans-serif" font-size="11" font-weight="400" fill="#6B7280">10%</text>
<line x1="108.0" y1="1104.5" x2="690.0" y2="1104.5" stroke="#E5E7EB" stroke-width="1"/>
<text x="100.0" y="1108.5" text-anchor="end" font-family="Arial, sans-serif" font-size="11" font-weight="400" fill="#6B7280">20%</text>
<line x1="108.0" y1="1041.2" x2="690.0" y2="1041.2" stroke="#E5E7EB" stroke-width="1"/>
<text x="100.0" y="1045.2" text-anchor="end" font-family="Arial, sans-serif" font-size="11" font-weight="400" fill="#6B7280">30%</text>
<line x1="108.0" y1="978.0" x2="690.0" y2="978.0" stroke="#E5E7EB" stroke-width="1"/>
<text x="100.0" y="982.0" text-anchor="end" font-family="Arial, sans-serif" font-size="11" font-weight="400" fill="#6B7280">40%</text>
<line x1="108.0" y1="978.0" x2="108.0" y2="1231.0" stroke="#9CA3AF"/>
<line x1="108.0" y1="1231.0" x2="690.0" y2="1231.0" stroke="#9CA3AF"/>
<rect x="118.7" y="1160.3" width="23.3" height="70.7" fill="#0072B2" opacity="0.92"><title>Immigrants: 11.2%</title></rect>
<rect x="144.9" y="1152.1" width="23.3" height="78.9" fill="#D55E00" opacity="0.92"><title>Emigrants: 12.5%</title></rect>
<rect x="171.1" y="1082.1" width="23.3" height="148.9" fill="#6B7280" opacity="0.92"><title>Stayers: 23.5%</title></rect>
<text x="156.5" y="1249.0" text-anchor="middle" font-family="Arial, sans-serif" font-size="11" fill="#374151"><tspan x="156.5" dy="0">0</tspan></text>
<rect x="215.7" y="1117.3" width="23.3" height="113.7" fill="#0072B2" opacity="0.92"><title>Immigrants: 18.0%</title></rect>
<rect x="241.9" y="1107.4" width="23.3" height="123.6" fill="#D55E00" opacity="0.92"><title>Emigrants: 19.5%</title></rect>
<rect x="268.1" y="1080.6" width="23.3" height="150.4" fill="#6B7280" opacity="0.92"><title>Stayers: 23.8%</title></rect>
<text x="253.5" y="1249.0" text-anchor="middle" font-family="Arial, sans-serif" font-size="11" fill="#374151"><tspan x="253.5" dy="0">1-3</tspan></text>
<rect x="312.7" y="1039.3" width="23.3" height="191.7" fill="#0072B2" opacity="0.92"><title>Immigrants: 30.3%</title></rect>
<rect x="338.9" y="1015.2" width="23.3" height="215.8" fill="#D55E00" opacity="0.92"><title>Emigrants: 34.1%</title></rect>
<rect x="365.1" y="1066.5" width="23.3" height="164.5" fill="#6B7280" opacity="0.92"><title>Stayers: 26.0%</title></rect>
<text x="350.5" y="1249.0" text-anchor="middle" font-family="Arial, sans-serif" font-size="11" fill="#374151"><tspan x="350.5" dy="0">4-7</tspan></text>
<rect x="409.7" y="1122.8" width="23.3" height="108.2" fill="#0072B2" opacity="0.92"><title>Immigrants: 17.1%</title></rect>
<rect x="435.9" y="1116.1" width="23.3" height="114.9" fill="#D55E00" opacity="0.92"><title>Emigrants: 18.2%</title></rect>
<rect x="462.1" y="1154.1" width="23.3" height="76.9" fill="#6B7280" opacity="0.92"><title>Stayers: 12.2%</title></rect>
<text x="447.5" y="1249.0" text-anchor="middle" font-family="Arial, sans-serif" font-size="11" fill="#374151"><tspan x="447.5" dy="0">8-10</tspan></text>
<rect x="506.7" y="1114.5" width="23.3" height="116.5" fill="#0072B2" opacity="0.92"><title>Immigrants: 18.4%</title></rect>
<rect x="532.9" y="1147.2" width="23.3" height="83.8" fill="#D55E00" opacity="0.92"><title>Emigrants: 13.3%</title></rect>
<rect x="559.1" y="1155.8" width="23.3" height="75.2" fill="#6B7280" opacity="0.92"><title>Stayers: 11.9%</title></rect>
<text x="544.5" y="1249.0" text-anchor="middle" font-family="Arial, sans-serif" font-size="11" fill="#374151"><tspan x="544.5" dy="0">11-14</tspan></text>
<rect x="603.7" y="1199.2" width="23.3" height="31.8" fill="#0072B2" opacity="0.92"><title>Immigrants: 5.0%</title></rect>
<rect x="629.9" y="1215.6" width="23.3" height="15.4" fill="#D55E00" opacity="0.92"><title>Emigrants: 2.4%</title></rect>
<rect x="656.0" y="1214.4" width="23.3" height="16.6" fill="#6B7280" opacity="0.92"><title>Stayers: 2.6%</title></rect>
<text x="641.5" y="1249.0" text-anchor="middle" font-family="Arial, sans-serif" font-size="11" fill="#374151"><tspan x="641.5" dy="0">15+</tspan></text>
<text x="746.0" y="958.0" text-anchor="start" font-family="Arial, sans-serif" font-size="17" font-weight="600" fill="#1F2937">Household size</text>
<line x1="800.0" y1="1231.0" x2="1382.0" y2="1231.0" stroke="#E5E7EB" stroke-width="1"/>
<text x="792.0" y="1235.0" text-anchor="end" font-family="Arial, sans-serif" font-size="11" font-weight="400" fill="#6B7280">0%</text>
<line x1="800.0" y1="1167.8" x2="1382.0" y2="1167.8" stroke="#E5E7EB" stroke-width="1"/>
<text x="792.0" y="1171.8" text-anchor="end" font-family="Arial, sans-serif" font-size="11" font-weight="400" fill="#6B7280">12.5%</text>
<line x1="800.0" y1="1104.5" x2="1382.0" y2="1104.5" stroke="#E5E7EB" stroke-width="1"/>
<text x="792.0" y="1108.5" text-anchor="end" font-family="Arial, sans-serif" font-size="11" font-weight="400" fill="#6B7280">25%</text>
<line x1="800.0" y1="1041.2" x2="1382.0" y2="1041.2" stroke="#E5E7EB" stroke-width="1"/>
<text x="792.0" y="1045.2" text-anchor="end" font-family="Arial, sans-serif" font-size="11" font-weight="400" fill="#6B7280">37.5%</text>
<line x1="800.0" y1="978.0" x2="1382.0" y2="978.0" stroke="#E5E7EB" stroke-width="1"/>
<text x="792.0" y="982.0" text-anchor="end" font-family="Arial, sans-serif" font-size="11" font-weight="400" fill="#6B7280">50%</text>
<line x1="800.0" y1="978.0" x2="800.0" y2="1231.0" stroke="#9CA3AF"/>
<line x1="800.0" y1="1231.0" x2="1382.0" y2="1231.0" stroke="#9CA3AF"/>
<rect x="810.7" y="1219.7" width="23.3" height="11.3" fill="#0072B2" opacity="0.92"><title>Immigrants: 2.2%</title></rect>
<rect x="836.9" y="1218.4" width="23.3" height="12.6" fill="#D55E00" opacity="0.92"><title>Emigrants: 2.5%</title></rect>
<rect x="863.0" y="1224.0" width="23.3" height="7.0" fill="#6B7280" opacity="0.92"><title>Stayers: 1.4%</title></rect>
<text x="848.5" y="1249.0" text-anchor="middle" font-family="Arial, sans-serif" font-size="11" fill="#374151"><tspan x="848.5" dy="0">1</tspan></text>
<rect x="907.7" y="1188.0" width="23.3" height="43.0" fill="#0072B2" opacity="0.92"><title>Immigrants: 8.5%</title></rect>
<rect x="933.9" y="1184.8" width="23.3" height="46.2" fill="#D55E00" opacity="0.92"><title>Emigrants: 9.1%</title></rect>
<rect x="960.0" y="1201.4" width="23.3" height="29.6" fill="#6B7280" opacity="0.92"><title>Stayers: 5.9%</title></rect>
<text x="945.5" y="1249.0" text-anchor="middle" font-family="Arial, sans-serif" font-size="11" fill="#374151"><tspan x="945.5" dy="0">2</tspan></text>
<rect x="1004.7" y="1153.1" width="23.3" height="77.9" fill="#0072B2" opacity="0.92"><title>Immigrants: 15.4%</title></rect>
<rect x="1030.9" y="1156.9" width="23.3" height="74.1" fill="#D55E00" opacity="0.92"><title>Emigrants: 14.6%</title></rect>
<rect x="1057.0" y="1176.5" width="23.3" height="54.5" fill="#6B7280" opacity="0.92"><title>Stayers: 10.8%</title></rect>
<text x="1042.5" y="1249.0" text-anchor="middle" font-family="Arial, sans-serif" font-size="11" fill="#374151"><tspan x="1042.5" dy="0">3</tspan></text>
<rect x="1101.7" y="1123.7" width="23.3" height="107.3" fill="#0072B2" opacity="0.92"><title>Immigrants: 21.2%</title></rect>
<rect x="1127.9" y="1136.8" width="23.3" height="94.2" fill="#D55E00" opacity="0.92"><title>Emigrants: 18.6%</title></rect>
<rect x="1154.1" y="1149.6" width="23.3" height="81.4" fill="#6B7280" opacity="0.92"><title>Stayers: 16.1%</title></rect>
<text x="1139.5" y="1249.0" text-anchor="middle" font-family="Arial, sans-serif" font-size="11" fill="#374151"><tspan x="1139.5" dy="0">4</tspan></text>
<rect x="1198.7" y="1143.4" width="23.3" height="87.6" fill="#0072B2" opacity="0.92"><title>Immigrants: 17.3%</title></rect>
<rect x="1224.9" y="1137.5" width="23.3" height="93.5" fill="#D55E00" opacity="0.92"><title>Emigrants: 18.5%</title></rect>
<rect x="1251.1" y="1141.2" width="23.3" height="89.8" fill="#6B7280" opacity="0.92"><title>Stayers: 17.7%</title></rect>
<text x="1236.5" y="1249.0" text-anchor="middle" font-family="Arial, sans-serif" font-size="11" fill="#374151"><tspan x="1236.5" dy="0">5</tspan></text>
<rect x="1295.7" y="1052.2" width="23.3" height="178.8" fill="#0072B2" opacity="0.92"><title>Immigrants: 35.3%</title></rect>
<rect x="1321.9" y="1045.6" width="23.3" height="185.4" fill="#D55E00" opacity="0.92"><title>Emigrants: 36.6%</title></rect>
<rect x="1348.1" y="987.2" width="23.3" height="243.8" fill="#6B7280" opacity="0.92"><title>Stayers: 48.2%</title></rect>
<text x="1333.5" y="1249.0" text-anchor="middle" font-family="Arial, sans-serif" font-size="11" fill="#374151"><tspan x="1333.5" dy="0">6+</tspan></text>
<text x="54.0" y="1333.0" text-anchor="start" font-family="Arial, sans-serif" font-size="17" font-weight="600" fill="#1F2937">Rooms in dwelling</text>
<line x1="108.0" y1="1606.0" x2="690.0" y2="1606.0" stroke="#E5E7EB" stroke-width="1"/>
<text x="100.0" y="1610.0" text-anchor="end" font-family="Arial, sans-serif" font-size="11" font-weight="400" fill="#6B7280">0%</text>
<line x1="108.0" y1="1542.8" x2="690.0" y2="1542.8" stroke="#E5E7EB" stroke-width="1"/>
<text x="100.0" y="1546.8" text-anchor="end" font-family="Arial, sans-serif" font-size="11" font-weight="400" fill="#6B7280">12.5%</text>
<line x1="108.0" y1="1479.5" x2="690.0" y2="1479.5" stroke="#E5E7EB" stroke-width="1"/>
<text x="100.0" y="1483.5" text-anchor="end" font-family="Arial, sans-serif" font-size="11" font-weight="400" fill="#6B7280">25%</text>
<line x1="108.0" y1="1416.2" x2="690.0" y2="1416.2" stroke="#E5E7EB" stroke-width="1"/>
<text x="100.0" y="1420.2" text-anchor="end" font-family="Arial, sans-serif" font-size="11" font-weight="400" fill="#6B7280">37.5%</text>
<line x1="108.0" y1="1353.0" x2="690.0" y2="1353.0" stroke="#E5E7EB" stroke-width="1"/>
<text x="100.0" y="1357.0" text-anchor="end" font-family="Arial, sans-serif" font-size="11" font-weight="400" fill="#6B7280">50%</text>
<line x1="108.0" y1="1353.0" x2="108.0" y2="1606.0" stroke="#9CA3AF"/>
<line x1="108.0" y1="1606.0" x2="690.0" y2="1606.0" stroke="#9CA3AF"/>
<rect x="118.7" y="1601.2" width="23.3" height="4.8" fill="#0072B2" opacity="0.92"><title>Immigrants: 0.9%</title></rect>
<rect x="144.9" y="1584.4" width="23.3" height="21.6" fill="#D55E00" opacity="0.92"><title>Emigrants: 4.3%</title></rect>
<rect x="171.1" y="1603.5" width="23.3" height="2.5" fill="#6B7280" opacity="0.92"><title>Stayers: 0.5%</title></rect>
<text x="156.5" y="1624.0" text-anchor="middle" font-family="Arial, sans-serif" font-size="11" fill="#374151"><tspan x="156.5" dy="0">1</tspan></text>
<rect x="215.7" y="1584.6" width="23.3" height="21.4" fill="#0072B2" opacity="0.92"><title>Immigrants: 4.2%</title></rect>
<rect x="241.9" y="1560.5" width="23.3" height="45.5" fill="#D55E00" opacity="0.92"><title>Emigrants: 9.0%</title></rect>
<rect x="268.1" y="1593.4" width="23.3" height="12.6" fill="#6B7280" opacity="0.92"><title>Stayers: 2.5%</title></rect>
<text x="253.5" y="1624.0" text-anchor="middle" font-family="Arial, sans-serif" font-size="11" fill="#374151"><tspan x="253.5" dy="0">2</tspan></text>
<rect x="312.7" y="1549.5" width="23.3" height="56.5" fill="#0072B2" opacity="0.92"><title>Immigrants: 11.2%</title></rect>
<rect x="338.9" y="1533.9" width="23.3" height="72.1" fill="#D55E00" opacity="0.92"><title>Emigrants: 14.3%</title></rect>
<rect x="365.1" y="1540.7" width="23.3" height="65.3" fill="#6B7280" opacity="0.92"><title>Stayers: 12.9%</title></rect>
<text x="350.5" y="1624.0" text-anchor="middle" font-family="Arial, sans-serif" font-size="11" fill="#374151"><tspan x="350.5" dy="0">3</tspan></text>
<rect x="409.7" y="1493.6" width="23.3" height="112.4" fill="#0072B2" opacity="0.92"><title>Immigrants: 22.2%</title></rect>
<rect x="435.9" y="1493.5" width="23.3" height="112.5" fill="#D55E00" opacity="0.92"><title>Emigrants: 22.2%</title></rect>
<rect x="462.1" y="1478.2" width="23.3" height="127.8" fill="#6B7280" opacity="0.92"><title>Stayers: 25.3%</title></rect>
<text x="447.5" y="1624.0" text-anchor="middle" font-family="Arial, sans-serif" font-size="11" fill="#374151"><tspan x="447.5" dy="0">4</tspan></text>
<rect x="506.7" y="1504.8" width="23.3" height="101.2" fill="#0072B2" opacity="0.92"><title>Immigrants: 20.0%</title></rect>
<rect x="532.9" y="1509.4" width="23.3" height="96.6" fill="#D55E00" opacity="0.92"><title>Emigrants: 19.1%</title></rect>
<rect x="559.1" y="1502.2" width="23.3" height="103.8" fill="#6B7280" opacity="0.92"><title>Stayers: 20.5%</title></rect>
<text x="544.5" y="1624.0" text-anchor="middle" font-family="Arial, sans-serif" font-size="11" fill="#374151"><tspan x="544.5" dy="0">5</tspan></text>
<rect x="603.7" y="1396.2" width="23.3" height="209.8" fill="#0072B2" opacity="0.92"><title>Immigrants: 41.5%</title></rect>
<rect x="629.9" y="1448.4" width="23.3" height="157.6" fill="#D55E00" opacity="0.92"><title>Emigrants: 31.1%</title></rect>
<rect x="656.0" y="1412.0" width="23.3" height="194.0" fill="#6B7280" opacity="0.92"><title>Stayers: 38.3%</title></rect>
<text x="641.5" y="1624.0" text-anchor="middle" font-family="Arial, sans-serif" font-size="11" fill="#374151"><tspan x="641.5" dy="0">6+</tspan></text>
<text x="746.0" y="1333.0" text-anchor="start" font-family="Arial, sans-serif" font-size="17" font-weight="600" fill="#1F2937">Refrigerator in dwelling</text>
<line x1="800.0" y1="1606.0" x2="1382.0" y2="1606.0" stroke="#E5E7EB" stroke-width="1"/>
<text x="792.0" y="1610.0" text-anchor="end" font-family="Arial, sans-serif" font-size="11" font-weight="400" fill="#6B7280">0%</text>
<line x1="800.0" y1="1542.8" x2="1382.0" y2="1542.8" stroke="#E5E7EB" stroke-width="1"/>
<text x="792.0" y="1546.8" text-anchor="end" font-family="Arial, sans-serif" font-size="11" font-weight="400" fill="#6B7280">20%</text>
<line x1="800.0" y1="1479.5" x2="1382.0" y2="1479.5" stroke="#E5E7EB" stroke-width="1"/>
<text x="792.0" y="1483.5" text-anchor="end" font-family="Arial, sans-serif" font-size="11" font-weight="400" fill="#6B7280">40%</text>
<line x1="800.0" y1="1416.2" x2="1382.0" y2="1416.2" stroke="#E5E7EB" stroke-width="1"/>
<text x="792.0" y="1420.2" text-anchor="end" font-family="Arial, sans-serif" font-size="11" font-weight="400" fill="#6B7280">60%</text>
<line x1="800.0" y1="1353.0" x2="1382.0" y2="1353.0" stroke="#E5E7EB" stroke-width="1"/>
<text x="792.0" y="1357.0" text-anchor="end" font-family="Arial, sans-serif" font-size="11" font-weight="400" fill="#6B7280">80%</text>
<line x1="800.0" y1="1353.0" x2="800.0" y2="1606.0" stroke="#9CA3AF"/>
<line x1="800.0" y1="1606.0" x2="1382.0" y2="1606.0" stroke="#9CA3AF"/>
<rect x="832.0" y="1500.1" width="69.8" height="105.9" fill="#0072B2" opacity="0.92"><title>Immigrants: 33.5%</title></rect>
<rect x="910.6" y="1517.4" width="69.8" height="88.6" fill="#D55E00" opacity="0.92"><title>Emigrants: 28.0%</title></rect>
<rect x="989.1" y="1442.2" width="69.8" height="163.8" fill="#6B7280" opacity="0.92"><title>Stayers: 51.8%</title></rect>
<text x="945.5" y="1624.0" text-anchor="middle" font-family="Arial, sans-serif" font-size="11" fill="#374151"><tspan x="945.5" dy="0">No</tspan></text>
<rect x="1123.0" y="1395.6" width="69.8" height="210.4" fill="#0072B2" opacity="0.92"><title>Immigrants: 66.5%</title></rect>
<rect x="1201.6" y="1378.4" width="69.8" height="227.6" fill="#D55E00" opacity="0.92"><title>Emigrants: 72.0%</title></rect>
<rect x="1280.2" y="1453.5" width="69.8" height="152.5" fill="#6B7280" opacity="0.92"><title>Stayers: 48.2%</title></rect>
<text x="1236.5" y="1624.0" text-anchor="middle" font-family="Arial, sans-serif" font-size="11" fill="#374151"><tspan x="1236.5" dy="0">Yes</tspan></text>
<text x="54.0" y="1692.0" text-anchor="start" font-family="Arial, sans-serif" font-size="13" font-weight="400" fill="#4B5563">Bars are percentages within migration group and panel; legend sizes use census person weights.</text>
<text x="54.0" y="1713.0" text-anchor="start" font-family="Arial, sans-serif" font-size="13" font-weight="400" fill="#4B5563">Income: no income plus national weighted quintiles among positive-income adults (1980 uses main-job income).</text>
</svg>