<svg xmlns="http://www.w3.org/2000/svg" width="1400" height="1730" viewBox="0 0 1400 1730" role="img">
<title>RS migration-group socioeconomic profile, 2000</title>
<rect width="100%" height="100%" fill="#FFFFFF"/>
<text x="54.0" y="54.0" text-anchor="start" font-family="Arial, sans-serif" font-size="29" font-weight="600" fill="#1F2937">RS: immigrants, emigrants, and stayers</text>
<text x="54.0" y="84.0" text-anchor="start" font-family="Arial, sans-serif" font-size="19" font-weight="400" fill="#374151">2000</text>
<text x="54.0" y="111.0" text-anchor="start" font-family="Arial, sans-serif" font-size="14" font-weight="400" fill="#6B7280">Five-year state of residence</text>
<rect x="54" y="136" width="18" height="18" rx="2" fill="#0072B2"/>
<text x="83.0" y="150.0" text-anchor="start" font-family="Arial, sans-serif" font-size="15" font-weight="400" fill="#1F2937">Immigrants  |  N = 113.4k</text>
<rect x="474" y="136" width="18" height="18" rx="2" fill="#D55E00"/>
<text x="503.0" y="150.0" text-anchor="start" font-family="Arial, sans-serif" font-size="15" font-weight="400" fill="#1F2937">Emigrants  |  N = 152.9k</text>
<rect x="894" y="136" width="18" height="18" rx="2" fill="#6B7280"/>
<text x="923.0" y="150.0" text-anchor="start" font-family="Arial, sans-serif" font-size="15" font-weight="400" fill="#1F2937">Stayers  |  N = 8,472.2k</text>
<text x="54.0" y="208.0" text-anchor="start" font-family="Arial, sans-serif" font-size="17" font-weight="600" fill="#1F2937">Age</text>
<line x1="108.0" y1="481.0" x2="690.0" y2="481.0" stroke="#E5E7EB" stroke-width="1"/>
<text x="100.0" y="485.0" text-anchor="end" font-family="Arial, sans-serif" font-size="11" font-weight="400" fill="#6B7280">0%</text>
<line x1="108.0" y1="417.8" x2="690.0" y2="417.8" stroke="#E5E7EB" stroke-width="1"/>
<text x="100.0" y="421.8" text-anchor="end" font-family="Arial, sans-serif" font-size="11" font-weight="400" fill="#6B7280">7.5%</text>
<line x1="108.0" y1="354.5" x2="690.0" y2="354.5" stroke="#E5E7EB" stroke-width="1"/>
<text x="100.0" y="358.5" text-anchor="end" font-family="Arial, sans-serif" font-size="11" font-weight="400" fill="#6B7280">15%</text>
<line x1="108.0" y1="291.2" x2="690.0" y2="291.2" stroke="#E5E7EB" stroke-width="1"/>
<text x="100.0" y="295.2" text-anchor="end" font-family="Arial, sans-serif" font-size="11" font-weight="400" fill="#6B7280">22.5%</text>
<line x1="108.0" y1="228.0" x2="690.0" y2="228.0" stroke="#E5E7EB" stroke-width="1"/>
<text x="100.0" y="232.0" text-anchor="end" font-family="Arial, sans-serif" font-size="11" font-weight="400" fill="#6B7280">30%</text>
<line x1="108.0" y1="228.0" x2="108.0" y2="481.0" stroke="#9CA3AF"/>
<line x1="108.0" y1="481.0" x2="690.0" y2="481.0" stroke="#9CA3AF"/>
<rect x="117.1" y="306.6" width="20.0" height="174.4" fill="#0072B2" opacity="0.92"><title>Immigrants: 20.7%</title></rect>
<rect x="139.6" y="323.7" width="20.0" height="157.3" fill="#D55E00" opacity="0.92"><title>Emigrants: 18.6%</title></rect>
<rect x="162.0" y="318.4" width="20.0" height="162.6" fill="#6B7280" opacity="0.92"><title>Stayers: 19.3%</title></rect>
<text x="149.6" y="499.0" text-anchor="middle" font-family="Arial, sans-serif" font-size="11" fill="#374151"><tspan x="149.6" dy="0">5-14</tspan></text>
<rect x="200.3" y="266.6" width="20.0" height="214.4" fill="#0072B2" opacity="0.92"><title>Immigrants: 25.4%</title></rect>
<rect x="222.7" y="278.0" width="20.0" height="203.0" fill="#D55E00" opacity="0.92"><title>Emigrants: 24.1%</title></rect>
<rect x="245.2" y="321.2" width="20.0" height="159.8" fill="#6B7280" opacity="0.92"><title>Stayers: 18.9%</title></rect>
<text x="232.7" y="499.0" text-anchor="middle" font-family="Arial, sans-serif" font-size="11" fill="#374151"><tspan x="232.7" dy="0">15-24</tspan></text>
<rect x="283.4" y="276.6" width="20.0" height="204.4" fill="#0072B2" opacity="0.92"><title>Immigrants: 24.2%</title></rect>
<rect x="305.9" y="265.6" width="20.0" height="215.4" fill="#D55E00" opacity="0.92"><title>Emigrants: 25.5%</title></rect>
<rect x="328.3" y="346.5" width="20.0" height="134.5" fill="#6B7280" opacity="0.92"><title>Stayers: 15.9%</title></rect>
<text x="315.9" y="499.0" text-anchor="middle" font-family="Arial, sans-serif" font-size="11" fill="#374151"><tspan x="315.9" dy="0">25-34</tspan></text>
<rect x="366.6" y="341.3" width="20.0" height="139.7" fill="#0072B2" opacity="0.92"><title>Immigrants: 16.6%</title></rect>
<rect x="389.0" y="340.5" width="20.0" height="140.5" fill="#D55E00" opacity="0.92"><title>Emigrants: 16.7%</title></rect>
<rect x="411.5" y="340.6" width="20.0" height="140.4" fill="#6B7280" opacity="0.92"><title>Stayers: 16.7%</title></rect>
<text x="399.0" y="499.0" text-anchor="middle" font-family="Arial, sans-serif" font-size="11" fill="#374151"><tspan x="399.0" dy="0">35-44</tspan></text>
<rect x="449.7" y="417.8" width="20.0" height="63.2" fill="#0072B2" opacity="0.92"><title>Immigrants: 7.5%</title></rect>
<rect x="472.2" y="413.0" width="20.0" height="68.0" fill="#D55E00" opacity="0.92"><title>Emigrants: 8.1%</title></rect>
<rect x="494.6" y="374.4" width="20.0" height="106.6" fill="#6B7280" opacity="0.92"><title>Stayers: 12.6%</title></rect>
<text x="482.1" y="499.0" text-anchor="middle" font-family="Arial, sans-serif" font-size="11" fill="#374151"><tspan x="482.1" dy="0">45-54</tspan></text>
<rect x="532.9" y="453.0" width="20.0" height="28.0" fill="#0072B2" opacity="0.92"><title>Immigrants: 3.3%</title></rect>
<rect x="555.3" y="447.6" width="20.0" height="33.4" fill="#D55E00" opacity="0.92"><title>Emigrants: 4.0%</title></rect>
<rect x="577.8" y="411.4" width="20.0" height="69.6" fill="#6B7280" opacity="0.92"><title>Stayers: 8.3%</title></rect>
<text x="565.3" y="499.0" text-anchor="middle" font-family="Arial, sans-serif" font-size="11" fill="#374151"><tspan x="565.3" dy="0">55-64</tspan></text>
<rect x="616.0" y="461.8" width="20.0" height="19.2" fill="#0072B2" opacity="0.92"><title>Immigrants: 2.3%</title></rect>
<rect x="638.5" y="455.2" width="20.0" height="25.8" fill="#D55E00" opacity="0.92"><title>Emigrants: 3.1%</title></rect>
<rect x="660.9" y="411.2" width="20.0" height="69.8" fill="#6B7280" opacity="0.92"><title>Stayers: 8.3%</title></rect>
<text x="648.4" y="499.0" text-anchor="middle" font-family="Arial, sans-serif" font-size="11" fill="#374151"><tspan x="648.4" dy="0">65+</tspan></text>
<text x="746.0" y="208.0" text-anchor="start" font-family="Arial, sans-serif" font-size="17" font-weight="600" fill="#1F2937">Income rank</text>
<line x1="800.0" y1="481.0" x2="1382.0" y2="481.0" stroke="#E5E7EB" stroke-width="1"/>
<text x="792.0" y="485.0" text-anchor="end" font-family="Arial, sans-serif" font-size="11" font-weight="400" fill="#6B7280">0%</text>
<line x1="800.0" y1="417.8" x2="1382.0" y2="417.8" stroke="#E5E7EB" stroke-width="1"/>
<text x="792.0" y="421.8" text-anchor="end" font-family="Arial, sans-serif" font-size="11" font-weight="400" fill="#6B7280">7.5%</text>
<line x1="800.0" y1="354.5" x2="1382.0" y2="354.5" stroke="#E5E7EB" stroke-width="1"/>
<text x="792.0" y="358.5" text-anchor="end" font-family="Arial, sans-serif" font-size="11" font-weight="400" fill="#6B7280">15%</text>
<line x1="800.0" y1="291.2" x2="1382.0" y2="291.2" stroke="#E5E7EB" stroke-width="1"/>
<text x="792.0" y="295.2" text-anchor="end" font-family="Arial, sans-serif" font-size="11" font-weight="400" fill="#6B7280">22.5%</text>
<line x1="800.0" y1="228.0" x2="1382.0" y2="228.0" stroke="#E5E7EB" stroke-width="1"/>
<text x="792.0" y="232.0" text-anchor="end" font-family="Arial, sans-serif" font-size="11" font-weight="400" fill="#6B7280">30%</text>
<line x1="800.0" y1="228.0" x2="800.0" y2="481.0" stroke="#9CA3AF"/>
<line x1="800.0" y1="481.0" x2="1382.0" y2="481.0" stroke="#9CA3AF"/>
<rect x="810.7" y="235.3" width="23.3" height="245.7" fill="#0072B2" opacity="0.92"><title>Immigrants: 29.1%</title></rect>
<rect x="836.9" y="238.6" width="23.3" height="242.4" fill="#D55E00" opacity="0.92"><title>Emigrants: 28.7%</title></rect>
<rect x="863.0" y="245.6" width="23.3" height="235.4" fill="#6B7280" opacity="0.92"><title>Stayers: 27.9%</title></rect>
<text x="848.5" y="499.0" text-anchor="middle" font-family="Arial, sans-serif" font-size="11" fill="#374151"><tspan x="848.5" dy="0">No</tspan><tspan x="848.5" dy="13">income</tspan></text>
<rect x="907.7" y="395.7" width="23.3" height="85.3" fill="#0072B2" opacity="0.92"><title>Immigrants: 10.1%</title></rect>
<rect x="933.9" y="399.2" width="23.3" height="81.8" fill="#D55E00" opacity="0.92"><title>Emigrants: 9.7%</title></rect>
<rect x="960.0" y="333.6" width="23.3" height="147.4" fill="#6B7280" opacity="0.92"><title>Stayers: 17.5%</title></rect>
<text x="945.5" y="499.0" text-anchor="middle" font-family="Arial, sans-serif" font-size="11" fill="#374151"><tspan x="945.5" dy="0">Q1</tspan></text>
<rect x="1004.7" y="425.5" width="23.3" height="55.5" fill="#0072B2" opacity="0.92"><title>Immigrants: 6.6%</title></rect>
<rect x="1030.9" y="438.5" width="23.3" height="42.5" fill="#D55E00" opacity="0.92"><title>Emigrants: 5.0%</title></rect>
<rect x="1057.0" y="424.6" width="23.3" height="56.4" fill="#6B7280" opacity="0.92"><title>Stayers: 6.7%</title></rect>
<text x="1042.5" y="499.0" text-anchor="middle" font-family="Arial, sans-serif" font-size="11" fill="#374151"><tspan x="1042.5" dy="0">Q2</tspan></text>
<rect x="1101.7" y="337.6" width="23.3" height="143.4" fill="#0072B2" opacity="0.92"><title>Immigrants: 17.0%</title></rect>
<rect x="1127.9" y="359.3" width="23.3" height="121.7" fill="#D55E00" opacity="0.92"><title>Emigrants: 14.4%</title></rect>
<rect x="1154.1" y="341.7" width="23.3" height="139.3" fill="#6B7280" opacity="0.92"><title>Stayers: 16.5%</title></rect>
<text x="1139.5" y="499.0" text-anchor="middle" font-family="Arial, sans-serif" font-size="11" fill="#374151"><tspan x="1139.5" dy="0">Q3</tspan></text>
<rect x="1198.7" y="351.5" width="23.3" height="129.5" fill="#0072B2" opacity="0.92"><title>Immigrants: 15.4%</title></rect>
<rect x="1224.9" y="343.3" width="23.3" height="137.7" fill="#D55E00" opacity="0.92"><title>Emigrants: 16.3%</title></rect>
<rect x="1251.1" y="346.7" width="23.3" height="134.3" fill="#6B7280" opacity="0.92"><title>Stayers: 15.9%</title></rect>
<text x="1236.5" y="499.0" text-anchor="middle" font-family="Arial, sans-serif" font-size="11" fill="#374151"><tspan x="1236.5" dy="0">Q4</tspan></text>
<rect x="1295.7" y="297.0" width="23.3" height="184.0" fill="#0072B2" opacity="0.92"><title>Immigrants: 21.8%</title></rect>
<rect x="1321.9" y="263.8" width="23.3" height="217.2" fill="#D55E00" opacity="0.92"><title>Emigrants: 25.7%</title></rect>
<rect x="1348.1" y="350.4" width="23.3" height="130.6" fill="#6B7280" opacity="0.92"><title>Stayers: 15.5%</title></rect>
<text x="1333.5" y="499.0" text-anchor="middle" font-family="Arial, sans-serif" font-size="11" fill="#374151"><tspan x="1333.5" dy="0">Q5</tspan></text>
<text x="54.0" y="583.0" text-anchor="start" font-family="Arial, sans-serif" font-size="17" font-weight="600" fill="#1F2937">Sex</text>
<line x1="108.0" y1="856.0" x2="690.0" y2="856.0" stroke="#E5E7EB" stroke-width="1"/>
<text x="100.0" y="860.0" text-anchor="end" font-family="Arial, sans-serif" font-size="11" font-weight="400" fill="#6B7280">0%</text>
<line x1="108.0" y1="792.8" x2="690.0" y2="792.8" stroke="#E5E7EB" stroke-width="1"/>
<text x="100.0" y="796.8" text-anchor="end" font-family="Arial, sans-serif" font-size="11" font-weight="400" fill="#6B7280">15%</text>
<line x1="108.0" y1="729.5" x2="690.0" y2="729.5" stroke="#E5E7EB" stroke-width="1"/>
<text x="100.0" y="733.5" text-anchor="end" font-family="Arial, sans-serif" font-size="11" font-weight="400" fill="#6B7280">30%</text>
<line x1="108.0" y1="666.2" x2="690.0" y2="666.2" stroke="#E5E7EB" stroke-width="1"/>
<text x="100.0" y="670.2" text-anchor="end" font-family="Arial, sans-serif" font-size="11" font-weight="400" fill="#6B7280">45%</text>
<line x1="108.0" y1="603.0" x2="690.0" y2="603.0" stroke="#E5E7EB" stroke-width="1"/>
<text x="100.0" y="607.0" text-anchor="end" font-family="Arial, sans-serif" font-size="11" font-weight="400" fill="#6B7280">60%</text>
<line x1="108.0" y1="603.0" x2="108.0" y2="856.0" stroke="#9CA3AF"/>
<line x1="108.0" y1="856.0" x2="690.0" y2="856.0" stroke="#9CA3AF"/>
<rect x="140.0" y="647.6" width="69.8" height="208.4" fill="#0072B2" opacity="0.92"><title>Immigrants: 49.4%</title></rect>
<rect x="218.6" y="645.0" width="69.8" height="211.0" fill="#D55E00" opacity="0.92"><title>Emigrants: 50.0%</title></rect>
<rect x="297.1" y="640.1" width="69.8" height="215.9" fill="#6B7280" opacity="0.92"><title>Stayers: 51.2%</title></rect>
<text x="253.5" y="874.0" text-anchor="middle" font-family="Arial, sans-serif" font-size="11" fill="#374151"><tspan x="253.5" dy="0">Women</tspan></text>
<rect x="431.0" y="642.7" width="69.8" height="213.3" fill="#0072B2" opacity="0.92"><title>Immigrants: 50.6%</title></rect>
<rect x="509.6" y="645.3" width="69.8" height="210.7" fill="#D55E00" opacity="0.92"><title>Emigrants: 50.0%</title></rect>
<rect x="588.1" y="650.2" width="69.8" height="205.8" fill="#6B7280" opacity="0.92"><title>Stayers: 48.8%</title></rect>
<text x="544.5" y="874.0" text-anchor="middle" font-family="Arial, sans-serif" font-size="11" fill="#374151"><tspan x="544.5" dy="0">Men</tspan></text>
<text x="746.0" y="583.0" text-anchor="start" font-family="Arial, sans-serif" font-size="17" font-weight="600" fill="#1F2937">Literacy (age 15+)</text>
<line x1="800.0" y1="856.0" x2="1382.0" y2="856.0" stroke="#E5E7EB" stroke-width="1"/>
<text x="792.0" y="860.0" text-anchor="end" font-family="Arial, sans-serif" font-size="11" font-weight="400" fill="#6B7280">0%</text>
<line x1="800.0" y1="792.8" x2="1382.0" y2="792.8" stroke="#E5E7EB" stroke-width="1"/>
<text x="792.0" y="796.8" text-anchor="end" font-family="Arial, sans-serif" font-size="11" font-weight="400" fill="#6B7280">25%</text>
<line x1="800.0" y1="729.5" x2="1382.0" y2="729.5" stroke="#E5E7EB" stroke-width="1"/>
<text x="792.0" y="733.5" text-anchor="end" font-family="Arial, sans-serif" font-size="11" font-weight="400" fill="#6B7280">50%</text>
<line x1="800.0" y1="666.2" x2="1382.0" y2="666.2" stroke="#E5E7EB" stroke-width="1"/>
<text x="792.0" y="670.2" text-anchor="end" font-family="Arial, sans-serif" font-size="11" font-weight="400" fill="#6B7280">75%</text>
<line x1="800.0" y1="603.0" x2="1382.0" y2="603.0" stroke="#E5E7EB" stroke-width="1"/>
<text x="792.0" y="607.0" text-anchor="end" font-family="Arial, sans-serif" font-size="11" font-weight="400" fill="#6B7280">100%</text>
<line x1="800.0" y1="603.0" x2="800.0" y2="856.0" stroke="#9CA3AF"/>
<line x1="800.0" y1="856.0" x2="1382.0" y2="856.0" stroke="#9CA3AF"/>
<rect x="832.0" y="849.8" width="69.8" height="6.2" fill="#0072B2" opacity="0.92"><title>Immigrants: 2.4%</title></rect>
<rect x="910.6" y="848.1" width="69.8" height="7.9" fill="#D55E00" opacity="0.92"><title>Emigrants: 3.1%</title></rect>
<rect x="989.1" y="839.6" width="69.8" height="16.4" fill="#6B7280" opacity="0.92"><title>Stayers: 6.5%</title></rect>
<text x="945.5" y="874.0" text-anchor="middle" font-family="Arial, sans-serif" font-size="11" fill="#374151"><tspan x="945.5" dy="0">Not</tspan><tspan x="945.5" dy="13">literate</tspan></text>
<rect x="1123.0" y="609.2" width="69.8" height="246.8" fill="#0072B2" opacity="0.92"><title>Immigrants: 97.6%</title></rect>
<rect x="1201.6" y="610.9" width="69.8" height="245.1" fill="#D55E00" opacity="0.92"><title>Emigrants: 96.9%</title></rect>
<rect x="1280.2" y="619.4" width="69.8" height="236.6" fill="#6B7280" opacity="0.92"><title>Stayers: 93.5%</title></rect>
<text x="1236.5" y="874.0" text-anchor="middle" font-family="Arial, sans-serif" font-size="11" fill="#374151"><tspan x="1236.5" dy="0">Literate</tspan></text>
<text x="54.0" y="958.0" text-anchor="start" font-family="Arial, sans-serif" font-size="17" font-weight="600" fill="#1F2937">Years of schooling (age 15+)</text>
<line x1="108.0" y1="1231.0" x2="690.0" y2="1231.0" stroke="#E5E7EB" stroke-width="1"/>
<text x="100.0" y="1235.0" text-anchor="end" font-family="Arial, sans-serif" font-size="11" font-weight="400" fill="#6B7280">0%</text>
<line x1="108.0" y1="1167.8" x2="690.0" y2="1167.8" stroke="#E5E7EB" stroke-width="1"/>
<text x="100.0" y="1171.8" text-anchor="end" font-family="Arial, sans-serif" font-size="11" font-weight="400" fill="#6B7280">10%</text>
<line x1="108.0" y1="1104.5" x2="690.0" y2="1104.5" stroke="#E5E7EB" stroke-width="1"/>
<text x="100.0" y="1108.5" text-anchor="end" font-family="Arial, sans-serif" font-size="11" font-weight="400" fill="#6B7280">20%</text>
<line x1="108.0" y1="1041.2" x2="690.0" y2="1041.2" stroke="#E5E7EB" stroke-width="1"/>
<text x="100.0" y="1045.2" text-anchor="end" font-family="Arial, sans-serif" font-size="11" font-weight="400" fill="#6B7280">30%</text>
<line x1="108.0" y1="978.0" x2="690.0" y2="978.0" stroke="#E5E7EB" stroke-width="1"/>
<text x="100.0" y="982.0" text-anchor="end" font-family="Arial, sans-serif" font-size="11" font-weight="400" fill="#6B7280">40%</text>
<line x1="108.0" y1="978.0" x2="108.0" y2="1231.0" stroke="#9CA3AF"/>
<line x1="108.0" y1="1231.0" x2="690.0" y2="1231.0" stroke="#9CA3AF"/>
<rect x="118.7" y="1216.7" width="23.3" height="14.3" fill="#0072B2" opacity="0.92"><title>Immigrants: 2.3%</title></rect>
<rect x="144.9" y="1212.1" width="23.3" height="18.9" fill="#D55E00" opacity="0.92"><title>Emigrants: 3.0%</title></rect>
<rect x="171.1" y="1191.7" width="23.3" height="39.3" fill="#6B7280" opacity="0.92"><title>Stayers: 6.2%</title></rect>
<text x="156.5" y="1249.0" text-anchor="middle" font-family="Arial, sans-serif" font-size="11" fill="#374151"><tspan x="156.5" dy="0">0</tspan></text>
<rect x="215.7" y="1187.5" width="23.3" height="43.5" fill="#0072B2" opacity="0.92"><title>Immigrants: 6.9%</title></rect>
<rect x="241.9" y="1185.6" width="23.3" height="45.4" fill="#D55E00" opacity="0.92"><title>Emigrants: 7.2%</title></rect>
<rect x="268.1" y="1153.0" width="23.3" height="78.0" fill="#6B7280" opacity="0.92"><title>Stayers: 12.3%</title></rect>
<text x="253.5" y="1249.0" text-anchor="middle" font-family="Arial, sans-serif" font-size="11" fill="#374151"><tspan x="253.5" dy="0">1-3</tspan></text>
<rect x="312.7" y="1044.0" width="23.3" height="187.0" fill="#0072B2" opacity="0.92"><title>Immigrants: 29.6%</title></rect>
<rect x="338.9" y="1074.1" width="23.3" height="156.9" fill="#D55E00" opacity="0.92"><title>Emigrants: 24.8%</title></rect>
<rect x="365.1" y="987.1" width="23.3" height="243.9" fill="#6B7280" opacity="0.92"><title>Stayers: 38.6%</title></rect>
<text x="350.5" y="1249.0" text-anchor="middle" font-family="Arial, sans-serif" font-size="11" fill="#374151"><tspan x="350.5" dy="0">4-7</tspan></text>
<rect x="409.7" y="1095.8" width="23.3" height="135.2" fill="#0072B2" opacity="0.92"><title>Immigrants: 21.4%</title></rect>
<rect x="435.9" y="1097.1" width="23.3" height="133.9" fill="#D55E00" opacity="0.92"><title>Emigrants: 21.2%</title></rect>
<rect x="462.1" y="1111.0" width="23.3" height="120.0" fill="#6B7280" opacity="0.92"><title>Stayers: 19.0%</title></rect>
<text x="447.5" y="1249.0" text-anchor="middle" font-family="Arial, sans-serif" font-size="11" fill="#374151"><tspan x="447.5" dy="0">8-10</tspan></text>
<rect x="506.7" y="1052.8" width="23.3" height="178.2" fill="#0072B2" opacity="0.92"><title>Immigrants: 28.2%</title></rect>
<rect x="532.9" y="1041.5" width="23.3" height="189.5" fill="#D55E00" opacity="0.92"><title>Emigrants: 30.0%</title></rect>
<rect x="559.1" y="1120.6" width="23.3" height="110.4" fill="#6B7280" opacity="0.92"><title>Stayers: 17.5%</title></rect>
<text x="544.5" y="1249.0" text-anchor="middle" font-family="Arial, sans-serif" font-size="11" fill="#374151"><tspan x="544.5" dy="0">11-14</tspan></text>
<rect x="603.7" y="1156.7" width="23.3" height="74.3" fill="#0072B2" opacity="0.92"><title>Immigrants: 11.7%</title></rect>
<rect x="629.9" y="1143.1" width="23.3" height="87.9" fill="#D55E00" opacity="0.92"><title>Emigrants: 13.9%</title></rect>
<rect x="656.0" y="1190.1" width="23.3" height="40.9" fill="#6B7280" opacity="0.92"><title>Stayers: 6.5%</title></rect>
<text x="641.5" y="1249.0" text-anchor="middle" font-family="Arial, sans-serif" font-size="11" fill="#374151"><tspan x="641.5" dy="0">15+</tspan></text>
<text x="746.0" y="958.0" text-anchor="start" font-family="Arial, sans-serif" font-size="17" font-weight="600" fill="#1F2937">Household size</text>
<line x1="800.0" y1="1231.0" x2="1382.0" y2="1231.0" stroke="#E5E7EB" stroke-width="1"/>
<text x="792.0" y="1235.0" text-anchor="end" font-family="Arial, sans-serif" font-size="11" font-weight="400" fill="#6B7280">0%</text>
<line x1="800.0" y1="1167.8" x2="1382.0" y2="1167.8" stroke="#E5E7EB" stroke-width="1"/>
<text x="792.0" y="1171.8" text-anchor="end" font-family="Arial, sans-serif" font-size="11" font-weight="400" fill="#6B7280">7.5%</text>
<line x1="800.0" y1="1104.5" x2="1382.0" y2="1104.5" stroke="#E5E7EB" stroke-width="1"/>
<text x="792.0" y="1108.5" text-anchor="end" font-family="Arial, sans-serif" font-size="11" font-weight="400" fill="#6B7280">15%</text>
<line x1="800.0" y1="1041.2" x2="1382.0" y2="1041.2" stroke="#E5E7EB" stroke-width="1"/>
<text x="792.0" y="1045.2" text-anchor="end" font-family="Arial, sans-serif" font-size="11" font-weight="400" fill="#6B7280">22.5%</text>
<line x1="800.0" y1="978.0" x2="1382.0" y2="978.0" stroke="#E5E7EB" stroke-width="1"/>
<text x="792.0" y="982.0" text-anchor="end" font-family="Arial, sans-serif" font-size="11" font-weight="400" fill="#6B7280">30%</text>
<line x1="800.0" y1="978.0" x2="800.0" y2="1231.0" stroke="#9CA3AF"/>
<line x1="800.0" y1="1231.0" x2="1382.0" y2="1231.0" stroke="#9CA3AF"/>
<rect x="810.7" y="1197.8" width="23.3" height="33.2" fill="#0072B2" opacity="0.92"><title>Immigrants: 3.9%</title></rect>
<rect x="836.9" y="1187.8" width="23.3" height="43.2" fill="#D55E00" opacity="0.92"><title>Emigrants: 5.1%</title></rect>
<rect x="863.0" y="1203.7" width="23.3" height="27.3" fill="#6B7280" opacity="0.92"><title>Stayers: 3.2%</title></rect>
<text x="848.5" y="1249.0" text-anchor="middle" font-family="Arial, sans-serif" font-size="11" fill="#374151"><tspan x="848.5" dy="0">1</tspan></text>
<rect x="907.7" y="1119.0" width="23.3" height="112.0" fill="#0072B2" opacity="0.92"><title>Immigrants: 13.3%</title></rect>
<rect x="933.9" y="1090.8" width="23.3" height="140.2" fill="#D55E00" opacity="0.92"><title>Emigrants: 16.6%</title></rect>
<rect x="960.0" y="1120.7" width="23.3" height="110.3" fill="#6B7280" opacity="0.92"><title>Stayers: 13.1%</title></rect>
<text x="945.5" y="1249.0" text-anchor="middle" font-family="Arial, sans-serif" font-size="11" fill="#374151"><tspan x="945.5" dy="0">2</tspan></text>
<rect x="1004.7" y="1035.8" width="23.3" height="195.2" fill="#0072B2" opacity="0.92"><title>Immigrants: 23.1%</title></rect>
<rect x="1030.9" y="1046.5" width="23.3" height="184.5" fill="#D55E00" opacity="0.92"><title>Emigrants: 21.9%</title></rect>
<rect x="1057.0" y="1041.6" width="23.3" height="189.4" fill="#6B7280" opacity="0.92"><title>Stayers: 22.5%</title></rect>
<text x="1042.5" y="1249.0" text-anchor="middle" font-family="Arial, sans-serif" font-size="11" fill="#374151"><tspan x="1042.5" dy="0">3</tspan></text>
<rect x="1101.7" y="1009.9" width="23.3" height="221.1" fill="#0072B2" opacity="0.92"><title>Immigrants: 26.2%</title></rect>
<rect x="1127.9" y="1015.0" width="23.3" height="216.0" fill="#D55E00" opacity="0.92"><title>Emigrants: 25.6%</title></rect>
<rect x="1154.1" y="996.0" width="23.3" height="235.0" fill="#6B7280" opacity="0.92"><title>Stayers: 27.9%</title></rect>
<text x="1139.5" y="1249.0" text-anchor="middle" font-family="Arial, sans-serif" font-size="11" fill="#374151"><tspan x="1139.5" dy="0">4</tspan></text>
<rect x="1198.7" y="1074.3" width="23.3" height="156.7" fill="#0072B2" opacity="0.92"><title>Immigrants: 18.6%</title></rect>
<rect x="1224.9" y="1085.4" width="23.3" height="145.6" fill="#D55E00" opacity="0.92"><title>Emigrants: 17.3%</title></rect>
<rect x="1251.1" y="1086.5" width="23.3" height="144.5" fill="#6B7280" opacity="0.92"><title>Stayers: 17.1%</title></rect>
<text x="1236.5" y="1249.0" text-anchor="middle" font-family="Arial, sans-serif" font-size="11" fill="#374151"><tspan x="1236.5" dy="0">5</tspan></text>
<rect x="1295.7" y="1105.9" width="23.3" height="125.1" fill="#0072B2" opacity="0.92"><title>Immigrants: 14.8%</title></rect>
<rect x="1321.9" y="1117.2" width="23.3" height="113.8" fill="#D55E00" opacity="0.92"><title>Emigrants: 13.5%</title></rect>
<rect x="1348.1" y="1094.2" width="23.3" height="136.8" fill="#6B7280" opacity="0.92"><title>Stayers: 16.2%</title></rect>
<text x="1333.5" y="1249.0" text-anchor="middle" font-family="Arial, sans-serif" font-size="11" fill="#374151"><tspan x="1333.5" dy="0">6+</tspan></text>
<text x="54.0" y="1333.0" text-anchor="start" font-family="Arial, sans-serif" font-size="17" font-weight="600" fill="#1F2937">Rooms in dwelling</text>
<line x1="108.0" y1="1606.0" x2="690.0" y2="1606.0" stroke="#E5E7EB" stroke-width="1"/>
<text x="100.0" y="1610.0" text-anchor="end" font-family="Arial, sans-serif" font-size="11" font-weight="400" fill="#6B7280">0%</text>
<line x1="108.0" y1="1542.8" x2="690.0" y2="1542.8" stroke="#E5E7EB" stroke-width="1"/>
<text x="100.0" y="1546.8" text-anchor="end" font-family="Arial, sans-serif" font-size="11" font-weight="400" fill="#6B7280">17.5%</text>
<line x1="108.0" y1="1479.5" x2="690.0" y2="1479.5" stroke="#E5E7EB" stroke-width="1"/>
<text x="100.0" y="1483.5" text-anchor="end" font-family="Arial, sans-serif" font-size="11" font-weight="400" fill="#6B7280">35%</text>
<line x1="108.0" y1="1416.2" x2="690.0" y2="1416.2" stroke="#E5E7EB" stroke-width="1"/>
<text x="100.0" y="1420.2" text-anchor="end" font-family="Arial, sans-serif" font-size="11" font-weight="400" fill="#6B7280">52.5%</text>
<line x1="108.0" y1="1353.0" x2="690.0" y2="1353.0" stroke="#E5E7EB" stroke-width="1"/>
<text x="100.0" y="1357.0" text-anchor="end" font-family="Arial, sans-serif" font-size="11" font-weight="400" fill="#6B7280">70%</text>
<line x1="108.0" y1="1353.0" x2="108.0" y2="1606.0" stroke="#9CA3AF"/>
<line x1="108.0" y1="1606.0" x2="690.0" y2="1606.0" stroke="#9CA3AF"/>
<rect x="118.7" y="1603.7" width="23.3" height="2.3" fill="#0072B2" opacity="0.92"><title>Immigrants: 0.6%</title></rect>
<rect x="144.9" y="1604.4" width="23.3" height="1.6" fill="#D55E00" opacity="0.92"><title>Emigrants: 0.5%</title></rect>
<rect x="171.1" y="1604.4" width="23.3" height="1.6" fill="#6B7280" opacity="0.92"><title>Stayers: 0.4%</title></rect>
<text x="156.5" y="1624.0" text-anchor="middle" font-family="Arial, sans-serif" font-size="11" fill="#374151"><tspan x="156.5" dy="0">1</tspan></text>
<rect x="215.7" y="1594.6" width="23.3" height="11.4" fill="#0072B2" opacity="0.92"><title>Immigrants: 3.1%</title></rect>
<rect x="241.9" y="1597.1" width="23.3" height="8.9" fill="#D55E00" opacity="0.92"><title>Emigrants: 2.5%</title></rect>
<rect x="268.1" y="1596.9" width="23.3" height="9.1" fill="#6B7280" opacity="0.92"><title>Stayers: 2.5%</title></rect>
<text x="253.5" y="1624.0" text-anchor="middle" font-family="Arial, sans-serif" font-size="11" fill="#374151"><tspan x="253.5" dy="0">2</tspan></text>
<rect x="312.7" y="1579.2" width="23.3" height="26.8" fill="#0072B2" opacity="0.92"><title>Immigrants: 7.4%</title></rect>
<rect x="338.9" y="1581.8" width="23.3" height="24.2" fill="#D55E00" opacity="0.92"><title>Emigrants: 6.7%</title></rect>
<rect x="365.1" y="1585.7" width="23.3" height="20.3" fill="#6B7280" opacity="0.92"><title>Stayers: 5.6%</title></rect>
<text x="350.5" y="1624.0" text-anchor="middle" font-family="Arial, sans-serif" font-size="11" fill="#374151"><tspan x="350.5" dy="0">3</tspan></text>
<rect x="409.7" y="1549.3" width="23.3" height="56.7" fill="#0072B2" opacity="0.92"><title>Immigrants: 15.7%</title></rect>
<rect x="435.9" y="1566.1" width="23.3" height="39.9" fill="#D55E00" opacity="0.92"><title>Emigrants: 11.0%</title></rect>
<rect x="462.1" y="1565.0" width="23.3" height="41.0" fill="#6B7280" opacity="0.92"><title>Stayers: 11.3%</title></rect>
<text x="447.5" y="1624.0" text-anchor="middle" font-family="Arial, sans-serif" font-size="11" fill="#374151"><tspan x="447.5" dy="0">4</tspan></text>
<rect x="506.7" y="1526.9" width="23.3" height="79.1" fill="#0072B2" opacity="0.92"><title>Immigrants: 21.9%</title></rect>
<rect x="532.9" y="1539.6" width="23.3" height="66.4" fill="#D55E00" opacity="0.92"><title>Emigrants: 18.4%</title></rect>
<rect x="559.1" y="1530.2" width="23.3" height="75.8" fill="#6B7280" opacity="0.92"><title>Stayers: 21.0%</title></rect>
<text x="544.5" y="1624.0" text-anchor="middle" font-family="Arial, sans-serif" font-size="11" fill="#374151"><tspan x="544.5" dy="0">5</tspan></text>
<rect x="603.7" y="1420.9" width="23.3" height="185.1" fill="#0072B2" opacity="0.92"><title>Immigrants: 51.2%</title></rect>
<rect x="629.9" y="1385.7" width="23.3" height="220.3" fill="#D55E00" opacity="0.92"><title>Emigrants: 61.0%</title></rect>
<rect x="656.0" y="1392.4" width="23.3" height="213.6" fill="#6B7280" opacity="0.92"><title>Stayers: 59.1%</title></rect>
<text x="641.5" y="1624.0" text-anchor="middle" font-family="Arial, sans-serif" font-size="11" fill="#374151"><tspan x="641.5" dy="0">6+</tspan></text>
<text x="746.0" y="1333.0" text-anchor="start" font-family="Arial, sans-serif" font-size="17" font-weight="600" fill="#1F2937">Refrigerator in dwelling</text>
<line x1="800.0" y1="1606.0" x2="1382.0" y2="1606.0" stroke="#E5E7EB" stroke-width="1"/>
<text x="792.0" y="1610.0" text-anchor="end" font-family="Arial, sans-serif" font-size="11" font-weight="400" fill="#6B7280">0%</text>
<line x1="800.0" y1="1542.8" x2="1382.0" y2="1542.8" stroke="#E5E7EB" stroke-width="1"/>
<text x="792.0" y="1546.8" text-anchor="end" font-family="Arial, sans-serif" font-size="11" font-weight="400" fill="#6B7280">25%</text>
<line x1="800.0" y1="1479.5" x2="1382.0" y2="1479.5" stroke="#E5E7EB" stroke-width="1"/>
<text x="792.0" y="1483.5" text-anchor="end" font-family="Arial, sans-serif" font-size="11" font-weight="400" fill="#6B7280">50%</text>
<line x1="800.0" y1="1416.2" x2="1382.0" y2="1416.2" stroke="#E5E7EB" stroke-width="1"/>
<text x="792.0" y="1420.2" text-anchor="end" font-family="Arial, sans-serif" font-size="11" font-weight="400" fill="#6B7280">75%</text>
<line x1="800.0" y1="1353.0" x2="1382.0" y2="1353.0" stroke="#E5E7EB" stroke-width="1"/>
<text x="792.0" y="1357.0" text-anchor="end" font-family="Arial, sans-serif" font-size="11" font-weight="400" fill="#6B7280">100%</text>
<line x1="800.0" y1="1353.0" x2="800.0" y2="1606.0" stroke="#9CA3AF"/>
<line x1="800.0" y1="1606.0" x2="1382.0" y2="1606.0" stroke="#9CA3AF"/>
<rect x="832.0" y="1591.9" width="69.8" height="14.1" fill="#0072B2" opacity="0.92"><title>Immigrants: 5.6%</title></rect>
<rect x="910.6" y="1592.9" width="69.8" height="13.1" fill="#D55E00" opacity="0.92"><title>Emigrants: 5.2%</title></rect>
<rect x="989.1" y="1591.1" width="69.8" height="14.9" fill="#6B7280" opacity="0.92"><title>Stayers: 5.9%</title></rect>
<text x="945.5" y="1624.0" text-anchor="middle" font-family="Arial, sans-serif" font-size="11" fill="#374151"><tspan x="945.5" dy="0">No</tspan></text>
<rect x="1123.0" y="1367.1" width="69.8" height="238.9" fill="#0072B2" opacity="0.92"><title>Immigrants: 94.4%</title></rect>
<rect x="1201.6" y="1366.1" width="69.8" height="239.9" fill="#D55E00" opacity="0.92"><title>Emigrants: 94.8%</title></rect>
<rect x="1280.2" y="1367.9" width="69.8" height="238.1" fill="#6B7280" opacity="0.92"><title>Stayers: 94.1%</title></rect>
<text x="1236.5" y="1624.0" text-anchor="middle" font-family="Arial, sans-serif" font-size="11" fill="#374151"><tspan x="1236.5" dy="0">Yes</tspan></text>
<text x="54.0" y="1692.0" text-anchor="start" font-family="Arial, sans-serif" font-size="13" font-weight="400" fill="#4B5563">Bars are percentages within migration group and panel; legend sizes use census person weights.</text>
<text x="54.0" y="1713.0" text-anchor="start" font-family="Arial, sans-serif" font-size="13" font-weight="400" fill="#4B5563">Income: no income plus national weighted quintiles among positive-income adults (1980 uses main-job income).</text>
</svg>