<svg xmlns="http://www.w3.org/2000/svg" width="1400" height="1730" viewBox="0 0 1400 1730" role="img">
<title>CE migration-group socioeconomic profile, 1991</title>
<rect width="100%" height="100%" fill="#FFFFFF"/>
<text x="54.0" y="54.0" text-anchor="start" font-family="Arial, sans-serif" font-size="29" font-weight="600" fill="#1F2937">CE: immigrants, emigrants, and stayers</text>
<text x="54.0" y="84.0" text-anchor="start" font-family="Arial, sans-serif" font-size="19" font-weight="400" fill="#374151">1991</text>
<text x="54.0" y="111.0" text-anchor="start" font-family="Arial, sans-serif" font-size="14" font-weight="400" fill="#6B7280">Five-year state of residence</text>
<rect x="54" y="136" width="18" height="18" rx="2" fill="#0072B2"/>
<text x="83.0" y="150.0" text-anchor="start" font-family="Arial, sans-serif" font-size="15" font-weight="400" fill="#1F2937">Immigrants  |  N = 121.7k</text>
<rect x="474" y="136" width="18" height="18" rx="2" fill="#D55E00"/>
<text x="503.0" y="150.0" text-anchor="start" font-family="Arial, sans-serif" font-size="15" font-weight="400" fill="#1F2937">Emigrants  |  N = 245.2k</text>
<rect x="894" y="136" width="18" height="18" rx="2" fill="#6B7280"/>
<text x="923.0" y="150.0" text-anchor="start" font-family="Arial, sans-serif" font-size="15" font-weight="400" fill="#1F2937">Stayers  |  N = 5,037.0k</text>
<text x="54.0" y="208.0" text-anchor="start" font-family="Arial, sans-serif" font-size="17" font-weight="600" fill="#1F2937">Age</text>
<line x1="108.0" y1="481.0" x2="690.0" y2="481.0" stroke="#E5E7EB" stroke-width="1"/>
<text x="100.0" y="485.0" text-anchor="end" font-family="Arial, sans-serif" font-size="11" font-weight="400" fill="#6B7280">0%</text>
<line x1="108.0" y1="417.8" x2="690.0" y2="417.8" stroke="#E5E7EB" stroke-width="1"/>
<text x="100.0" y="421.8" text-anchor="end" font-family="Arial, sans-serif" font-size="11" font-weight="400" fill="#6B7280">10%</text>
<line x1="108.0" y1="354.5" x2="690.0" y2="354.5" stroke="#E5E7EB" stroke-width="1"/>
<text x="100.0" y="358.5" text-anchor="end" font-family="Arial, sans-serif" font-size="11" font-weight="400" fill="#6B7280">20%</text>
<line x1="108.0" y1="291.2" x2="690.0" y2="291.2" stroke="#E5E7EB" stroke-width="1"/>
<text x="100.0" y="295.2" text-anchor="end" font-family="Arial, sans-serif" font-size="11" font-weight="400" fill="#6B7280">30%</text>
<line x1="108.0" y1="228.0" x2="690.0" y2="228.0" stroke="#E5E7EB" stroke-width="1"/>
<text x="100.0" y="232.0" text-anchor="end" font-family="Arial, sans-serif" font-size="11" font-weight="400" fill="#6B7280">40%</text>
<line x1="108.0" y1="228.0" x2="108.0" y2="481.0" stroke="#9CA3AF"/>
<line x1="108.0" y1="481.0" x2="690.0" y2="481.0" stroke="#9CA3AF"/>
<rect x="117.1" y="303.9" width="20.0" height="177.1" fill="#0072B2" opacity="0.92"><title>Immigrants: 28.0%</title></rect>
<rect x="139.6" y="354.9" width="20.0" height="126.1" fill="#D55E00" opacity="0.92"><title>Emigrants: 19.9%</title></rect>
<rect x="162.0" y="293.8" width="20.0" height="187.2" fill="#6B7280" opacity="0.92"><title>Stayers: 29.6%</title></rect>
<text x="149.6" y="499.0" text-anchor="middle" font-family="Arial, sans-serif" font-size="11" fill="#374151"><tspan x="149.6" dy="0">5-14</tspan></text>
<rect x="200.3" y="331.0" width="20.0" height="150.0" fill="#0072B2" opacity="0.92"><title>Immigrants: 23.7%</title></rect>
<rect x="222.7" y="231.4" width="20.0" height="249.6" fill="#D55E00" opacity="0.92"><title>Emigrants: 39.5%</title></rect>
<rect x="245.2" y="341.8" width="20.0" height="139.2" fill="#6B7280" opacity="0.92"><title>Stayers: 22.0%</title></rect>
<text x="232.7" y="499.0" text-anchor="middle" font-family="Arial, sans-serif" font-size="11" fill="#374151"><tspan x="232.7" dy="0">15-24</tspan></text>
<rect x="283.4" y="333.1" width="20.0" height="147.9" fill="#0072B2" opacity="0.92"><title>Immigrants: 23.4%</title></rect>
<rect x="305.9" y="330.8" width="20.0" height="150.2" fill="#D55E00" opacity="0.92"><title>Emigrants: 23.7%</title></rect>
<rect x="328.3" y="380.6" width="20.0" height="100.4" fill="#6B7280" opacity="0.92"><title>Stayers: 15.9%</title></rect>
<text x="315.9" y="499.0" text-anchor="middle" font-family="Arial, sans-serif" font-size="11" fill="#374151"><tspan x="315.9" dy="0">25-34</tspan></text>
<rect x="366.6" y="394.1" width="20.0" height="86.9" fill="#0072B2" opacity="0.92"><title>Immigrants: 13.7%</title></rect>
<rect x="389.0" y="425.2" width="20.0" height="55.8" fill="#D55E00" opacity="0.92"><title>Emigrants: 8.8%</title></rect>
<rect x="411.5" y="407.3" width="20.0" height="73.7" fill="#6B7280" opacity="0.92"><title>Stayers: 11.7%</title></rect>
<text x="399.0" y="499.0" text-anchor="middle" font-family="Arial, sans-serif" font-size="11" fill="#374151"><tspan x="399.0" dy="0">35-44</tspan></text>
<rect x="449.7" y="443.8" width="20.0" height="37.2" fill="#0072B2" opacity="0.92"><title>Immigrants: 5.9%</title></rect>
<rect x="472.2" y="453.4" width="20.0" height="27.6" fill="#D55E00" opacity="0.92"><title>Emigrants: 4.4%</title></rect>
<rect x="494.6" y="427.6" width="20.0" height="53.4" fill="#6B7280" opacity="0.92"><title>Stayers: 8.4%</title></rect>
<text x="482.1" y="499.0" text-anchor="middle" font-family="Arial, sans-serif" font-size="11" fill="#374151"><tspan x="482.1" dy="0">45-54</tspan></text>
<rect x="532.9" y="462.3" width="20.0" height="18.7" fill="#0072B2" opacity="0.92"><title>Immigrants: 3.0%</title></rect>
<rect x="555.3" y="467.0" width="20.0" height="14.0" fill="#D55E00" opacity="0.92"><title>Emigrants: 2.2%</title></rect>
<rect x="577.8" y="442.7" width="20.0" height="38.3" fill="#6B7280" opacity="0.92"><title>Stayers: 6.1%</title></rect>
<text x="565.3" y="499.0" text-anchor="middle" font-family="Arial, sans-serif" font-size="11" fill="#374151"><tspan x="565.3" dy="0">55-64</tspan></text>
<rect x="616.0" y="466.4" width="20.0" height="14.6" fill="#0072B2" opacity="0.92"><title>Immigrants: 2.3%</title></rect>
<rect x="638.5" y="471.8" width="20.0" height="9.2" fill="#D55E00" opacity="0.92"><title>Emigrants: 1.5%</title></rect>
<rect x="660.9" y="440.7" width="20.0" height="40.3" fill="#6B7280" opacity="0.92"><title>Stayers: 6.4%</title></rect>
<text x="648.4" y="499.0" text-anchor="middle" font-family="Arial, sans-serif" font-size="11" fill="#374151"><tspan x="648.4" dy="0">65+</tspan></text>
<text x="746.0" y="208.0" text-anchor="start" font-family="Arial, sans-serif" font-size="17" font-weight="600" fill="#1F2937">Income rank</text>
<line x1="800.0" y1="481.0" x2="1382.0" y2="481.0" stroke="#E5E7EB" stroke-width="1"/>
<text x="792.0" y="485.0" text-anchor="end" font-family="Arial, sans-serif" font-size="11" font-weight="400" fill="#6B7280">0%</text>
<line x1="800.0" y1="417.8" x2="1382.0" y2="417.8" stroke="#E5E7EB" stroke-width="1"/>
<text x="792.0" y="421.8" text-anchor="end" font-family="Arial, sans-serif" font-size="11" font-weight="400" fill="#6B7280">10%</text>
<line x1="800.0" y1="354.5" x2="1382.0" y2="354.5" stroke="#E5E7EB" stroke-width="1"/>
<text x="792.0" y="358.5" text-anchor="end" font-family="Arial, sans-serif" font-size="11" font-weight="400" fill="#6B7280">20%</text>
<line x1="800.0" y1="291.2" x2="1382.0" y2="291.2" stroke="#E5E7EB" stroke-width="1"/>
<text x="792.0" y="295.2" text-anchor="end" font-family="Arial, sans-serif" font-size="11" font-weight="400" fill="#6B7280">30%</text>
<line x1="800.0" y1="228.0" x2="1382.0" y2="228.0" stroke="#E5E7EB" stroke-width="1"/>
<text x="792.0" y="232.0" text-anchor="end" font-family="Arial, sans-serif" font-size="11" font-weight="400" fill="#6B7280">40%</text>
<line x1="800.0" y1="228.0" x2="800.0" y2="481.0" stroke="#9CA3AF"/>
<line x1="800.0" y1="481.0" x2="1382.0" y2="481.0" stroke="#9CA3AF"/>
<rect x="810.7" y="250.2" width="23.3" height="230.8" fill="#0072B2" opacity="0.92"><title>Immigrants: 36.5%</title></rect>
<rect x="836.9" y="271.1" width="23.3" height="209.9" fill="#D55E00" opacity="0.92"><title>Emigrants: 33.2%</title></rect>
<rect x="863.0" y="233.5" width="23.3" height="247.5" fill="#6B7280" opacity="0.92"><title>Stayers: 39.1%</title></rect>
<text x="848.5" y="499.0" text-anchor="middle" font-family="Arial, sans-serif" font-size="11" fill="#374151"><tspan x="848.5" dy="0">No</tspan><tspan x="848.5" dy="13">income</tspan></text>
<rect x="907.7" y="358.2" width="23.3" height="122.8" fill="#0072B2" opacity="0.92"><title>Immigrants: 19.4%</title></rect>
<rect x="933.9" y="434.7" width="23.3" height="46.3" fill="#D55E00" opacity="0.92"><title>Emigrants: 7.3%</title></rect>
<rect x="960.0" y="313.7" width="23.3" height="167.3" fill="#6B7280" opacity="0.92"><title>Stayers: 26.4%</title></rect>
<text x="945.5" y="499.0" text-anchor="middle" font-family="Arial, sans-serif" font-size="11" fill="#374151"><tspan x="945.5" dy="0">Q1</tspan></text>
<rect x="1004.7" y="384.7" width="23.3" height="96.3" fill="#0072B2" opacity="0.92"><title>Immigrants: 15.2%</title></rect>
<rect x="1030.9" y="395.7" width="23.3" height="85.3" fill="#D55E00" opacity="0.92"><title>Emigrants: 13.5%</title></rect>
<rect x="1057.0" y="383.7" width="23.3" height="97.3" fill="#6B7280" opacity="0.92"><title>Stayers: 15.4%</title></rect>
<text x="1042.5" y="499.0" text-anchor="middle" font-family="Arial, sans-serif" font-size="11" fill="#374151"><tspan x="1042.5" dy="0">Q2</tspan></text>
<rect x="1101.7" y="418.9" width="23.3" height="62.1" fill="#0072B2" opacity="0.92"><title>Immigrants: 9.8%</title></rect>
<rect x="1127.9" y="364.1" width="23.3" height="116.9" fill="#D55E00" opacity="0.92"><title>Emigrants: 18.5%</title></rect>
<rect x="1154.1" y="429.7" width="23.3" height="51.3" fill="#6B7280" opacity="0.92"><title>Stayers: 8.1%</title></rect>
<text x="1139.5" y="499.0" text-anchor="middle" font-family="Arial, sans-serif" font-size="11" fill="#374151"><tspan x="1139.5" dy="0">Q3</tspan></text>
<rect x="1198.7" y="427.4" width="23.3" height="53.6" fill="#0072B2" opacity="0.92"><title>Immigrants: 8.5%</title></rect>
<rect x="1224.9" y="366.0" width="23.3" height="115.0" fill="#D55E00" opacity="0.92"><title>Emigrants: 18.2%</title></rect>
<rect x="1251.1" y="444.2" width="23.3" height="36.8" fill="#6B7280" opacity="0.92"><title>Stayers: 5.8%</title></rect>
<text x="1236.5" y="499.0" text-anchor="middle" font-family="Arial, sans-serif" font-size="11" fill="#374151"><tspan x="1236.5" dy="0">Q4</tspan></text>
<rect x="1295.7" y="414.0" width="23.3" height="67.0" fill="#0072B2" opacity="0.92"><title>Immigrants: 10.6%</title></rect>
<rect x="1321.9" y="421.9" width="23.3" height="59.1" fill="#D55E00" opacity="0.92"><title>Emigrants: 9.3%</title></rect>
<rect x="1348.1" y="448.7" width="23.3" height="32.3" fill="#6B7280" opacity="0.92"><title>Stayers: 5.1%</title></rect>
<text x="1333.5" y="499.0" text-anchor="middle" font-family="Arial, sans-serif" font-size="11" fill="#374151"><tspan x="1333.5" dy="0">Q5</tspan></text>
<text x="54.0" y="583.0" text-anchor="start" font-family="Arial, sans-serif" font-size="17" font-weight="600" fill="#1F2937">Sex</text>
<line x1="108.0" y1="856.0" x2="690.0" y2="856.0" stroke="#E5E7EB" stroke-width="1"/>
<text x="100.0" y="860.0" text-anchor="end" font-family="Arial, sans-serif" font-size="11" font-weight="400" fill="#6B7280">0%</text>
<line x1="108.0" y1="792.8" x2="690.0" y2="792.8" stroke="#E5E7EB" stroke-width="1"/>
<text x="100.0" y="796.8" text-anchor="end" font-family="Arial, sans-serif" font-size="11" font-weight="400" fill="#6B7280">15%</text>
<line x1="108.0" y1="729.5" x2="690.0" y2="729.5" stroke="#E5E7EB" stroke-width="1"/>
<text x="100.0" y="733.5" text-anchor="end" font-family="Arial, sans-serif" font-size="11" font-weight="400" fill="#6B7280">30%</text>
<line x1="108.0" y1="666.2" x2="690.0" y2="666.2" stroke="#E5E7EB" stroke-width="1"/>
<text x="100.0" y="670.2" text-anchor="end" font-family="Arial, sans-serif" font-size="11" font-weight="400" fill="#6B7280">45%</text>
<line x1="108.0" y1="603.0" x2="690.0" y2="603.0" stroke="#E5E7EB" stroke-width="1"/>
<text x="100.0" y="607.0" text-anchor="end" font-family="Arial, sans-serif" font-size="11" font-weight="400" fill="#6B7280">60%</text>
<line x1="108.0" y1="603.0" x2="108.0" y2="856.0" stroke="#9CA3AF"/>
<line x1="108.0" y1="856.0" x2="690.0" y2="856.0" stroke="#9CA3AF"/>
<rect x="140.0" y="645.2" width="69.8" height="210.8" fill="#0072B2" opacity="0.92"><title>Immigrants: 50.0%</title></rect>
<rect x="218.6" y="650.7" width="69.8" height="205.3" fill="#D55E00" opacity="0.92"><title>Emigrants: 48.7%</title></rect>
<rect x="297.1" y="638.4" width="69.8" height="217.6" fill="#6B7280" opacity="0.92"><title>Stayers: 51.6%</title></rect>
<text x="253.5" y="874.0" text-anchor="middle" font-family="Arial, sans-serif" font-size="11" fill="#374151"><tspan x="253.5" dy="0">Women</tspan></text>
<rect x="431.0" y="645.2" width="69.8" height="210.8" fill="#0072B2" opacity="0.92"><title>Immigrants: 50.0%</title></rect>
<rect x="509.6" y="639.7" width="69.8" height="216.3" fill="#D55E00" opacity="0.92"><title>Emigrants: 51.3%</title></rect>
<rect x="588.1" y="652.0" width="69.8" height="204.0" fill="#6B7280" opacity="0.92"><title>Stayers: 48.4%</title></rect>
<text x="544.5" y="874.0" text-anchor="middle" font-family="Arial, sans-serif" font-size="11" fill="#374151"><tspan x="544.5" dy="0">Men</tspan></text>
<text x="746.0" y="583.0" text-anchor="start" font-family="Arial, sans-serif" font-size="17" font-weight="600" fill="#1F2937">Literacy (age 15+)</text>
<line x1="800.0" y1="856.0" x2="1382.0" y2="856.0" stroke="#E5E7EB" stroke-width="1"/>
<text x="792.0" y="860.0" text-anchor="end" font-family="Arial, sans-serif" font-size="11" font-weight="400" fill="#6B7280">0%</text>
<line x1="800.0" y1="792.8" x2="1382.0" y2="792.8" stroke="#E5E7EB" stroke-width="1"/>
<text x="792.0" y="796.8" text-anchor="end" font-family="Arial, sans-serif" font-size="11" font-weight="400" fill="#6B7280">20%</text>
<line x1="800.0" y1="729.5" x2="1382.0" y2="729.5" stroke="#E5E7EB" stroke-width="1"/>
<text x="792.0" y="733.5" text-anchor="end" font-family="Arial, sans-serif" font-size="11" font-weight="400" fill="#6B7280">40%</text>
<line x1="800.0" y1="666.2" x2="1382.0" y2="666.2" stroke="#E5E7EB" stroke-width="1"/>
<text x="792.0" y="670.2" text-anchor="end" font-family="Arial, sans-serif" font-size="11" font-weight="400" fill="#6B7280">60%</text>
<line x1="800.0" y1="603.0" x2="1382.0" y2="603.0" stroke="#E5E7EB" stroke-width="1"/>
<text x="792.0" y="607.0" text-anchor="end" font-family="Arial, sans-serif" font-size="11" font-weight="400" fill="#6B7280">80%</text>
<line x1="800.0" y1="603.0" x2="800.0" y2="856.0" stroke="#9CA3AF"/>
<line x1="800.0" y1="856.0" x2="1382.0" y2="856.0" stroke="#9CA3AF"/>
<rect x="832.0" y="790.0" width="69.8" height="66.0" fill="#0072B2" opacity="0.92"><title>Immigrants: 20.9%</title></rect>
<rect x="910.6" y="787.2" width="69.8" height="68.8" fill="#D55E00" opacity="0.92"><title>Emigrants: 21.8%</title></rect>
<rect x="989.1" y="739.8" width="69.8" height="116.2" fill="#6B7280" opacity="0.92"><title>Stayers: 36.8%</title></rect>
<text x="945.5" y="874.0" text-anchor="middle" font-family="Arial, sans-serif" font-size="11" fill="#374151"><tspan x="945.5" dy="0">Not</tspan><tspan x="945.5" dy="13">literate</tspan></text>
<rect x="1123.0" y="605.8" width="69.8" height="250.2" fill="#0072B2" opacity="0.92"><title>Immigrants: 79.1%</title></rect>
<rect x="1201.6" y="608.5" width="69.8" height="247.5" fill="#D55E00" opacity="0.92"><title>Emigrants: 78.2%</title></rect>
<rect x="1280.2" y="656.0" width="69.8" height="200.0" fill="#6B7280" opacity="0.92"><title>Stayers: 63.2%</title></rect>
<text x="1236.5" y="874.0" text-anchor="middle" font-family="Arial, sans-serif" font-size="11" fill="#374151"><tspan x="1236.5" dy="0">Literate</tspan></text>
<text x="54.0" y="958.0" text-anchor="start" font-family="Arial, sans-serif" font-size="17" font-weight="600" fill="#1F2937">Years of schooling (age 15+)</text>
<line x1="108.0" y1="1231.0" x2="690.0" y2="1231.0" stroke="#E5E7EB" stroke-width="1"/>
<text x="100.0" y="1235.0" text-anchor="end" font-family="Arial, sans-serif" font-size="11" font-weight="400" fill="#6B7280">0%</text>
<line x1="108.0" y1="1167.8" x2="690.0" y2="1167.8" stroke="#E5E7EB" stroke-width="1"/>
<text x="100.0" y="1171.8" text-anchor="end" font-family="Arial, sans-serif" font-size="11" font-weight="400" fill="#6B7280">10%</text>
<line x1="108.0" y1="1104.5" x2="690.0" y2="1104.5" stroke="#E5E7EB" stroke-width="1"/>
<text x="100.0" y="1108.5" text-anchor="end" font-family="Arial, sans-serif" font-size="11" font-weight="400" fill="#6B7280">20%</text>
<line x1="108.0" y1="1041.2" x2="690.0" y2="1041.2" stroke="#E5E7EB" stroke-width="1"/>
<text x="100.0" y="1045.2" text-anchor="end" font-family="Arial, sans-serif" font-size="11" font-weight="400" fill="#6B7280">30%</text>
<line x1="108.0" y1="978.0" x2="690.0" y2="978.0" stroke="#E5E7EB" stroke-width="1"/>
<text x="100.0" y="982.0" text-anchor="end" font-family="Arial, sans-serif" font-size="11" font-weight="400" fill="#6B7280">40%</text>
<line x1="108.0" y1="978.0" x2="108.0" y2="1231.0" stroke="#9CA3AF"/>
<line x1="108.0" y1="1231.0" x2="690.0" y2="1231.0" stroke="#9CA3AF"/>
<rect x="118.7" y="1107.3" width="23.3" height="123.7" fill="#0072B2" opacity="0.92"><title>Immigrants: 19.6%</title></rect>
<rect x="144.9" y="1095.8" width="23.3" height="135.2" fill="#D55E00" opacity="0.92"><title>Emigrants: 21.4%</title></rect>
<rect x="171.1" y="1011.2" width="23.3" height="219.8" fill="#6B7280" opacity="0.92"><title>Stayers: 34.8%</title></rect>
<text x="156.5" y="1249.0" text-anchor="middle" font-family="Arial, sans-serif" font-size="11" fill="#374151"><tspan x="156.5" dy="0">0</tspan></text>
<rect x="215.7" y="1121.0" width="23.3" height="110.0" fill="#0072B2" opacity="0.92"><title>Immigrants: 17.4%</title></rect>
<rect x="241.9" y="1097.2" width="23.3" height="133.8" fill="#D55E00" opacity="0.92"><title>Emigrants: 21.2%</title></rect>
<rect x="268.1" y="1096.4" width="23.3" height="134.6" fill="#6B7280" opacity="0.92"><title>Stayers: 21.3%</title></rect>
<text x="253.5" y="1249.0" text-anchor="middle" font-family="Arial, sans-serif" font-size="11" fill="#374151"><tspan x="253.5" dy="0">1-3</tspan></text>
<rect x="312.7" y="1044.9" width="23.3" height="186.1" fill="#0072B2" opacity="0.92"><title>Immigrants: 29.4%</title></rect>
<rect x="338.9" y="1029.7" width="23.3" height="201.3" fill="#D55E00" opacity="0.92"><title>Emigrants: 31.8%</title></rect>
<rect x="365.1" y="1082.4" width="23.3" height="148.6" fill="#6B7280" opacity="0.92"><title>Stayers: 23.5%</title></rect>
<text x="350.5" y="1249.0" text-anchor="middle" font-family="Arial, sans-serif" font-size="11" fill="#374151"><tspan x="350.5" dy="0">4-7</tspan></text>
<rect x="409.7" y="1142.2" width="23.3" height="88.8" fill="#0072B2" opacity="0.92"><title>Immigrants: 14.0%</title></rect>
<rect x="435.9" y="1156.1" width="23.3" height="74.9" fill="#D55E00" opacity="0.92"><title>Emigrants: 11.8%</title></rect>
<rect x="462.1" y="1176.1" width="23.3" height="54.9" fill="#6B7280" opacity="0.92"><title>Stayers: 8.7%</title></rect>
<text x="447.5" y="1249.0" text-anchor="middle" font-family="Arial, sans-serif" font-size="11" fill="#374151"><tspan x="447.5" dy="0">8-10</tspan></text>
<rect x="506.7" y="1141.2" width="23.3" height="89.8" fill="#0072B2" opacity="0.92"><title>Immigrants: 14.2%</title></rect>
<rect x="532.9" y="1164.5" width="23.3" height="66.5" fill="#D55E00" opacity="0.92"><title>Emigrants: 10.5%</title></rect>
<rect x="559.1" y="1176.4" width="23.3" height="54.6" fill="#6B7280" opacity="0.92"><title>Stayers: 8.6%</title></rect>
<text x="544.5" y="1249.0" text-anchor="middle" font-family="Arial, sans-serif" font-size="11" fill="#374151"><tspan x="544.5" dy="0">11-14</tspan></text>
<rect x="603.7" y="1196.8" width="23.3" height="34.2" fill="#0072B2" opacity="0.92"><title>Immigrants: 5.4%</title></rect>
<rect x="629.9" y="1210.2" width="23.3" height="20.8" fill="#D55E00" opacity="0.92"><title>Emigrants: 3.3%</title></rect>
<rect x="656.0" y="1211.0" width="23.3" height="20.0" fill="#6B7280" opacity="0.92"><title>Stayers: 3.2%</title></rect>
<text x="641.5" y="1249.0" text-anchor="middle" font-family="Arial, sans-serif" font-size="11" fill="#374151"><tspan x="641.5" dy="0">15+</tspan></text>
<text x="746.0" y="958.0" text-anchor="start" font-family="Arial, sans-serif" font-size="17" font-weight="600" fill="#1F2937">Household size</text>
<text x="1071.0" y="1117.5" text-anchor="middle" font-family="Arial, sans-serif" font-size="15" font-weight="400" fill="#6B7280">Not available</text>
<text x="54.0" y="1333.0" text-anchor="start" font-family="Arial, sans-serif" font-size="17" font-weight="600" fill="#1F2937">Rooms in dwelling</text>
<line x1="108.0" y1="1606.0" x2="690.0" y2="1606.0" stroke="#E5E7EB" stroke-width="1"/>
<text x="100.0" y="1610.0" text-anchor="end" font-family="Arial, sans-serif" font-size="11" font-weight="400" fill="#6B7280">0%</text>
<line x1="108.0" y1="1542.8" x2="690.0" y2="1542.8" stroke="#E5E7EB" stroke-width="1"/>
<text x="100.0" y="1546.8" text-anchor="end" font-family="Arial, sans-serif" font-size="11" font-weight="400" fill="#6B7280">12.5%</text>
<line x1="108.0" y1="1479.5" x2="690.0" y2="1479.5" stroke="#E5E7EB" stroke-width="1"/>
<text x="100.0" y="1483.5" text-anchor="end" font-family="Arial, sans-serif" font-size="11" font-weight="400" fill="#6B7280">25%</text>
<line x1="108.0" y1="1416.2" x2="690.0" y2="1416.2" stroke="#E5E7EB" stroke-width="1"/>
<text x="100.0" y="1420.2" text-anchor="end" font-family="Arial, sans-serif" font-size="11" font-weight="400" fill="#6B7280">37.5%</text>
<line x1="108.0" y1="1353.0" x2="690.0" y2="1353.0" stroke="#E5E7EB" stroke-width="1"/>
<text x="100.0" y="1357.0" text-anchor="end" font-family="Arial, sans-serif" font-size="11" font-weight="400" fill="#6B7280">50%</text>
<line x1="108.0" y1="1353.0" x2="108.0" y2="1606.0" stroke="#9CA3AF"/>
<line x1="108.0" y1="1606.0" x2="690.0" y2="1606.0" stroke="#9CA3AF"/>
<rect x="118.7" y="1596.7" width="23.3" height="9.3" fill="#0072B2" opacity="0.92"><title>Immigrants: 1.8%</title></rect>
<rect x="144.9" y="1579.2" width="23.3" height="26.8" fill="#D55E00" opacity="0.92"><title>Emigrants: 5.3%</title></rect>
<rect x="171.1" y="1600.1" width="23.3" height="5.9" fill="#6B7280" opacity="0.92"><title>Stayers: 1.2%</title></rect>
<text x="156.5" y="1624.0" text-anchor="middle" font-family="Arial, sans-serif" font-size="11" fill="#374151"><tspan x="156.5" dy="0">1</tspan></text>
<rect x="215.7" y="1588.5" width="23.3" height="17.5" fill="#0072B2" opacity="0.92"><title>Immigrants: 3.5%</title></rect>
<rect x="241.9" y="1551.8" width="23.3" height="54.2" fill="#D55E00" opacity="0.92"><title>Emigrants: 10.7%</title></rect>
<rect x="268.1" y="1588.1" width="23.3" height="17.9" fill="#6B7280" opacity="0.92"><title>Stayers: 3.5%</title></rect>
<text x="253.5" y="1624.0" text-anchor="middle" font-family="Arial, sans-serif" font-size="11" fill="#374151"><tspan x="253.5" dy="0">2</tspan></text>
<rect x="312.7" y="1555.2" width="23.3" height="50.8" fill="#0072B2" opacity="0.92"><title>Immigrants: 10.0%</title></rect>
<rect x="338.9" y="1498.2" width="23.3" height="107.8" fill="#D55E00" opacity="0.92"><title>Emigrants: 21.3%</title></rect>
<rect x="365.1" y="1547.4" width="23.3" height="58.6" fill="#6B7280" opacity="0.92"><title>Stayers: 11.6%</title></rect>
<text x="350.5" y="1624.0" text-anchor="middle" font-family="Arial, sans-serif" font-size="11" fill="#374151"><tspan x="350.5" dy="0">3</tspan></text>
<rect x="409.7" y="1510.7" width="23.3" height="95.3" fill="#0072B2" opacity="0.92"><title>Immigrants: 18.8%</title></rect>
<rect x="435.9" y="1509.0" width="23.3" height="97.0" fill="#D55E00" opacity="0.92"><title>Emigrants: 19.2%</title></rect>
<rect x="462.1" y="1503.4" width="23.3" height="102.6" fill="#6B7280" opacity="0.92"><title>Stayers: 20.3%</title></rect>
<text x="447.5" y="1624.0" text-anchor="middle" font-family="Arial, sans-serif" font-size="11" fill="#374151"><tspan x="447.5" dy="0">4</tspan></text>
<rect x="506.7" y="1512.4" width="23.3" height="93.6" fill="#0072B2" opacity="0.92"><title>Immigrants: 18.5%</title></rect>
<rect x="532.9" y="1523.8" width="23.3" height="82.2" fill="#D55E00" opacity="0.92"><title>Emigrants: 16.3%</title></rect>
<rect x="559.1" y="1508.8" width="23.3" height="97.2" fill="#6B7280" opacity="0.92"><title>Stayers: 19.2%</title></rect>
<text x="544.5" y="1624.0" text-anchor="middle" font-family="Arial, sans-serif" font-size="11" fill="#374151"><tspan x="544.5" dy="0">5</tspan></text>
<rect x="603.7" y="1366.5" width="23.3" height="239.5" fill="#0072B2" opacity="0.92"><title>Immigrants: 47.3%</title></rect>
<rect x="629.9" y="1468.0" width="23.3" height="138.0" fill="#D55E00" opacity="0.92"><title>Emigrants: 27.3%</title></rect>
<rect x="656.0" y="1382.3" width="23.3" height="223.7" fill="#6B7280" opacity="0.92"><title>Stayers: 44.2%</title></rect>
<text x="641.5" y="1624.0" text-anchor="middle" font-family="Arial, sans-serif" font-size="11" fill="#374151"><tspan x="641.5" dy="0">6+</tspan></text>
<text x="746.0" y="1333.0" text-anchor="start" font-family="Arial, sans-serif" font-size="17" font-weight="600" fill="#1F2937">Refrigerator in dwelling</text>
<line x1="800.0" y1="1606.0" x2="1382.0" y2="1606.0" stroke="#E5E7EB" stroke-width="1"/>
<text x="792.0" y="1610.0" text-anchor="end" font-family="Arial, sans-serif" font-size="11" font-weight="400" fill="#6B7280">0%</text>
<line x1="800.0" y1="1542.8" x2="1382.0" y2="1542.8" stroke="#E5E7EB" stroke-width="1"/>
<text x="792.0" y="1546.8" text-anchor="end" font-family="Arial, sans-serif" font-size="11" font-weight="400" fill="#6B7280">17.5%</text>
<line x1="800.0" y1="1479.5" x2="1382.0" y2="1479.5" stroke="#E5E7EB" stroke-width="1"/>
<text x="792.0" y="1483.5" text-anchor="end" font-family="Arial, sans-serif" font-size="11" font-weight="400" fill="#6B7280">35%</text>
<line x1="800.0" y1="1416.2" x2="1382.0" y2="1416.2" stroke="#E5E7EB" stroke-width="1"/>
<text x="792.0" y="1420.2" text-anchor="end" font-family="Arial, sans-serif" font-size="11" font-weight="400" fill="#6B7280">52.5%</text>
<line x1="800.0" y1="1353.0" x2="1382.0" y2="1353.0" stroke="#E5E7EB" stroke-width="1"/>
<text x="792.0" y="1357.0" text-anchor="end" font-family="Arial, sans-serif" font-size="11" font-weight="400" fill="#6B7280">70%</text>
<line x1="800.0" y1="1353.0" x2="800.0" y2="1606.0" stroke="#9CA3AF"/>
<line x1="800.0" y1="1606.0" x2="1382.0" y2="1606.0" stroke="#9CA3AF"/>
<rect x="832.0" y="1488.5" width="69.8" height="117.5" fill="#0072B2" opacity="0.92"><title>Immigrants: 32.5%</title></rect>
<rect x="910.6" y="1496.5" width="69.8" height="109.5" fill="#D55E00" opacity="0.92"><title>Emigrants: 30.3%</title></rect>
<rect x="989.1" y="1459.1" width="69.8" height="146.9" fill="#6B7280" opacity="0.92"><title>Stayers: 40.6%</title></rect>
<text x="945.5" y="1624.0" text-anchor="middle" font-family="Arial, sans-serif" font-size="11" fill="#374151"><tspan x="945.5" dy="0">No</tspan></text>
<rect x="1123.0" y="1362.1" width="69.8" height="243.9" fill="#0072B2" opacity="0.92"><title>Immigrants: 67.5%</title></rect>
<rect x="1201.6" y="1354.1" width="69.8" height="251.9" fill="#D55E00" opacity="0.92"><title>Emigrants: 69.7%</title></rect>
<rect x="1280.2" y="1391.4" width="69.8" height="214.6" fill="#6B7280" opacity="0.92"><title>Stayers: 59.4%</title></rect>
<text x="1236.5" y="1624.0" text-anchor="middle" font-family="Arial, sans-serif" font-size="11" fill="#374151"><tspan x="1236.5" dy="0">Yes</tspan></text>
<text x="54.0" y="1692.0" text-anchor="start" font-family="Arial, sans-serif" font-size="13" font-weight="400" fill="#4B5563">Bars are percentages within migration group and panel; legend sizes use census person weights.</text>
<text x="54.0" y="1713.0" text-anchor="start" font-family="Arial, sans-serif" font-size="13" font-weight="400" fill="#4B5563">Income: no income plus national weighted quintiles among positive-income adults (1980 uses main-job income).</text>
</svg>