<svg xmlns="http://www.w3.org/2000/svg" width="1400" height="1730" viewBox="0 0 1400 1730" role="img">
<title>PB migration-group socioeconomic profile, 1991</title>
<rect width="100%" height="100%" fill="#FFFFFF"/>
<text x="54.0" y="54.0" text-anchor="start" font-family="Arial, sans-serif" font-size="29" font-weight="600" fill="#1F2937">PB: immigrants, emigrants, and stayers</text>
<text x="54.0" y="84.0" text-anchor="start" font-family="Arial, sans-serif" font-size="19" font-weight="400" fill="#374151">1991</text>
<text x="54.0" y="111.0" text-anchor="start" font-family="Arial, sans-serif" font-size="14" font-weight="400" fill="#6B7280">Five-year state of residence</text>
<rect x="54" y="136" width="18" height="18" rx="2" fill="#0072B2"/>
<text x="83.0" y="150.0" text-anchor="start" font-family="Arial, sans-serif" font-size="15" font-weight="400" fill="#1F2937">Immigrants  |  N = 88.9k</text>
<rect x="474" y="136" width="18" height="18" rx="2" fill="#D55E00"/>
<text x="503.0" y="150.0" text-anchor="start" font-family="Arial, sans-serif" font-size="15" font-weight="400" fill="#1F2937">Emigrants  |  N = 174.1k</text>
<rect x="894" y="136" width="18" height="18" rx="2" fill="#6B7280"/>
<text x="923.0" y="150.0" text-anchor="start" font-family="Arial, sans-serif" font-size="15" font-weight="400" fill="#1F2937">Stayers  |  N = 2,564.5k</text>
<text x="54.0" y="208.0" text-anchor="start" font-family="Arial, sans-serif" font-size="17" font-weight="600" fill="#1F2937">Age</text>
<line x1="108.0" y1="481.0" x2="690.0" y2="481.0" stroke="#E5E7EB" stroke-width="1"/>
<text x="100.0" y="485.0" text-anchor="end" font-family="Arial, sans-serif" font-size="11" font-weight="400" fill="#6B7280">0%</text>
<line x1="108.0" y1="417.8" x2="690.0" y2="417.8" stroke="#E5E7EB" stroke-width="1"/>
<text x="100.0" y="421.8" text-anchor="end" font-family="Arial, sans-serif" font-size="11" font-weight="400" fill="#6B7280">10%</text>
<line x1="108.0" y1="354.5" x2="690.0" y2="354.5" stroke="#E5E7EB" stroke-width="1"/>
<text x="100.0" y="358.5" text-anchor="end" font-family="Arial, sans-serif" font-size="11" font-weight="400" fill="#6B7280">20%</text>
<line x1="108.0" y1="291.2" x2="690.0" y2="291.2" stroke="#E5E7EB" stroke-width="1"/>
<text x="100.0" y="295.2" text-anchor="end" font-family="Arial, sans-serif" font-size="11" font-weight="400" fill="#6B7280">30%</text>
<line x1="108.0" y1="228.0" x2="690.0" y2="228.0" stroke="#E5E7EB" stroke-width="1"/>
<text x="100.0" y="232.0" text-anchor="end" font-family="Arial, sans-serif" font-size="11" font-weight="400" fill="#6B7280">40%</text>
<line x1="108.0" y1="228.0" x2="108.0" y2="481.0" stroke="#9CA3AF"/>
<line x1="108.0" y1="481.0" x2="690.0" y2="481.0" stroke="#9CA3AF"/>
<rect x="117.1" y="293.2" width="20.0" height="187.8" fill="#0072B2" opacity="0.92"><title>Immigrants: 29.7%</title></rect>
<rect x="139.6" y="345.7" width="20.0" height="135.3" fill="#D55E00" opacity="0.92"><title>Emigrants: 21.4%</title></rect>
<rect x="162.0" y="295.9" width="20.0" height="185.1" fill="#6B7280" opacity="0.92"><title>Stayers: 29.3%</title></rect>
<text x="149.6" y="499.0" text-anchor="middle" font-family="Arial, sans-serif" font-size="11" fill="#374151"><tspan x="149.6" dy="0">5-14</tspan></text>
<rect x="200.3" y="348.7" width="20.0" height="132.3" fill="#0072B2" opacity="0.92"><title>Immigrants: 20.9%</title></rect>
<rect x="222.7" y="240.9" width="20.0" height="240.1" fill="#D55E00" opacity="0.92"><title>Emigrants: 38.0%</title></rect>
<rect x="245.2" y="338.8" width="20.0" height="142.2" fill="#6B7280" opacity="0.92"><title>Stayers: 22.5%</title></rect>
<text x="232.7" y="499.0" text-anchor="middle" font-family="Arial, sans-serif" font-size="11" fill="#374151"><tspan x="232.7" dy="0">15-24</tspan></text>
<rect x="283.4" y="329.5" width="20.0" height="151.5" fill="#0072B2" opacity="0.92"><title>Immigrants: 24.0%</title></rect>
<rect x="305.9" y="334.5" width="20.0" height="146.5" fill="#D55E00" opacity="0.92"><title>Emigrants: 23.2%</title></rect>
<rect x="328.3" y="388.0" width="20.0" height="93.0" fill="#6B7280" opacity="0.92"><title>Stayers: 14.7%</title></rect>
<text x="315.9" y="499.0" text-anchor="middle" font-family="Arial, sans-serif" font-size="11" fill="#374151"><tspan x="315.9" dy="0">25-34</tspan></text>
<rect x="366.6" y="393.7" width="20.0" height="87.3" fill="#0072B2" opacity="0.92"><title>Immigrants: 13.8%</title></rect>
<rect x="389.0" y="428.0" width="20.0" height="53.0" fill="#D55E00" opacity="0.92"><title>Emigrants: 8.4%</title></rect>
<rect x="411.5" y="410.7" width="20.0" height="70.3" fill="#6B7280" opacity="0.92"><title>Stayers: 11.1%</title></rect>
<text x="399.0" y="499.0" text-anchor="middle" font-family="Arial, sans-serif" font-size="11" fill="#374151"><tspan x="399.0" dy="0">35-44</tspan></text>
<rect x="449.7" y="447.5" width="20.0" height="33.5" fill="#0072B2" opacity="0.92"><title>Immigrants: 5.3%</title></rect>
<rect x="472.2" y="452.5" width="20.0" height="28.5" fill="#D55E00" opacity="0.92"><title>Emigrants: 4.5%</title></rect>
<rect x="494.6" y="427.6" width="20.0" height="53.4" fill="#6B7280" opacity="0.92"><title>Stayers: 8.4%</title></rect>
<text x="482.1" y="499.0" text-anchor="middle" font-family="Arial, sans-serif" font-size="11" fill="#374151"><tspan x="482.1" dy="0">45-54</tspan></text>
<rect x="532.9" y="459.1" width="20.0" height="21.9" fill="#0072B2" opacity="0.92"><title>Immigrants: 3.5%</title></rect>
<rect x="555.3" y="465.8" width="20.0" height="15.2" fill="#D55E00" opacity="0.92"><title>Emigrants: 2.4%</title></rect>
<rect x="577.8" y="441.2" width="20.0" height="39.8" fill="#6B7280" opacity="0.92"><title>Stayers: 6.3%</title></rect>
<text x="565.3" y="499.0" text-anchor="middle" font-family="Arial, sans-serif" font-size="11" fill="#374151"><tspan x="565.3" dy="0">55-64</tspan></text>
<rect x="616.0" y="462.9" width="20.0" height="18.1" fill="#0072B2" opacity="0.92"><title>Immigrants: 2.9%</title></rect>
<rect x="638.5" y="467.1" width="20.0" height="13.9" fill="#D55E00" opacity="0.92"><title>Emigrants: 2.2%</title></rect>
<rect x="660.9" y="432.3" width="20.0" height="48.7" fill="#6B7280" opacity="0.92"><title>Stayers: 7.7%</title></rect>
<text x="648.4" y="499.0" text-anchor="middle" font-family="Arial, sans-serif" font-size="11" fill="#374151"><tspan x="648.4" dy="0">65+</tspan></text>
<text x="746.0" y="208.0" text-anchor="start" font-family="Arial, sans-serif" font-size="17" font-weight="600" fill="#1F2937">Income rank</text>
<line x1="800.0" y1="481.0" x2="1382.0" y2="481.0" stroke="#E5E7EB" stroke-width="1"/>
<text x="792.0" y="485.0" text-anchor="end" font-family="Arial, sans-serif" font-size="11" font-weight="400" fill="#6B7280">0%</text>
<line x1="800.0" y1="417.8" x2="1382.0" y2="417.8" stroke="#E5E7EB" stroke-width="1"/>
<text x="792.0" y="421.8" text-anchor="end" font-family="Arial, sans-serif" font-size="11" font-weight="400" fill="#6B7280">12.5%</text>
<line x1="800.0" y1="354.5" x2="1382.0" y2="354.5" stroke="#E5E7EB" stroke-width="1"/>
<text x="792.0" y="358.5" text-anchor="end" font-family="Arial, sans-serif" font-size="11" font-weight="400" fill="#6B7280">25%</text>
<line x1="800.0" y1="291.2" x2="1382.0" y2="291.2" stroke="#E5E7EB" stroke-width="1"/>
<text x="792.0" y="295.2" text-anchor="end" font-family="Arial, sans-serif" font-size="11" font-weight="400" fill="#6B7280">37.5%</text>
<line x1="800.0" y1="228.0" x2="1382.0" y2="228.0" stroke="#E5E7EB" stroke-width="1"/>
<text x="792.0" y="232.0" text-anchor="end" font-family="Arial, sans-serif" font-size="11" font-weight="400" fill="#6B7280">50%</text>
<line x1="800.0" y1="228.0" x2="800.0" y2="481.0" stroke="#9CA3AF"/>
<line x1="800.0" y1="481.0" x2="1382.0" y2="481.0" stroke="#9CA3AF"/>
<rect x="810.7" y="284.6" width="23.3" height="196.4" fill="#0072B2" opacity="0.92"><title>Immigrants: 38.8%</title></rect>
<rect x="836.9" y="310.0" width="23.3" height="171.0" fill="#D55E00" opacity="0.92"><title>Emigrants: 33.8%</title></rect>
<rect x="863.0" y="277.9" width="23.3" height="203.1" fill="#6B7280" opacity="0.92"><title>Stayers: 40.1%</title></rect>
<text x="848.5" y="499.0" text-anchor="middle" font-family="Arial, sans-serif" font-size="11" fill="#374151"><tspan x="848.5" dy="0">No</tspan><tspan x="848.5" dy="13">income</tspan></text>
<rect x="907.7" y="382.8" width="23.3" height="98.2" fill="#0072B2" opacity="0.92"><title>Immigrants: 19.4%</title></rect>
<rect x="933.9" y="429.4" width="23.3" height="51.6" fill="#D55E00" opacity="0.92"><title>Emigrants: 10.2%</title></rect>
<rect x="960.0" y="338.7" width="23.3" height="142.3" fill="#6B7280" opacity="0.92"><title>Stayers: 28.1%</title></rect>
<text x="945.5" y="499.0" text-anchor="middle" font-family="Arial, sans-serif" font-size="11" fill="#374151"><tspan x="945.5" dy="0">Q1</tspan></text>
<rect x="1004.7" y="397.5" width="23.3" height="83.5" fill="#0072B2" opacity="0.92"><title>Immigrants: 16.5%</title></rect>
<rect x="1030.9" y="404.2" width="23.3" height="76.8" fill="#D55E00" opacity="0.92"><title>Emigrants: 15.2%</title></rect>
<rect x="1057.0" y="405.2" width="23.3" height="75.8" fill="#6B7280" opacity="0.92"><title>Stayers: 15.0%</title></rect>
<text x="1042.5" y="499.0" text-anchor="middle" font-family="Arial, sans-serif" font-size="11" fill="#374151"><tspan x="1042.5" dy="0">Q2</tspan></text>
<rect x="1101.7" y="432.6" width="23.3" height="48.4" fill="#0072B2" opacity="0.92"><title>Immigrants: 9.6%</title></rect>
<rect x="1127.9" y="393.0" width="23.3" height="88.0" fill="#D55E00" opacity="0.92"><title>Emigrants: 17.4%</title></rect>
<rect x="1154.1" y="444.1" width="23.3" height="36.9" fill="#6B7280" opacity="0.92"><title>Stayers: 7.3%</title></rect>
<text x="1139.5" y="499.0" text-anchor="middle" font-family="Arial, sans-serif" font-size="11" fill="#374151"><tspan x="1139.5" dy="0">Q3</tspan></text>
<rect x="1198.7" y="446.0" width="23.3" height="35.0" fill="#0072B2" opacity="0.92"><title>Immigrants: 6.9%</title></rect>
<rect x="1224.9" y="397.5" width="23.3" height="83.5" fill="#D55E00" opacity="0.92"><title>Emigrants: 16.5%</title></rect>
<rect x="1251.1" y="454.9" width="23.3" height="26.1" fill="#6B7280" opacity="0.92"><title>Stayers: 5.2%</title></rect>
<text x="1236.5" y="499.0" text-anchor="middle" font-family="Arial, sans-serif" font-size="11" fill="#374151"><tspan x="1236.5" dy="0">Q4</tspan></text>
<rect x="1295.7" y="436.5" width="23.3" height="44.5" fill="#0072B2" opacity="0.92"><title>Immigrants: 8.8%</title></rect>
<rect x="1321.9" y="445.9" width="23.3" height="35.1" fill="#D55E00" opacity="0.92"><title>Emigrants: 6.9%</title></rect>
<rect x="1348.1" y="459.2" width="23.3" height="21.8" fill="#6B7280" opacity="0.92"><title>Stayers: 4.3%</title></rect>
<text x="1333.5" y="499.0" text-anchor="middle" font-family="Arial, sans-serif" font-size="11" fill="#374151"><tspan x="1333.5" dy="0">Q5</tspan></text>
<text x="54.0" y="583.0" text-anchor="start" font-family="Arial, sans-serif" font-size="17" font-weight="600" fill="#1F2937">Sex</text>
<line x1="108.0" y1="856.0" x2="690.0" y2="856.0" stroke="#E5E7EB" stroke-width="1"/>
<text x="100.0" y="860.0" text-anchor="end" font-family="Arial, sans-serif" font-size="11" font-weight="400" fill="#6B7280">0%</text>
<line x1="108.0" y1="792.8" x2="690.0" y2="792.8" stroke="#E5E7EB" stroke-width="1"/>
<text x="100.0" y="796.8" text-anchor="end" font-family="Arial, sans-serif" font-size="11" font-weight="400" fill="#6B7280">15%</text>
<line x1="108.0" y1="729.5" x2="690.0" y2="729.5" stroke="#E5E7EB" stroke-width="1"/>
<text x="100.0" y="733.5" text-anchor="end" font-family="Arial, sans-serif" font-size="11" font-weight="400" fill="#6B7280">30%</text>
<line x1="108.0" y1="666.2" x2="690.0" y2="666.2" stroke="#E5E7EB" stroke-width="1"/>
<text x="100.0" y="670.2" text-anchor="end" font-family="Arial, sans-serif" font-size="11" font-weight="400" fill="#6B7280">45%</text>
<line x1="108.0" y1="603.0" x2="690.0" y2="603.0" stroke="#E5E7EB" stroke-width="1"/>
<text x="100.0" y="607.0" text-anchor="end" font-family="Arial, sans-serif" font-size="11" font-weight="400" fill="#6B7280">60%</text>
<line x1="108.0" y1="603.0" x2="108.0" y2="856.0" stroke="#9CA3AF"/>
<line x1="108.0" y1="856.0" x2="690.0" y2="856.0" stroke="#9CA3AF"/>
<rect x="140.0" y="648.3" width="69.8" height="207.7" fill="#0072B2" opacity="0.92"><title>Immigrants: 49.3%</title></rect>
<rect x="218.6" y="644.5" width="69.8" height="211.5" fill="#D55E00" opacity="0.92"><title>Emigrants: 50.2%</title></rect>
<rect x="297.1" y="637.1" width="69.8" height="218.9" fill="#6B7280" opacity="0.92"><title>Stayers: 51.9%</title></rect>
<text x="253.5" y="874.0" text-anchor="middle" font-family="Arial, sans-serif" font-size="11" fill="#374151"><tspan x="253.5" dy="0">Women</tspan></text>
<rect x="431.0" y="642.0" width="69.8" height="214.0" fill="#0072B2" opacity="0.92"><title>Immigrants: 50.7%</title></rect>
<rect x="509.6" y="645.9" width="69.8" height="210.1" fill="#D55E00" opacity="0.92"><title>Emigrants: 49.8%</title></rect>
<rect x="588.1" y="653.2" width="69.8" height="202.8" fill="#6B7280" opacity="0.92"><title>Stayers: 48.1%</title></rect>
<text x="544.5" y="874.0" text-anchor="middle" font-family="Arial, sans-serif" font-size="11" fill="#374151"><tspan x="544.5" dy="0">Men</tspan></text>
<text x="746.0" y="583.0" text-anchor="start" font-family="Arial, sans-serif" font-size="17" font-weight="600" fill="#1F2937">Literacy (age 15+)</text>
<line x1="800.0" y1="856.0" x2="1382.0" y2="856.0" stroke="#E5E7EB" stroke-width="1"/>
<text x="792.0" y="860.0" text-anchor="end" font-family="Arial, sans-serif" font-size="11" font-weight="400" fill="#6B7280">0%</text>
<line x1="800.0" y1="792.8" x2="1382.0" y2="792.8" stroke="#E5E7EB" stroke-width="1"/>
<text x="792.0" y="796.8" text-anchor="end" font-family="Arial, sans-serif" font-size="11" font-weight="400" fill="#6B7280">20%</text>
<line x1="800.0" y1="729.5" x2="1382.0" y2="729.5" stroke="#E5E7EB" stroke-width="1"/>
<text x="792.0" y="733.5" text-anchor="end" font-family="Arial, sans-serif" font-size="11" font-weight="400" fill="#6B7280">40%</text>
<line x1="800.0" y1="666.2" x2="1382.0" y2="666.2" stroke="#E5E7EB" stroke-width="1"/>
<text x="792.0" y="670.2" text-anchor="end" font-family="Arial, sans-serif" font-size="11" font-weight="400" fill="#6B7280">60%</text>
<line x1="800.0" y1="603.0" x2="1382.0" y2="603.0" stroke="#E5E7EB" stroke-width="1"/>
<text x="792.0" y="607.0" text-anchor="end" font-family="Arial, sans-serif" font-size="11" font-weight="400" fill="#6B7280">80%</text>
<line x1="800.0" y1="603.0" x2="800.0" y2="856.0" stroke="#9CA3AF"/>
<line x1="800.0" y1="856.0" x2="1382.0" y2="856.0" stroke="#9CA3AF"/>
<rect x="832.0" y="774.9" width="69.8" height="81.1" fill="#0072B2" opacity="0.92"><title>Immigrants: 25.6%</title></rect>
<rect x="910.6" y="769.1" width="69.8" height="86.9" fill="#D55E00" opacity="0.92"><title>Emigrants: 27.5%</title></rect>
<rect x="989.1" y="725.8" width="69.8" height="130.2" fill="#6B7280" opacity="0.92"><title>Stayers: 41.2%</title></rect>
<text x="945.5" y="874.0" text-anchor="middle" font-family="Arial, sans-serif" font-size="11" fill="#374151"><tspan x="945.5" dy="0">Not</tspan><tspan x="945.5" dy="13">literate</tspan></text>
<rect x="1123.0" y="620.8" width="69.8" height="235.2" fill="#0072B2" opacity="0.92"><title>Immigrants: 74.4%</title></rect>
<rect x="1201.6" y="626.6" width="69.8" height="229.4" fill="#D55E00" opacity="0.92"><title>Emigrants: 72.5%</title></rect>
<rect x="1280.2" y="670.0" width="69.8" height="186.0" fill="#6B7280" opacity="0.92"><title>Stayers: 58.8%</title></rect>
<text x="1236.5" y="874.0" text-anchor="middle" font-family="Arial, sans-serif" font-size="11" fill="#374151"><tspan x="1236.5" dy="0">Literate</tspan></text>
<text x="54.0" y="958.0" text-anchor="start" font-family="Arial, sans-serif" font-size="17" font-weight="600" fill="#1F2937">Years of schooling (age 15+)</text>
<line x1="108.0" y1="1231.0" x2="690.0" y2="1231.0" stroke="#E5E7EB" stroke-width="1"/>
<text x="100.0" y="1235.0" text-anchor="end" font-family="Arial, sans-serif" font-size="11" font-weight="400" fill="#6B7280">0%</text>
<line x1="108.0" y1="1167.8" x2="690.0" y2="1167.8" stroke="#E5E7EB" stroke-width="1"/>
<text x="100.0" y="1171.8" text-anchor="end" font-family="Arial, sans-serif" font-size="11" font-weight="400" fill="#6B7280">10%</text>
<line x1="108.0" y1="1104.5" x2="690.0" y2="1104.5" stroke="#E5E7EB" stroke-width="1"/>
<text x="100.0" y="1108.5" text-anchor="end" font-family="Arial, sans-serif" font-size="11" font-weight="400" fill="#6B7280">20%</text>
<line x1="108.0" y1="1041.2" x2="690.0" y2="1041.2" stroke="#E5E7EB" stroke-width="1"/>
<text x="100.0" y="1045.2" text-anchor="end" font-family="Arial, sans-serif" font-size="11" font-weight="400" fill="#6B7280">30%</text>
<line x1="108.0" y1="978.0" x2="690.0" y2="978.0" stroke="#E5E7EB" stroke-width="1"/>
<text x="100.0" y="982.0" text-anchor="end" font-family="Arial, sans-serif" font-size="11" font-weight="400" fill="#6B7280">40%</text>
<line x1="108.0" y1="978.0" x2="108.0" y2="1231.0" stroke="#9CA3AF"/>
<line x1="108.0" y1="1231.0" x2="690.0" y2="1231.0" stroke="#9CA3AF"/>
<rect x="118.7" y="1087.4" width="23.3" height="143.6" fill="#0072B2" opacity="0.92"><title>Immigrants: 22.7%</title></rect>
<rect x="144.9" y="1071.2" width="23.3" height="159.8" fill="#D55E00" opacity="0.92"><title>Emigrants: 25.3%</title></rect>
<rect x="171.1" y="990.3" width="23.3" height="240.7" fill="#6B7280" opacity="0.92"><title>Stayers: 38.1%</title></rect>
<text x="156.5" y="1249.0" text-anchor="middle" font-family="Arial, sans-serif" font-size="11" fill="#374151"><tspan x="156.5" dy="0">0</tspan></text>
<rect x="215.7" y="1112.1" width="23.3" height="118.9" fill="#0072B2" opacity="0.92"><title>Immigrants: 18.8%</title></rect>
<rect x="241.9" y="1092.1" width="23.3" height="138.9" fill="#D55E00" opacity="0.92"><title>Emigrants: 22.0%</title></rect>
<rect x="268.1" y="1108.5" width="23.3" height="122.5" fill="#6B7280" opacity="0.92"><title>Stayers: 19.4%</title></rect>
<text x="253.5" y="1249.0" text-anchor="middle" font-family="Arial, sans-serif" font-size="11" fill="#374151"><tspan x="253.5" dy="0">1-3</tspan></text>
<rect x="312.7" y="1038.8" width="23.3" height="192.2" fill="#0072B2" opacity="0.92"><title>Immigrants: 30.4%</title></rect>
<rect x="338.9" y="1033.3" width="23.3" height="197.7" fill="#D55E00" opacity="0.92"><title>Emigrants: 31.3%</title></rect>
<rect x="365.1" y="1087.2" width="23.3" height="143.8" fill="#6B7280" opacity="0.92"><title>Stayers: 22.7%</title></rect>
<text x="350.5" y="1249.0" text-anchor="middle" font-family="Arial, sans-serif" font-size="11" fill="#374151"><tspan x="350.5" dy="0">4-7</tspan></text>
<rect x="409.7" y="1161.9" width="23.3" height="69.1" fill="#0072B2" opacity="0.92"><title>Immigrants: 10.9%</title></rect>
<rect x="435.9" y="1171.4" width="23.3" height="59.6" fill="#D55E00" opacity="0.92"><title>Emigrants: 9.4%</title></rect>
<rect x="462.1" y="1182.7" width="23.3" height="48.3" fill="#6B7280" opacity="0.92"><title>Stayers: 7.6%</title></rect>
<text x="447.5" y="1249.0" text-anchor="middle" font-family="Arial, sans-serif" font-size="11" fill="#374151"><tspan x="447.5" dy="0">8-10</tspan></text>
<rect x="506.7" y="1158.5" width="23.3" height="72.5" fill="#0072B2" opacity="0.92"><title>Immigrants: 11.5%</title></rect>
<rect x="532.9" y="1178.7" width="23.3" height="52.3" fill="#D55E00" opacity="0.92"><title>Emigrants: 8.3%</title></rect>
<rect x="559.1" y="1179.3" width="23.3" height="51.7" fill="#6B7280" opacity="0.92"><title>Stayers: 8.2%</title></rect>
<text x="544.5" y="1249.0" text-anchor="middle" font-family="Arial, sans-serif" font-size="11" fill="#374151"><tspan x="544.5" dy="0">11-14</tspan></text>
<rect x="603.7" y="1194.8" width="23.3" height="36.2" fill="#0072B2" opacity="0.92"><title>Immigrants: 5.7%</title></rect>
<rect x="629.9" y="1206.9" width="23.3" height="24.1" fill="#D55E00" opacity="0.92"><title>Emigrants: 3.8%</title></rect>
<rect x="656.0" y="1205.5" width="23.3" height="25.5" fill="#6B7280" opacity="0.92"><title>Stayers: 4.0%</title></rect>
<text x="641.5" y="1249.0" text-anchor="middle" font-family="Arial, sans-serif" font-size="11" fill="#374151"><tspan x="641.5" dy="0">15+</tspan></text>
<text x="746.0" y="958.0" text-anchor="start" font-family="Arial, sans-serif" font-size="17" font-weight="600" fill="#1F2937">Household size</text>
<text x="1071.0" y="1117.5" text-anchor="middle" font-family="Arial, sans-serif" font-size="15" font-weight="400" fill="#6B7280">Not available</text>
<text x="54.0" y="1333.0" text-anchor="start" font-family="Arial, sans-serif" font-size="17" font-weight="600" fill="#1F2937">Rooms in dwelling</text>
<line x1="108.0" y1="1606.0" x2="690.0" y2="1606.0" stroke="#E5E7EB" stroke-width="1"/>
<text x="100.0" y="1610.0" text-anchor="end" font-family="Arial, sans-serif" font-size="11" font-weight="400" fill="#6B7280">0%</text>
<line x1="108.0" y1="1542.8" x2="690.0" y2="1542.8" stroke="#E5E7EB" stroke-width="1"/>
<text x="100.0" y="1546.8" text-anchor="end" font-family="Arial, sans-serif" font-size="11" font-weight="400" fill="#6B7280">12.5%</text>
<line x1="108.0" y1="1479.5" x2="690.0" y2="1479.5" stroke="#E5E7EB" stroke-width="1"/>
<text x="100.0" y="1483.5" text-anchor="end" font-family="Arial, sans-serif" font-size="11" font-weight="400" fill="#6B7280">25%</text>
<line x1="108.0" y1="1416.2" x2="690.0" y2="1416.2" stroke="#E5E7EB" stroke-width="1"/>
<text x="100.0" y="1420.2" text-anchor="end" font-family="Arial, sans-serif" font-size="11" font-weight="400" fill="#6B7280">37.5%</text>
<line x1="108.0" y1="1353.0" x2="690.0" y2="1353.0" stroke="#E5E7EB" stroke-width="1"/>
<text x="100.0" y="1357.0" text-anchor="end" font-family="Arial, sans-serif" font-size="11" font-weight="400" fill="#6B7280">50%</text>
<line x1="108.0" y1="1353.0" x2="108.0" y2="1606.0" stroke="#9CA3AF"/>
<line x1="108.0" y1="1606.0" x2="690.0" y2="1606.0" stroke="#9CA3AF"/>
<rect x="118.7" y="1597.5" width="23.3" height="8.5" fill="#0072B2" opacity="0.92"><title>Immigrants: 1.7%</title></rect>
<rect x="144.9" y="1578.2" width="23.3" height="27.8" fill="#D55E00" opacity="0.92"><title>Emigrants: 5.5%</title></rect>
<rect x="171.1" y="1601.7" width="23.3" height="4.3" fill="#6B7280" opacity="0.92"><title>Stayers: 0.9%</title></rect>
<text x="156.5" y="1624.0" text-anchor="middle" font-family="Arial, sans-serif" font-size="11" fill="#374151"><tspan x="156.5" dy="0">1</tspan></text>
<rect x="215.7" y="1588.0" width="23.3" height="18.0" fill="#0072B2" opacity="0.92"><title>Immigrants: 3.6%</title></rect>
<rect x="241.9" y="1554.2" width="23.3" height="51.8" fill="#D55E00" opacity="0.92"><title>Emigrants: 10.2%</title></rect>
<rect x="268.1" y="1591.5" width="23.3" height="14.5" fill="#6B7280" opacity="0.92"><title>Stayers: 2.9%</title></rect>
<text x="253.5" y="1624.0" text-anchor="middle" font-family="Arial, sans-serif" font-size="11" fill="#374151"><tspan x="253.5" dy="0">2</tspan></text>
<rect x="312.7" y="1565.8" width="23.3" height="40.2" fill="#0072B2" opacity="0.92"><title>Immigrants: 7.9%</title></rect>
<rect x="338.9" y="1506.1" width="23.3" height="99.9" fill="#D55E00" opacity="0.92"><title>Emigrants: 19.7%</title></rect>
<rect x="365.1" y="1564.1" width="23.3" height="41.9" fill="#6B7280" opacity="0.92"><title>Stayers: 8.3%</title></rect>
<text x="350.5" y="1624.0" text-anchor="middle" font-family="Arial, sans-serif" font-size="11" fill="#374151"><tspan x="350.5" dy="0">3</tspan></text>
<rect x="409.7" y="1526.2" width="23.3" height="79.8" fill="#0072B2" opacity="0.92"><title>Immigrants: 15.8%</title></rect>
<rect x="435.9" y="1515.2" width="23.3" height="90.8" fill="#D55E00" opacity="0.92"><title>Emigrants: 17.9%</title></rect>
<rect x="462.1" y="1523.7" width="23.3" height="82.3" fill="#6B7280" opacity="0.92"><title>Stayers: 16.3%</title></rect>
<text x="447.5" y="1624.0" text-anchor="middle" font-family="Arial, sans-serif" font-size="11" fill="#374151"><tspan x="447.5" dy="0">4</tspan></text>
<rect x="506.7" y="1485.8" width="23.3" height="120.2" fill="#0072B2" opacity="0.92"><title>Immigrants: 23.7%</title></rect>
<rect x="532.9" y="1513.8" width="23.3" height="92.2" fill="#D55E00" opacity="0.92"><title>Emigrants: 18.2%</title></rect>
<rect x="559.1" y="1478.5" width="23.3" height="127.5" fill="#6B7280" opacity="0.92"><title>Stayers: 25.2%</title></rect>
<text x="544.5" y="1624.0" text-anchor="middle" font-family="Arial, sans-serif" font-size="11" fill="#374151"><tspan x="544.5" dy="0">5</tspan></text>
<rect x="603.7" y="1366.7" width="23.3" height="239.3" fill="#0072B2" opacity="0.92"><title>Immigrants: 47.3%</title></rect>
<rect x="629.9" y="1462.5" width="23.3" height="143.5" fill="#D55E00" opacity="0.92"><title>Emigrants: 28.4%</title></rect>
<rect x="656.0" y="1370.4" width="23.3" height="235.6" fill="#6B7280" opacity="0.92"><title>Stayers: 46.6%</title></rect>
<text x="641.5" y="1624.0" text-anchor="middle" font-family="Arial, sans-serif" font-size="11" fill="#374151"><tspan x="641.5" dy="0">6+</tspan></text>
<text x="746.0" y="1333.0" text-anchor="start" font-family="Arial, sans-serif" font-size="17" font-weight="600" fill="#1F2937">Refrigerator in dwelling</text>
<line x1="800.0" y1="1606.0" x2="1382.0" y2="1606.0" stroke="#E5E7EB" stroke-width="1"/>
<text x="792.0" y="1610.0" text-anchor="end" font-family="Arial, sans-serif" font-size="11" font-weight="400" fill="#6B7280">0%</text>
<line x1="800.0" y1="1542.8" x2="1382.0" y2="1542.8" stroke="#E5E7EB" stroke-width="1"/>
<text x="792.0" y="1546.8" text-anchor="end" font-family="Arial, sans-serif" font-size="11" font-weight="400" fill="#6B7280">17.5%</text>
<line x1="800.0" y1="1479.5" x2="1382.0" y2="1479.5" stroke="#E5E7EB" stroke-width="1"/>
<text x="792.0" y="1483.5" text-anchor="end" font-family="Arial, sans-serif" font-size="11" font-weight="400" fill="#6B7280">35%</text>
<line x1="800.0" y1="1416.2" x2="1382.0" y2="1416.2" stroke="#E5E7EB" stroke-width="1"/>
<text x="792.0" y="1420.2" text-anchor="end" font-family="Arial, sans-serif" font-size="11" font-weight="400" fill="#6B7280">52.5%</text>
<line x1="800.0" y1="1353.0" x2="1382.0" y2="1353.0" stroke="#E5E7EB" stroke-width="1"/>
<text x="792.0" y="1357.0" text-anchor="end" font-family="Arial, sans-serif" font-size="11" font-weight="400" fill="#6B7280">70%</text>
<line x1="800.0" y1="1353.0" x2="800.0" y2="1606.0" stroke="#9CA3AF"/>
<line x1="800.0" y1="1606.0" x2="1382.0" y2="1606.0" stroke="#9CA3AF"/>
<rect x="832.0" y="1453.9" width="69.8" height="152.1" fill="#0072B2" opacity="0.92"><title>Immigrants: 42.1%</title></rect>
<rect x="910.6" y="1484.0" width="69.8" height="122.0" fill="#D55E00" opacity="0.92"><title>Emigrants: 33.7%</title></rect>
<rect x="989.1" y="1434.7" width="69.8" height="171.3" fill="#6B7280" opacity="0.92"><title>Stayers: 47.4%</title></rect>
<text x="945.5" y="1624.0" text-anchor="middle" font-family="Arial, sans-serif" font-size="11" fill="#374151"><tspan x="945.5" dy="0">No</tspan></text>
<rect x="1123.0" y="1396.7" width="69.8" height="209.3" fill="#0072B2" opacity="0.92"><title>Immigrants: 57.9%</title></rect>
<rect x="1201.6" y="1366.5" width="69.8" height="239.5" fill="#D55E00" opacity="0.92"><title>Emigrants: 66.3%</title></rect>
<rect x="1280.2" y="1415.9" width="69.8" height="190.1" fill="#6B7280" opacity="0.92"><title>Stayers: 52.6%</title></rect>
<text x="1236.5" y="1624.0" text-anchor="middle" font-family="Arial, sans-serif" font-size="11" fill="#374151"><tspan x="1236.5" dy="0">Yes</tspan></text>
<text x="54.0" y="1692.0" text-anchor="start" font-family="Arial, sans-serif" font-size="13" font-weight="400" fill="#4B5563">Bars are percentages within migration group and panel; legend sizes use census person weights.</text>
<text x="54.0" y="1713.0" text-anchor="start" font-family="Arial, sans-serif" font-size="13" font-weight="400" fill="#4B5563">Income: no income plus national weighted quintiles among positive-income adults (1980 uses main-job income).</text>
</svg>