<svg xmlns="http://www.w3.org/2000/svg" width="1400" height="1730" viewBox="0 0 1400 1730" role="img">
<title>PR migration-group socioeconomic profile, 1991</title>
<rect width="100%" height="100%" fill="#FFFFFF"/>
<text x="54.0" y="54.0" text-anchor="start" font-family="Arial, sans-serif" font-size="29" font-weight="600" fill="#1F2937">PR: immigrants, emigrants, and stayers</text>
<text x="54.0" y="84.0" text-anchor="start" font-family="Arial, sans-serif" font-size="19" font-weight="400" fill="#374151">1991</text>
<text x="54.0" y="111.0" text-anchor="start" font-family="Arial, sans-serif" font-size="14" font-weight="400" fill="#6B7280">Five-year state of residence</text>
<rect x="54" y="136" width="18" height="18" rx="2" fill="#0072B2"/>
<text x="83.0" y="150.0" text-anchor="start" font-family="Arial, sans-serif" font-size="15" font-weight="400" fill="#1F2937">Immigrants  |  N = 269.1k</text>
<rect x="474" y="136" width="18" height="18" rx="2" fill="#D55E00"/>
<text x="503.0" y="150.0" text-anchor="start" font-family="Arial, sans-serif" font-size="15" font-weight="400" fill="#1F2937">Emigrants  |  N = 475.2k</text>
<rect x="894" y="136" width="18" height="18" rx="2" fill="#6B7280"/>
<text x="923.0" y="150.0" text-anchor="start" font-family="Arial, sans-serif" font-size="15" font-weight="400" fill="#1F2937">Stayers  |  N = 6,484.4k</text>
<text x="54.0" y="208.0" text-anchor="start" font-family="Arial, sans-serif" font-size="17" font-weight="600" fill="#1F2937">Age</text>
<line x1="108.0" y1="481.0" x2="690.0" y2="481.0" stroke="#E5E7EB" stroke-width="1"/>
<text x="100.0" y="485.0" text-anchor="end" font-family="Arial, sans-serif" font-size="11" font-weight="400" fill="#6B7280">0%</text>
<line x1="108.0" y1="417.8" x2="690.0" y2="417.8" stroke="#E5E7EB" stroke-width="1"/>
<text x="100.0" y="421.8" text-anchor="end" font-family="Arial, sans-serif" font-size="11" font-weight="400" fill="#6B7280">10%</text>
<line x1="108.0" y1="354.5" x2="690.0" y2="354.5" stroke="#E5E7EB" stroke-width="1"/>
<text x="100.0" y="358.5" text-anchor="end" font-family="Arial, sans-serif" font-size="11" font-weight="400" fill="#6B7280">20%</text>
<line x1="108.0" y1="291.2" x2="690.0" y2="291.2" stroke="#E5E7EB" stroke-width="1"/>
<text x="100.0" y="295.2" text-anchor="end" font-family="Arial, sans-serif" font-size="11" font-weight="400" fill="#6B7280">30%</text>
<line x1="108.0" y1="228.0" x2="690.0" y2="228.0" stroke="#E5E7EB" stroke-width="1"/>
<text x="100.0" y="232.0" text-anchor="end" font-family="Arial, sans-serif" font-size="11" font-weight="400" fill="#6B7280">40%</text>
<line x1="108.0" y1="228.0" x2="108.0" y2="481.0" stroke="#9CA3AF"/>
<line x1="108.0" y1="481.0" x2="690.0" y2="481.0" stroke="#9CA3AF"/>
<rect x="117.1" y="315.6" width="20.0" height="165.4" fill="#0072B2" opacity="0.92"><title>Immigrants: 26.1%</title></rect>
<rect x="139.6" y="327.6" width="20.0" height="153.4" fill="#D55E00" opacity="0.92"><title>Emigrants: 24.3%</title></rect>
<rect x="162.0" y="322.7" width="20.0" height="158.3" fill="#6B7280" opacity="0.92"><title>Stayers: 25.0%</title></rect>
<text x="149.6" y="499.0" text-anchor="middle" font-family="Arial, sans-serif" font-size="11" fill="#374151"><tspan x="149.6" dy="0">5-14</tspan></text>
<rect x="200.3" y="338.4" width="20.0" height="142.6" fill="#0072B2" opacity="0.92"><title>Immigrants: 22.5%</title></rect>
<rect x="222.7" y="291.0" width="20.0" height="190.0" fill="#D55E00" opacity="0.92"><title>Emigrants: 30.0%</title></rect>
<rect x="245.2" y="341.8" width="20.0" height="139.2" fill="#6B7280" opacity="0.92"><title>Stayers: 22.0%</title></rect>
<text x="232.7" y="499.0" text-anchor="middle" font-family="Arial, sans-serif" font-size="11" fill="#374151"><tspan x="232.7" dy="0">15-24</tspan></text>
<rect x="283.4" y="323.5" width="20.0" height="157.5" fill="#0072B2" opacity="0.92"><title>Immigrants: 24.9%</title></rect>
<rect x="305.9" y="337.9" width="20.0" height="143.1" fill="#D55E00" opacity="0.92"><title>Emigrants: 22.6%</title></rect>
<rect x="328.3" y="366.4" width="20.0" height="114.6" fill="#6B7280" opacity="0.92"><title>Stayers: 18.1%</title></rect>
<text x="315.9" y="499.0" text-anchor="middle" font-family="Arial, sans-serif" font-size="11" fill="#374151"><tspan x="315.9" dy="0">25-34</tspan></text>
<rect x="366.6" y="391.2" width="20.0" height="89.8" fill="#0072B2" opacity="0.92"><title>Immigrants: 14.2%</title></rect>
<rect x="389.0" y="408.4" width="20.0" height="72.6" fill="#D55E00" opacity="0.92"><title>Emigrants: 11.5%</title></rect>
<rect x="411.5" y="393.9" width="20.0" height="87.1" fill="#6B7280" opacity="0.92"><title>Stayers: 13.8%</title></rect>
<text x="399.0" y="499.0" text-anchor="middle" font-family="Arial, sans-serif" font-size="11" fill="#374151"><tspan x="399.0" dy="0">35-44</tspan></text>
<rect x="449.7" y="442.7" width="20.0" height="38.3" fill="#0072B2" opacity="0.92"><title>Immigrants: 6.0%</title></rect>
<rect x="472.2" y="442.4" width="20.0" height="38.6" fill="#D55E00" opacity="0.92"><title>Emigrants: 6.1%</title></rect>
<rect x="494.6" y="421.8" width="20.0" height="59.2" fill="#6B7280" opacity="0.92"><title>Stayers: 9.4%</title></rect>
<text x="482.1" y="499.0" text-anchor="middle" font-family="Arial, sans-serif" font-size="11" fill="#374151"><tspan x="482.1" dy="0">45-54</tspan></text>
<rect x="532.9" y="460.1" width="20.0" height="20.9" fill="#0072B2" opacity="0.92"><title>Immigrants: 3.3%</title></rect>
<rect x="555.3" y="459.2" width="20.0" height="21.8" fill="#D55E00" opacity="0.92"><title>Emigrants: 3.4%</title></rect>
<rect x="577.8" y="439.9" width="20.0" height="41.1" fill="#6B7280" opacity="0.92"><title>Stayers: 6.5%</title></rect>
<text x="565.3" y="499.0" text-anchor="middle" font-family="Arial, sans-serif" font-size="11" fill="#374151"><tspan x="565.3" dy="0">55-64</tspan></text>
<rect x="616.0" y="463.0" width="20.0" height="18.0" fill="#0072B2" opacity="0.92"><title>Immigrants: 2.8%</title></rect>
<rect x="638.5" y="468.1" width="20.0" height="12.9" fill="#D55E00" opacity="0.92"><title>Emigrants: 2.0%</title></rect>
<rect x="660.9" y="448.1" width="20.0" height="32.9" fill="#6B7280" opacity="0.92"><title>Stayers: 5.2%</title></rect>
<text x="648.4" y="499.0" text-anchor="middle" font-family="Arial, sans-serif" font-size="11" fill="#374151"><tspan x="648.4" dy="0">65+</tspan></text>
<text x="746.0" y="208.0" text-anchor="start" font-family="Arial, sans-serif" font-size="17" font-weight="600" fill="#1F2937">Income rank</text>
<line x1="800.0" y1="481.0" x2="1382.0" y2="481.0" stroke="#E5E7EB" stroke-width="1"/>
<text x="792.0" y="485.0" text-anchor="end" font-family="Arial, sans-serif" font-size="11" font-weight="400" fill="#6B7280">0%</text>
<line x1="800.0" y1="417.8" x2="1382.0" y2="417.8" stroke="#E5E7EB" stroke-width="1"/>
<text x="792.0" y="421.8" text-anchor="end" font-family="Arial, sans-serif" font-size="11" font-weight="400" fill="#6B7280">10%</text>
<line x1="800.0" y1="354.5" x2="1382.0" y2="354.5" stroke="#E5E7EB" stroke-width="1"/>
<text x="792.0" y="358.5" text-anchor="end" font-family="Arial, sans-serif" font-size="11" font-weight="400" fill="#6B7280">20%</text>
<line x1="800.0" y1="291.2" x2="1382.0" y2="291.2" stroke="#E5E7EB" stroke-width="1"/>
<text x="792.0" y="295.2" text-anchor="end" font-family="Arial, sans-serif" font-size="11" font-weight="400" fill="#6B7280">30%</text>
<line x1="800.0" y1="228.0" x2="1382.0" y2="228.0" stroke="#E5E7EB" stroke-width="1"/>
<text x="792.0" y="232.0" text-anchor="end" font-family="Arial, sans-serif" font-size="11" font-weight="400" fill="#6B7280">40%</text>
<line x1="800.0" y1="228.0" x2="800.0" y2="481.0" stroke="#9CA3AF"/>
<line x1="800.0" y1="481.0" x2="1382.0" y2="481.0" stroke="#9CA3AF"/>
<rect x="810.7" y="267.2" width="23.3" height="213.8" fill="#0072B2" opacity="0.92"><title>Immigrants: 33.8%</title></rect>
<rect x="836.9" y="278.0" width="23.3" height="203.0" fill="#D55E00" opacity="0.92"><title>Emigrants: 32.1%</title></rect>
<rect x="863.0" y="258.4" width="23.3" height="222.6" fill="#6B7280" opacity="0.92"><title>Stayers: 35.2%</title></rect>
<text x="848.5" y="499.0" text-anchor="middle" font-family="Arial, sans-serif" font-size="11" fill="#374151"><tspan x="848.5" dy="0">No</tspan><tspan x="848.5" dy="13">income</tspan></text>
<rect x="907.7" y="431.2" width="23.3" height="49.8" fill="#0072B2" opacity="0.92"><title>Immigrants: 7.9%</title></rect>
<rect x="933.9" y="442.9" width="23.3" height="38.1" fill="#D55E00" opacity="0.92"><title>Emigrants: 6.0%</title></rect>
<rect x="960.0" y="409.4" width="23.3" height="71.6" fill="#6B7280" opacity="0.92"><title>Stayers: 11.3%</title></rect>
<text x="945.5" y="499.0" text-anchor="middle" font-family="Arial, sans-serif" font-size="11" fill="#374151"><tspan x="945.5" dy="0">Q1</tspan></text>
<rect x="1004.7" y="394.1" width="23.3" height="86.9" fill="#0072B2" opacity="0.92"><title>Immigrants: 13.7%</title></rect>
<rect x="1030.9" y="398.8" width="23.3" height="82.2" fill="#D55E00" opacity="0.92"><title>Emigrants: 13.0%</title></rect>
<rect x="1057.0" y="384.7" width="23.3" height="96.3" fill="#6B7280" opacity="0.92"><title>Stayers: 15.2%</title></rect>
<text x="1042.5" y="499.0" text-anchor="middle" font-family="Arial, sans-serif" font-size="11" fill="#374151"><tspan x="1042.5" dy="0">Q2</tspan></text>
<rect x="1101.7" y="400.1" width="23.3" height="80.9" fill="#0072B2" opacity="0.92"><title>Immigrants: 12.8%</title></rect>
<rect x="1127.9" y="367.0" width="23.3" height="114.0" fill="#D55E00" opacity="0.92"><title>Emigrants: 18.0%</title></rect>
<rect x="1154.1" y="398.7" width="23.3" height="82.3" fill="#6B7280" opacity="0.92"><title>Stayers: 13.0%</title></rect>
<text x="1139.5" y="499.0" text-anchor="middle" font-family="Arial, sans-serif" font-size="11" fill="#374151"><tspan x="1139.5" dy="0">Q3</tspan></text>
<rect x="1198.7" y="388.5" width="23.3" height="92.5" fill="#0072B2" opacity="0.92"><title>Immigrants: 14.6%</title></rect>
<rect x="1224.9" y="361.0" width="23.3" height="120.0" fill="#D55E00" opacity="0.92"><title>Emigrants: 19.0%</title></rect>
<rect x="1251.1" y="397.6" width="23.3" height="83.4" fill="#6B7280" opacity="0.92"><title>Stayers: 13.2%</title></rect>
<text x="1236.5" y="499.0" text-anchor="middle" font-family="Arial, sans-serif" font-size="11" fill="#374151"><tspan x="1236.5" dy="0">Q4</tspan></text>
<rect x="1295.7" y="372.3" width="23.3" height="108.7" fill="#0072B2" opacity="0.92"><title>Immigrants: 17.2%</title></rect>
<rect x="1321.9" y="405.9" width="23.3" height="75.1" fill="#D55E00" opacity="0.92"><title>Emigrants: 11.9%</title></rect>
<rect x="1348.1" y="404.7" width="23.3" height="76.3" fill="#6B7280" opacity="0.92"><title>Stayers: 12.1%</title></rect>
<text x="1333.5" y="499.0" text-anchor="middle" font-family="Arial, sans-serif" font-size="11" fill="#374151"><tspan x="1333.5" dy="0">Q5</tspan></text>
<text x="54.0" y="583.0" text-anchor="start" font-family="Arial, sans-serif" font-size="17" font-weight="600" fill="#1F2937">Sex</text>
<line x1="108.0" y1="856.0" x2="690.0" y2="856.0" stroke="#E5E7EB" stroke-width="1"/>
<text x="100.0" y="860.0" text-anchor="end" font-family="Arial, sans-serif" font-size="11" font-weight="400" fill="#6B7280">0%</text>
<line x1="108.0" y1="792.8" x2="690.0" y2="792.8" stroke="#E5E7EB" stroke-width="1"/>
<text x="100.0" y="796.8" text-anchor="end" font-family="Arial, sans-serif" font-size="11" font-weight="400" fill="#6B7280">15%</text>
<line x1="108.0" y1="729.5" x2="690.0" y2="729.5" stroke="#E5E7EB" stroke-width="1"/>
<text x="100.0" y="733.5" text-anchor="end" font-family="Arial, sans-serif" font-size="11" font-weight="400" fill="#6B7280">30%</text>
<line x1="108.0" y1="666.2" x2="690.0" y2="666.2" stroke="#E5E7EB" stroke-width="1"/>
<text x="100.0" y="670.2" text-anchor="end" font-family="Arial, sans-serif" font-size="11" font-weight="400" fill="#6B7280">45%</text>
<line x1="108.0" y1="603.0" x2="690.0" y2="603.0" stroke="#E5E7EB" stroke-width="1"/>
<text x="100.0" y="607.0" text-anchor="end" font-family="Arial, sans-serif" font-size="11" font-weight="400" fill="#6B7280">60%</text>
<line x1="108.0" y1="603.0" x2="108.0" y2="856.0" stroke="#9CA3AF"/>
<line x1="108.0" y1="856.0" x2="690.0" y2="856.0" stroke="#9CA3AF"/>
<rect x="140.0" y="645.6" width="69.8" height="210.4" fill="#0072B2" opacity="0.92"><title>Immigrants: 49.9%</title></rect>
<rect x="218.6" y="649.7" width="69.8" height="206.3" fill="#D55E00" opacity="0.92"><title>Emigrants: 48.9%</title></rect>
<rect x="297.1" y="643.9" width="69.8" height="212.1" fill="#6B7280" opacity="0.92"><title>Stayers: 50.3%</title></rect>
<text x="253.5" y="874.0" text-anchor="middle" font-family="Arial, sans-serif" font-size="11" fill="#374151"><tspan x="253.5" dy="0">Women</tspan></text>
<rect x="431.0" y="644.7" width="69.8" height="211.3" fill="#0072B2" opacity="0.92"><title>Immigrants: 50.1%</title></rect>
<rect x="509.6" y="640.7" width="69.8" height="215.3" fill="#D55E00" opacity="0.92"><title>Emigrants: 51.1%</title></rect>
<rect x="588.1" y="646.4" width="69.8" height="209.6" fill="#6B7280" opacity="0.92"><title>Stayers: 49.7%</title></rect>
<text x="544.5" y="874.0" text-anchor="middle" font-family="Arial, sans-serif" font-size="11" fill="#374151"><tspan x="544.5" dy="0">Men</tspan></text>
<text x="746.0" y="583.0" text-anchor="start" font-family="Arial, sans-serif" font-size="17" font-weight="600" fill="#1F2937">Literacy (age 15+)</text>
<line x1="800.0" y1="856.0" x2="1382.0" y2="856.0" stroke="#E5E7EB" stroke-width="1"/>
<text x="792.0" y="860.0" text-anchor="end" font-family="Arial, sans-serif" font-size="11" font-weight="400" fill="#6B7280">0%</text>
<line x1="800.0" y1="792.8" x2="1382.0" y2="792.8" stroke="#E5E7EB" stroke-width="1"/>
<text x="792.0" y="796.8" text-anchor="end" font-family="Arial, sans-serif" font-size="11" font-weight="400" fill="#6B7280">25%</text>
<line x1="800.0" y1="729.5" x2="1382.0" y2="729.5" stroke="#E5E7EB" stroke-width="1"/>
<text x="792.0" y="733.5" text-anchor="end" font-family="Arial, sans-serif" font-size="11" font-weight="400" fill="#6B7280">50%</text>
<line x1="800.0" y1="666.2" x2="1382.0" y2="666.2" stroke="#E5E7EB" stroke-width="1"/>
<text x="792.0" y="670.2" text-anchor="end" font-family="Arial, sans-serif" font-size="11" font-weight="400" fill="#6B7280">75%</text>
<line x1="800.0" y1="603.0" x2="1382.0" y2="603.0" stroke="#E5E7EB" stroke-width="1"/>
<text x="792.0" y="607.0" text-anchor="end" font-family="Arial, sans-serif" font-size="11" font-weight="400" fill="#6B7280">100%</text>
<line x1="800.0" y1="603.0" x2="800.0" y2="856.0" stroke="#9CA3AF"/>
<line x1="800.0" y1="856.0" x2="1382.0" y2="856.0" stroke="#9CA3AF"/>
<rect x="832.0" y="833.7" width="69.8" height="22.3" fill="#0072B2" opacity="0.92"><title>Immigrants: 8.8%</title></rect>
<rect x="910.6" y="824.5" width="69.8" height="31.5" fill="#D55E00" opacity="0.92"><title>Emigrants: 12.5%</title></rect>
<rect x="989.1" y="819.4" width="69.8" height="36.6" fill="#6B7280" opacity="0.92"><title>Stayers: 14.5%</title></rect>
<text x="945.5" y="874.0" text-anchor="middle" font-family="Arial, sans-serif" font-size="11" fill="#374151"><tspan x="945.5" dy="0">Not</tspan><tspan x="945.5" dy="13">literate</tspan></text>
<rect x="1123.0" y="625.3" width="69.8" height="230.7" fill="#0072B2" opacity="0.92"><title>Immigrants: 91.2%</title></rect>
<rect x="1201.6" y="634.5" width="69.8" height="221.5" fill="#D55E00" opacity="0.92"><title>Emigrants: 87.5%</title></rect>
<rect x="1280.2" y="639.6" width="69.8" height="216.4" fill="#6B7280" opacity="0.92"><title>Stayers: 85.5%</title></rect>
<text x="1236.5" y="874.0" text-anchor="middle" font-family="Arial, sans-serif" font-size="11" fill="#374151"><tspan x="1236.5" dy="0">Literate</tspan></text>
<text x="54.0" y="958.0" text-anchor="start" font-family="Arial, sans-serif" font-size="17" font-weight="600" fill="#1F2937">Years of schooling (age 15+)</text>
<line x1="108.0" y1="1231.0" x2="690.0" y2="1231.0" stroke="#E5E7EB" stroke-width="1"/>
<text x="100.0" y="1235.0" text-anchor="end" font-family="Arial, sans-serif" font-size="11" font-weight="400" fill="#6B7280">0%</text>
<line x1="108.0" y1="1167.8" x2="690.0" y2="1167.8" stroke="#E5E7EB" stroke-width="1"/>
<text x="100.0" y="1171.8" text-anchor="end" font-family="Arial, sans-serif" font-size="11" font-weight="400" fill="#6B7280">10%</text>
<line x1="108.0" y1="1104.5" x2="690.0" y2="1104.5" stroke="#E5E7EB" stroke-width="1"/>
<text x="100.0" y="1108.5" text-anchor="end" font-family="Arial, sans-serif" font-size="11" font-weight="400" fill="#6B7280">20%</text>
<line x1="108.0" y1="1041.2" x2="690.0" y2="1041.2" stroke="#E5E7EB" stroke-width="1"/>
<text x="100.0" y="1045.2" text-anchor="end" font-family="Arial, sans-serif" font-size="11" font-weight="400" fill="#6B7280">30%</text>
<line x1="108.0" y1="978.0" x2="690.0" y2="978.0" stroke="#E5E7EB" stroke-width="1"/>
<text x="100.0" y="982.0" text-anchor="end" font-family="Arial, sans-serif" font-size="11" font-weight="400" fill="#6B7280">40%</text>
<line x1="108.0" y1="978.0" x2="108.0" y2="1231.0" stroke="#9CA3AF"/>
<line x1="108.0" y1="1231.0" x2="690.0" y2="1231.0" stroke="#9CA3AF"/>
<rect x="118.7" y="1171.7" width="23.3" height="59.3" fill="#0072B2" opacity="0.92"><title>Immigrants: 9.4%</title></rect>
<rect x="144.9" y="1148.2" width="23.3" height="82.8" fill="#D55E00" opacity="0.92"><title>Emigrants: 13.1%</title></rect>
<rect x="171.1" y="1134.0" width="23.3" height="97.0" fill="#6B7280" opacity="0.92"><title>Stayers: 15.3%</title></rect>
<text x="156.5" y="1249.0" text-anchor="middle" font-family="Arial, sans-serif" font-size="11" fill="#374151"><tspan x="156.5" dy="0">0</tspan></text>
<rect x="215.7" y="1132.7" width="23.3" height="98.3" fill="#0072B2" opacity="0.92"><title>Immigrants: 15.5%</title></rect>
<rect x="241.9" y="1106.4" width="23.3" height="124.6" fill="#D55E00" opacity="0.92"><title>Emigrants: 19.7%</title></rect>
<rect x="268.1" y="1102.9" width="23.3" height="128.1" fill="#6B7280" opacity="0.92"><title>Stayers: 20.2%</title></rect>
<text x="253.5" y="1249.0" text-anchor="middle" font-family="Arial, sans-serif" font-size="11" fill="#374151"><tspan x="253.5" dy="0">1-3</tspan></text>
<rect x="312.7" y="1008.5" width="23.3" height="222.5" fill="#0072B2" opacity="0.92"><title>Immigrants: 35.2%</title></rect>
<rect x="338.9" y="981.4" width="23.3" height="249.6" fill="#D55E00" opacity="0.92"><title>Emigrants: 39.5%</title></rect>
<rect x="365.1" y="1006.8" width="23.3" height="224.2" fill="#6B7280" opacity="0.92"><title>Stayers: 35.5%</title></rect>
<text x="350.5" y="1249.0" text-anchor="middle" font-family="Arial, sans-serif" font-size="11" fill="#374151"><tspan x="350.5" dy="0">4-7</tspan></text>
<rect x="409.7" y="1130.9" width="23.3" height="100.1" fill="#0072B2" opacity="0.92"><title>Immigrants: 15.8%</title></rect>
<rect x="435.9" y="1147.5" width="23.3" height="83.5" fill="#D55E00" opacity="0.92"><title>Emigrants: 13.2%</title></rect>
<rect x="462.1" y="1149.6" width="23.3" height="81.4" fill="#6B7280" opacity="0.92"><title>Stayers: 12.9%</title></rect>
<text x="447.5" y="1249.0" text-anchor="middle" font-family="Arial, sans-serif" font-size="11" fill="#374151"><tspan x="447.5" dy="0">8-10</tspan></text>
<rect x="506.7" y="1126.6" width="23.3" height="104.4" fill="#0072B2" opacity="0.92"><title>Immigrants: 16.5%</title></rect>
<rect x="532.9" y="1165.6" width="23.3" height="65.4" fill="#D55E00" opacity="0.92"><title>Emigrants: 10.3%</title></rect>
<rect x="559.1" y="1156.9" width="23.3" height="74.1" fill="#6B7280" opacity="0.92"><title>Stayers: 11.7%</title></rect>
<text x="544.5" y="1249.0" text-anchor="middle" font-family="Arial, sans-serif" font-size="11" fill="#374151"><tspan x="544.5" dy="0">11-14</tspan></text>
<rect x="603.7" y="1183.1" width="23.3" height="47.9" fill="#0072B2" opacity="0.92"><title>Immigrants: 7.6%</title></rect>
<rect x="629.9" y="1204.4" width="23.3" height="26.6" fill="#D55E00" opacity="0.92"><title>Emigrants: 4.2%</title></rect>
<rect x="656.0" y="1203.3" width="23.3" height="27.7" fill="#6B7280" opacity="0.92"><title>Stayers: 4.4%</title></rect>
<text x="641.5" y="1249.0" text-anchor="middle" font-family="Arial, sans-serif" font-size="11" fill="#374151"><tspan x="641.5" dy="0">15+</tspan></text>
<text x="746.0" y="958.0" text-anchor="start" font-family="Arial, sans-serif" font-size="17" font-weight="600" fill="#1F2937">Household size</text>
<text x="1071.0" y="1117.5" text-anchor="middle" font-family="Arial, sans-serif" font-size="15" font-weight="400" fill="#6B7280">Not available</text>
<text x="54.0" y="1333.0" text-anchor="start" font-family="Arial, sans-serif" font-size="17" font-weight="600" fill="#1F2937">Rooms in dwelling</text>
<line x1="108.0" y1="1606.0" x2="690.0" y2="1606.0" stroke="#E5E7EB" stroke-width="1"/>
<text x="100.0" y="1610.0" text-anchor="end" font-family="Arial, sans-serif" font-size="11" font-weight="400" fill="#6B7280">0%</text>
<line x1="108.0" y1="1542.8" x2="690.0" y2="1542.8" stroke="#E5E7EB" stroke-width="1"/>
<text x="100.0" y="1546.8" text-anchor="end" font-family="Arial, sans-serif" font-size="11" font-weight="400" fill="#6B7280">15%</text>
<line x1="108.0" y1="1479.5" x2="690.0" y2="1479.5" stroke="#E5E7EB" stroke-width="1"/>
<text x="100.0" y="1483.5" text-anchor="end" font-family="Arial, sans-serif" font-size="11" font-weight="400" fill="#6B7280">30%</text>
<line x1="108.0" y1="1416.2" x2="690.0" y2="1416.2" stroke="#E5E7EB" stroke-width="1"/>
<text x="100.0" y="1420.2" text-anchor="end" font-family="Arial, sans-serif" font-size="11" font-weight="400" fill="#6B7280">45%</text>
<line x1="108.0" y1="1353.0" x2="690.0" y2="1353.0" stroke="#E5E7EB" stroke-width="1"/>
<text x="100.0" y="1357.0" text-anchor="end" font-family="Arial, sans-serif" font-size="11" font-weight="400" fill="#6B7280">60%</text>
<line x1="108.0" y1="1353.0" x2="108.0" y2="1606.0" stroke="#9CA3AF"/>
<line x1="108.0" y1="1606.0" x2="690.0" y2="1606.0" stroke="#9CA3AF"/>
<rect x="118.7" y="1598.6" width="23.3" height="7.4" fill="#0072B2" opacity="0.92"><title>Immigrants: 1.8%</title></rect>
<rect x="144.9" y="1598.1" width="23.3" height="7.9" fill="#D55E00" opacity="0.92"><title>Emigrants: 1.9%</title></rect>
<rect x="171.1" y="1602.2" width="23.3" height="3.8" fill="#6B7280" opacity="0.92"><title>Stayers: 0.9%</title></rect>
<text x="156.5" y="1624.0" text-anchor="middle" font-family="Arial, sans-serif" font-size="11" fill="#374151"><tspan x="156.5" dy="0">1</tspan></text>
<rect x="215.7" y="1582.2" width="23.3" height="23.8" fill="#0072B2" opacity="0.92"><title>Immigrants: 5.6%</title></rect>
<rect x="241.9" y="1577.3" width="23.3" height="28.7" fill="#D55E00" opacity="0.92"><title>Emigrants: 6.8%</title></rect>
<rect x="268.1" y="1583.2" width="23.3" height="22.8" fill="#6B7280" opacity="0.92"><title>Stayers: 5.4%</title></rect>
<text x="253.5" y="1624.0" text-anchor="middle" font-family="Arial, sans-serif" font-size="11" fill="#374151"><tspan x="253.5" dy="0">2</tspan></text>
<rect x="312.7" y="1573.0" width="23.3" height="33.0" fill="#0072B2" opacity="0.92"><title>Immigrants: 7.8%</title></rect>
<rect x="338.9" y="1549.1" width="23.3" height="56.9" fill="#D55E00" opacity="0.92"><title>Emigrants: 13.5%</title></rect>
<rect x="365.1" y="1574.2" width="23.3" height="31.8" fill="#6B7280" opacity="0.92"><title>Stayers: 7.5%</title></rect>
<text x="350.5" y="1624.0" text-anchor="middle" font-family="Arial, sans-serif" font-size="11" fill="#374151"><tspan x="350.5" dy="0">3</tspan></text>
<rect x="409.7" y="1553.5" width="23.3" height="52.5" fill="#0072B2" opacity="0.92"><title>Immigrants: 12.4%</title></rect>
<rect x="435.9" y="1532.1" width="23.3" height="73.9" fill="#D55E00" opacity="0.92"><title>Emigrants: 17.5%</title></rect>
<rect x="462.1" y="1555.9" width="23.3" height="50.1" fill="#6B7280" opacity="0.92"><title>Stayers: 11.9%</title></rect>
<text x="447.5" y="1624.0" text-anchor="middle" font-family="Arial, sans-serif" font-size="11" fill="#374151"><tspan x="447.5" dy="0">4</tspan></text>
<rect x="506.7" y="1516.9" width="23.3" height="89.1" fill="#0072B2" opacity="0.92"><title>Immigrants: 21.1%</title></rect>
<rect x="532.9" y="1511.9" width="23.3" height="94.1" fill="#D55E00" opacity="0.92"><title>Emigrants: 22.3%</title></rect>
<rect x="559.1" y="1520.7" width="23.3" height="85.3" fill="#6B7280" opacity="0.92"><title>Stayers: 20.2%</title></rect>
<text x="544.5" y="1624.0" text-anchor="middle" font-family="Arial, sans-serif" font-size="11" fill="#374151"><tspan x="544.5" dy="0">5</tspan></text>
<rect x="603.7" y="1390.1" width="23.3" height="215.9" fill="#0072B2" opacity="0.92"><title>Immigrants: 51.2%</title></rect>
<rect x="629.9" y="1445.9" width="23.3" height="160.1" fill="#D55E00" opacity="0.92"><title>Emigrants: 38.0%</title></rect>
<rect x="656.0" y="1378.2" width="23.3" height="227.8" fill="#6B7280" opacity="0.92"><title>Stayers: 54.0%</title></rect>
<text x="641.5" y="1624.0" text-anchor="middle" font-family="Arial, sans-serif" font-size="11" fill="#374151"><tspan x="641.5" dy="0">6+</tspan></text>
<text x="746.0" y="1333.0" text-anchor="start" font-family="Arial, sans-serif" font-size="17" font-weight="600" fill="#1F2937">Refrigerator in dwelling</text>
<line x1="800.0" y1="1606.0" x2="1382.0" y2="1606.0" stroke="#E5E7EB" stroke-width="1"/>
<text x="792.0" y="1610.0" text-anchor="end" font-family="Arial, sans-serif" font-size="11" font-weight="400" fill="#6B7280">0%</text>
<line x1="800.0" y1="1542.8" x2="1382.0" y2="1542.8" stroke="#E5E7EB" stroke-width="1"/>
<text x="792.0" y="1546.8" text-anchor="end" font-family="Arial, sans-serif" font-size="11" font-weight="400" fill="#6B7280">22.5%</text>
<line x1="800.0" y1="1479.5" x2="1382.0" y2="1479.5" stroke="#E5E7EB" stroke-width="1"/>
<text x="792.0" y="1483.5" text-anchor="end" font-family="Arial, sans-serif" font-size="11" font-weight="400" fill="#6B7280">45%</text>
<line x1="800.0" y1="1416.2" x2="1382.0" y2="1416.2" stroke="#E5E7EB" stroke-width="1"/>
<text x="792.0" y="1420.2" text-anchor="end" font-family="Arial, sans-serif" font-size="11" font-weight="400" fill="#6B7280">67.5%</text>
<line x1="800.0" y1="1353.0" x2="1382.0" y2="1353.0" stroke="#E5E7EB" stroke-width="1"/>
<text x="792.0" y="1357.0" text-anchor="end" font-family="Arial, sans-serif" font-size="11" font-weight="400" fill="#6B7280">90%</text>
<line x1="800.0" y1="1353.0" x2="800.0" y2="1606.0" stroke="#9CA3AF"/>
<line x1="800.0" y1="1606.0" x2="1382.0" y2="1606.0" stroke="#9CA3AF"/>
<rect x="832.0" y="1549.1" width="69.8" height="56.9" fill="#0072B2" opacity="0.92"><title>Immigrants: 20.2%</title></rect>
<rect x="910.6" y="1549.8" width="69.8" height="56.2" fill="#D55E00" opacity="0.92"><title>Emigrants: 20.0%</title></rect>
<rect x="989.1" y="1556.9" width="69.8" height="49.1" fill="#6B7280" opacity="0.92"><title>Stayers: 17.5%</title></rect>
<text x="945.5" y="1624.0" text-anchor="middle" font-family="Arial, sans-serif" font-size="11" fill="#374151"><tspan x="945.5" dy="0">No</tspan></text>
<rect x="1123.0" y="1381.7" width="69.8" height="224.3" fill="#0072B2" opacity="0.92"><title>Immigrants: 79.8%</title></rect>
<rect x="1201.6" y="1381.0" width="69.8" height="225.0" fill="#D55E00" opacity="0.92"><title>Emigrants: 80.0%</title></rect>
<rect x="1280.2" y="1374.0" width="69.8" height="232.0" fill="#6B7280" opacity="0.92"><title>Stayers: 82.5%</title></rect>
<text x="1236.5" y="1624.0" text-anchor="middle" font-family="Arial, sans-serif" font-size="11" fill="#374151"><tspan x="1236.5" dy="0">Yes</tspan></text>
<text x="54.0" y="1692.0" text-anchor="start" font-family="Arial, sans-serif" font-size="13" font-weight="400" fill="#4B5563">Bars are percentages within migration group and panel; legend sizes use census person weights.</text>
<text x="54.0" y="1713.0" text-anchor="start" font-family="Arial, sans-serif" font-size="13" font-weight="400" fill="#4B5563">Income: no income plus national weighted quintiles among positive-income adults (1980 uses main-job income).</text>
</svg>