<svg xmlns="http://www.w3.org/2000/svg" width="1400" height="1730" viewBox="0 0 1400 1730" role="img">
<title>RJ migration-group socioeconomic profile, 1991</title>
<rect width="100%" height="100%" fill="#FFFFFF"/>
<text x="54.0" y="54.0" text-anchor="start" font-family="Arial, sans-serif" font-size="29" font-weight="600" fill="#1F2937">RJ: immigrants, emigrants, and stayers</text>
<text x="54.0" y="84.0" text-anchor="start" font-family="Arial, sans-serif" font-size="19" font-weight="400" fill="#374151">1991</text>
<text x="54.0" y="111.0" text-anchor="start" font-family="Arial, sans-serif" font-size="14" font-weight="400" fill="#6B7280">Five-year state of residence</text>
<rect x="54" y="136" width="18" height="18" rx="2" fill="#0072B2"/>
<text x="83.0" y="150.0" text-anchor="start" font-family="Arial, sans-serif" font-size="15" font-weight="400" fill="#1F2937">Immigrants  |  N = 253.4k</text>
<rect x="474" y="136" width="18" height="18" rx="2" fill="#D55E00"/>
<text x="503.0" y="150.0" text-anchor="start" font-family="Arial, sans-serif" font-size="15" font-weight="400" fill="#1F2937">Emigrants  |  N = 295.1k</text>
<rect x="894" y="136" width="18" height="18" rx="2" fill="#6B7280"/>
<text x="923.0" y="150.0" text-anchor="start" font-family="Arial, sans-serif" font-size="15" font-weight="400" fill="#1F2937">Stayers  |  N = 10,968k</text>
<text x="54.0" y="208.0" text-anchor="start" font-family="Arial, sans-serif" font-size="17" font-weight="600" fill="#1F2937">Age</text>
<line x1="108.0" y1="481.0" x2="690.0" y2="481.0" stroke="#E5E7EB" stroke-width="1"/>
<text x="100.0" y="485.0" text-anchor="end" font-family="Arial, sans-serif" font-size="11" font-weight="400" fill="#6B7280">0%</text>
<line x1="108.0" y1="417.8" x2="690.0" y2="417.8" stroke="#E5E7EB" stroke-width="1"/>
<text x="100.0" y="421.8" text-anchor="end" font-family="Arial, sans-serif" font-size="11" font-weight="400" fill="#6B7280">10%</text>
<line x1="108.0" y1="354.5" x2="690.0" y2="354.5" stroke="#E5E7EB" stroke-width="1"/>
<text x="100.0" y="358.5" text-anchor="end" font-family="Arial, sans-serif" font-size="11" font-weight="400" fill="#6B7280">20%</text>
<line x1="108.0" y1="291.2" x2="690.0" y2="291.2" stroke="#E5E7EB" stroke-width="1"/>
<text x="100.0" y="295.2" text-anchor="end" font-family="Arial, sans-serif" font-size="11" font-weight="400" fill="#6B7280">30%</text>
<line x1="108.0" y1="228.0" x2="690.0" y2="228.0" stroke="#E5E7EB" stroke-width="1"/>
<text x="100.0" y="232.0" text-anchor="end" font-family="Arial, sans-serif" font-size="11" font-weight="400" fill="#6B7280">40%</text>
<line x1="108.0" y1="228.0" x2="108.0" y2="481.0" stroke="#9CA3AF"/>
<line x1="108.0" y1="481.0" x2="690.0" y2="481.0" stroke="#9CA3AF"/>
<rect x="117.1" y="361.7" width="20.0" height="119.3" fill="#0072B2" opacity="0.92"><title>Immigrants: 18.9%</title></rect>
<rect x="139.6" y="331.0" width="20.0" height="150.0" fill="#D55E00" opacity="0.92"><title>Emigrants: 23.7%</title></rect>
<rect x="162.0" y="346.1" width="20.0" height="134.9" fill="#6B7280" opacity="0.92"><title>Stayers: 21.3%</title></rect>
<text x="149.6" y="499.0" text-anchor="middle" font-family="Arial, sans-serif" font-size="11" fill="#374151"><tspan x="149.6" dy="0">5-14</tspan></text>
<rect x="200.3" y="258.6" width="20.0" height="222.4" fill="#0072B2" opacity="0.92"><title>Immigrants: 35.2%</title></rect>
<rect x="222.7" y="360.0" width="20.0" height="121.0" fill="#D55E00" opacity="0.92"><title>Emigrants: 19.1%</title></rect>
<rect x="245.2" y="358.6" width="20.0" height="122.4" fill="#6B7280" opacity="0.92"><title>Stayers: 19.4%</title></rect>
<text x="232.7" y="499.0" text-anchor="middle" font-family="Arial, sans-serif" font-size="11" fill="#374151"><tspan x="232.7" dy="0">15-24</tspan></text>
<rect x="283.4" y="323.9" width="20.0" height="157.1" fill="#0072B2" opacity="0.92"><title>Immigrants: 24.8%</title></rect>
<rect x="305.9" y="313.7" width="20.0" height="167.3" fill="#D55E00" opacity="0.92"><title>Emigrants: 26.5%</title></rect>
<rect x="328.3" y="361.4" width="20.0" height="119.6" fill="#6B7280" opacity="0.92"><title>Stayers: 18.9%</title></rect>
<text x="315.9" y="499.0" text-anchor="middle" font-family="Arial, sans-serif" font-size="11" fill="#374151"><tspan x="315.9" dy="0">25-34</tspan></text>
<rect x="366.6" y="409.5" width="20.0" height="71.5" fill="#0072B2" opacity="0.92"><title>Immigrants: 11.3%</title></rect>
<rect x="389.0" y="377.1" width="20.0" height="103.9" fill="#D55E00" opacity="0.92"><title>Emigrants: 16.4%</title></rect>
<rect x="411.5" y="383.4" width="20.0" height="97.6" fill="#6B7280" opacity="0.92"><title>Stayers: 15.4%</title></rect>
<text x="399.0" y="499.0" text-anchor="middle" font-family="Arial, sans-serif" font-size="11" fill="#374151"><tspan x="399.0" dy="0">35-44</tspan></text>
<rect x="449.7" y="450.7" width="20.0" height="30.3" fill="#0072B2" opacity="0.92"><title>Immigrants: 4.8%</title></rect>
<rect x="472.2" y="437.4" width="20.0" height="43.6" fill="#D55E00" opacity="0.92"><title>Emigrants: 6.9%</title></rect>
<rect x="494.6" y="415.5" width="20.0" height="65.5" fill="#6B7280" opacity="0.92"><title>Stayers: 10.4%</title></rect>
<text x="482.1" y="499.0" text-anchor="middle" font-family="Arial, sans-serif" font-size="11" fill="#374151"><tspan x="482.1" dy="0">45-54</tspan></text>
<rect x="532.9" y="463.6" width="20.0" height="17.4" fill="#0072B2" opacity="0.92"><title>Immigrants: 2.7%</title></rect>
<rect x="555.3" y="455.5" width="20.0" height="25.5" fill="#D55E00" opacity="0.92"><title>Emigrants: 4.0%</title></rect>
<rect x="577.8" y="430.9" width="20.0" height="50.1" fill="#6B7280" opacity="0.92"><title>Stayers: 7.9%</title></rect>
<text x="565.3" y="499.0" text-anchor="middle" font-family="Arial, sans-serif" font-size="11" fill="#374151"><tspan x="565.3" dy="0">55-64</tspan></text>
<rect x="616.0" y="466.5" width="20.0" height="14.5" fill="#0072B2" opacity="0.92"><title>Immigrants: 2.3%</title></rect>
<rect x="638.5" y="459.8" width="20.0" height="21.2" fill="#D55E00" opacity="0.92"><title>Emigrants: 3.4%</title></rect>
<rect x="660.9" y="438.6" width="20.0" height="42.4" fill="#6B7280" opacity="0.92"><title>Stayers: 6.7%</title></rect>
<text x="648.4" y="499.0" text-anchor="middle" font-family="Arial, sans-serif" font-size="11" fill="#374151"><tspan x="648.4" dy="0">65+</tspan></text>
<text x="746.0" y="208.0" text-anchor="start" font-family="Arial, sans-serif" font-size="17" font-weight="600" fill="#1F2937">Income rank</text>
<line x1="800.0" y1="481.0" x2="1382.0" y2="481.0" stroke="#E5E7EB" stroke-width="1"/>
<text x="792.0" y="485.0" text-anchor="end" font-family="Arial, sans-serif" font-size="11" font-weight="400" fill="#6B7280">0%</text>
<line x1="800.0" y1="417.8" x2="1382.0" y2="417.8" stroke="#E5E7EB" stroke-width="1"/>
<text x="792.0" y="421.8" text-anchor="end" font-family="Arial, sans-serif" font-size="11" font-weight="400" fill="#6B7280">10%</text>
<line x1="800.0" y1="354.5" x2="1382.0" y2="354.5" stroke="#E5E7EB" stroke-width="1"/>
<text x="792.0" y="358.5" text-anchor="end" font-family="Arial, sans-serif" font-size="11" font-weight="400" fill="#6B7280">20%</text>
<line x1="800.0" y1="291.2" x2="1382.0" y2="291.2" stroke="#E5E7EB" stroke-width="1"/>
<text x="792.0" y="295.2" text-anchor="end" font-family="Arial, sans-serif" font-size="11" font-weight="400" fill="#6B7280">30%</text>
<line x1="800.0" y1="228.0" x2="1382.0" y2="228.0" stroke="#E5E7EB" stroke-width="1"/>
<text x="792.0" y="232.0" text-anchor="end" font-family="Arial, sans-serif" font-size="11" font-weight="400" fill="#6B7280">40%</text>
<line x1="800.0" y1="228.0" x2="800.0" y2="481.0" stroke="#9CA3AF"/>
<line x1="800.0" y1="481.0" x2="1382.0" y2="481.0" stroke="#9CA3AF"/>
<rect x="810.7" y="277.1" width="23.3" height="203.9" fill="#0072B2" opacity="0.92"><title>Immigrants: 32.2%</title></rect>
<rect x="836.9" y="278.3" width="23.3" height="202.7" fill="#D55E00" opacity="0.92"><title>Emigrants: 32.0%</title></rect>
<rect x="863.0" y="274.4" width="23.3" height="206.6" fill="#6B7280" opacity="0.92"><title>Stayers: 32.7%</title></rect>
<text x="848.5" y="499.0" text-anchor="middle" font-family="Arial, sans-serif" font-size="11" fill="#374151"><tspan x="848.5" dy="0">No</tspan><tspan x="848.5" dy="13">income</tspan></text>
<rect x="907.7" y="434.3" width="23.3" height="46.7" fill="#0072B2" opacity="0.92"><title>Immigrants: 7.4%</title></rect>
<rect x="933.9" y="431.8" width="23.3" height="49.2" fill="#D55E00" opacity="0.92"><title>Emigrants: 7.8%</title></rect>
<rect x="960.0" y="430.4" width="23.3" height="50.6" fill="#6B7280" opacity="0.92"><title>Stayers: 8.0%</title></rect>
<text x="945.5" y="499.0" text-anchor="middle" font-family="Arial, sans-serif" font-size="11" fill="#374151"><tspan x="945.5" dy="0">Q1</tspan></text>
<rect x="1004.7" y="366.7" width="23.3" height="114.3" fill="#0072B2" opacity="0.92"><title>Immigrants: 18.1%</title></rect>
<rect x="1030.9" y="409.2" width="23.3" height="71.8" fill="#D55E00" opacity="0.92"><title>Emigrants: 11.4%</title></rect>
<rect x="1057.0" y="389.0" width="23.3" height="92.0" fill="#6B7280" opacity="0.92"><title>Stayers: 14.5%</title></rect>
<text x="1042.5" y="499.0" text-anchor="middle" font-family="Arial, sans-serif" font-size="11" fill="#374151"><tspan x="1042.5" dy="0">Q2</tspan></text>
<rect x="1101.7" y="380.9" width="23.3" height="100.1" fill="#0072B2" opacity="0.92"><title>Immigrants: 15.8%</title></rect>
<rect x="1127.9" y="415.5" width="23.3" height="65.5" fill="#D55E00" opacity="0.92"><title>Emigrants: 10.3%</title></rect>
<rect x="1154.1" y="395.3" width="23.3" height="85.7" fill="#6B7280" opacity="0.92"><title>Stayers: 13.5%</title></rect>
<text x="1139.5" y="499.0" text-anchor="middle" font-family="Arial, sans-serif" font-size="11" fill="#374151"><tspan x="1139.5" dy="0">Q3</tspan></text>
<rect x="1198.7" y="405.4" width="23.3" height="75.6" fill="#0072B2" opacity="0.92"><title>Immigrants: 12.0%</title></rect>
<rect x="1224.9" y="395.8" width="23.3" height="85.2" fill="#D55E00" opacity="0.92"><title>Emigrants: 13.5%</title></rect>
<rect x="1251.1" y="387.1" width="23.3" height="93.9" fill="#6B7280" opacity="0.92"><title>Stayers: 14.9%</title></rect>
<text x="1236.5" y="499.0" text-anchor="middle" font-family="Arial, sans-serif" font-size="11" fill="#374151"><tspan x="1236.5" dy="0">Q4</tspan></text>
<rect x="1295.7" y="389.1" width="23.3" height="91.9" fill="#0072B2" opacity="0.92"><title>Immigrants: 14.5%</title></rect>
<rect x="1321.9" y="322.9" width="23.3" height="158.1" fill="#D55E00" opacity="0.92"><title>Emigrants: 25.0%</title></rect>
<rect x="1348.1" y="377.3" width="23.3" height="103.7" fill="#6B7280" opacity="0.92"><title>Stayers: 16.4%</title></rect>
<text x="1333.5" y="499.0" text-anchor="middle" font-family="Arial, sans-serif" font-size="11" fill="#374151"><tspan x="1333.5" dy="0">Q5</tspan></text>
<text x="54.0" y="583.0" text-anchor="start" font-family="Arial, sans-serif" font-size="17" font-weight="600" fill="#1F2937">Sex</text>
<line x1="108.0" y1="856.0" x2="690.0" y2="856.0" stroke="#E5E7EB" stroke-width="1"/>
<text x="100.0" y="860.0" text-anchor="end" font-family="Arial, sans-serif" font-size="11" font-weight="400" fill="#6B7280">0%</text>
<line x1="108.0" y1="792.8" x2="690.0" y2="792.8" stroke="#E5E7EB" stroke-width="1"/>
<text x="100.0" y="796.8" text-anchor="end" font-family="Arial, sans-serif" font-size="11" font-weight="400" fill="#6B7280">15%</text>
<line x1="108.0" y1="729.5" x2="690.0" y2="729.5" stroke="#E5E7EB" stroke-width="1"/>
<text x="100.0" y="733.5" text-anchor="end" font-family="Arial, sans-serif" font-size="11" font-weight="400" fill="#6B7280">30%</text>
<line x1="108.0" y1="666.2" x2="690.0" y2="666.2" stroke="#E5E7EB" stroke-width="1"/>
<text x="100.0" y="670.2" text-anchor="end" font-family="Arial, sans-serif" font-size="11" font-weight="400" fill="#6B7280">45%</text>
<line x1="108.0" y1="603.0" x2="690.0" y2="603.0" stroke="#E5E7EB" stroke-width="1"/>
<text x="100.0" y="607.0" text-anchor="end" font-family="Arial, sans-serif" font-size="11" font-weight="400" fill="#6B7280">60%</text>
<line x1="108.0" y1="603.0" x2="108.0" y2="856.0" stroke="#9CA3AF"/>
<line x1="108.0" y1="856.0" x2="690.0" y2="856.0" stroke="#9CA3AF"/>
<rect x="140.0" y="631.2" width="69.8" height="224.8" fill="#0072B2" opacity="0.92"><title>Immigrants: 53.3%</title></rect>
<rect x="218.6" y="648.7" width="69.8" height="207.3" fill="#D55E00" opacity="0.92"><title>Emigrants: 49.2%</title></rect>
<rect x="297.1" y="636.7" width="69.8" height="219.3" fill="#6B7280" opacity="0.92"><title>Stayers: 52.0%</title></rect>
<text x="253.5" y="874.0" text-anchor="middle" font-family="Arial, sans-serif" font-size="11" fill="#374151"><tspan x="253.5" dy="0">Women</tspan></text>
<rect x="431.0" y="659.1" width="69.8" height="196.9" fill="#0072B2" opacity="0.92"><title>Immigrants: 46.7%</title></rect>
<rect x="509.6" y="641.7" width="69.8" height="214.3" fill="#D55E00" opacity="0.92"><title>Emigrants: 50.8%</title></rect>
<rect x="588.1" y="653.6" width="69.8" height="202.4" fill="#6B7280" opacity="0.92"><title>Stayers: 48.0%</title></rect>
<text x="544.5" y="874.0" text-anchor="middle" font-family="Arial, sans-serif" font-size="11" fill="#374151"><tspan x="544.5" dy="0">Men</tspan></text>
<text x="746.0" y="583.0" text-anchor="start" font-family="Arial, sans-serif" font-size="17" font-weight="600" fill="#1F2937">Literacy (age 15+)</text>
<line x1="800.0" y1="856.0" x2="1382.0" y2="856.0" stroke="#E5E7EB" stroke-width="1"/>
<text x="792.0" y="860.0" text-anchor="end" font-family="Arial, sans-serif" font-size="11" font-weight="400" fill="#6B7280">0%</text>
<line x1="800.0" y1="792.8" x2="1382.0" y2="792.8" stroke="#E5E7EB" stroke-width="1"/>
<text x="792.0" y="796.8" text-anchor="end" font-family="Arial, sans-serif" font-size="11" font-weight="400" fill="#6B7280">25%</text>
<line x1="800.0" y1="729.5" x2="1382.0" y2="729.5" stroke="#E5E7EB" stroke-width="1"/>
<text x="792.0" y="733.5" text-anchor="end" font-family="Arial, sans-serif" font-size="11" font-weight="400" fill="#6B7280">50%</text>
<line x1="800.0" y1="666.2" x2="1382.0" y2="666.2" stroke="#E5E7EB" stroke-width="1"/>
<text x="792.0" y="670.2" text-anchor="end" font-family="Arial, sans-serif" font-size="11" font-weight="400" fill="#6B7280">75%</text>
<line x1="800.0" y1="603.0" x2="1382.0" y2="603.0" stroke="#E5E7EB" stroke-width="1"/>
<text x="792.0" y="607.0" text-anchor="end" font-family="Arial, sans-serif" font-size="11" font-weight="400" fill="#6B7280">100%</text>
<line x1="800.0" y1="603.0" x2="800.0" y2="856.0" stroke="#9CA3AF"/>
<line x1="800.0" y1="856.0" x2="1382.0" y2="856.0" stroke="#9CA3AF"/>
<rect x="832.0" y="825.0" width="69.8" height="31.0" fill="#0072B2" opacity="0.92"><title>Immigrants: 12.3%</title></rect>
<rect x="910.6" y="839.1" width="69.8" height="16.9" fill="#D55E00" opacity="0.92"><title>Emigrants: 6.7%</title></rect>
<rect x="989.1" y="832.6" width="69.8" height="23.4" fill="#6B7280" opacity="0.92"><title>Stayers: 9.2%</title></rect>
<text x="945.5" y="874.0" text-anchor="middle" font-family="Arial, sans-serif" font-size="11" fill="#374151"><tspan x="945.5" dy="0">Not</tspan><tspan x="945.5" dy="13">literate</tspan></text>
<rect x="1123.0" y="634.0" width="69.8" height="222.0" fill="#0072B2" opacity="0.92"><title>Immigrants: 87.7%</title></rect>
<rect x="1201.6" y="619.9" width="69.8" height="236.1" fill="#D55E00" opacity="0.92"><title>Emigrants: 93.3%</title></rect>
<rect x="1280.2" y="626.4" width="69.8" height="229.6" fill="#6B7280" opacity="0.92"><title>Stayers: 90.8%</title></rect>
<text x="1236.5" y="874.0" text-anchor="middle" font-family="Arial, sans-serif" font-size="11" fill="#374151"><tspan x="1236.5" dy="0">Literate</tspan></text>
<text x="54.0" y="958.0" text-anchor="start" font-family="Arial, sans-serif" font-size="17" font-weight="600" fill="#1F2937">Years of schooling (age 15+)</text>
<line x1="108.0" y1="1231.0" x2="690.0" y2="1231.0" stroke="#E5E7EB" stroke-width="1"/>
<text x="100.0" y="1235.0" text-anchor="end" font-family="Arial, sans-serif" font-size="11" font-weight="400" fill="#6B7280">0%</text>
<line x1="108.0" y1="1167.8" x2="690.0" y2="1167.8" stroke="#E5E7EB" stroke-width="1"/>
<text x="100.0" y="1171.8" text-anchor="end" font-family="Arial, sans-serif" font-size="11" font-weight="400" fill="#6B7280">10%</text>
<line x1="108.0" y1="1104.5" x2="690.0" y2="1104.5" stroke="#E5E7EB" stroke-width="1"/>
<text x="100.0" y="1108.5" text-anchor="end" font-family="Arial, sans-serif" font-size="11" font-weight="400" fill="#6B7280">20%</text>
<line x1="108.0" y1="1041.2" x2="690.0" y2="1041.2" stroke="#E5E7EB" stroke-width="1"/>
<text x="100.0" y="1045.2" text-anchor="end" font-family="Arial, sans-serif" font-size="11" font-weight="400" fill="#6B7280">30%</text>
<line x1="108.0" y1="978.0" x2="690.0" y2="978.0" stroke="#E5E7EB" stroke-width="1"/>
<text x="100.0" y="982.0" text-anchor="end" font-family="Arial, sans-serif" font-size="11" font-weight="400" fill="#6B7280">40%</text>
<line x1="108.0" y1="978.0" x2="108.0" y2="1231.0" stroke="#9CA3AF"/>
<line x1="108.0" y1="1231.0" x2="690.0" y2="1231.0" stroke="#9CA3AF"/>
<rect x="118.7" y="1153.8" width="23.3" height="77.2" fill="#0072B2" opacity="0.92"><title>Immigrants: 12.2%</title></rect>
<rect x="144.9" y="1188.1" width="23.3" height="42.9" fill="#D55E00" opacity="0.92"><title>Emigrants: 6.8%</title></rect>
<rect x="171.1" y="1166.8" width="23.3" height="64.2" fill="#6B7280" opacity="0.92"><title>Stayers: 10.1%</title></rect>
<text x="156.5" y="1249.0" text-anchor="middle" font-family="Arial, sans-serif" font-size="11" fill="#374151"><tspan x="156.5" dy="0">0</tspan></text>
<rect x="215.7" y="1131.2" width="23.3" height="99.8" fill="#0072B2" opacity="0.92"><title>Immigrants: 15.8%</title></rect>
<rect x="241.9" y="1169.5" width="23.3" height="61.5" fill="#D55E00" opacity="0.92"><title>Emigrants: 9.7%</title></rect>
<rect x="268.1" y="1147.6" width="23.3" height="83.4" fill="#6B7280" opacity="0.92"><title>Stayers: 13.2%</title></rect>
<text x="253.5" y="1249.0" text-anchor="middle" font-family="Arial, sans-serif" font-size="11" fill="#374151"><tspan x="253.5" dy="0">1-3</tspan></text>
<rect x="312.7" y="1041.7" width="23.3" height="189.3" fill="#0072B2" opacity="0.92"><title>Immigrants: 29.9%</title></rect>
<rect x="338.9" y="1053.7" width="23.3" height="177.3" fill="#D55E00" opacity="0.92"><title>Emigrants: 28.0%</title></rect>
<rect x="365.1" y="1023.1" width="23.3" height="207.9" fill="#6B7280" opacity="0.92"><title>Stayers: 32.9%</title></rect>
<text x="350.5" y="1249.0" text-anchor="middle" font-family="Arial, sans-serif" font-size="11" fill="#374151"><tspan x="350.5" dy="0">4-7</tspan></text>
<rect x="409.7" y="1133.7" width="23.3" height="97.3" fill="#0072B2" opacity="0.92"><title>Immigrants: 15.4%</title></rect>
<rect x="435.9" y="1116.0" width="23.3" height="115.0" fill="#D55E00" opacity="0.92"><title>Emigrants: 18.2%</title></rect>
<rect x="462.1" y="1116.5" width="23.3" height="114.5" fill="#6B7280" opacity="0.92"><title>Stayers: 18.1%</title></rect>
<text x="447.5" y="1249.0" text-anchor="middle" font-family="Arial, sans-serif" font-size="11" fill="#374151"><tspan x="447.5" dy="0">8-10</tspan></text>
<rect x="506.7" y="1117.7" width="23.3" height="113.3" fill="#0072B2" opacity="0.92"><title>Immigrants: 17.9%</title></rect>
<rect x="532.9" y="1081.8" width="23.3" height="149.2" fill="#D55E00" opacity="0.92"><title>Emigrants: 23.6%</title></rect>
<rect x="559.1" y="1117.7" width="23.3" height="113.3" fill="#6B7280" opacity="0.92"><title>Stayers: 17.9%</title></rect>
<text x="544.5" y="1249.0" text-anchor="middle" font-family="Arial, sans-serif" font-size="11" fill="#374151"><tspan x="544.5" dy="0">11-14</tspan></text>
<rect x="603.7" y="1175.4" width="23.3" height="55.6" fill="#0072B2" opacity="0.92"><title>Immigrants: 8.8%</title></rect>
<rect x="629.9" y="1144.4" width="23.3" height="86.6" fill="#D55E00" opacity="0.92"><title>Emigrants: 13.7%</title></rect>
<rect x="656.0" y="1181.8" width="23.3" height="49.2" fill="#6B7280" opacity="0.92"><title>Stayers: 7.8%</title></rect>
<text x="641.5" y="1249.0" text-anchor="middle" font-family="Arial, sans-serif" font-size="11" fill="#374151"><tspan x="641.5" dy="0">15+</tspan></text>
<text x="746.0" y="958.0" text-anchor="start" font-family="Arial, sans-serif" font-size="17" font-weight="600" fill="#1F2937">Household size</text>
<text x="1071.0" y="1117.5" text-anchor="middle" font-family="Arial, sans-serif" font-size="15" font-weight="400" fill="#6B7280">Not available</text>
<text x="54.0" y="1333.0" text-anchor="start" font-family="Arial, sans-serif" font-size="17" font-weight="600" fill="#1F2937">Rooms in dwelling</text>
<line x1="108.0" y1="1606.0" x2="690.0" y2="1606.0" stroke="#E5E7EB" stroke-width="1"/>
<text x="100.0" y="1610.0" text-anchor="end" font-family="Arial, sans-serif" font-size="11" font-weight="400" fill="#6B7280">0%</text>
<line x1="108.0" y1="1542.8" x2="690.0" y2="1542.8" stroke="#E5E7EB" stroke-width="1"/>
<text x="100.0" y="1546.8" text-anchor="end" font-family="Arial, sans-serif" font-size="11" font-weight="400" fill="#6B7280">15%</text>
<line x1="108.0" y1="1479.5" x2="690.0" y2="1479.5" stroke="#E5E7EB" stroke-width="1"/>
<text x="100.0" y="1483.5" text-anchor="end" font-family="Arial, sans-serif" font-size="11" font-weight="400" fill="#6B7280">30%</text>
<line x1="108.0" y1="1416.2" x2="690.0" y2="1416.2" stroke="#E5E7EB" stroke-width="1"/>
<text x="100.0" y="1420.2" text-anchor="end" font-family="Arial, sans-serif" font-size="11" font-weight="400" fill="#6B7280">45%</text>
<line x1="108.0" y1="1353.0" x2="690.0" y2="1353.0" stroke="#E5E7EB" stroke-width="1"/>
<text x="100.0" y="1357.0" text-anchor="end" font-family="Arial, sans-serif" font-size="11" font-weight="400" fill="#6B7280">60%</text>
<line x1="108.0" y1="1353.0" x2="108.0" y2="1606.0" stroke="#9CA3AF"/>
<line x1="108.0" y1="1606.0" x2="690.0" y2="1606.0" stroke="#9CA3AF"/>
<rect x="118.7" y="1588.5" width="23.3" height="17.5" fill="#0072B2" opacity="0.92"><title>Immigrants: 4.2%</title></rect>
<rect x="144.9" y="1600.4" width="23.3" height="5.6" fill="#D55E00" opacity="0.92"><title>Emigrants: 1.3%</title></rect>
<rect x="171.1" y="1601.3" width="23.3" height="4.7" fill="#6B7280" opacity="0.92"><title>Stayers: 1.1%</title></rect>
<text x="156.5" y="1624.0" text-anchor="middle" font-family="Arial, sans-serif" font-size="11" fill="#374151"><tspan x="156.5" dy="0">1</tspan></text>
<rect x="215.7" y="1578.9" width="23.3" height="27.1" fill="#0072B2" opacity="0.92"><title>Immigrants: 6.4%</title></rect>
<rect x="241.9" y="1589.9" width="23.3" height="16.1" fill="#D55E00" opacity="0.92"><title>Emigrants: 3.8%</title></rect>
<rect x="268.1" y="1594.7" width="23.3" height="11.3" fill="#6B7280" opacity="0.92"><title>Stayers: 2.7%</title></rect>
<text x="253.5" y="1624.0" text-anchor="middle" font-family="Arial, sans-serif" font-size="11" fill="#374151"><tspan x="253.5" dy="0">2</tspan></text>
<rect x="312.7" y="1557.1" width="23.3" height="48.9" fill="#0072B2" opacity="0.92"><title>Immigrants: 11.6%</title></rect>
<rect x="338.9" y="1573.6" width="23.3" height="32.4" fill="#D55E00" opacity="0.92"><title>Emigrants: 7.7%</title></rect>
<rect x="365.1" y="1577.1" width="23.3" height="28.9" fill="#6B7280" opacity="0.92"><title>Stayers: 6.9%</title></rect>
<text x="350.5" y="1624.0" text-anchor="middle" font-family="Arial, sans-serif" font-size="11" fill="#374151"><tspan x="350.5" dy="0">3</tspan></text>
<rect x="409.7" y="1525.6" width="23.3" height="80.4" fill="#0072B2" opacity="0.92"><title>Immigrants: 19.1%</title></rect>
<rect x="435.9" y="1554.2" width="23.3" height="51.8" fill="#D55E00" opacity="0.92"><title>Emigrants: 12.3%</title></rect>
<rect x="462.1" y="1527.9" width="23.3" height="78.1" fill="#6B7280" opacity="0.92"><title>Stayers: 18.5%</title></rect>
<text x="447.5" y="1624.0" text-anchor="middle" font-family="Arial, sans-serif" font-size="11" fill="#374151"><tspan x="447.5" dy="0">4</tspan></text>
<rect x="506.7" y="1517.9" width="23.3" height="88.1" fill="#0072B2" opacity="0.92"><title>Immigrants: 20.9%</title></rect>
<rect x="532.9" y="1522.5" width="23.3" height="83.5" fill="#D55E00" opacity="0.92"><title>Emigrants: 19.8%</title></rect>
<rect x="559.1" y="1486.0" width="23.3" height="120.0" fill="#6B7280" opacity="0.92"><title>Stayers: 28.5%</title></rect>
<text x="544.5" y="1624.0" text-anchor="middle" font-family="Arial, sans-serif" font-size="11" fill="#374151"><tspan x="544.5" dy="0">5</tspan></text>
<rect x="603.7" y="1446.4" width="23.3" height="159.6" fill="#0072B2" opacity="0.92"><title>Immigrants: 37.8%</title></rect>
<rect x="629.9" y="1373.6" width="23.3" height="232.4" fill="#D55E00" opacity="0.92"><title>Emigrants: 55.1%</title></rect>
<rect x="656.0" y="1427.4" width="23.3" height="178.6" fill="#6B7280" opacity="0.92"><title>Stayers: 42.4%</title></rect>
<text x="641.5" y="1624.0" text-anchor="middle" font-family="Arial, sans-serif" font-size="11" fill="#374151"><tspan x="641.5" dy="0">6+</tspan></text>
<text x="746.0" y="1333.0" text-anchor="start" font-family="Arial, sans-serif" font-size="17" font-weight="600" fill="#1F2937">Refrigerator in dwelling</text>
<line x1="800.0" y1="1606.0" x2="1382.0" y2="1606.0" stroke="#E5E7EB" stroke-width="1"/>
<text x="792.0" y="1610.0" text-anchor="end" font-family="Arial, sans-serif" font-size="11" font-weight="400" fill="#6B7280">0%</text>
<line x1="800.0" y1="1542.8" x2="1382.0" y2="1542.8" stroke="#E5E7EB" stroke-width="1"/>
<text x="792.0" y="1546.8" text-anchor="end" font-family="Arial, sans-serif" font-size="11" font-weight="400" fill="#6B7280">25%</text>
<line x1="800.0" y1="1479.5" x2="1382.0" y2="1479.5" stroke="#E5E7EB" stroke-width="1"/>
<text x="792.0" y="1483.5" text-anchor="end" font-family="Arial, sans-serif" font-size="11" font-weight="400" fill="#6B7280">50%</text>
<line x1="800.0" y1="1416.2" x2="1382.0" y2="1416.2" stroke="#E5E7EB" stroke-width="1"/>
<text x="792.0" y="1420.2" text-anchor="end" font-family="Arial, sans-serif" font-size="11" font-weight="400" fill="#6B7280">75%</text>
<line x1="800.0" y1="1353.0" x2="1382.0" y2="1353.0" stroke="#E5E7EB" stroke-width="1"/>
<text x="792.0" y="1357.0" text-anchor="end" font-family="Arial, sans-serif" font-size="11" font-weight="400" fill="#6B7280">100%</text>
<line x1="800.0" y1="1353.0" x2="800.0" y2="1606.0" stroke="#9CA3AF"/>
<line x1="800.0" y1="1606.0" x2="1382.0" y2="1606.0" stroke="#9CA3AF"/>
<rect x="832.0" y="1562.6" width="69.8" height="43.4" fill="#0072B2" opacity="0.92"><title>Immigrants: 17.1%</title></rect>
<rect x="910.6" y="1562.7" width="69.8" height="43.3" fill="#D55E00" opacity="0.92"><title>Emigrants: 17.1%</title></rect>
<rect x="989.1" y="1583.7" width="69.8" height="22.3" fill="#6B7280" opacity="0.92"><title>Stayers: 8.8%</title></rect>
<text x="945.5" y="1624.0" text-anchor="middle" font-family="Arial, sans-serif" font-size="11" fill="#374151"><tspan x="945.5" dy="0">No</tspan></text>
<rect x="1123.0" y="1396.4" width="69.8" height="209.6" fill="#0072B2" opacity="0.92"><title>Immigrants: 82.9%</title></rect>
<rect x="1201.6" y="1396.3" width="69.8" height="209.7" fill="#D55E00" opacity="0.92"><title>Emigrants: 82.9%</title></rect>
<rect x="1280.2" y="1375.3" width="69.8" height="230.7" fill="#6B7280" opacity="0.92"><title>Stayers: 91.2%</title></rect>
<text x="1236.5" y="1624.0" text-anchor="middle" font-family="Arial, sans-serif" font-size="11" fill="#374151"><tspan x="1236.5" dy="0">Yes</tspan></text>
<text x="54.0" y="1692.0" text-anchor="start" font-family="Arial, sans-serif" font-size="13" font-weight="400" fill="#4B5563">Bars are percentages within migration group and panel; legend sizes use census person weights.</text>
<text x="54.0" y="1713.0" text-anchor="start" font-family="Arial, sans-serif" font-size="13" font-weight="400" fill="#4B5563">Income: no income plus national weighted quintiles among positive-income adults (1980 uses main-job income).</text>
</svg>