<svg xmlns="http://www.w3.org/2000/svg" width="1400" height="1730" viewBox="0 0 1400 1730" role="img">
<title>SE migration-group socioeconomic profile, 1991</title>
<rect width="100%" height="100%" fill="#FFFFFF"/>
<text x="54.0" y="54.0" text-anchor="start" font-family="Arial, sans-serif" font-size="29" font-weight="600" fill="#1F2937">SE: immigrants, emigrants, and stayers</text>
<text x="54.0" y="84.0" text-anchor="start" font-family="Arial, sans-serif" font-size="19" font-weight="400" fill="#374151">1991</text>
<text x="54.0" y="111.0" text-anchor="start" font-family="Arial, sans-serif" font-size="14" font-weight="400" fill="#6B7280">Five-year state of residence</text>
<rect x="54" y="136" width="18" height="18" rx="2" fill="#0072B2"/>
<text x="83.0" y="150.0" text-anchor="start" font-family="Arial, sans-serif" font-size="15" font-weight="400" fill="#1F2937">Immigrants  |  N = 56.0k</text>
<rect x="474" y="136" width="18" height="18" rx="2" fill="#D55E00"/>
<text x="503.0" y="150.0" text-anchor="start" font-family="Arial, sans-serif" font-size="15" font-weight="400" fill="#1F2937">Emigrants  |  N = 42.2k</text>
<rect x="894" y="136" width="18" height="18" rx="2" fill="#6B7280"/>
<text x="923.0" y="150.0" text-anchor="start" font-family="Arial, sans-serif" font-size="15" font-weight="400" fill="#1F2937">Stayers  |  N = 1,150.0k</text>
<text x="54.0" y="208.0" text-anchor="start" font-family="Arial, sans-serif" font-size="17" font-weight="600" fill="#1F2937">Age</text>
<line x1="108.0" y1="481.0" x2="690.0" y2="481.0" stroke="#E5E7EB" stroke-width="1"/>
<text x="100.0" y="485.0" text-anchor="end" font-family="Arial, sans-serif" font-size="11" font-weight="400" fill="#6B7280">0%</text>
<line x1="108.0" y1="417.8" x2="690.0" y2="417.8" stroke="#E5E7EB" stroke-width="1"/>
<text x="100.0" y="421.8" text-anchor="end" font-family="Arial, sans-serif" font-size="11" font-weight="400" fill="#6B7280">10%</text>
<line x1="108.0" y1="354.5" x2="690.0" y2="354.5" stroke="#E5E7EB" stroke-width="1"/>
<text x="100.0" y="358.5" text-anchor="end" font-family="Arial, sans-serif" font-size="11" font-weight="400" fill="#6B7280">20%</text>
<line x1="108.0" y1="291.2" x2="690.0" y2="291.2" stroke="#E5E7EB" stroke-width="1"/>
<text x="100.0" y="295.2" text-anchor="end" font-family="Arial, sans-serif" font-size="11" font-weight="400" fill="#6B7280">30%</text>
<line x1="108.0" y1="228.0" x2="690.0" y2="228.0" stroke="#E5E7EB" stroke-width="1"/>
<text x="100.0" y="232.0" text-anchor="end" font-family="Arial, sans-serif" font-size="11" font-weight="400" fill="#6B7280">40%</text>
<line x1="108.0" y1="228.0" x2="108.0" y2="481.0" stroke="#9CA3AF"/>
<line x1="108.0" y1="481.0" x2="690.0" y2="481.0" stroke="#9CA3AF"/>
<rect x="117.1" y="299.2" width="20.0" height="181.8" fill="#0072B2" opacity="0.92"><title>Immigrants: 28.7%</title></rect>
<rect x="139.6" y="336.4" width="20.0" height="144.6" fill="#D55E00" opacity="0.92"><title>Emigrants: 22.9%</title></rect>
<rect x="162.0" y="288.8" width="20.0" height="192.2" fill="#6B7280" opacity="0.92"><title>Stayers: 30.4%</title></rect>
<text x="149.6" y="499.0" text-anchor="middle" font-family="Arial, sans-serif" font-size="11" fill="#374151"><tspan x="149.6" dy="0">5-14</tspan></text>
<rect x="200.3" y="313.5" width="20.0" height="167.5" fill="#0072B2" opacity="0.92"><title>Immigrants: 26.5%</title></rect>
<rect x="222.7" y="250.8" width="20.0" height="230.2" fill="#D55E00" opacity="0.92"><title>Emigrants: 36.4%</title></rect>
<rect x="245.2" y="332.1" width="20.0" height="148.9" fill="#6B7280" opacity="0.92"><title>Stayers: 23.5%</title></rect>
<text x="232.7" y="499.0" text-anchor="middle" font-family="Arial, sans-serif" font-size="11" fill="#374151"><tspan x="232.7" dy="0">15-24</tspan></text>
<rect x="283.4" y="347.9" width="20.0" height="133.1" fill="#0072B2" opacity="0.92"><title>Immigrants: 21.0%</title></rect>
<rect x="305.9" y="336.6" width="20.0" height="144.4" fill="#D55E00" opacity="0.92"><title>Emigrants: 22.8%</title></rect>
<rect x="328.3" y="379.8" width="20.0" height="101.2" fill="#6B7280" opacity="0.92"><title>Stayers: 16.0%</title></rect>
<text x="315.9" y="499.0" text-anchor="middle" font-family="Arial, sans-serif" font-size="11" fill="#374151"><tspan x="315.9" dy="0">25-34</tspan></text>
<rect x="366.6" y="400.9" width="20.0" height="80.1" fill="#0072B2" opacity="0.92"><title>Immigrants: 12.7%</title></rect>
<rect x="389.0" y="419.7" width="20.0" height="61.3" fill="#D55E00" opacity="0.92"><title>Emigrants: 9.7%</title></rect>
<rect x="411.5" y="409.8" width="20.0" height="71.2" fill="#6B7280" opacity="0.92"><title>Stayers: 11.3%</title></rect>
<text x="399.0" y="499.0" text-anchor="middle" font-family="Arial, sans-serif" font-size="11" fill="#374151"><tspan x="399.0" dy="0">35-44</tspan></text>
<rect x="449.7" y="439.1" width="20.0" height="41.9" fill="#0072B2" opacity="0.92"><title>Immigrants: 6.6%</title></rect>
<rect x="472.2" y="455.5" width="20.0" height="25.5" fill="#D55E00" opacity="0.92"><title>Emigrants: 4.0%</title></rect>
<rect x="494.6" y="432.7" width="20.0" height="48.3" fill="#6B7280" opacity="0.92"><title>Stayers: 7.6%</title></rect>
<text x="482.1" y="499.0" text-anchor="middle" font-family="Arial, sans-serif" font-size="11" fill="#374151"><tspan x="482.1" dy="0">45-54</tspan></text>
<rect x="532.9" y="464.2" width="20.0" height="16.8" fill="#0072B2" opacity="0.92"><title>Immigrants: 2.7%</title></rect>
<rect x="555.3" y="465.4" width="20.0" height="15.6" fill="#D55E00" opacity="0.92"><title>Emigrants: 2.5%</title></rect>
<rect x="577.8" y="447.0" width="20.0" height="34.0" fill="#6B7280" opacity="0.92"><title>Stayers: 5.4%</title></rect>
<text x="565.3" y="499.0" text-anchor="middle" font-family="Arial, sans-serif" font-size="11" fill="#374151"><tspan x="565.3" dy="0">55-64</tspan></text>
<rect x="616.0" y="469.8" width="20.0" height="11.2" fill="#0072B2" opacity="0.92"><title>Immigrants: 1.8%</title></rect>
<rect x="638.5" y="470.1" width="20.0" height="10.9" fill="#D55E00" opacity="0.92"><title>Emigrants: 1.7%</title></rect>
<rect x="660.9" y="444.3" width="20.0" height="36.7" fill="#6B7280" opacity="0.92"><title>Stayers: 5.8%</title></rect>
<text x="648.4" y="499.0" text-anchor="middle" font-family="Arial, sans-serif" font-size="11" fill="#374151"><tspan x="648.4" dy="0">65+</tspan></text>
<text x="746.0" y="208.0" text-anchor="start" font-family="Arial, sans-serif" font-size="17" font-weight="600" fill="#1F2937">Income rank</text>
<line x1="800.0" y1="481.0" x2="1382.0" y2="481.0" stroke="#E5E7EB" stroke-width="1"/>
<text x="792.0" y="485.0" text-anchor="end" font-family="Arial, sans-serif" font-size="11" font-weight="400" fill="#6B7280">0%</text>
<line x1="800.0" y1="417.8" x2="1382.0" y2="417.8" stroke="#E5E7EB" stroke-width="1"/>
<text x="792.0" y="421.8" text-anchor="end" font-family="Arial, sans-serif" font-size="11" font-weight="400" fill="#6B7280">10%</text>
<line x1="800.0" y1="354.5" x2="1382.0" y2="354.5" stroke="#E5E7EB" stroke-width="1"/>
<text x="792.0" y="358.5" text-anchor="end" font-family="Arial, sans-serif" font-size="11" font-weight="400" fill="#6B7280">20%</text>
<line x1="800.0" y1="291.2" x2="1382.0" y2="291.2" stroke="#E5E7EB" stroke-width="1"/>
<text x="792.0" y="295.2" text-anchor="end" font-family="Arial, sans-serif" font-size="11" font-weight="400" fill="#6B7280">30%</text>
<line x1="800.0" y1="228.0" x2="1382.0" y2="228.0" stroke="#E5E7EB" stroke-width="1"/>
<text x="792.0" y="232.0" text-anchor="end" font-family="Arial, sans-serif" font-size="11" font-weight="400" fill="#6B7280">40%</text>
<line x1="800.0" y1="228.0" x2="800.0" y2="481.0" stroke="#9CA3AF"/>
<line x1="800.0" y1="481.0" x2="1382.0" y2="481.0" stroke="#9CA3AF"/>
<rect x="810.7" y="230.3" width="23.3" height="250.7" fill="#0072B2" opacity="0.92"><title>Immigrants: 39.6%</title></rect>
<rect x="836.9" y="263.2" width="23.3" height="217.8" fill="#D55E00" opacity="0.92"><title>Emigrants: 34.4%</title></rect>
<rect x="863.0" y="236.3" width="23.3" height="244.7" fill="#6B7280" opacity="0.92"><title>Stayers: 38.7%</title></rect>
<text x="848.5" y="499.0" text-anchor="middle" font-family="Arial, sans-serif" font-size="11" fill="#374151"><tspan x="848.5" dy="0">No</tspan><tspan x="848.5" dy="13">income</tspan></text>
<rect x="907.7" y="388.0" width="23.3" height="93.0" fill="#0072B2" opacity="0.92"><title>Immigrants: 14.7%</title></rect>
<rect x="933.9" y="421.9" width="23.3" height="59.1" fill="#D55E00" opacity="0.92"><title>Emigrants: 9.3%</title></rect>
<rect x="960.0" y="342.7" width="23.3" height="138.3" fill="#6B7280" opacity="0.92"><title>Stayers: 21.9%</title></rect>
<text x="945.5" y="499.0" text-anchor="middle" font-family="Arial, sans-serif" font-size="11" fill="#374151"><tspan x="945.5" dy="0">Q1</tspan></text>
<rect x="1004.7" y="383.2" width="23.3" height="97.8" fill="#0072B2" opacity="0.92"><title>Immigrants: 15.5%</title></rect>
<rect x="1030.9" y="386.8" width="23.3" height="94.2" fill="#D55E00" opacity="0.92"><title>Emigrants: 14.9%</title></rect>
<rect x="1057.0" y="375.1" width="23.3" height="105.9" fill="#6B7280" opacity="0.92"><title>Stayers: 16.7%</title></rect>
<text x="1042.5" y="499.0" text-anchor="middle" font-family="Arial, sans-serif" font-size="11" fill="#374151"><tspan x="1042.5" dy="0">Q2</tspan></text>
<rect x="1101.7" y="422.9" width="23.3" height="58.1" fill="#0072B2" opacity="0.92"><title>Immigrants: 9.2%</title></rect>
<rect x="1127.9" y="387.3" width="23.3" height="93.7" fill="#D55E00" opacity="0.92"><title>Emigrants: 14.8%</title></rect>
<rect x="1154.1" y="422.5" width="23.3" height="58.5" fill="#6B7280" opacity="0.92"><title>Stayers: 9.2%</title></rect>
<text x="1139.5" y="499.0" text-anchor="middle" font-family="Arial, sans-serif" font-size="11" fill="#374151"><tspan x="1139.5" dy="0">Q3</tspan></text>
<rect x="1198.7" y="421.3" width="23.3" height="59.7" fill="#0072B2" opacity="0.92"><title>Immigrants: 9.4%</title></rect>
<rect x="1224.9" y="380.8" width="23.3" height="100.2" fill="#D55E00" opacity="0.92"><title>Emigrants: 15.8%</title></rect>
<rect x="1251.1" y="436.1" width="23.3" height="44.9" fill="#6B7280" opacity="0.92"><title>Stayers: 7.1%</title></rect>
<text x="1236.5" y="499.0" text-anchor="middle" font-family="Arial, sans-serif" font-size="11" fill="#374151"><tspan x="1236.5" dy="0">Q4</tspan></text>
<rect x="1295.7" y="407.8" width="23.3" height="73.2" fill="#0072B2" opacity="0.92"><title>Immigrants: 11.6%</title></rect>
<rect x="1321.9" y="413.5" width="23.3" height="67.5" fill="#D55E00" opacity="0.92"><title>Emigrants: 10.7%</title></rect>
<rect x="1348.1" y="440.8" width="23.3" height="40.2" fill="#6B7280" opacity="0.92"><title>Stayers: 6.4%</title></rect>
<text x="1333.5" y="499.0" text-anchor="middle" font-family="Arial, sans-serif" font-size="11" fill="#374151"><tspan x="1333.5" dy="0">Q5</tspan></text>
<text x="54.0" y="583.0" text-anchor="start" font-family="Arial, sans-serif" font-size="17" font-weight="600" fill="#1F2937">Sex</text>
<line x1="108.0" y1="856.0" x2="690.0" y2="856.0" stroke="#E5E7EB" stroke-width="1"/>
<text x="100.0" y="860.0" text-anchor="end" font-family="Arial, sans-serif" font-size="11" font-weight="400" fill="#6B7280">0%</text>
<line x1="108.0" y1="792.8" x2="690.0" y2="792.8" stroke="#E5E7EB" stroke-width="1"/>
<text x="100.0" y="796.8" text-anchor="end" font-family="Arial, sans-serif" font-size="11" font-weight="400" fill="#6B7280">15%</text>
<line x1="108.0" y1="729.5" x2="690.0" y2="729.5" stroke="#E5E7EB" stroke-width="1"/>
<text x="100.0" y="733.5" text-anchor="end" font-family="Arial, sans-serif" font-size="11" font-weight="400" fill="#6B7280">30%</text>
<line x1="108.0" y1="666.2" x2="690.0" y2="666.2" stroke="#E5E7EB" stroke-width="1"/>
<text x="100.0" y="670.2" text-anchor="end" font-family="Arial, sans-serif" font-size="11" font-weight="400" fill="#6B7280">45%</text>
<line x1="108.0" y1="603.0" x2="690.0" y2="603.0" stroke="#E5E7EB" stroke-width="1"/>
<text x="100.0" y="607.0" text-anchor="end" font-family="Arial, sans-serif" font-size="11" font-weight="400" fill="#6B7280">60%</text>
<line x1="108.0" y1="603.0" x2="108.0" y2="856.0" stroke="#9CA3AF"/>
<line x1="108.0" y1="856.0" x2="690.0" y2="856.0" stroke="#9CA3AF"/>
<rect x="140.0" y="635.9" width="69.8" height="220.1" fill="#0072B2" opacity="0.92"><title>Immigrants: 52.2%</title></rect>
<rect x="218.6" y="641.3" width="69.8" height="214.7" fill="#D55E00" opacity="0.92"><title>Emigrants: 50.9%</title></rect>
<rect x="297.1" y="640.7" width="69.8" height="215.3" fill="#6B7280" opacity="0.92"><title>Stayers: 51.1%</title></rect>
<text x="253.5" y="874.0" text-anchor="middle" font-family="Arial, sans-serif" font-size="11" fill="#374151"><tspan x="253.5" dy="0">Women</tspan></text>
<rect x="431.0" y="654.4" width="69.8" height="201.6" fill="#0072B2" opacity="0.92"><title>Immigrants: 47.8%</title></rect>
<rect x="509.6" y="649.0" width="69.8" height="207.0" fill="#D55E00" opacity="0.92"><title>Emigrants: 49.1%</title></rect>
<rect x="588.1" y="649.7" width="69.8" height="206.3" fill="#6B7280" opacity="0.92"><title>Stayers: 48.9%</title></rect>
<text x="544.5" y="874.0" text-anchor="middle" font-family="Arial, sans-serif" font-size="11" fill="#374151"><tspan x="544.5" dy="0">Men</tspan></text>
<text x="746.0" y="583.0" text-anchor="start" font-family="Arial, sans-serif" font-size="17" font-weight="600" fill="#1F2937">Literacy (age 15+)</text>
<line x1="800.0" y1="856.0" x2="1382.0" y2="856.0" stroke="#E5E7EB" stroke-width="1"/>
<text x="792.0" y="860.0" text-anchor="end" font-family="Arial, sans-serif" font-size="11" font-weight="400" fill="#6B7280">0%</text>
<line x1="800.0" y1="792.8" x2="1382.0" y2="792.8" stroke="#E5E7EB" stroke-width="1"/>
<text x="792.0" y="796.8" text-anchor="end" font-family="Arial, sans-serif" font-size="11" font-weight="400" fill="#6B7280">20%</text>
<line x1="800.0" y1="729.5" x2="1382.0" y2="729.5" stroke="#E5E7EB" stroke-width="1"/>
<text x="792.0" y="733.5" text-anchor="end" font-family="Arial, sans-serif" font-size="11" font-weight="400" fill="#6B7280">40%</text>
<line x1="800.0" y1="666.2" x2="1382.0" y2="666.2" stroke="#E5E7EB" stroke-width="1"/>
<text x="792.0" y="670.2" text-anchor="end" font-family="Arial, sans-serif" font-size="11" font-weight="400" fill="#6B7280">60%</text>
<line x1="800.0" y1="603.0" x2="1382.0" y2="603.0" stroke="#E5E7EB" stroke-width="1"/>
<text x="792.0" y="607.0" text-anchor="end" font-family="Arial, sans-serif" font-size="11" font-weight="400" fill="#6B7280">80%</text>
<line x1="800.0" y1="603.0" x2="800.0" y2="856.0" stroke="#9CA3AF"/>
<line x1="800.0" y1="856.0" x2="1382.0" y2="856.0" stroke="#9CA3AF"/>
<rect x="832.0" y="784.0" width="69.8" height="72.0" fill="#0072B2" opacity="0.92"><title>Immigrants: 22.8%</title></rect>
<rect x="910.6" y="786.9" width="69.8" height="69.1" fill="#D55E00" opacity="0.92"><title>Emigrants: 21.9%</title></rect>
<rect x="989.1" y="742.1" width="69.8" height="113.9" fill="#6B7280" opacity="0.92"><title>Stayers: 36.0%</title></rect>
<text x="945.5" y="874.0" text-anchor="middle" font-family="Arial, sans-serif" font-size="11" fill="#374151"><tspan x="945.5" dy="0">Not</tspan><tspan x="945.5" dy="13">literate</tspan></text>
<rect x="1123.0" y="611.8" width="69.8" height="244.2" fill="#0072B2" opacity="0.92"><title>Immigrants: 77.2%</title></rect>
<rect x="1201.6" y="608.9" width="69.8" height="247.1" fill="#D55E00" opacity="0.92"><title>Emigrants: 78.1%</title></rect>
<rect x="1280.2" y="653.7" width="69.8" height="202.3" fill="#6B7280" opacity="0.92"><title>Stayers: 64.0%</title></rect>
<text x="1236.5" y="874.0" text-anchor="middle" font-family="Arial, sans-serif" font-size="11" fill="#374151"><tspan x="1236.5" dy="0">Literate</tspan></text>
<text x="54.0" y="958.0" text-anchor="start" font-family="Arial, sans-serif" font-size="17" font-weight="600" fill="#1F2937">Years of schooling (age 15+)</text>
<line x1="108.0" y1="1231.0" x2="690.0" y2="1231.0" stroke="#E5E7EB" stroke-width="1"/>
<text x="100.0" y="1235.0" text-anchor="end" font-family="Arial, sans-serif" font-size="11" font-weight="400" fill="#6B7280">0%</text>
<line x1="108.0" y1="1167.8" x2="690.0" y2="1167.8" stroke="#E5E7EB" stroke-width="1"/>
<text x="100.0" y="1171.8" text-anchor="end" font-family="Arial, sans-serif" font-size="11" font-weight="400" fill="#6B7280">10%</text>
<line x1="108.0" y1="1104.5" x2="690.0" y2="1104.5" stroke="#E5E7EB" stroke-width="1"/>
<text x="100.0" y="1108.5" text-anchor="end" font-family="Arial, sans-serif" font-size="11" font-weight="400" fill="#6B7280">20%</text>
<line x1="108.0" y1="1041.2" x2="690.0" y2="1041.2" stroke="#E5E7EB" stroke-width="1"/>
<text x="100.0" y="1045.2" text-anchor="end" font-family="Arial, sans-serif" font-size="11" font-weight="400" fill="#6B7280">30%</text>
<line x1="108.0" y1="978.0" x2="690.0" y2="978.0" stroke="#E5E7EB" stroke-width="1"/>
<text x="100.0" y="982.0" text-anchor="end" font-family="Arial, sans-serif" font-size="11" font-weight="400" fill="#6B7280">40%</text>
<line x1="108.0" y1="978.0" x2="108.0" y2="1231.0" stroke="#9CA3AF"/>
<line x1="108.0" y1="1231.0" x2="690.0" y2="1231.0" stroke="#9CA3AF"/>
<rect x="118.7" y="1099.3" width="23.3" height="131.7" fill="#0072B2" opacity="0.92"><title>Immigrants: 20.8%</title></rect>
<rect x="144.9" y="1099.4" width="23.3" height="131.6" fill="#D55E00" opacity="0.92"><title>Emigrants: 20.8%</title></rect>
<rect x="171.1" y="1023.5" width="23.3" height="207.5" fill="#6B7280" opacity="0.92"><title>Stayers: 32.8%</title></rect>
<text x="156.5" y="1249.0" text-anchor="middle" font-family="Arial, sans-serif" font-size="11" fill="#374151"><tspan x="156.5" dy="0">0</tspan></text>
<rect x="215.7" y="1120.3" width="23.3" height="110.7" fill="#0072B2" opacity="0.92"><title>Immigrants: 17.5%</title></rect>
<rect x="241.9" y="1103.1" width="23.3" height="127.9" fill="#D55E00" opacity="0.92"><title>Emigrants: 20.2%</title></rect>
<rect x="268.1" y="1101.4" width="23.3" height="129.6" fill="#6B7280" opacity="0.92"><title>Stayers: 20.5%</title></rect>
<text x="253.5" y="1249.0" text-anchor="middle" font-family="Arial, sans-serif" font-size="11" fill="#374151"><tspan x="253.5" dy="0">1-3</tspan></text>
<rect x="312.7" y="1051.2" width="23.3" height="179.8" fill="#0072B2" opacity="0.92"><title>Immigrants: 28.4%</title></rect>
<rect x="338.9" y="1034.3" width="23.3" height="196.7" fill="#D55E00" opacity="0.92"><title>Emigrants: 31.1%</title></rect>
<rect x="365.1" y="1071.4" width="23.3" height="159.6" fill="#6B7280" opacity="0.92"><title>Stayers: 25.2%</title></rect>
<text x="350.5" y="1249.0" text-anchor="middle" font-family="Arial, sans-serif" font-size="11" fill="#374151"><tspan x="350.5" dy="0">4-7</tspan></text>
<rect x="409.7" y="1144.9" width="23.3" height="86.1" fill="#0072B2" opacity="0.92"><title>Immigrants: 13.6%</title></rect>
<rect x="435.9" y="1153.8" width="23.3" height="77.2" fill="#D55E00" opacity="0.92"><title>Emigrants: 12.2%</title></rect>
<rect x="462.1" y="1173.4" width="23.3" height="57.6" fill="#6B7280" opacity="0.92"><title>Stayers: 9.1%</title></rect>
<text x="447.5" y="1249.0" text-anchor="middle" font-family="Arial, sans-serif" font-size="11" fill="#374151"><tspan x="447.5" dy="0">8-10</tspan></text>
<rect x="506.7" y="1141.3" width="23.3" height="89.7" fill="#0072B2" opacity="0.92"><title>Immigrants: 14.2%</title></rect>
<rect x="532.9" y="1157.9" width="23.3" height="73.1" fill="#D55E00" opacity="0.92"><title>Emigrants: 11.6%</title></rect>
<rect x="559.1" y="1172.8" width="23.3" height="58.2" fill="#6B7280" opacity="0.92"><title>Stayers: 9.2%</title></rect>
<text x="544.5" y="1249.0" text-anchor="middle" font-family="Arial, sans-serif" font-size="11" fill="#374151"><tspan x="544.5" dy="0">11-14</tspan></text>
<rect x="603.7" y="1196.6" width="23.3" height="34.4" fill="#0072B2" opacity="0.92"><title>Immigrants: 5.4%</title></rect>
<rect x="629.9" y="1204.9" width="23.3" height="26.1" fill="#D55E00" opacity="0.92"><title>Emigrants: 4.1%</title></rect>
<rect x="656.0" y="1211.2" width="23.3" height="19.8" fill="#6B7280" opacity="0.92"><title>Stayers: 3.1%</title></rect>
<text x="641.5" y="1249.0" text-anchor="middle" font-family="Arial, sans-serif" font-size="11" fill="#374151"><tspan x="641.5" dy="0">15+</tspan></text>
<text x="746.0" y="958.0" text-anchor="start" font-family="Arial, sans-serif" font-size="17" font-weight="600" fill="#1F2937">Household size</text>
<text x="1071.0" y="1117.5" text-anchor="middle" font-family="Arial, sans-serif" font-size="15" font-weight="400" fill="#6B7280">Not available</text>
<text x="54.0" y="1333.0" text-anchor="start" font-family="Arial, sans-serif" font-size="17" font-weight="600" fill="#1F2937">Rooms in dwelling</text>
<line x1="108.0" y1="1606.0" x2="690.0" y2="1606.0" stroke="#E5E7EB" stroke-width="1"/>
<text x="100.0" y="1610.0" text-anchor="end" font-family="Arial, sans-serif" font-size="11" font-weight="400" fill="#6B7280">0%</text>
<line x1="108.0" y1="1542.8" x2="690.0" y2="1542.8" stroke="#E5E7EB" stroke-width="1"/>
<text x="100.0" y="1546.8" text-anchor="end" font-family="Arial, sans-serif" font-size="11" font-weight="400" fill="#6B7280">15%</text>
<line x1="108.0" y1="1479.5" x2="690.0" y2="1479.5" stroke="#E5E7EB" stroke-width="1"/>
<text x="100.0" y="1483.5" text-anchor="end" font-family="Arial, sans-serif" font-size="11" font-weight="400" fill="#6B7280">30%</text>
<line x1="108.0" y1="1416.2" x2="690.0" y2="1416.2" stroke="#E5E7EB" stroke-width="1"/>
<text x="100.0" y="1420.2" text-anchor="end" font-family="Arial, sans-serif" font-size="11" font-weight="400" fill="#6B7280">45%</text>
<line x1="108.0" y1="1353.0" x2="690.0" y2="1353.0" stroke="#E5E7EB" stroke-width="1"/>
<text x="100.0" y="1357.0" text-anchor="end" font-family="Arial, sans-serif" font-size="11" font-weight="400" fill="#6B7280">60%</text>
<line x1="108.0" y1="1353.0" x2="108.0" y2="1606.0" stroke="#9CA3AF"/>
<line x1="108.0" y1="1606.0" x2="690.0" y2="1606.0" stroke="#9CA3AF"/>
<rect x="118.7" y="1595.7" width="23.3" height="10.3" fill="#0072B2" opacity="0.92"><title>Immigrants: 2.4%</title></rect>
<rect x="144.9" y="1588.4" width="23.3" height="17.6" fill="#D55E00" opacity="0.92"><title>Emigrants: 4.2%</title></rect>
<rect x="171.1" y="1601.9" width="23.3" height="4.1" fill="#6B7280" opacity="0.92"><title>Stayers: 1.0%</title></rect>
<text x="156.5" y="1624.0" text-anchor="middle" font-family="Arial, sans-serif" font-size="11" fill="#374151"><tspan x="156.5" dy="0">1</tspan></text>
<rect x="215.7" y="1576.3" width="23.3" height="29.7" fill="#0072B2" opacity="0.92"><title>Immigrants: 7.1%</title></rect>
<rect x="241.9" y="1570.7" width="23.3" height="35.3" fill="#D55E00" opacity="0.92"><title>Emigrants: 8.4%</title></rect>
<rect x="268.1" y="1592.6" width="23.3" height="13.4" fill="#6B7280" opacity="0.92"><title>Stayers: 3.2%</title></rect>
<text x="253.5" y="1624.0" text-anchor="middle" font-family="Arial, sans-serif" font-size="11" fill="#374151"><tspan x="253.5" dy="0">2</tspan></text>
<rect x="312.7" y="1572.7" width="23.3" height="33.3" fill="#0072B2" opacity="0.92"><title>Immigrants: 7.9%</title></rect>
<rect x="338.9" y="1545.4" width="23.3" height="60.6" fill="#D55E00" opacity="0.92"><title>Emigrants: 14.4%</title></rect>
<rect x="365.1" y="1577.4" width="23.3" height="28.6" fill="#6B7280" opacity="0.92"><title>Stayers: 6.8%</title></rect>
<text x="350.5" y="1624.0" text-anchor="middle" font-family="Arial, sans-serif" font-size="11" fill="#374151"><tspan x="350.5" dy="0">3</tspan></text>
<rect x="409.7" y="1541.1" width="23.3" height="64.9" fill="#0072B2" opacity="0.92"><title>Immigrants: 15.4%</title></rect>
<rect x="435.9" y="1537.8" width="23.3" height="68.2" fill="#D55E00" opacity="0.92"><title>Emigrants: 16.2%</title></rect>
<rect x="462.1" y="1543.2" width="23.3" height="62.8" fill="#6B7280" opacity="0.92"><title>Stayers: 14.9%</title></rect>
<text x="447.5" y="1624.0" text-anchor="middle" font-family="Arial, sans-serif" font-size="11" fill="#374151"><tspan x="447.5" dy="0">4</tspan></text>
<rect x="506.7" y="1534.5" width="23.3" height="71.5" fill="#0072B2" opacity="0.92"><title>Immigrants: 17.0%</title></rect>
<rect x="532.9" y="1520.4" width="23.3" height="85.6" fill="#D55E00" opacity="0.92"><title>Emigrants: 20.3%</title></rect>
<rect x="559.1" y="1515.6" width="23.3" height="90.4" fill="#6B7280" opacity="0.92"><title>Stayers: 21.4%</title></rect>
<text x="544.5" y="1624.0" text-anchor="middle" font-family="Arial, sans-serif" font-size="11" fill="#374151"><tspan x="544.5" dy="0">5</tspan></text>
<rect x="603.7" y="1394.1" width="23.3" height="211.9" fill="#0072B2" opacity="0.92"><title>Immigrants: 50.3%</title></rect>
<rect x="629.9" y="1451.6" width="23.3" height="154.4" fill="#D55E00" opacity="0.92"><title>Emigrants: 36.6%</title></rect>
<rect x="656.0" y="1383.7" width="23.3" height="222.3" fill="#6B7280" opacity="0.92"><title>Stayers: 52.7%</title></rect>
<text x="641.5" y="1624.0" text-anchor="middle" font-family="Arial, sans-serif" font-size="11" fill="#374151"><tspan x="641.5" dy="0">6+</tspan></text>
<text x="746.0" y="1333.0" text-anchor="start" font-family="Arial, sans-serif" font-size="17" font-weight="600" fill="#1F2937">Refrigerator in dwelling</text>
<line x1="800.0" y1="1606.0" x2="1382.0" y2="1606.0" stroke="#E5E7EB" stroke-width="1"/>
<text x="792.0" y="1610.0" text-anchor="end" font-family="Arial, sans-serif" font-size="11" font-weight="400" fill="#6B7280">0%</text>
<line x1="800.0" y1="1542.8" x2="1382.0" y2="1542.8" stroke="#E5E7EB" stroke-width="1"/>
<text x="792.0" y="1546.8" text-anchor="end" font-family="Arial, sans-serif" font-size="11" font-weight="400" fill="#6B7280">20%</text>
<line x1="800.0" y1="1479.5" x2="1382.0" y2="1479.5" stroke="#E5E7EB" stroke-width="1"/>
<text x="792.0" y="1483.5" text-anchor="end" font-family="Arial, sans-serif" font-size="11" font-weight="400" fill="#6B7280">40%</text>
<line x1="800.0" y1="1416.2" x2="1382.0" y2="1416.2" stroke="#E5E7EB" stroke-width="1"/>
<text x="792.0" y="1420.2" text-anchor="end" font-family="Arial, sans-serif" font-size="11" font-weight="400" fill="#6B7280">60%</text>
<line x1="800.0" y1="1353.0" x2="1382.0" y2="1353.0" stroke="#E5E7EB" stroke-width="1"/>
<text x="792.0" y="1357.0" text-anchor="end" font-family="Arial, sans-serif" font-size="11" font-weight="400" fill="#6B7280">80%</text>
<line x1="800.0" y1="1353.0" x2="800.0" y2="1606.0" stroke="#9CA3AF"/>
<line x1="800.0" y1="1606.0" x2="1382.0" y2="1606.0" stroke="#9CA3AF"/>
<rect x="832.0" y="1507.4" width="69.8" height="98.6" fill="#0072B2" opacity="0.92"><title>Immigrants: 31.2%</title></rect>
<rect x="910.6" y="1524.3" width="69.8" height="81.7" fill="#D55E00" opacity="0.92"><title>Emigrants: 25.8%</title></rect>
<rect x="989.1" y="1506.6" width="69.8" height="99.4" fill="#6B7280" opacity="0.92"><title>Stayers: 31.4%</title></rect>
<text x="945.5" y="1624.0" text-anchor="middle" font-family="Arial, sans-serif" font-size="11" fill="#374151"><tspan x="945.5" dy="0">No</tspan></text>
<rect x="1123.0" y="1388.3" width="69.8" height="217.7" fill="#0072B2" opacity="0.92"><title>Immigrants: 68.8%</title></rect>
<rect x="1201.6" y="1371.5" width="69.8" height="234.5" fill="#D55E00" opacity="0.92"><title>Emigrants: 74.2%</title></rect>
<rect x="1280.2" y="1389.2" width="69.8" height="216.8" fill="#6B7280" opacity="0.92"><title>Stayers: 68.6%</title></rect>
<text x="1236.5" y="1624.0" text-anchor="middle" font-family="Arial, sans-serif" font-size="11" fill="#374151"><tspan x="1236.5" dy="0">Yes</tspan></text>
<text x="54.0" y="1692.0" text-anchor="start" font-family="Arial, sans-serif" font-size="13" font-weight="400" fill="#4B5563">Bars are percentages within migration group and panel; legend sizes use census person weights.</text>
<text x="54.0" y="1713.0" text-anchor="start" font-family="Arial, sans-serif" font-size="13" font-weight="400" fill="#4B5563">Income: no income plus national weighted quintiles among positive-income adults (1980 uses main-job income).</text>
</svg>