<svg xmlns="http://www.w3.org/2000/svg" width="1400" height="1730" viewBox="0 0 1400 1730" role="img">
<title>BA migration-group socioeconomic profile, 1980</title>
<rect width="100%" height="100%" fill="#FFFFFF"/>
<text x="54.0" y="54.0" text-anchor="start" font-family="Arial, sans-serif" font-size="29" font-weight="600" fill="#1F2937">BA: immigrants, emigrants, and stayers</text>
<text x="54.0" y="84.0" text-anchor="start" font-family="Arial, sans-serif" font-size="19" font-weight="400" fill="#374151">1980</text>
<text x="54.0" y="111.0" text-anchor="start" font-family="Arial, sans-serif" font-size="14" font-weight="400" fill="#6B7280">Proxy: state of birth</text>
<rect x="54" y="136" width="18" height="18" rx="2" fill="#0072B2"/>
<text x="83.0" y="150.0" text-anchor="start" font-family="Arial, sans-serif" font-size="15" font-weight="400" fill="#1F2937">Immigrants  |  N = 439.6k</text>
<rect x="474" y="136" width="18" height="18" rx="2" fill="#D55E00"/>
<text x="503.0" y="150.0" text-anchor="start" font-family="Arial, sans-serif" font-size="15" font-weight="400" fill="#1F2937">Emigrants  |  N = 1,870.6k</text>
<rect x="894" y="136" width="18" height="18" rx="2" fill="#6B7280"/>
<text x="923.0" y="150.0" text-anchor="start" font-family="Arial, sans-serif" font-size="15" font-weight="400" fill="#1F2937">Stayers  |  N = 7,442.9k</text>
<text x="54.0" y="208.0" text-anchor="start" font-family="Arial, sans-serif" font-size="17" font-weight="600" fill="#1F2937">Age</text>
<line x1="108.0" y1="481.0" x2="690.0" y2="481.0" stroke="#E5E7EB" stroke-width="1"/>
<text x="100.0" y="485.0" text-anchor="end" font-family="Arial, sans-serif" font-size="11" font-weight="400" fill="#6B7280">0%</text>
<line x1="108.0" y1="417.8" x2="690.0" y2="417.8" stroke="#E5E7EB" stroke-width="1"/>
<text x="100.0" y="421.8" text-anchor="end" font-family="Arial, sans-serif" font-size="11" font-weight="400" fill="#6B7280">10%</text>
<line x1="108.0" y1="354.5" x2="690.0" y2="354.5" stroke="#E5E7EB" stroke-width="1"/>
<text x="100.0" y="358.5" text-anchor="end" font-family="Arial, sans-serif" font-size="11" font-weight="400" fill="#6B7280">20%</text>
<line x1="108.0" y1="291.2" x2="690.0" y2="291.2" stroke="#E5E7EB" stroke-width="1"/>
<text x="100.0" y="295.2" text-anchor="end" font-family="Arial, sans-serif" font-size="11" font-weight="400" fill="#6B7280">30%</text>
<line x1="108.0" y1="228.0" x2="690.0" y2="228.0" stroke="#E5E7EB" stroke-width="1"/>
<text x="100.0" y="232.0" text-anchor="end" font-family="Arial, sans-serif" font-size="11" font-weight="400" fill="#6B7280">40%</text>
<line x1="108.0" y1="228.0" x2="108.0" y2="481.0" stroke="#9CA3AF"/>
<line x1="108.0" y1="481.0" x2="690.0" y2="481.0" stroke="#9CA3AF"/>
<rect x="117.1" y="346.7" width="20.0" height="134.3" fill="#0072B2" opacity="0.92"><title>Immigrants: 21.2%</title></rect>
<rect x="139.6" y="419.9" width="20.0" height="61.1" fill="#D55E00" opacity="0.92"><title>Emigrants: 9.7%</title></rect>
<rect x="162.0" y="267.3" width="20.0" height="213.7" fill="#6B7280" opacity="0.92"><title>Stayers: 33.8%</title></rect>
<text x="149.6" y="499.0" text-anchor="middle" font-family="Arial, sans-serif" font-size="11" fill="#374151"><tspan x="149.6" dy="0">5-14</tspan></text>
<rect x="200.3" y="336.6" width="20.0" height="144.4" fill="#0072B2" opacity="0.92"><title>Immigrants: 22.8%</title></rect>
<rect x="222.7" y="351.2" width="20.0" height="129.8" fill="#D55E00" opacity="0.92"><title>Emigrants: 20.5%</title></rect>
<rect x="245.2" y="329.5" width="20.0" height="151.5" fill="#6B7280" opacity="0.92"><title>Stayers: 24.0%</title></rect>
<text x="232.7" y="499.0" text-anchor="middle" font-family="Arial, sans-serif" font-size="11" fill="#374151"><tspan x="232.7" dy="0">15-24</tspan></text>
<rect x="283.4" y="347.2" width="20.0" height="133.8" fill="#0072B2" opacity="0.92"><title>Immigrants: 21.1%</title></rect>
<rect x="305.9" y="326.4" width="20.0" height="154.6" fill="#D55E00" opacity="0.92"><title>Emigrants: 24.4%</title></rect>
<rect x="328.3" y="391.1" width="20.0" height="89.9" fill="#6B7280" opacity="0.92"><title>Stayers: 14.2%</title></rect>
<text x="315.9" y="499.0" text-anchor="middle" font-family="Arial, sans-serif" font-size="11" fill="#374151"><tspan x="315.9" dy="0">25-34</tspan></text>
<rect x="366.6" y="386.3" width="20.0" height="94.7" fill="#0072B2" opacity="0.92"><title>Immigrants: 15.0%</title></rect>
<rect x="389.0" y="360.7" width="20.0" height="120.3" fill="#D55E00" opacity="0.92"><title>Emigrants: 19.0%</title></rect>
<rect x="411.5" y="413.9" width="20.0" height="67.1" fill="#6B7280" opacity="0.92"><title>Stayers: 10.6%</title></rect>
<text x="399.0" y="499.0" text-anchor="middle" font-family="Arial, sans-serif" font-size="11" fill="#374151"><tspan x="399.0" dy="0">35-44</tspan></text>
<rect x="449.7" y="420.1" width="20.0" height="60.9" fill="#0072B2" opacity="0.92"><title>Immigrants: 9.6%</title></rect>
<rect x="472.2" y="398.2" width="20.0" height="82.8" fill="#D55E00" opacity="0.92"><title>Emigrants: 13.1%</title></rect>
<rect x="494.6" y="433.7" width="20.0" height="47.3" fill="#6B7280" opacity="0.92"><title>Stayers: 7.5%</title></rect>
<text x="482.1" y="499.0" text-anchor="middle" font-family="Arial, sans-serif" font-size="11" fill="#374151"><tspan x="482.1" dy="0">45-54</tspan></text>
<rect x="532.9" y="446.2" width="20.0" height="34.8" fill="#0072B2" opacity="0.92"><title>Immigrants: 5.5%</title></rect>
<rect x="555.3" y="433.4" width="20.0" height="47.6" fill="#D55E00" opacity="0.92"><title>Emigrants: 7.5%</title></rect>
<rect x="577.8" y="449.8" width="20.0" height="31.2" fill="#6B7280" opacity="0.92"><title>Stayers: 4.9%</title></rect>
<text x="565.3" y="499.0" text-anchor="middle" font-family="Arial, sans-serif" font-size="11" fill="#374151"><tspan x="565.3" dy="0">55-64</tspan></text>
<rect x="616.0" y="451.3" width="20.0" height="29.7" fill="#0072B2" opacity="0.92"><title>Immigrants: 4.7%</title></rect>
<rect x="638.5" y="444.7" width="20.0" height="36.3" fill="#D55E00" opacity="0.92"><title>Emigrants: 5.7%</title></rect>
<rect x="660.9" y="449.2" width="20.0" height="31.8" fill="#6B7280" opacity="0.92"><title>Stayers: 5.0%</title></rect>
<text x="648.4" y="499.0" text-anchor="middle" font-family="Arial, sans-serif" font-size="11" fill="#374151"><tspan x="648.4" dy="0">65+</tspan></text>
<text x="746.0" y="208.0" text-anchor="start" font-family="Arial, sans-serif" font-size="17" font-weight="600" fill="#1F2937">Income rank</text>
<line x1="800.0" y1="481.0" x2="1382.0" y2="481.0" stroke="#E5E7EB" stroke-width="1"/>
<text x="792.0" y="485.0" text-anchor="end" font-family="Arial, sans-serif" font-size="11" font-weight="400" fill="#6B7280">0%</text>
<line x1="800.0" y1="417.8" x2="1382.0" y2="417.8" stroke="#E5E7EB" stroke-width="1"/>
<text x="792.0" y="421.8" text-anchor="end" font-family="Arial, sans-serif" font-size="11" font-weight="400" fill="#6B7280">15%</text>
<line x1="800.0" y1="354.5" x2="1382.0" y2="354.5" stroke="#E5E7EB" stroke-width="1"/>
<text x="792.0" y="358.5" text-anchor="end" font-family="Arial, sans-serif" font-size="11" font-weight="400" fill="#6B7280">30%</text>
<line x1="800.0" y1="291.2" x2="1382.0" y2="291.2" stroke="#E5E7EB" stroke-width="1"/>
<text x="792.0" y="295.2" text-anchor="end" font-family="Arial, sans-serif" font-size="11" font-weight="400" fill="#6B7280">45%</text>
<line x1="800.0" y1="228.0" x2="1382.0" y2="228.0" stroke="#E5E7EB" stroke-width="1"/>
<text x="792.0" y="232.0" text-anchor="end" font-family="Arial, sans-serif" font-size="11" font-weight="400" fill="#6B7280">60%</text>
<line x1="800.0" y1="228.0" x2="800.0" y2="481.0" stroke="#9CA3AF"/>
<line x1="800.0" y1="481.0" x2="1382.0" y2="481.0" stroke="#9CA3AF"/>
<rect x="810.7" y="283.3" width="23.3" height="197.7" fill="#0072B2" opacity="0.92"><title>Immigrants: 46.9%</title></rect>
<rect x="836.9" y="315.1" width="23.3" height="165.9" fill="#D55E00" opacity="0.92"><title>Emigrants: 39.4%</title></rect>
<rect x="863.0" y="265.2" width="23.3" height="215.8" fill="#6B7280" opacity="0.92"><title>Stayers: 51.2%</title></rect>
<text x="848.5" y="499.0" text-anchor="middle" font-family="Arial, sans-serif" font-size="11" fill="#374151"><tspan x="848.5" dy="0">No</tspan><tspan x="848.5" dy="13">income</tspan></text>
<rect x="907.7" y="433.1" width="23.3" height="47.9" fill="#0072B2" opacity="0.92"><title>Immigrants: 11.4%</title></rect>
<rect x="933.9" y="452.5" width="23.3" height="28.5" fill="#D55E00" opacity="0.92"><title>Emigrants: 6.7%</title></rect>
<rect x="960.0" y="404.6" width="23.3" height="76.4" fill="#6B7280" opacity="0.92"><title>Stayers: 18.1%</title></rect>
<text x="945.5" y="499.0" text-anchor="middle" font-family="Arial, sans-serif" font-size="11" fill="#374151"><tspan x="945.5" dy="0">Q1</tspan></text>
<rect x="1004.7" y="441.2" width="23.3" height="39.8" fill="#0072B2" opacity="0.92"><title>Immigrants: 9.4%</title></rect>
<rect x="1030.9" y="439.3" width="23.3" height="41.7" fill="#D55E00" opacity="0.92"><title>Emigrants: 9.9%</title></rect>
<rect x="1057.0" y="435.6" width="23.3" height="45.4" fill="#6B7280" opacity="0.92"><title>Stayers: 10.8%</title></rect>
<text x="1042.5" y="499.0" text-anchor="middle" font-family="Arial, sans-serif" font-size="11" fill="#374151"><tspan x="1042.5" dy="0">Q2</tspan></text>
<rect x="1101.7" y="441.8" width="23.3" height="39.2" fill="#0072B2" opacity="0.92"><title>Immigrants: 9.3%</title></rect>
<rect x="1127.9" y="414.7" width="23.3" height="66.3" fill="#D55E00" opacity="0.92"><title>Emigrants: 15.7%</title></rect>
<rect x="1154.1" y="446.3" width="23.3" height="34.7" fill="#6B7280" opacity="0.92"><title>Stayers: 8.2%</title></rect>
<text x="1139.5" y="499.0" text-anchor="middle" font-family="Arial, sans-serif" font-size="11" fill="#374151"><tspan x="1139.5" dy="0">Q3</tspan></text>
<rect x="1198.7" y="437.9" width="23.3" height="43.1" fill="#0072B2" opacity="0.92"><title>Immigrants: 10.2%</title></rect>
<rect x="1224.9" y="408.2" width="23.3" height="72.8" fill="#D55E00" opacity="0.92"><title>Emigrants: 17.3%</title></rect>
<rect x="1251.1" y="452.4" width="23.3" height="28.6" fill="#6B7280" opacity="0.92"><title>Stayers: 6.8%</title></rect>
<text x="1236.5" y="499.0" text-anchor="middle" font-family="Arial, sans-serif" font-size="11" fill="#374151"><tspan x="1236.5" dy="0">Q4</tspan></text>
<rect x="1295.7" y="427.0" width="23.3" height="54.0" fill="#0072B2" opacity="0.92"><title>Immigrants: 12.8%</title></rect>
<rect x="1321.9" y="434.5" width="23.3" height="46.5" fill="#D55E00" opacity="0.92"><title>Emigrants: 11.0%</title></rect>
<rect x="1348.1" y="460.1" width="23.3" height="20.9" fill="#6B7280" opacity="0.92"><title>Stayers: 5.0%</title></rect>
<text x="1333.5" y="499.0" text-anchor="middle" font-family="Arial, sans-serif" font-size="11" fill="#374151"><tspan x="1333.5" dy="0">Q5</tspan></text>
<text x="54.0" y="583.0" text-anchor="start" font-family="Arial, sans-serif" font-size="17" font-weight="600" fill="#1F2937">Sex</text>
<line x1="108.0" y1="856.0" x2="690.0" y2="856.0" stroke="#E5E7EB" stroke-width="1"/>
<text x="100.0" y="860.0" text-anchor="end" font-family="Arial, sans-serif" font-size="11" font-weight="400" fill="#6B7280">0%</text>
<line x1="108.0" y1="792.8" x2="690.0" y2="792.8" stroke="#E5E7EB" stroke-width="1"/>
<text x="100.0" y="796.8" text-anchor="end" font-family="Arial, sans-serif" font-size="11" font-weight="400" fill="#6B7280">15%</text>
<line x1="108.0" y1="729.5" x2="690.0" y2="729.5" stroke="#E5E7EB" stroke-width="1"/>
<text x="100.0" y="733.5" text-anchor="end" font-family="Arial, sans-serif" font-size="11" font-weight="400" fill="#6B7280">30%</text>
<line x1="108.0" y1="666.2" x2="690.0" y2="666.2" stroke="#E5E7EB" stroke-width="1"/>
<text x="100.0" y="670.2" text-anchor="end" font-family="Arial, sans-serif" font-size="11" font-weight="400" fill="#6B7280">45%</text>
<line x1="108.0" y1="603.0" x2="690.0" y2="603.0" stroke="#E5E7EB" stroke-width="1"/>
<text x="100.0" y="607.0" text-anchor="end" font-family="Arial, sans-serif" font-size="11" font-weight="400" fill="#6B7280">60%</text>
<line x1="108.0" y1="603.0" x2="108.0" y2="856.0" stroke="#9CA3AF"/>
<line x1="108.0" y1="856.0" x2="690.0" y2="856.0" stroke="#9CA3AF"/>
<rect x="140.0" y="648.3" width="69.8" height="207.7" fill="#0072B2" opacity="0.92"><title>Immigrants: 49.3%</title></rect>
<rect x="218.6" y="648.5" width="69.8" height="207.5" fill="#D55E00" opacity="0.92"><title>Emigrants: 49.2%</title></rect>
<rect x="297.1" y="641.2" width="69.8" height="214.8" fill="#6B7280" opacity="0.92"><title>Stayers: 50.9%</title></rect>
<text x="253.5" y="874.0" text-anchor="middle" font-family="Arial, sans-serif" font-size="11" fill="#374151"><tspan x="253.5" dy="0">Women</tspan></text>
<rect x="431.0" y="642.1" width="69.8" height="213.9" fill="#0072B2" opacity="0.92"><title>Immigrants: 50.7%</title></rect>
<rect x="509.6" y="641.9" width="69.8" height="214.1" fill="#D55E00" opacity="0.92"><title>Emigrants: 50.8%</title></rect>
<rect x="588.1" y="649.1" width="69.8" height="206.9" fill="#6B7280" opacity="0.92"><title>Stayers: 49.1%</title></rect>
<text x="544.5" y="874.0" text-anchor="middle" font-family="Arial, sans-serif" font-size="11" fill="#374151"><tspan x="544.5" dy="0">Men</tspan></text>
<text x="746.0" y="583.0" text-anchor="start" font-family="Arial, sans-serif" font-size="17" font-weight="600" fill="#1F2937">Literacy (age 15+)</text>
<line x1="800.0" y1="856.0" x2="1382.0" y2="856.0" stroke="#E5E7EB" stroke-width="1"/>
<text x="792.0" y="860.0" text-anchor="end" font-family="Arial, sans-serif" font-size="11" font-weight="400" fill="#6B7280">0%</text>
<line x1="800.0" y1="792.8" x2="1382.0" y2="792.8" stroke="#E5E7EB" stroke-width="1"/>
<text x="792.0" y="796.8" text-anchor="end" font-family="Arial, sans-serif" font-size="11" font-weight="400" fill="#6B7280">20%</text>
<line x1="800.0" y1="729.5" x2="1382.0" y2="729.5" stroke="#E5E7EB" stroke-width="1"/>
<text x="792.0" y="733.5" text-anchor="end" font-family="Arial, sans-serif" font-size="11" font-weight="400" fill="#6B7280">40%</text>
<line x1="800.0" y1="666.2" x2="1382.0" y2="666.2" stroke="#E5E7EB" stroke-width="1"/>
<text x="792.0" y="670.2" text-anchor="end" font-family="Arial, sans-serif" font-size="11" font-weight="400" fill="#6B7280">60%</text>
<line x1="800.0" y1="603.0" x2="1382.0" y2="603.0" stroke="#E5E7EB" stroke-width="1"/>
<text x="792.0" y="607.0" text-anchor="end" font-family="Arial, sans-serif" font-size="11" font-weight="400" fill="#6B7280">80%</text>
<line x1="800.0" y1="603.0" x2="800.0" y2="856.0" stroke="#9CA3AF"/>
<line x1="800.0" y1="856.0" x2="1382.0" y2="856.0" stroke="#9CA3AF"/>
<rect x="832.0" y="744.4" width="69.8" height="111.6" fill="#0072B2" opacity="0.92"><title>Immigrants: 35.3%</title></rect>
<rect x="910.6" y="761.2" width="69.8" height="94.8" fill="#D55E00" opacity="0.92"><title>Emigrants: 30.0%</title></rect>
<rect x="989.1" y="717.6" width="69.8" height="138.4" fill="#6B7280" opacity="0.92"><title>Stayers: 43.8%</title></rect>
<text x="945.5" y="874.0" text-anchor="middle" font-family="Arial, sans-serif" font-size="11" fill="#374151"><tspan x="945.5" dy="0">Not</tspan><tspan x="945.5" dy="13">literate</tspan></text>
<rect x="1123.0" y="651.3" width="69.8" height="204.7" fill="#0072B2" opacity="0.92"><title>Immigrants: 64.7%</title></rect>
<rect x="1201.6" y="634.5" width="69.8" height="221.5" fill="#D55E00" opacity="0.92"><title>Emigrants: 70.0%</title></rect>
<rect x="1280.2" y="678.2" width="69.8" height="177.8" fill="#6B7280" opacity="0.92"><title>Stayers: 56.2%</title></rect>
<text x="1236.5" y="874.0" text-anchor="middle" font-family="Arial, sans-serif" font-size="11" fill="#374151"><tspan x="1236.5" dy="0">Literate</tspan></text>
<text x="54.0" y="958.0" text-anchor="start" font-family="Arial, sans-serif" font-size="17" font-weight="600" fill="#1F2937">Years of schooling (age 15+)</text>
<text x="379.0" y="1117.5" text-anchor="middle" font-family="Arial, sans-serif" font-size="15" font-weight="400" fill="#6B7280">Not available</text>
<text x="746.0" y="958.0" text-anchor="start" font-family="Arial, sans-serif" font-size="17" font-weight="600" fill="#1F2937">Household size</text>
<line x1="800.0" y1="1231.0" x2="1382.0" y2="1231.0" stroke="#E5E7EB" stroke-width="1"/>
<text x="792.0" y="1235.0" text-anchor="end" font-family="Arial, sans-serif" font-size="11" font-weight="400" fill="#6B7280">0%</text>
<line x1="800.0" y1="1167.8" x2="1382.0" y2="1167.8" stroke="#E5E7EB" stroke-width="1"/>
<text x="792.0" y="1171.8" text-anchor="end" font-family="Arial, sans-serif" font-size="11" font-weight="400" fill="#6B7280">22.5%</text>
<line x1="800.0" y1="1104.5" x2="1382.0" y2="1104.5" stroke="#E5E7EB" stroke-width="1"/>
<text x="792.0" y="1108.5" text-anchor="end" font-family="Arial, sans-serif" font-size="11" font-weight="400" fill="#6B7280">45%</text>
<line x1="800.0" y1="1041.2" x2="1382.0" y2="1041.2" stroke="#E5E7EB" stroke-width="1"/>
<text x="792.0" y="1045.2" text-anchor="end" font-family="Arial, sans-serif" font-size="11" font-weight="400" fill="#6B7280">67.5%</text>
<line x1="800.0" y1="978.0" x2="1382.0" y2="978.0" stroke="#E5E7EB" stroke-width="1"/>
<text x="792.0" y="982.0" text-anchor="end" font-family="Arial, sans-serif" font-size="11" font-weight="400" fill="#6B7280">90%</text>
<line x1="800.0" y1="978.0" x2="800.0" y2="1231.0" stroke="#9CA3AF"/>
<line x1="800.0" y1="1231.0" x2="1382.0" y2="1231.0" stroke="#9CA3AF"/>
<rect x="810.7" y="1231.0" width="23.3" height="0.0" fill="#0072B2" opacity="0.92"><title>Immigrants: 0.0%</title></rect>
<rect x="836.9" y="1220.9" width="23.3" height="10.1" fill="#D55E00" opacity="0.92"><title>Emigrants: 3.6%</title></rect>
<rect x="863.0" y="1231.0" width="23.3" height="0.0" fill="#6B7280" opacity="0.92"><title>Stayers: 0.0%</title></rect>
<text x="848.5" y="1249.0" text-anchor="middle" font-family="Arial, sans-serif" font-size="11" fill="#374151"><tspan x="848.5" dy="0">1</tspan></text>
<rect x="907.7" y="1231.0" width="23.3" height="0.0" fill="#0072B2" opacity="0.92"><title>Immigrants: 0.0%</title></rect>
<rect x="933.9" y="1231.0" width="23.3" height="0.0" fill="#D55E00" opacity="0.92"><title>Emigrants: 0.0%</title></rect>
<rect x="960.0" y="1231.0" width="23.3" height="0.0" fill="#6B7280" opacity="0.92"><title>Stayers: 0.0%</title></rect>
<text x="945.5" y="1249.0" text-anchor="middle" font-family="Arial, sans-serif" font-size="11" fill="#374151"><tspan x="945.5" dy="0">2</tspan></text>
<rect x="1004.7" y="1231.0" width="23.3" height="0.0" fill="#0072B2" opacity="0.92"><title>Immigrants: 0.0%</title></rect>
<rect x="1030.9" y="1231.0" width="23.3" height="0.0" fill="#D55E00" opacity="0.92"><title>Emigrants: 0.0%</title></rect>
<rect x="1057.0" y="1231.0" width="23.3" height="0.0" fill="#6B7280" opacity="0.92"><title>Stayers: 0.0%</title></rect>
<text x="1042.5" y="1249.0" text-anchor="middle" font-family="Arial, sans-serif" font-size="11" fill="#374151"><tspan x="1042.5" dy="0">3</tspan></text>
<rect x="1101.7" y="1231.0" width="23.3" height="0.0" fill="#0072B2" opacity="0.92"><title>Immigrants: 0.0%</title></rect>
<rect x="1127.9" y="1198.1" width="23.3" height="32.9" fill="#D55E00" opacity="0.92"><title>Emigrants: 11.7%</title></rect>
<rect x="1154.1" y="1231.0" width="23.3" height="0.0" fill="#6B7280" opacity="0.92"><title>Stayers: 0.0%</title></rect>
<text x="1139.5" y="1249.0" text-anchor="middle" font-family="Arial, sans-serif" font-size="11" fill="#374151"><tspan x="1139.5" dy="0">4</tspan></text>
<rect x="1198.7" y="1231.0" width="23.3" height="0.0" fill="#0072B2" opacity="0.92"><title>Immigrants: 0.0%</title></rect>
<rect x="1224.9" y="1218.3" width="23.3" height="12.7" fill="#D55E00" opacity="0.92"><title>Emigrants: 4.5%</title></rect>
<rect x="1251.1" y="1231.0" width="23.3" height="0.0" fill="#6B7280" opacity="0.92"><title>Stayers: 0.0%</title></rect>
<text x="1236.5" y="1249.0" text-anchor="middle" font-family="Arial, sans-serif" font-size="11" fill="#374151"><tspan x="1236.5" dy="0">5</tspan></text>
<rect x="1295.7" y="1231.0" width="23.3" height="0.0" fill="#0072B2" opacity="0.92"><title>Immigrants: 0.0%</title></rect>
<rect x="1321.9" y="1005.6" width="23.3" height="225.4" fill="#D55E00" opacity="0.92"><title>Emigrants: 80.2%</title></rect>
<rect x="1348.1" y="1231.0" width="23.3" height="0.0" fill="#6B7280" opacity="0.92"><title>Stayers: 0.0%</title></rect>
<text x="1333.5" y="1249.0" text-anchor="middle" font-family="Arial, sans-serif" font-size="11" fill="#374151"><tspan x="1333.5" dy="0">6+</tspan></text>
<text x="54.0" y="1333.0" text-anchor="start" font-family="Arial, sans-serif" font-size="17" font-weight="600" fill="#1F2937">Rooms in dwelling</text>
<line x1="108.0" y1="1606.0" x2="690.0" y2="1606.0" stroke="#E5E7EB" stroke-width="1"/>
<text x="100.0" y="1610.0" text-anchor="end" font-family="Arial, sans-serif" font-size="11" font-weight="400" fill="#6B7280">0%</text>
<line x1="108.0" y1="1542.8" x2="690.0" y2="1542.8" stroke="#E5E7EB" stroke-width="1"/>
<text x="100.0" y="1546.8" text-anchor="end" font-family="Arial, sans-serif" font-size="11" font-weight="400" fill="#6B7280">12.5%</text>
<line x1="108.0" y1="1479.5" x2="690.0" y2="1479.5" stroke="#E5E7EB" stroke-width="1"/>
<text x="100.0" y="1483.5" text-anchor="end" font-family="Arial, sans-serif" font-size="11" font-weight="400" fill="#6B7280">25%</text>
<line x1="108.0" y1="1416.2" x2="690.0" y2="1416.2" stroke="#E5E7EB" stroke-width="1"/>
<text x="100.0" y="1420.2" text-anchor="end" font-family="Arial, sans-serif" font-size="11" font-weight="400" fill="#6B7280">37.5%</text>
<line x1="108.0" y1="1353.0" x2="690.0" y2="1353.0" stroke="#E5E7EB" stroke-width="1"/>
<text x="100.0" y="1357.0" text-anchor="end" font-family="Arial, sans-serif" font-size="11" font-weight="400" fill="#6B7280">50%</text>
<line x1="108.0" y1="1353.0" x2="108.0" y2="1606.0" stroke="#9CA3AF"/>
<line x1="108.0" y1="1606.0" x2="690.0" y2="1606.0" stroke="#9CA3AF"/>
<rect x="118.7" y="1594.2" width="23.3" height="11.8" fill="#0072B2" opacity="0.92"><title>Immigrants: 2.3%</title></rect>
<rect x="144.9" y="1580.0" width="23.3" height="26.0" fill="#D55E00" opacity="0.92"><title>Emigrants: 5.1%</title></rect>
<rect x="171.1" y="1599.6" width="23.3" height="6.4" fill="#6B7280" opacity="0.92"><title>Stayers: 1.3%</title></rect>
<text x="156.5" y="1624.0" text-anchor="middle" font-family="Arial, sans-serif" font-size="11" fill="#374151"><tspan x="156.5" dy="0">1</tspan></text>
<rect x="215.7" y="1573.1" width="23.3" height="32.9" fill="#0072B2" opacity="0.92"><title>Immigrants: 6.5%</title></rect>
<rect x="241.9" y="1548.6" width="23.3" height="57.4" fill="#D55E00" opacity="0.92"><title>Emigrants: 11.3%</title></rect>
<rect x="268.1" y="1584.7" width="23.3" height="21.3" fill="#6B7280" opacity="0.92"><title>Stayers: 4.2%</title></rect>
<text x="253.5" y="1624.0" text-anchor="middle" font-family="Arial, sans-serif" font-size="11" fill="#374151"><tspan x="253.5" dy="0">2</tspan></text>
<rect x="312.7" y="1559.8" width="23.3" height="46.2" fill="#0072B2" opacity="0.92"><title>Immigrants: 9.1%</title></rect>
<rect x="338.9" y="1518.9" width="23.3" height="87.1" fill="#D55E00" opacity="0.92"><title>Emigrants: 17.2%</title></rect>
<rect x="365.1" y="1564.0" width="23.3" height="42.0" fill="#6B7280" opacity="0.92"><title>Stayers: 8.3%</title></rect>
<text x="350.5" y="1624.0" text-anchor="middle" font-family="Arial, sans-serif" font-size="11" fill="#374151"><tspan x="350.5" dy="0">3</tspan></text>
<rect x="409.7" y="1524.0" width="23.3" height="82.0" fill="#0072B2" opacity="0.92"><title>Immigrants: 16.2%</title></rect>
<rect x="435.9" y="1504.4" width="23.3" height="101.6" fill="#D55E00" opacity="0.92"><title>Emigrants: 20.1%</title></rect>
<rect x="462.1" y="1522.7" width="23.3" height="83.3" fill="#6B7280" opacity="0.92"><title>Stayers: 16.5%</title></rect>
<text x="447.5" y="1624.0" text-anchor="middle" font-family="Arial, sans-serif" font-size="11" fill="#374151"><tspan x="447.5" dy="0">4</tspan></text>
<rect x="506.7" y="1510.9" width="23.3" height="95.1" fill="#0072B2" opacity="0.92"><title>Immigrants: 18.8%</title></rect>
<rect x="532.9" y="1513.3" width="23.3" height="92.7" fill="#D55E00" opacity="0.92"><title>Emigrants: 18.3%</title></rect>
<rect x="559.1" y="1501.2" width="23.3" height="104.8" fill="#6B7280" opacity="0.92"><title>Stayers: 20.7%</title></rect>
<text x="544.5" y="1624.0" text-anchor="middle" font-family="Arial, sans-serif" font-size="11" fill="#374151"><tspan x="544.5" dy="0">5</tspan></text>
<rect x="603.7" y="1368.0" width="23.3" height="238.0" fill="#0072B2" opacity="0.92"><title>Immigrants: 47.0%</title></rect>
<rect x="629.9" y="1464.7" width="23.3" height="141.3" fill="#D55E00" opacity="0.92"><title>Emigrants: 27.9%</title></rect>
<rect x="656.0" y="1357.9" width="23.3" height="248.1" fill="#6B7280" opacity="0.92"><title>Stayers: 49.0%</title></rect>
<text x="641.5" y="1624.0" text-anchor="middle" font-family="Arial, sans-serif" font-size="11" fill="#374151"><tspan x="641.5" dy="0">6+</tspan></text>
<text x="746.0" y="1333.0" text-anchor="start" font-family="Arial, sans-serif" font-size="17" font-weight="600" fill="#1F2937">Refrigerator in dwelling</text>
<line x1="800.0" y1="1606.0" x2="1382.0" y2="1606.0" stroke="#E5E7EB" stroke-width="1"/>
<text x="792.0" y="1610.0" text-anchor="end" font-family="Arial, sans-serif" font-size="11" font-weight="400" fill="#6B7280">0%</text>
<line x1="800.0" y1="1542.8" x2="1382.0" y2="1542.8" stroke="#E5E7EB" stroke-width="1"/>
<text x="792.0" y="1546.8" text-anchor="end" font-family="Arial, sans-serif" font-size="11" font-weight="400" fill="#6B7280">20%</text>
<line x1="800.0" y1="1479.5" x2="1382.0" y2="1479.5" stroke="#E5E7EB" stroke-width="1"/>
<text x="792.0" y="1483.5" text-anchor="end" font-family="Arial, sans-serif" font-size="11" font-weight="400" fill="#6B7280">40%</text>
<line x1="800.0" y1="1416.2" x2="1382.0" y2="1416.2" stroke="#E5E7EB" stroke-width="1"/>
<text x="792.0" y="1420.2" text-anchor="end" font-family="Arial, sans-serif" font-size="11" font-weight="400" fill="#6B7280">60%</text>
<line x1="800.0" y1="1353.0" x2="1382.0" y2="1353.0" stroke="#E5E7EB" stroke-width="1"/>
<text x="792.0" y="1357.0" text-anchor="end" font-family="Arial, sans-serif" font-size="11" font-weight="400" fill="#6B7280">80%</text>
<line x1="800.0" y1="1353.0" x2="800.0" y2="1606.0" stroke="#9CA3AF"/>
<line x1="800.0" y1="1606.0" x2="1382.0" y2="1606.0" stroke="#9CA3AF"/>
<rect x="832.0" y="1428.7" width="69.8" height="177.3" fill="#0072B2" opacity="0.92"><title>Immigrants: 56.1%</title></rect>
<rect x="910.6" y="1466.1" width="69.8" height="139.9" fill="#D55E00" opacity="0.92"><title>Emigrants: 44.2%</title></rect>
<rect x="989.1" y="1378.3" width="69.8" height="227.7" fill="#6B7280" opacity="0.92"><title>Stayers: 72.0%</title></rect>
<text x="945.5" y="1624.0" text-anchor="middle" font-family="Arial, sans-serif" font-size="11" fill="#374151"><tspan x="945.5" dy="0">No</tspan></text>
<rect x="1123.0" y="1467.1" width="69.8" height="138.9" fill="#0072B2" opacity="0.92"><title>Immigrants: 43.9%</title></rect>
<rect x="1201.6" y="1429.7" width="69.8" height="176.3" fill="#D55E00" opacity="0.92"><title>Emigrants: 55.8%</title></rect>
<rect x="1280.2" y="1517.5" width="69.8" height="88.5" fill="#6B7280" opacity="0.92"><title>Stayers: 28.0%</title></rect>
<text x="1236.5" y="1624.0" text-anchor="middle" font-family="Arial, sans-serif" font-size="11" fill="#374151"><tspan x="1236.5" dy="0">Yes</tspan></text>
<text x="54.0" y="1692.0" text-anchor="start" font-family="Arial, sans-serif" font-size="13" font-weight="400" fill="#4B5563">Bars are percentages within migration group and panel; legend sizes use census person weights.</text>
<text x="54.0" y="1713.0" text-anchor="start" font-family="Arial, sans-serif" font-size="13" font-weight="400" fill="#4B5563">Income: no income plus national weighted quintiles among positive-income adults (1980 uses main-job income).</text>
</svg>