<svg xmlns="http://www.w3.org/2000/svg" width="1400" height="1730" viewBox="0 0 1400 1730" role="img">
<title>MA migration-group socioeconomic profile, 1980</title>
<rect width="100%" height="100%" fill="#FFFFFF"/>
<text x="54.0" y="54.0" text-anchor="start" font-family="Arial, sans-serif" font-size="29" font-weight="600" fill="#1F2937">MA: immigrants, emigrants, and stayers</text>
<text x="54.0" y="84.0" text-anchor="start" font-family="Arial, sans-serif" font-size="19" font-weight="400" fill="#374151">1980</text>
<text x="54.0" y="111.0" text-anchor="start" font-family="Arial, sans-serif" font-size="14" font-weight="400" fill="#6B7280">Proxy: state of birth</text>
<rect x="54" y="136" width="18" height="18" rx="2" fill="#0072B2"/>
<text x="83.0" y="150.0" text-anchor="start" font-family="Arial, sans-serif" font-size="15" font-weight="400" fill="#1F2937">Immigrants  |  N = 441.9k</text>
<rect x="474" y="136" width="18" height="18" rx="2" fill="#D55E00"/>
<text x="503.0" y="150.0" text-anchor="start" font-family="Arial, sans-serif" font-size="15" font-weight="400" fill="#1F2937">Emigrants  |  N = 484.9k</text>
<rect x="894" y="136" width="18" height="18" rx="2" fill="#6B7280"/>
<text x="923.0" y="150.0" text-anchor="start" font-family="Arial, sans-serif" font-size="15" font-weight="400" fill="#1F2937">Stayers  |  N = 2,842.9k</text>
<text x="54.0" y="208.0" text-anchor="start" font-family="Arial, sans-serif" font-size="17" font-weight="600" fill="#1F2937">Age</text>
<line x1="108.0" y1="481.0" x2="690.0" y2="481.0" stroke="#E5E7EB" stroke-width="1"/>
<text x="100.0" y="485.0" text-anchor="end" font-family="Arial, sans-serif" font-size="11" font-weight="400" fill="#6B7280">0%</text>
<line x1="108.0" y1="417.8" x2="690.0" y2="417.8" stroke="#E5E7EB" stroke-width="1"/>
<text x="100.0" y="421.8" text-anchor="end" font-family="Arial, sans-serif" font-size="11" font-weight="400" fill="#6B7280">10%</text>
<line x1="108.0" y1="354.5" x2="690.0" y2="354.5" stroke="#E5E7EB" stroke-width="1"/>
<text x="100.0" y="358.5" text-anchor="end" font-family="Arial, sans-serif" font-size="11" font-weight="400" fill="#6B7280">20%</text>
<line x1="108.0" y1="291.2" x2="690.0" y2="291.2" stroke="#E5E7EB" stroke-width="1"/>
<text x="100.0" y="295.2" text-anchor="end" font-family="Arial, sans-serif" font-size="11" font-weight="400" fill="#6B7280">30%</text>
<line x1="108.0" y1="228.0" x2="690.0" y2="228.0" stroke="#E5E7EB" stroke-width="1"/>
<text x="100.0" y="232.0" text-anchor="end" font-family="Arial, sans-serif" font-size="11" font-weight="400" fill="#6B7280">40%</text>
<line x1="108.0" y1="228.0" x2="108.0" y2="481.0" stroke="#9CA3AF"/>
<line x1="108.0" y1="481.0" x2="690.0" y2="481.0" stroke="#9CA3AF"/>
<rect x="117.1" y="403.9" width="20.0" height="77.1" fill="#0072B2" opacity="0.92"><title>Immigrants: 12.2%</title></rect>
<rect x="139.6" y="377.7" width="20.0" height="103.3" fill="#D55E00" opacity="0.92"><title>Emigrants: 16.3%</title></rect>
<rect x="162.0" y="246.8" width="20.0" height="234.2" fill="#6B7280" opacity="0.92"><title>Stayers: 37.0%</title></rect>
<text x="149.6" y="499.0" text-anchor="middle" font-family="Arial, sans-serif" font-size="11" fill="#374151"><tspan x="149.6" dy="0">5-14</tspan></text>
<rect x="200.3" y="376.9" width="20.0" height="104.1" fill="#0072B2" opacity="0.92"><title>Immigrants: 16.5%</title></rect>
<rect x="222.7" y="306.7" width="20.0" height="174.3" fill="#D55E00" opacity="0.92"><title>Emigrants: 27.6%</title></rect>
<rect x="245.2" y="322.8" width="20.0" height="158.2" fill="#6B7280" opacity="0.92"><title>Stayers: 25.0%</title></rect>
<text x="232.7" y="499.0" text-anchor="middle" font-family="Arial, sans-serif" font-size="11" fill="#374151"><tspan x="232.7" dy="0">15-24</tspan></text>
<rect x="283.4" y="346.5" width="20.0" height="134.5" fill="#0072B2" opacity="0.92"><title>Immigrants: 21.3%</title></rect>
<rect x="305.9" y="337.8" width="20.0" height="143.2" fill="#D55E00" opacity="0.92"><title>Emigrants: 22.6%</title></rect>
<rect x="328.3" y="392.6" width="20.0" height="88.4" fill="#6B7280" opacity="0.92"><title>Stayers: 14.0%</title></rect>
<text x="315.9" y="499.0" text-anchor="middle" font-family="Arial, sans-serif" font-size="11" fill="#374151"><tspan x="315.9" dy="0">25-34</tspan></text>
<rect x="366.6" y="361.7" width="20.0" height="119.3" fill="#0072B2" opacity="0.92"><title>Immigrants: 18.9%</title></rect>
<rect x="389.0" y="390.0" width="20.0" height="91.0" fill="#D55E00" opacity="0.92"><title>Emigrants: 14.4%</title></rect>
<rect x="411.5" y="417.8" width="20.0" height="63.2" fill="#6B7280" opacity="0.92"><title>Stayers: 10.0%</title></rect>
<text x="399.0" y="499.0" text-anchor="middle" font-family="Arial, sans-serif" font-size="11" fill="#374151"><tspan x="399.0" dy="0">35-44</tspan></text>
<rect x="449.7" y="391.9" width="20.0" height="89.1" fill="#0072B2" opacity="0.92"><title>Immigrants: 14.1%</title></rect>
<rect x="472.2" y="422.4" width="20.0" height="58.6" fill="#D55E00" opacity="0.92"><title>Emigrants: 9.3%</title></rect>
<rect x="494.6" y="441.0" width="20.0" height="40.0" fill="#6B7280" opacity="0.92"><title>Stayers: 6.3%</title></rect>
<text x="482.1" y="499.0" text-anchor="middle" font-family="Arial, sans-serif" font-size="11" fill="#374151"><tspan x="482.1" dy="0">45-54</tspan></text>
<rect x="532.9" y="424.4" width="20.0" height="56.6" fill="#0072B2" opacity="0.92"><title>Immigrants: 8.9%</title></rect>
<rect x="555.3" y="447.0" width="20.0" height="34.0" fill="#D55E00" opacity="0.92"><title>Emigrants: 5.4%</title></rect>
<rect x="577.8" y="456.8" width="20.0" height="24.2" fill="#6B7280" opacity="0.92"><title>Stayers: 3.8%</title></rect>
<text x="565.3" y="499.0" text-anchor="middle" font-family="Arial, sans-serif" font-size="11" fill="#374151"><tspan x="565.3" dy="0">55-64</tspan></text>
<rect x="616.0" y="429.0" width="20.0" height="52.0" fill="#0072B2" opacity="0.92"><title>Immigrants: 8.2%</title></rect>
<rect x="638.5" y="453.0" width="20.0" height="28.0" fill="#D55E00" opacity="0.92"><title>Emigrants: 4.4%</title></rect>
<rect x="660.9" y="456.6" width="20.0" height="24.4" fill="#6B7280" opacity="0.92"><title>Stayers: 3.9%</title></rect>
<text x="648.4" y="499.0" text-anchor="middle" font-family="Arial, sans-serif" font-size="11" fill="#374151"><tspan x="648.4" dy="0">65+</tspan></text>
<text x="746.0" y="208.0" text-anchor="start" font-family="Arial, sans-serif" font-size="17" font-weight="600" fill="#1F2937">Income rank</text>
<line x1="800.0" y1="481.0" x2="1382.0" y2="481.0" stroke="#E5E7EB" stroke-width="1"/>
<text x="792.0" y="485.0" text-anchor="end" font-family="Arial, sans-serif" font-size="11" font-weight="400" fill="#6B7280">0%</text>
<line x1="800.0" y1="417.8" x2="1382.0" y2="417.8" stroke="#E5E7EB" stroke-width="1"/>
<text x="792.0" y="421.8" text-anchor="end" font-family="Arial, sans-serif" font-size="11" font-weight="400" fill="#6B7280">15%</text>
<line x1="800.0" y1="354.5" x2="1382.0" y2="354.5" stroke="#E5E7EB" stroke-width="1"/>
<text x="792.0" y="358.5" text-anchor="end" font-family="Arial, sans-serif" font-size="11" font-weight="400" fill="#6B7280">30%</text>
<line x1="800.0" y1="291.2" x2="1382.0" y2="291.2" stroke="#E5E7EB" stroke-width="1"/>
<text x="792.0" y="295.2" text-anchor="end" font-family="Arial, sans-serif" font-size="11" font-weight="400" fill="#6B7280">45%</text>
<line x1="800.0" y1="228.0" x2="1382.0" y2="228.0" stroke="#E5E7EB" stroke-width="1"/>
<text x="792.0" y="232.0" text-anchor="end" font-family="Arial, sans-serif" font-size="11" font-weight="400" fill="#6B7280">60%</text>
<line x1="800.0" y1="228.0" x2="800.0" y2="481.0" stroke="#9CA3AF"/>
<line x1="800.0" y1="481.0" x2="1382.0" y2="481.0" stroke="#9CA3AF"/>
<rect x="810.7" y="275.3" width="23.3" height="205.7" fill="#0072B2" opacity="0.92"><title>Immigrants: 48.8%</title></rect>
<rect x="836.9" y="301.1" width="23.3" height="179.9" fill="#D55E00" opacity="0.92"><title>Emigrants: 42.7%</title></rect>
<rect x="863.0" y="257.9" width="23.3" height="223.1" fill="#6B7280" opacity="0.92"><title>Stayers: 52.9%</title></rect>
<text x="848.5" y="499.0" text-anchor="middle" font-family="Arial, sans-serif" font-size="11" fill="#374151"><tspan x="848.5" dy="0">No</tspan><tspan x="848.5" dy="13">income</tspan></text>
<rect x="907.7" y="386.5" width="23.3" height="94.5" fill="#0072B2" opacity="0.92"><title>Immigrants: 22.4%</title></rect>
<rect x="933.9" y="440.1" width="23.3" height="40.9" fill="#D55E00" opacity="0.92"><title>Emigrants: 9.7%</title></rect>
<rect x="960.0" y="371.2" width="23.3" height="109.8" fill="#6B7280" opacity="0.92"><title>Stayers: 26.0%</title></rect>
<text x="945.5" y="499.0" text-anchor="middle" font-family="Arial, sans-serif" font-size="11" fill="#374151"><tspan x="945.5" dy="0">Q1</tspan></text>
<rect x="1004.7" y="442.9" width="23.3" height="38.1" fill="#0072B2" opacity="0.92"><title>Immigrants: 9.0%</title></rect>
<rect x="1030.9" y="439.3" width="23.3" height="41.7" fill="#D55E00" opacity="0.92"><title>Emigrants: 9.9%</title></rect>
<rect x="1057.0" y="444.1" width="23.3" height="36.9" fill="#6B7280" opacity="0.92"><title>Stayers: 8.7%</title></rect>
<text x="1042.5" y="499.0" text-anchor="middle" font-family="Arial, sans-serif" font-size="11" fill="#374151"><tspan x="1042.5" dy="0">Q2</tspan></text>
<rect x="1101.7" y="443.1" width="23.3" height="37.9" fill="#0072B2" opacity="0.92"><title>Immigrants: 9.0%</title></rect>
<rect x="1127.9" y="427.1" width="23.3" height="53.9" fill="#D55E00" opacity="0.92"><title>Emigrants: 12.8%</title></rect>
<rect x="1154.1" y="453.6" width="23.3" height="27.4" fill="#6B7280" opacity="0.92"><title>Stayers: 6.5%</title></rect>
<text x="1139.5" y="499.0" text-anchor="middle" font-family="Arial, sans-serif" font-size="11" fill="#374151"><tspan x="1139.5" dy="0">Q3</tspan></text>
<rect x="1198.7" y="454.2" width="23.3" height="26.8" fill="#0072B2" opacity="0.92"><title>Immigrants: 6.3%</title></rect>
<rect x="1224.9" y="423.8" width="23.3" height="57.2" fill="#D55E00" opacity="0.92"><title>Emigrants: 13.6%</title></rect>
<rect x="1251.1" y="465.0" width="23.3" height="16.0" fill="#6B7280" opacity="0.92"><title>Stayers: 3.8%</title></rect>
<text x="1236.5" y="499.0" text-anchor="middle" font-family="Arial, sans-serif" font-size="11" fill="#374151"><tspan x="1236.5" dy="0">Q4</tspan></text>
<rect x="1295.7" y="462.3" width="23.3" height="18.7" fill="#0072B2" opacity="0.92"><title>Immigrants: 4.4%</title></rect>
<rect x="1321.9" y="432.9" width="23.3" height="48.1" fill="#D55E00" opacity="0.92"><title>Emigrants: 11.4%</title></rect>
<rect x="1348.1" y="472.5" width="23.3" height="8.5" fill="#6B7280" opacity="0.92"><title>Stayers: 2.0%</title></rect>
<text x="1333.5" y="499.0" text-anchor="middle" font-family="Arial, sans-serif" font-size="11" fill="#374151"><tspan x="1333.5" dy="0">Q5</tspan></text>
<text x="54.0" y="583.0" text-anchor="start" font-family="Arial, sans-serif" font-size="17" font-weight="600" fill="#1F2937">Sex</text>
<line x1="108.0" y1="856.0" x2="690.0" y2="856.0" stroke="#E5E7EB" stroke-width="1"/>
<text x="100.0" y="860.0" text-anchor="end" font-family="Arial, sans-serif" font-size="11" font-weight="400" fill="#6B7280">0%</text>
<line x1="108.0" y1="792.8" x2="690.0" y2="792.8" stroke="#E5E7EB" stroke-width="1"/>
<text x="100.0" y="796.8" text-anchor="end" font-family="Arial, sans-serif" font-size="11" font-weight="400" fill="#6B7280">15%</text>
<line x1="108.0" y1="729.5" x2="690.0" y2="729.5" stroke="#E5E7EB" stroke-width="1"/>
<text x="100.0" y="733.5" text-anchor="end" font-family="Arial, sans-serif" font-size="11" font-weight="400" fill="#6B7280">30%</text>
<line x1="108.0" y1="666.2" x2="690.0" y2="666.2" stroke="#E5E7EB" stroke-width="1"/>
<text x="100.0" y="670.2" text-anchor="end" font-family="Arial, sans-serif" font-size="11" font-weight="400" fill="#6B7280">45%</text>
<line x1="108.0" y1="603.0" x2="690.0" y2="603.0" stroke="#E5E7EB" stroke-width="1"/>
<text x="100.0" y="607.0" text-anchor="end" font-family="Arial, sans-serif" font-size="11" font-weight="400" fill="#6B7280">60%</text>
<line x1="108.0" y1="603.0" x2="108.0" y2="856.0" stroke="#9CA3AF"/>
<line x1="108.0" y1="856.0" x2="690.0" y2="856.0" stroke="#9CA3AF"/>
<rect x="140.0" y="652.4" width="69.8" height="203.6" fill="#0072B2" opacity="0.92"><title>Immigrants: 48.3%</title></rect>
<rect x="218.6" y="641.0" width="69.8" height="215.0" fill="#D55E00" opacity="0.92"><title>Emigrants: 51.0%</title></rect>
<rect x="297.1" y="642.7" width="69.8" height="213.3" fill="#6B7280" opacity="0.92"><title>Stayers: 50.6%</title></rect>
<text x="253.5" y="874.0" text-anchor="middle" font-family="Arial, sans-serif" font-size="11" fill="#374151"><tspan x="253.5" dy="0">Women</tspan></text>
<rect x="431.0" y="638.0" width="69.8" height="218.0" fill="#0072B2" opacity="0.92"><title>Immigrants: 51.7%</title></rect>
<rect x="509.6" y="649.4" width="69.8" height="206.6" fill="#D55E00" opacity="0.92"><title>Emigrants: 49.0%</title></rect>
<rect x="588.1" y="647.6" width="69.8" height="208.4" fill="#6B7280" opacity="0.92"><title>Stayers: 49.4%</title></rect>
<text x="544.5" y="874.0" text-anchor="middle" font-family="Arial, sans-serif" font-size="11" fill="#374151"><tspan x="544.5" dy="0">Men</tspan></text>
<text x="746.0" y="583.0" text-anchor="start" font-family="Arial, sans-serif" font-size="17" font-weight="600" fill="#1F2937">Literacy (age 15+)</text>
<line x1="800.0" y1="856.0" x2="1382.0" y2="856.0" stroke="#E5E7EB" stroke-width="1"/>
<text x="792.0" y="860.0" text-anchor="end" font-family="Arial, sans-serif" font-size="11" font-weight="400" fill="#6B7280">0%</text>
<line x1="800.0" y1="792.8" x2="1382.0" y2="792.8" stroke="#E5E7EB" stroke-width="1"/>
<text x="792.0" y="796.8" text-anchor="end" font-family="Arial, sans-serif" font-size="11" font-weight="400" fill="#6B7280">20%</text>
<line x1="800.0" y1="729.5" x2="1382.0" y2="729.5" stroke="#E5E7EB" stroke-width="1"/>
<text x="792.0" y="733.5" text-anchor="end" font-family="Arial, sans-serif" font-size="11" font-weight="400" fill="#6B7280">40%</text>
<line x1="800.0" y1="666.2" x2="1382.0" y2="666.2" stroke="#E5E7EB" stroke-width="1"/>
<text x="792.0" y="670.2" text-anchor="end" font-family="Arial, sans-serif" font-size="11" font-weight="400" fill="#6B7280">60%</text>
<line x1="800.0" y1="603.0" x2="1382.0" y2="603.0" stroke="#E5E7EB" stroke-width="1"/>
<text x="792.0" y="607.0" text-anchor="end" font-family="Arial, sans-serif" font-size="11" font-weight="400" fill="#6B7280">80%</text>
<line x1="800.0" y1="603.0" x2="800.0" y2="856.0" stroke="#9CA3AF"/>
<line x1="800.0" y1="856.0" x2="1382.0" y2="856.0" stroke="#9CA3AF"/>
<rect x="832.0" y="670.6" width="69.8" height="185.4" fill="#0072B2" opacity="0.92"><title>Immigrants: 58.6%</title></rect>
<rect x="910.6" y="768.5" width="69.8" height="87.5" fill="#D55E00" opacity="0.92"><title>Emigrants: 27.7%</title></rect>
<rect x="989.1" y="699.8" width="69.8" height="156.2" fill="#6B7280" opacity="0.92"><title>Stayers: 49.4%</title></rect>
<text x="945.5" y="874.0" text-anchor="middle" font-family="Arial, sans-serif" font-size="11" fill="#374151"><tspan x="945.5" dy="0">Not</tspan><tspan x="945.5" dy="13">literate</tspan></text>
<rect x="1123.0" y="725.1" width="69.8" height="130.9" fill="#0072B2" opacity="0.92"><title>Immigrants: 41.4%</title></rect>
<rect x="1201.6" y="627.2" width="69.8" height="228.8" fill="#D55E00" opacity="0.92"><title>Emigrants: 72.3%</title></rect>
<rect x="1280.2" y="695.9" width="69.8" height="160.1" fill="#6B7280" opacity="0.92"><title>Stayers: 50.6%</title></rect>
<text x="1236.5" y="874.0" text-anchor="middle" font-family="Arial, sans-serif" font-size="11" fill="#374151"><tspan x="1236.5" dy="0">Literate</tspan></text>
<text x="54.0" y="958.0" text-anchor="start" font-family="Arial, sans-serif" font-size="17" font-weight="600" fill="#1F2937">Years of schooling (age 15+)</text>
<text x="379.0" y="1117.5" text-anchor="middle" font-family="Arial, sans-serif" font-size="15" font-weight="400" fill="#6B7280">Not available</text>
<text x="746.0" y="958.0" text-anchor="start" font-family="Arial, sans-serif" font-size="17" font-weight="600" fill="#1F2937">Household size</text>
<text x="1071.0" y="1117.5" text-anchor="middle" font-family="Arial, sans-serif" font-size="15" font-weight="400" fill="#6B7280">Not available</text>
<text x="54.0" y="1333.0" text-anchor="start" font-family="Arial, sans-serif" font-size="17" font-weight="600" fill="#1F2937">Rooms in dwelling</text>
<line x1="108.0" y1="1606.0" x2="690.0" y2="1606.0" stroke="#E5E7EB" stroke-width="1"/>
<text x="100.0" y="1610.0" text-anchor="end" font-family="Arial, sans-serif" font-size="11" font-weight="400" fill="#6B7280">0%</text>
<line x1="108.0" y1="1542.8" x2="690.0" y2="1542.8" stroke="#E5E7EB" stroke-width="1"/>
<text x="100.0" y="1546.8" text-anchor="end" font-family="Arial, sans-serif" font-size="11" font-weight="400" fill="#6B7280">10%</text>
<line x1="108.0" y1="1479.5" x2="690.0" y2="1479.5" stroke="#E5E7EB" stroke-width="1"/>
<text x="100.0" y="1483.5" text-anchor="end" font-family="Arial, sans-serif" font-size="11" font-weight="400" fill="#6B7280">20%</text>
<line x1="108.0" y1="1416.2" x2="690.0" y2="1416.2" stroke="#E5E7EB" stroke-width="1"/>
<text x="100.0" y="1420.2" text-anchor="end" font-family="Arial, sans-serif" font-size="11" font-weight="400" fill="#6B7280">30%</text>
<line x1="108.0" y1="1353.0" x2="690.0" y2="1353.0" stroke="#E5E7EB" stroke-width="1"/>
<text x="100.0" y="1357.0" text-anchor="end" font-family="Arial, sans-serif" font-size="11" font-weight="400" fill="#6B7280">40%</text>
<line x1="108.0" y1="1353.0" x2="108.0" y2="1606.0" stroke="#9CA3AF"/>
<line x1="108.0" y1="1606.0" x2="690.0" y2="1606.0" stroke="#9CA3AF"/>
<rect x="118.7" y="1601.5" width="23.3" height="4.5" fill="#0072B2" opacity="0.92"><title>Immigrants: 0.7%</title></rect>
<rect x="144.9" y="1585.5" width="23.3" height="20.5" fill="#D55E00" opacity="0.92"><title>Emigrants: 3.2%</title></rect>
<rect x="171.1" y="1601.3" width="23.3" height="4.7" fill="#6B7280" opacity="0.92"><title>Stayers: 0.7%</title></rect>
<text x="156.5" y="1624.0" text-anchor="middle" font-family="Arial, sans-serif" font-size="11" fill="#374151"><tspan x="156.5" dy="0">1</tspan></text>
<rect x="215.7" y="1571.2" width="23.3" height="34.8" fill="#0072B2" opacity="0.92"><title>Immigrants: 5.5%</title></rect>
<rect x="241.9" y="1551.9" width="23.3" height="54.1" fill="#D55E00" opacity="0.92"><title>Emigrants: 8.6%</title></rect>
<rect x="268.1" y="1566.0" width="23.3" height="40.0" fill="#6B7280" opacity="0.92"><title>Stayers: 6.3%</title></rect>
<text x="253.5" y="1624.0" text-anchor="middle" font-family="Arial, sans-serif" font-size="11" fill="#374151"><tspan x="253.5" dy="0">2</tspan></text>
<rect x="312.7" y="1458.5" width="23.3" height="147.5" fill="#0072B2" opacity="0.92"><title>Immigrants: 23.3%</title></rect>
<rect x="338.9" y="1495.2" width="23.3" height="110.8" fill="#D55E00" opacity="0.92"><title>Emigrants: 17.5%</title></rect>
<rect x="365.1" y="1428.7" width="23.3" height="177.3" fill="#6B7280" opacity="0.92"><title>Stayers: 28.0%</title></rect>
<text x="350.5" y="1624.0" text-anchor="middle" font-family="Arial, sans-serif" font-size="11" fill="#374151"><tspan x="350.5" dy="0">3</tspan></text>
<rect x="409.7" y="1438.6" width="23.3" height="167.4" fill="#0072B2" opacity="0.92"><title>Immigrants: 26.5%</title></rect>
<rect x="435.9" y="1471.0" width="23.3" height="135.0" fill="#D55E00" opacity="0.92"><title>Emigrants: 21.3%</title></rect>
<rect x="462.1" y="1438.5" width="23.3" height="167.5" fill="#6B7280" opacity="0.92"><title>Stayers: 26.5%</title></rect>
<text x="447.5" y="1624.0" text-anchor="middle" font-family="Arial, sans-serif" font-size="11" fill="#374151"><tspan x="447.5" dy="0">4</tspan></text>
<rect x="506.7" y="1485.8" width="23.3" height="120.2" fill="#0072B2" opacity="0.92"><title>Immigrants: 19.0%</title></rect>
<rect x="532.9" y="1495.2" width="23.3" height="110.8" fill="#D55E00" opacity="0.92"><title>Emigrants: 17.5%</title></rect>
<rect x="559.1" y="1497.0" width="23.3" height="109.0" fill="#6B7280" opacity="0.92"><title>Stayers: 17.2%</title></rect>
<text x="544.5" y="1624.0" text-anchor="middle" font-family="Arial, sans-serif" font-size="11" fill="#374151"><tspan x="544.5" dy="0">5</tspan></text>
<rect x="603.7" y="1448.0" width="23.3" height="158.0" fill="#0072B2" opacity="0.92"><title>Immigrants: 25.0%</title></rect>
<rect x="629.9" y="1404.7" width="23.3" height="201.3" fill="#D55E00" opacity="0.92"><title>Emigrants: 31.8%</title></rect>
<rect x="656.0" y="1472.0" width="23.3" height="134.0" fill="#6B7280" opacity="0.92"><title>Stayers: 21.2%</title></rect>
<text x="641.5" y="1624.0" text-anchor="middle" font-family="Arial, sans-serif" font-size="11" fill="#374151"><tspan x="641.5" dy="0">6+</tspan></text>
<text x="746.0" y="1333.0" text-anchor="start" font-family="Arial, sans-serif" font-size="17" font-weight="600" fill="#1F2937">Refrigerator in dwelling</text>
<line x1="800.0" y1="1606.0" x2="1382.0" y2="1606.0" stroke="#E5E7EB" stroke-width="1"/>
<text x="792.0" y="1610.0" text-anchor="end" font-family="Arial, sans-serif" font-size="11" font-weight="400" fill="#6B7280">0%</text>
<line x1="800.0" y1="1542.8" x2="1382.0" y2="1542.8" stroke="#E5E7EB" stroke-width="1"/>
<text x="792.0" y="1546.8" text-anchor="end" font-family="Arial, sans-serif" font-size="11" font-weight="400" fill="#6B7280">22.5%</text>
<line x1="800.0" y1="1479.5" x2="1382.0" y2="1479.5" stroke="#E5E7EB" stroke-width="1"/>
<text x="792.0" y="1483.5" text-anchor="end" font-family="Arial, sans-serif" font-size="11" font-weight="400" fill="#6B7280">45%</text>
<line x1="800.0" y1="1416.2" x2="1382.0" y2="1416.2" stroke="#E5E7EB" stroke-width="1"/>
<text x="792.0" y="1420.2" text-anchor="end" font-family="Arial, sans-serif" font-size="11" font-weight="400" fill="#6B7280">67.5%</text>
<line x1="800.0" y1="1353.0" x2="1382.0" y2="1353.0" stroke="#E5E7EB" stroke-width="1"/>
<text x="792.0" y="1357.0" text-anchor="end" font-family="Arial, sans-serif" font-size="11" font-weight="400" fill="#6B7280">90%</text>
<line x1="800.0" y1="1353.0" x2="800.0" y2="1606.0" stroke="#9CA3AF"/>
<line x1="800.0" y1="1606.0" x2="1382.0" y2="1606.0" stroke="#9CA3AF"/>
<rect x="832.0" y="1380.4" width="69.8" height="225.6" fill="#0072B2" opacity="0.92"><title>Immigrants: 80.2%</title></rect>
<rect x="910.6" y="1455.9" width="69.8" height="150.1" fill="#D55E00" opacity="0.92"><title>Emigrants: 53.4%</title></rect>
<rect x="989.1" y="1375.2" width="69.8" height="230.8" fill="#6B7280" opacity="0.92"><title>Stayers: 82.1%</title></rect>
<text x="945.5" y="1624.0" text-anchor="middle" font-family="Arial, sans-serif" font-size="11" fill="#374151"><tspan x="945.5" dy="0">No</tspan></text>
<rect x="1123.0" y="1550.5" width="69.8" height="55.5" fill="#0072B2" opacity="0.92"><title>Immigrants: 19.8%</title></rect>
<rect x="1201.6" y="1475.0" width="69.8" height="131.0" fill="#D55E00" opacity="0.92"><title>Emigrants: 46.6%</title></rect>
<rect x="1280.2" y="1555.7" width="69.8" height="50.3" fill="#6B7280" opacity="0.92"><title>Stayers: 17.9%</title></rect>
<text x="1236.5" y="1624.0" text-anchor="middle" font-family="Arial, sans-serif" font-size="11" fill="#374151"><tspan x="1236.5" dy="0">Yes</tspan></text>
<text x="54.0" y="1692.0" text-anchor="start" font-family="Arial, sans-serif" font-size="13" font-weight="400" fill="#4B5563">Bars are percentages within migration group and panel; legend sizes use census person weights.</text>
<text x="54.0" y="1713.0" text-anchor="start" font-family="Arial, sans-serif" font-size="13" font-weight="400" fill="#4B5563">Income: no income plus national weighted quintiles among positive-income adults (1980 uses main-job income).</text>
</svg>