<svg xmlns="http://www.w3.org/2000/svg" width="1400" height="1730" viewBox="0 0 1400 1730" role="img">
<title>PI migration-group socioeconomic profile, 1980</title>
<rect width="100%" height="100%" fill="#FFFFFF"/>
<text x="54.0" y="54.0" text-anchor="start" font-family="Arial, sans-serif" font-size="29" font-weight="600" fill="#1F2937">PI: immigrants, emigrants, and stayers</text>
<text x="54.0" y="84.0" text-anchor="start" font-family="Arial, sans-serif" font-size="19" font-weight="400" fill="#374151">1980</text>
<text x="54.0" y="111.0" text-anchor="start" font-family="Arial, sans-serif" font-size="14" font-weight="400" fill="#6B7280">Proxy: state of birth</text>
<rect x="54" y="136" width="18" height="18" rx="2" fill="#0072B2"/>
<text x="83.0" y="150.0" text-anchor="start" font-family="Arial, sans-serif" font-size="15" font-weight="400" fill="#1F2937">Immigrants  |  N = 147.2k</text>
<rect x="474" y="136" width="18" height="18" rx="2" fill="#D55E00"/>
<text x="503.0" y="150.0" text-anchor="start" font-family="Arial, sans-serif" font-size="15" font-weight="400" fill="#1F2937">Emigrants  |  N = 512.5k</text>
<rect x="894" y="136" width="18" height="18" rx="2" fill="#6B7280"/>
<text x="923.0" y="150.0" text-anchor="start" font-family="Arial, sans-serif" font-size="15" font-weight="400" fill="#1F2937">Stayers  |  N = 1,631.7k</text>
<text x="54.0" y="208.0" text-anchor="start" font-family="Arial, sans-serif" font-size="17" font-weight="600" fill="#1F2937">Age</text>
<line x1="108.0" y1="481.0" x2="690.0" y2="481.0" stroke="#E5E7EB" stroke-width="1"/>
<text x="100.0" y="485.0" text-anchor="end" font-family="Arial, sans-serif" font-size="11" font-weight="400" fill="#6B7280">0%</text>
<line x1="108.0" y1="417.8" x2="690.0" y2="417.8" stroke="#E5E7EB" stroke-width="1"/>
<text x="100.0" y="421.8" text-anchor="end" font-family="Arial, sans-serif" font-size="11" font-weight="400" fill="#6B7280">10%</text>
<line x1="108.0" y1="354.5" x2="690.0" y2="354.5" stroke="#E5E7EB" stroke-width="1"/>
<text x="100.0" y="358.5" text-anchor="end" font-family="Arial, sans-serif" font-size="11" font-weight="400" fill="#6B7280">20%</text>
<line x1="108.0" y1="291.2" x2="690.0" y2="291.2" stroke="#E5E7EB" stroke-width="1"/>
<text x="100.0" y="295.2" text-anchor="end" font-family="Arial, sans-serif" font-size="11" font-weight="400" fill="#6B7280">30%</text>
<line x1="108.0" y1="228.0" x2="690.0" y2="228.0" stroke="#E5E7EB" stroke-width="1"/>
<text x="100.0" y="232.0" text-anchor="end" font-family="Arial, sans-serif" font-size="11" font-weight="400" fill="#6B7280">40%</text>
<line x1="108.0" y1="228.0" x2="108.0" y2="481.0" stroke="#9CA3AF"/>
<line x1="108.0" y1="481.0" x2="690.0" y2="481.0" stroke="#9CA3AF"/>
<rect x="117.1" y="371.0" width="20.0" height="110.0" fill="#0072B2" opacity="0.92"><title>Immigrants: 17.4%</title></rect>
<rect x="139.6" y="407.8" width="20.0" height="73.2" fill="#D55E00" opacity="0.92"><title>Emigrants: 11.6%</title></rect>
<rect x="162.0" y="253.6" width="20.0" height="227.4" fill="#6B7280" opacity="0.92"><title>Stayers: 36.0%</title></rect>
<text x="149.6" y="499.0" text-anchor="middle" font-family="Arial, sans-serif" font-size="11" fill="#374151"><tspan x="149.6" dy="0">5-14</tspan></text>
<rect x="200.3" y="339.7" width="20.0" height="141.3" fill="#0072B2" opacity="0.92"><title>Immigrants: 22.3%</title></rect>
<rect x="222.7" y="342.0" width="20.0" height="139.0" fill="#D55E00" opacity="0.92"><title>Emigrants: 22.0%</title></rect>
<rect x="245.2" y="324.7" width="20.0" height="156.3" fill="#6B7280" opacity="0.92"><title>Stayers: 24.7%</title></rect>
<text x="232.7" y="499.0" text-anchor="middle" font-family="Arial, sans-serif" font-size="11" fill="#374151"><tspan x="232.7" dy="0">15-24</tspan></text>
<rect x="283.4" y="369.0" width="20.0" height="112.0" fill="#0072B2" opacity="0.92"><title>Immigrants: 17.7%</title></rect>
<rect x="305.9" y="324.7" width="20.0" height="156.3" fill="#D55E00" opacity="0.92"><title>Emigrants: 24.7%</title></rect>
<rect x="328.3" y="393.1" width="20.0" height="87.9" fill="#6B7280" opacity="0.92"><title>Stayers: 13.9%</title></rect>
<text x="315.9" y="499.0" text-anchor="middle" font-family="Arial, sans-serif" font-size="11" fill="#374151"><tspan x="315.9" dy="0">25-34</tspan></text>
<rect x="366.6" y="388.9" width="20.0" height="92.1" fill="#0072B2" opacity="0.92"><title>Immigrants: 14.6%</title></rect>
<rect x="389.0" y="371.2" width="20.0" height="109.8" fill="#D55E00" opacity="0.92"><title>Emigrants: 17.4%</title></rect>
<rect x="411.5" y="418.3" width="20.0" height="62.7" fill="#6B7280" opacity="0.92"><title>Stayers: 9.9%</title></rect>
<text x="399.0" y="499.0" text-anchor="middle" font-family="Arial, sans-serif" font-size="11" fill="#374151"><tspan x="399.0" dy="0">35-44</tspan></text>
<rect x="449.7" y="408.6" width="20.0" height="72.4" fill="#0072B2" opacity="0.92"><title>Immigrants: 11.5%</title></rect>
<rect x="472.2" y="405.9" width="20.0" height="75.1" fill="#D55E00" opacity="0.92"><title>Emigrants: 11.9%</title></rect>
<rect x="494.6" y="437.7" width="20.0" height="43.3" fill="#6B7280" opacity="0.92"><title>Stayers: 6.8%</title></rect>
<text x="482.1" y="499.0" text-anchor="middle" font-family="Arial, sans-serif" font-size="11" fill="#374151"><tspan x="482.1" dy="0">45-54</tspan></text>
<rect x="532.9" y="430.2" width="20.0" height="50.8" fill="#0072B2" opacity="0.92"><title>Immigrants: 8.0%</title></rect>
<rect x="555.3" y="438.5" width="20.0" height="42.5" fill="#D55E00" opacity="0.92"><title>Emigrants: 6.7%</title></rect>
<rect x="577.8" y="453.4" width="20.0" height="27.6" fill="#6B7280" opacity="0.92"><title>Stayers: 4.4%</title></rect>
<text x="565.3" y="499.0" text-anchor="middle" font-family="Arial, sans-serif" font-size="11" fill="#374151"><tspan x="565.3" dy="0">55-64</tspan></text>
<rect x="616.0" y="427.1" width="20.0" height="53.9" fill="#0072B2" opacity="0.92"><title>Immigrants: 8.5%</title></rect>
<rect x="638.5" y="444.3" width="20.0" height="36.7" fill="#D55E00" opacity="0.92"><title>Emigrants: 5.8%</title></rect>
<rect x="660.9" y="453.7" width="20.0" height="27.3" fill="#6B7280" opacity="0.92"><title>Stayers: 4.3%</title></rect>
<text x="648.4" y="499.0" text-anchor="middle" font-family="Arial, sans-serif" font-size="11" fill="#374151"><tspan x="648.4" dy="0">65+</tspan></text>
<text x="746.0" y="208.0" text-anchor="start" font-family="Arial, sans-serif" font-size="17" font-weight="600" fill="#1F2937">Income rank</text>
<line x1="800.0" y1="481.0" x2="1382.0" y2="481.0" stroke="#E5E7EB" stroke-width="1"/>
<text x="792.0" y="485.0" text-anchor="end" font-family="Arial, sans-serif" font-size="11" font-weight="400" fill="#6B7280">0%</text>
<line x1="800.0" y1="417.8" x2="1382.0" y2="417.8" stroke="#E5E7EB" stroke-width="1"/>
<text x="792.0" y="421.8" text-anchor="end" font-family="Arial, sans-serif" font-size="11" font-weight="400" fill="#6B7280">17.5%</text>
<line x1="800.0" y1="354.5" x2="1382.0" y2="354.5" stroke="#E5E7EB" stroke-width="1"/>
<text x="792.0" y="358.5" text-anchor="end" font-family="Arial, sans-serif" font-size="11" font-weight="400" fill="#6B7280">35%</text>
<line x1="800.0" y1="291.2" x2="1382.0" y2="291.2" stroke="#E5E7EB" stroke-width="1"/>
<text x="792.0" y="295.2" text-anchor="end" font-family="Arial, sans-serif" font-size="11" font-weight="400" fill="#6B7280">52.5%</text>
<line x1="800.0" y1="228.0" x2="1382.0" y2="228.0" stroke="#E5E7EB" stroke-width="1"/>
<text x="792.0" y="232.0" text-anchor="end" font-family="Arial, sans-serif" font-size="11" font-weight="400" fill="#6B7280">70%</text>
<line x1="800.0" y1="228.0" x2="800.0" y2="481.0" stroke="#9CA3AF"/>
<line x1="800.0" y1="481.0" x2="1382.0" y2="481.0" stroke="#9CA3AF"/>
<rect x="810.7" y="277.3" width="23.3" height="203.7" fill="#0072B2" opacity="0.92"><title>Immigrants: 56.4%</title></rect>
<rect x="836.9" y="330.9" width="23.3" height="150.1" fill="#D55E00" opacity="0.92"><title>Emigrants: 41.5%</title></rect>
<rect x="863.0" y="253.4" width="23.3" height="227.6" fill="#6B7280" opacity="0.92"><title>Stayers: 63.0%</title></rect>
<text x="848.5" y="499.0" text-anchor="middle" font-family="Arial, sans-serif" font-size="11" fill="#374151"><tspan x="848.5" dy="0">No</tspan><tspan x="848.5" dy="13">income</tspan></text>
<rect x="907.7" y="421.0" width="23.3" height="60.0" fill="#0072B2" opacity="0.92"><title>Immigrants: 16.6%</title></rect>
<rect x="933.9" y="427.6" width="23.3" height="53.4" fill="#D55E00" opacity="0.92"><title>Emigrants: 14.8%</title></rect>
<rect x="960.0" y="404.4" width="23.3" height="76.6" fill="#6B7280" opacity="0.92"><title>Stayers: 21.2%</title></rect>
<text x="945.5" y="499.0" text-anchor="middle" font-family="Arial, sans-serif" font-size="11" fill="#374151"><tspan x="945.5" dy="0">Q1</tspan></text>
<rect x="1004.7" y="445.2" width="23.3" height="35.8" fill="#0072B2" opacity="0.92"><title>Immigrants: 9.9%</title></rect>
<rect x="1030.9" y="446.7" width="23.3" height="34.3" fill="#D55E00" opacity="0.92"><title>Emigrants: 9.5%</title></rect>
<rect x="1057.0" y="454.2" width="23.3" height="26.8" fill="#6B7280" opacity="0.92"><title>Stayers: 7.4%</title></rect>
<text x="1042.5" y="499.0" text-anchor="middle" font-family="Arial, sans-serif" font-size="11" fill="#374151"><tspan x="1042.5" dy="0">Q2</tspan></text>
<rect x="1101.7" y="458.3" width="23.3" height="22.7" fill="#0072B2" opacity="0.92"><title>Immigrants: 6.3%</title></rect>
<rect x="1127.9" y="437.4" width="23.3" height="43.6" fill="#D55E00" opacity="0.92"><title>Emigrants: 12.1%</title></rect>
<rect x="1154.1" y="466.3" width="23.3" height="14.7" fill="#6B7280" opacity="0.92"><title>Stayers: 4.1%</title></rect>
<text x="1139.5" y="499.0" text-anchor="middle" font-family="Arial, sans-serif" font-size="11" fill="#374151"><tspan x="1139.5" dy="0">Q3</tspan></text>
<rect x="1198.7" y="462.4" width="23.3" height="18.6" fill="#0072B2" opacity="0.92"><title>Immigrants: 5.1%</title></rect>
<rect x="1224.9" y="434.2" width="23.3" height="46.8" fill="#D55E00" opacity="0.92"><title>Emigrants: 12.9%</title></rect>
<rect x="1251.1" y="471.7" width="23.3" height="9.3" fill="#6B7280" opacity="0.92"><title>Stayers: 2.6%</title></rect>
<text x="1236.5" y="499.0" text-anchor="middle" font-family="Arial, sans-serif" font-size="11" fill="#374151"><tspan x="1236.5" dy="0">Q4</tspan></text>
<rect x="1295.7" y="460.4" width="23.3" height="20.6" fill="#0072B2" opacity="0.92"><title>Immigrants: 5.7%</title></rect>
<rect x="1321.9" y="447.9" width="23.3" height="33.1" fill="#D55E00" opacity="0.92"><title>Emigrants: 9.2%</title></rect>
<rect x="1348.1" y="474.7" width="23.3" height="6.3" fill="#6B7280" opacity="0.92"><title>Stayers: 1.8%</title></rect>
<text x="1333.5" y="499.0" text-anchor="middle" font-family="Arial, sans-serif" font-size="11" fill="#374151"><tspan x="1333.5" dy="0">Q5</tspan></text>
<text x="54.0" y="583.0" text-anchor="start" font-family="Arial, sans-serif" font-size="17" font-weight="600" fill="#1F2937">Sex</text>
<line x1="108.0" y1="856.0" x2="690.0" y2="856.0" stroke="#E5E7EB" stroke-width="1"/>
<text x="100.0" y="860.0" text-anchor="end" font-family="Arial, sans-serif" font-size="11" font-weight="400" fill="#6B7280">0%</text>
<line x1="108.0" y1="792.8" x2="690.0" y2="792.8" stroke="#E5E7EB" stroke-width="1"/>
<text x="100.0" y="796.8" text-anchor="end" font-family="Arial, sans-serif" font-size="11" font-weight="400" fill="#6B7280">15%</text>
<line x1="108.0" y1="729.5" x2="690.0" y2="729.5" stroke="#E5E7EB" stroke-width="1"/>
<text x="100.0" y="733.5" text-anchor="end" font-family="Arial, sans-serif" font-size="11" font-weight="400" fill="#6B7280">30%</text>
<line x1="108.0" y1="666.2" x2="690.0" y2="666.2" stroke="#E5E7EB" stroke-width="1"/>
<text x="100.0" y="670.2" text-anchor="end" font-family="Arial, sans-serif" font-size="11" font-weight="400" fill="#6B7280">45%</text>
<line x1="108.0" y1="603.0" x2="690.0" y2="603.0" stroke="#E5E7EB" stroke-width="1"/>
<text x="100.0" y="607.0" text-anchor="end" font-family="Arial, sans-serif" font-size="11" font-weight="400" fill="#6B7280">60%</text>
<line x1="108.0" y1="603.0" x2="108.0" y2="856.0" stroke="#9CA3AF"/>
<line x1="108.0" y1="856.0" x2="690.0" y2="856.0" stroke="#9CA3AF"/>
<rect x="140.0" y="635.1" width="69.8" height="220.9" fill="#0072B2" opacity="0.92"><title>Immigrants: 52.4%</title></rect>
<rect x="218.6" y="652.7" width="69.8" height="203.3" fill="#D55E00" opacity="0.92"><title>Emigrants: 48.2%</title></rect>
<rect x="297.1" y="640.5" width="69.8" height="215.5" fill="#6B7280" opacity="0.92"><title>Stayers: 51.1%</title></rect>
<text x="253.5" y="874.0" text-anchor="middle" font-family="Arial, sans-serif" font-size="11" fill="#374151"><tspan x="253.5" dy="0">Women</tspan></text>
<rect x="431.0" y="655.3" width="69.8" height="200.7" fill="#0072B2" opacity="0.92"><title>Immigrants: 47.6%</title></rect>
<rect x="509.6" y="637.6" width="69.8" height="218.4" fill="#D55E00" opacity="0.92"><title>Emigrants: 51.8%</title></rect>
<rect x="588.1" y="649.8" width="69.8" height="206.2" fill="#6B7280" opacity="0.92"><title>Stayers: 48.9%</title></rect>
<text x="544.5" y="874.0" text-anchor="middle" font-family="Arial, sans-serif" font-size="11" fill="#374151"><tspan x="544.5" dy="0">Men</tspan></text>
<text x="746.0" y="583.0" text-anchor="start" font-family="Arial, sans-serif" font-size="17" font-weight="600" fill="#1F2937">Literacy (age 15+)</text>
<line x1="800.0" y1="856.0" x2="1382.0" y2="856.0" stroke="#E5E7EB" stroke-width="1"/>
<text x="792.0" y="860.0" text-anchor="end" font-family="Arial, sans-serif" font-size="11" font-weight="400" fill="#6B7280">0%</text>
<line x1="800.0" y1="792.8" x2="1382.0" y2="792.8" stroke="#E5E7EB" stroke-width="1"/>
<text x="792.0" y="796.8" text-anchor="end" font-family="Arial, sans-serif" font-size="11" font-weight="400" fill="#6B7280">15%</text>
<line x1="800.0" y1="729.5" x2="1382.0" y2="729.5" stroke="#E5E7EB" stroke-width="1"/>
<text x="792.0" y="733.5" text-anchor="end" font-family="Arial, sans-serif" font-size="11" font-weight="400" fill="#6B7280">30%</text>
<line x1="800.0" y1="666.2" x2="1382.0" y2="666.2" stroke="#E5E7EB" stroke-width="1"/>
<text x="792.0" y="670.2" text-anchor="end" font-family="Arial, sans-serif" font-size="11" font-weight="400" fill="#6B7280">45%</text>
<line x1="800.0" y1="603.0" x2="1382.0" y2="603.0" stroke="#E5E7EB" stroke-width="1"/>
<text x="792.0" y="607.0" text-anchor="end" font-family="Arial, sans-serif" font-size="11" font-weight="400" fill="#6B7280">60%</text>
<line x1="800.0" y1="603.0" x2="800.0" y2="856.0" stroke="#9CA3AF"/>
<line x1="800.0" y1="856.0" x2="1382.0" y2="856.0" stroke="#9CA3AF"/>
<rect x="832.0" y="674.1" width="69.8" height="181.9" fill="#0072B2" opacity="0.92"><title>Immigrants: 43.1%</title></rect>
<rect x="910.6" y="684.8" width="69.8" height="171.2" fill="#D55E00" opacity="0.92"><title>Emigrants: 40.6%</title></rect>
<rect x="989.1" y="643.7" width="69.8" height="212.3" fill="#6B7280" opacity="0.92"><title>Stayers: 50.4%</title></rect>
<text x="945.5" y="874.0" text-anchor="middle" font-family="Arial, sans-serif" font-size="11" fill="#374151"><tspan x="945.5" dy="0">Not</tspan><tspan x="945.5" dy="13">literate</tspan></text>
<rect x="1123.0" y="616.3" width="69.8" height="239.7" fill="#0072B2" opacity="0.92"><title>Immigrants: 56.9%</title></rect>
<rect x="1201.6" y="605.5" width="69.8" height="250.5" fill="#D55E00" opacity="0.92"><title>Emigrants: 59.4%</title></rect>
<rect x="1280.2" y="646.6" width="69.8" height="209.4" fill="#6B7280" opacity="0.92"><title>Stayers: 49.6%</title></rect>
<text x="1236.5" y="874.0" text-anchor="middle" font-family="Arial, sans-serif" font-size="11" fill="#374151"><tspan x="1236.5" dy="0">Literate</tspan></text>
<text x="54.0" y="958.0" text-anchor="start" font-family="Arial, sans-serif" font-size="17" font-weight="600" fill="#1F2937">Years of schooling (age 15+)</text>
<text x="379.0" y="1117.5" text-anchor="middle" font-family="Arial, sans-serif" font-size="15" font-weight="400" fill="#6B7280">Not available</text>
<text x="746.0" y="958.0" text-anchor="start" font-family="Arial, sans-serif" font-size="17" font-weight="600" fill="#1F2937">Household size</text>
<text x="1071.0" y="1117.5" text-anchor="middle" font-family="Arial, sans-serif" font-size="15" font-weight="400" fill="#6B7280">Not available</text>
<text x="54.0" y="1333.0" text-anchor="start" font-family="Arial, sans-serif" font-size="17" font-weight="600" fill="#1F2937">Rooms in dwelling</text>
<line x1="108.0" y1="1606.0" x2="690.0" y2="1606.0" stroke="#E5E7EB" stroke-width="1"/>
<text x="100.0" y="1610.0" text-anchor="end" font-family="Arial, sans-serif" font-size="11" font-weight="400" fill="#6B7280">0%</text>
<line x1="108.0" y1="1542.8" x2="690.0" y2="1542.8" stroke="#E5E7EB" stroke-width="1"/>
<text x="100.0" y="1546.8" text-anchor="end" font-family="Arial, sans-serif" font-size="11" font-weight="400" fill="#6B7280">10%</text>
<line x1="108.0" y1="1479.5" x2="690.0" y2="1479.5" stroke="#E5E7EB" stroke-width="1"/>
<text x="100.0" y="1483.5" text-anchor="end" font-family="Arial, sans-serif" font-size="11" font-weight="400" fill="#6B7280">20%</text>
<line x1="108.0" y1="1416.2" x2="690.0" y2="1416.2" stroke="#E5E7EB" stroke-width="1"/>
<text x="100.0" y="1420.2" text-anchor="end" font-family="Arial, sans-serif" font-size="11" font-weight="400" fill="#6B7280">30%</text>
<line x1="108.0" y1="1353.0" x2="690.0" y2="1353.0" stroke="#E5E7EB" stroke-width="1"/>
<text x="100.0" y="1357.0" text-anchor="end" font-family="Arial, sans-serif" font-size="11" font-weight="400" fill="#6B7280">40%</text>
<line x1="108.0" y1="1353.0" x2="108.0" y2="1606.0" stroke="#9CA3AF"/>
<line x1="108.0" y1="1606.0" x2="690.0" y2="1606.0" stroke="#9CA3AF"/>
<rect x="118.7" y="1597.9" width="23.3" height="8.1" fill="#0072B2" opacity="0.92"><title>Immigrants: 1.3%</title></rect>
<rect x="144.9" y="1583.9" width="23.3" height="22.1" fill="#D55E00" opacity="0.92"><title>Emigrants: 3.5%</title></rect>
<rect x="171.1" y="1600.5" width="23.3" height="5.5" fill="#6B7280" opacity="0.92"><title>Stayers: 0.9%</title></rect>
<text x="156.5" y="1624.0" text-anchor="middle" font-family="Arial, sans-serif" font-size="11" fill="#374151"><tspan x="156.5" dy="0">1</tspan></text>
<rect x="215.7" y="1566.7" width="23.3" height="39.3" fill="#0072B2" opacity="0.92"><title>Immigrants: 6.2%</title></rect>
<rect x="241.9" y="1548.4" width="23.3" height="57.6" fill="#D55E00" opacity="0.92"><title>Emigrants: 9.1%</title></rect>
<rect x="268.1" y="1563.8" width="23.3" height="42.2" fill="#6B7280" opacity="0.92"><title>Stayers: 6.7%</title></rect>
<text x="253.5" y="1624.0" text-anchor="middle" font-family="Arial, sans-serif" font-size="11" fill="#374151"><tspan x="253.5" dy="0">2</tspan></text>
<rect x="312.7" y="1495.4" width="23.3" height="110.6" fill="#0072B2" opacity="0.92"><title>Immigrants: 17.5%</title></rect>
<rect x="338.9" y="1477.5" width="23.3" height="128.5" fill="#D55E00" opacity="0.92"><title>Emigrants: 20.3%</title></rect>
<rect x="365.1" y="1492.2" width="23.3" height="113.8" fill="#6B7280" opacity="0.92"><title>Stayers: 18.0%</title></rect>
<text x="350.5" y="1624.0" text-anchor="middle" font-family="Arial, sans-serif" font-size="11" fill="#374151"><tspan x="350.5" dy="0">3</tspan></text>
<rect x="409.7" y="1485.8" width="23.3" height="120.2" fill="#0072B2" opacity="0.92"><title>Immigrants: 19.0%</title></rect>
<rect x="435.9" y="1465.2" width="23.3" height="140.8" fill="#D55E00" opacity="0.92"><title>Emigrants: 22.3%</title></rect>
<rect x="462.1" y="1471.5" width="23.3" height="134.5" fill="#6B7280" opacity="0.92"><title>Stayers: 21.3%</title></rect>
<text x="447.5" y="1624.0" text-anchor="middle" font-family="Arial, sans-serif" font-size="11" fill="#374151"><tspan x="447.5" dy="0">4</tspan></text>
<rect x="506.7" y="1499.7" width="23.3" height="106.3" fill="#0072B2" opacity="0.92"><title>Immigrants: 16.8%</title></rect>
<rect x="532.9" y="1494.3" width="23.3" height="111.7" fill="#D55E00" opacity="0.92"><title>Emigrants: 17.7%</title></rect>
<rect x="559.1" y="1490.0" width="23.3" height="116.0" fill="#6B7280" opacity="0.92"><title>Stayers: 18.3%</title></rect>
<text x="544.5" y="1624.0" text-anchor="middle" font-family="Arial, sans-serif" font-size="11" fill="#374151"><tspan x="544.5" dy="0">5</tspan></text>
<rect x="603.7" y="1358.0" width="23.3" height="248.0" fill="#0072B2" opacity="0.92"><title>Immigrants: 39.2%</title></rect>
<rect x="629.9" y="1434.3" width="23.3" height="171.7" fill="#D55E00" opacity="0.92"><title>Emigrants: 27.1%</title></rect>
<rect x="656.0" y="1385.4" width="23.3" height="220.6" fill="#6B7280" opacity="0.92"><title>Stayers: 34.9%</title></rect>
<text x="641.5" y="1624.0" text-anchor="middle" font-family="Arial, sans-serif" font-size="11" fill="#374151"><tspan x="641.5" dy="0">6+</tspan></text>
<text x="746.0" y="1333.0" text-anchor="start" font-family="Arial, sans-serif" font-size="17" font-weight="600" fill="#1F2937">Refrigerator in dwelling</text>
<line x1="800.0" y1="1606.0" x2="1382.0" y2="1606.0" stroke="#E5E7EB" stroke-width="1"/>
<text x="792.0" y="1610.0" text-anchor="end" font-family="Arial, sans-serif" font-size="11" font-weight="400" fill="#6B7280">0%</text>
<line x1="800.0" y1="1542.8" x2="1382.0" y2="1542.8" stroke="#E5E7EB" stroke-width="1"/>
<text x="792.0" y="1546.8" text-anchor="end" font-family="Arial, sans-serif" font-size="11" font-weight="400" fill="#6B7280">22.5%</text>
<line x1="800.0" y1="1479.5" x2="1382.0" y2="1479.5" stroke="#E5E7EB" stroke-width="1"/>
<text x="792.0" y="1483.5" text-anchor="end" font-family="Arial, sans-serif" font-size="11" font-weight="400" fill="#6B7280">45%</text>
<line x1="800.0" y1="1416.2" x2="1382.0" y2="1416.2" stroke="#E5E7EB" stroke-width="1"/>
<text x="792.0" y="1420.2" text-anchor="end" font-family="Arial, sans-serif" font-size="11" font-weight="400" fill="#6B7280">67.5%</text>
<line x1="800.0" y1="1353.0" x2="1382.0" y2="1353.0" stroke="#E5E7EB" stroke-width="1"/>
<text x="792.0" y="1357.0" text-anchor="end" font-family="Arial, sans-serif" font-size="11" font-weight="400" fill="#6B7280">90%</text>
<line x1="800.0" y1="1353.0" x2="800.0" y2="1606.0" stroke="#9CA3AF"/>
<line x1="800.0" y1="1606.0" x2="1382.0" y2="1606.0" stroke="#9CA3AF"/>
<rect x="832.0" y="1433.1" width="69.8" height="172.9" fill="#0072B2" opacity="0.92"><title>Immigrants: 61.5%</title></rect>
<rect x="910.6" y="1433.5" width="69.8" height="172.5" fill="#D55E00" opacity="0.92"><title>Emigrants: 61.4%</title></rect>
<rect x="989.1" y="1378.3" width="69.8" height="227.7" fill="#6B7280" opacity="0.92"><title>Stayers: 81.0%</title></rect>
<text x="945.5" y="1624.0" text-anchor="middle" font-family="Arial, sans-serif" font-size="11" fill="#374151"><tspan x="945.5" dy="0">No</tspan></text>
<rect x="1123.0" y="1497.8" width="69.8" height="108.2" fill="#0072B2" opacity="0.92"><title>Immigrants: 38.5%</title></rect>
<rect x="1201.6" y="1497.4" width="69.8" height="108.6" fill="#D55E00" opacity="0.92"><title>Emigrants: 38.6%</title></rect>
<rect x="1280.2" y="1552.6" width="69.8" height="53.4" fill="#6B7280" opacity="0.92"><title>Stayers: 19.0%</title></rect>
<text x="1236.5" y="1624.0" text-anchor="middle" font-family="Arial, sans-serif" font-size="11" fill="#374151"><tspan x="1236.5" dy="0">Yes</tspan></text>
<text x="54.0" y="1692.0" text-anchor="start" font-family="Arial, sans-serif" font-size="13" font-weight="400" fill="#4B5563">Bars are percentages within migration group and panel; legend sizes use census person weights.</text>
<text x="54.0" y="1713.0" text-anchor="start" font-family="Arial, sans-serif" font-size="13" font-weight="400" fill="#4B5563">Income: no income plus national weighted quintiles among positive-income adults (1980 uses main-job income).</text>
</svg>