<svg xmlns="http://www.w3.org/2000/svg" width="1400" height="1730" viewBox="0 0 1400 1730" role="img">
<title>SC migration-group socioeconomic profile, 1980</title>
<rect width="100%" height="100%" fill="#FFFFFF"/>
<text x="54.0" y="54.0" text-anchor="start" font-family="Arial, sans-serif" font-size="29" font-weight="600" fill="#1F2937">SC: immigrants, emigrants, and stayers</text>
<text x="54.0" y="84.0" text-anchor="start" font-family="Arial, sans-serif" font-size="19" font-weight="400" fill="#374151">1980</text>
<text x="54.0" y="111.0" text-anchor="start" font-family="Arial, sans-serif" font-size="14" font-weight="400" fill="#6B7280">Proxy: state of birth</text>
<rect x="54" y="136" width="18" height="18" rx="2" fill="#0072B2"/>
<text x="83.0" y="150.0" text-anchor="start" font-family="Arial, sans-serif" font-size="15" font-weight="400" fill="#1F2937">Immigrants  |  N = 406.2k</text>
<rect x="474" y="136" width="18" height="18" rx="2" fill="#D55E00"/>
<text x="503.0" y="150.0" text-anchor="start" font-family="Arial, sans-serif" font-size="15" font-weight="400" fill="#1F2937">Emigrants  |  N = 571.5k</text>
<rect x="894" y="136" width="18" height="18" rx="2" fill="#6B7280"/>
<text x="923.0" y="150.0" text-anchor="start" font-family="Arial, sans-serif" font-size="15" font-weight="400" fill="#1F2937">Stayers  |  N = 2,738.2k</text>
<text x="54.0" y="208.0" text-anchor="start" font-family="Arial, sans-serif" font-size="17" font-weight="600" fill="#1F2937">Age</text>
<line x1="108.0" y1="481.0" x2="690.0" y2="481.0" stroke="#E5E7EB" stroke-width="1"/>
<text x="100.0" y="485.0" text-anchor="end" font-family="Arial, sans-serif" font-size="11" font-weight="400" fill="#6B7280">0%</text>
<line x1="108.0" y1="417.8" x2="690.0" y2="417.8" stroke="#E5E7EB" stroke-width="1"/>
<text x="100.0" y="421.8" text-anchor="end" font-family="Arial, sans-serif" font-size="11" font-weight="400" fill="#6B7280">10%</text>
<line x1="108.0" y1="354.5" x2="690.0" y2="354.5" stroke="#E5E7EB" stroke-width="1"/>
<text x="100.0" y="358.5" text-anchor="end" font-family="Arial, sans-serif" font-size="11" font-weight="400" fill="#6B7280">20%</text>
<line x1="108.0" y1="291.2" x2="690.0" y2="291.2" stroke="#E5E7EB" stroke-width="1"/>
<text x="100.0" y="295.2" text-anchor="end" font-family="Arial, sans-serif" font-size="11" font-weight="400" fill="#6B7280">30%</text>
<line x1="108.0" y1="228.0" x2="690.0" y2="228.0" stroke="#E5E7EB" stroke-width="1"/>
<text x="100.0" y="232.0" text-anchor="end" font-family="Arial, sans-serif" font-size="11" font-weight="400" fill="#6B7280">40%</text>
<line x1="108.0" y1="228.0" x2="108.0" y2="481.0" stroke="#9CA3AF"/>
<line x1="108.0" y1="481.0" x2="690.0" y2="481.0" stroke="#9CA3AF"/>
<rect x="117.1" y="383.6" width="20.0" height="97.4" fill="#0072B2" opacity="0.92"><title>Immigrants: 15.4%</title></rect>
<rect x="139.6" y="410.8" width="20.0" height="70.2" fill="#D55E00" opacity="0.92"><title>Emigrants: 11.1%</title></rect>
<rect x="162.0" y="288.3" width="20.0" height="192.7" fill="#6B7280" opacity="0.92"><title>Stayers: 30.5%</title></rect>
<text x="149.6" y="499.0" text-anchor="middle" font-family="Arial, sans-serif" font-size="11" fill="#374151"><tspan x="149.6" dy="0">5-14</tspan></text>
<rect x="200.3" y="348.4" width="20.0" height="132.6" fill="#0072B2" opacity="0.92"><title>Immigrants: 21.0%</title></rect>
<rect x="222.7" y="342.1" width="20.0" height="138.9" fill="#D55E00" opacity="0.92"><title>Emigrants: 22.0%</title></rect>
<rect x="245.2" y="309.2" width="20.0" height="171.8" fill="#6B7280" opacity="0.92"><title>Stayers: 27.2%</title></rect>
<text x="232.7" y="499.0" text-anchor="middle" font-family="Arial, sans-serif" font-size="11" fill="#374151"><tspan x="232.7" dy="0">15-24</tspan></text>
<rect x="283.4" y="349.4" width="20.0" height="131.6" fill="#0072B2" opacity="0.92"><title>Immigrants: 20.8%</title></rect>
<rect x="305.9" y="320.1" width="20.0" height="160.9" fill="#D55E00" opacity="0.92"><title>Emigrants: 25.4%</title></rect>
<rect x="328.3" y="376.9" width="20.0" height="104.1" fill="#6B7280" opacity="0.92"><title>Stayers: 16.5%</title></rect>
<text x="315.9" y="499.0" text-anchor="middle" font-family="Arial, sans-serif" font-size="11" fill="#374151"><tspan x="315.9" dy="0">25-34</tspan></text>
<rect x="366.6" y="379.6" width="20.0" height="101.4" fill="#0072B2" opacity="0.92"><title>Immigrants: 16.0%</title></rect>
<rect x="389.0" y="362.7" width="20.0" height="118.3" fill="#D55E00" opacity="0.92"><title>Emigrants: 18.7%</title></rect>
<rect x="411.5" y="415.3" width="20.0" height="65.7" fill="#6B7280" opacity="0.92"><title>Stayers: 10.4%</title></rect>
<text x="399.0" y="499.0" text-anchor="middle" font-family="Arial, sans-serif" font-size="11" fill="#374151"><tspan x="399.0" dy="0">35-44</tspan></text>
<rect x="449.7" y="401.8" width="20.0" height="79.2" fill="#0072B2" opacity="0.92"><title>Immigrants: 12.5%</title></rect>
<rect x="472.2" y="403.4" width="20.0" height="77.6" fill="#D55E00" opacity="0.92"><title>Emigrants: 12.3%</title></rect>
<rect x="494.6" y="435.0" width="20.0" height="46.0" fill="#6B7280" opacity="0.92"><title>Stayers: 7.3%</title></rect>
<text x="482.1" y="499.0" text-anchor="middle" font-family="Arial, sans-serif" font-size="11" fill="#374151"><tspan x="482.1" dy="0">45-54</tspan></text>
<rect x="532.9" y="428.2" width="20.0" height="52.8" fill="#0072B2" opacity="0.92"><title>Immigrants: 8.4%</title></rect>
<rect x="555.3" y="440.2" width="20.0" height="40.8" fill="#D55E00" opacity="0.92"><title>Emigrants: 6.5%</title></rect>
<rect x="577.8" y="451.4" width="20.0" height="29.6" fill="#6B7280" opacity="0.92"><title>Stayers: 4.7%</title></rect>
<text x="565.3" y="499.0" text-anchor="middle" font-family="Arial, sans-serif" font-size="11" fill="#374151"><tspan x="565.3" dy="0">55-64</tspan></text>
<rect x="616.0" y="443.4" width="20.0" height="37.6" fill="#0072B2" opacity="0.92"><title>Immigrants: 5.9%</title></rect>
<rect x="638.5" y="455.2" width="20.0" height="25.8" fill="#D55E00" opacity="0.92"><title>Emigrants: 4.1%</title></rect>
<rect x="660.9" y="458.3" width="20.0" height="22.7" fill="#6B7280" opacity="0.92"><title>Stayers: 3.6%</title></rect>
<text x="648.4" y="499.0" text-anchor="middle" font-family="Arial, sans-serif" font-size="11" fill="#374151"><tspan x="648.4" dy="0">65+</tspan></text>
<text x="746.0" y="208.0" text-anchor="start" font-family="Arial, sans-serif" font-size="17" font-weight="600" fill="#1F2937">Income rank</text>
<line x1="800.0" y1="481.0" x2="1382.0" y2="481.0" stroke="#E5E7EB" stroke-width="1"/>
<text x="792.0" y="485.0" text-anchor="end" font-family="Arial, sans-serif" font-size="11" font-weight="400" fill="#6B7280">0%</text>
<line x1="800.0" y1="417.8" x2="1382.0" y2="417.8" stroke="#E5E7EB" stroke-width="1"/>
<text x="792.0" y="421.8" text-anchor="end" font-family="Arial, sans-serif" font-size="11" font-weight="400" fill="#6B7280">12.5%</text>
<line x1="800.0" y1="354.5" x2="1382.0" y2="354.5" stroke="#E5E7EB" stroke-width="1"/>
<text x="792.0" y="358.5" text-anchor="end" font-family="Arial, sans-serif" font-size="11" font-weight="400" fill="#6B7280">25%</text>
<line x1="800.0" y1="291.2" x2="1382.0" y2="291.2" stroke="#E5E7EB" stroke-width="1"/>
<text x="792.0" y="295.2" text-anchor="end" font-family="Arial, sans-serif" font-size="11" font-weight="400" fill="#6B7280">37.5%</text>
<line x1="800.0" y1="228.0" x2="1382.0" y2="228.0" stroke="#E5E7EB" stroke-width="1"/>
<text x="792.0" y="232.0" text-anchor="end" font-family="Arial, sans-serif" font-size="11" font-weight="400" fill="#6B7280">50%</text>
<line x1="800.0" y1="228.0" x2="800.0" y2="481.0" stroke="#9CA3AF"/>
<line x1="800.0" y1="481.0" x2="1382.0" y2="481.0" stroke="#9CA3AF"/>
<rect x="810.7" y="229.9" width="23.3" height="251.1" fill="#0072B2" opacity="0.92"><title>Immigrants: 49.6%</title></rect>
<rect x="836.9" y="254.8" width="23.3" height="226.2" fill="#D55E00" opacity="0.92"><title>Emigrants: 44.7%</title></rect>
<rect x="863.0" y="231.7" width="23.3" height="249.3" fill="#6B7280" opacity="0.92"><title>Stayers: 49.3%</title></rect>
<text x="848.5" y="499.0" text-anchor="middle" font-family="Arial, sans-serif" font-size="11" fill="#374151"><tspan x="848.5" dy="0">No</tspan><tspan x="848.5" dy="13">income</tspan></text>
<rect x="907.7" y="453.1" width="23.3" height="27.9" fill="#0072B2" opacity="0.92"><title>Immigrants: 5.5%</title></rect>
<rect x="933.9" y="453.5" width="23.3" height="27.5" fill="#D55E00" opacity="0.92"><title>Emigrants: 5.4%</title></rect>
<rect x="960.0" y="451.0" width="23.3" height="30.0" fill="#6B7280" opacity="0.92"><title>Stayers: 5.9%</title></rect>
<text x="945.5" y="499.0" text-anchor="middle" font-family="Arial, sans-serif" font-size="11" fill="#374151"><tspan x="945.5" dy="0">Q1</tspan></text>
<rect x="1004.7" y="442.3" width="23.3" height="38.7" fill="#0072B2" opacity="0.92"><title>Immigrants: 7.6%</title></rect>
<rect x="1030.9" y="442.7" width="23.3" height="38.3" fill="#D55E00" opacity="0.92"><title>Emigrants: 7.6%</title></rect>
<rect x="1057.0" y="431.2" width="23.3" height="49.8" fill="#6B7280" opacity="0.92"><title>Stayers: 9.9%</title></rect>
<text x="1042.5" y="499.0" text-anchor="middle" font-family="Arial, sans-serif" font-size="11" fill="#374151"><tspan x="1042.5" dy="0">Q2</tspan></text>
<rect x="1101.7" y="420.9" width="23.3" height="60.1" fill="#0072B2" opacity="0.92"><title>Immigrants: 11.9%</title></rect>
<rect x="1127.9" y="421.1" width="23.3" height="59.9" fill="#D55E00" opacity="0.92"><title>Emigrants: 11.8%</title></rect>
<rect x="1154.1" y="413.2" width="23.3" height="67.8" fill="#6B7280" opacity="0.92"><title>Stayers: 13.4%</title></rect>
<text x="1139.5" y="499.0" text-anchor="middle" font-family="Arial, sans-serif" font-size="11" fill="#374151"><tspan x="1139.5" dy="0">Q3</tspan></text>
<rect x="1198.7" y="417.5" width="23.3" height="63.5" fill="#0072B2" opacity="0.92"><title>Immigrants: 12.5%</title></rect>
<rect x="1224.9" y="409.4" width="23.3" height="71.6" fill="#D55E00" opacity="0.92"><title>Emigrants: 14.2%</title></rect>
<rect x="1251.1" y="415.7" width="23.3" height="65.3" fill="#6B7280" opacity="0.92"><title>Stayers: 12.9%</title></rect>
<text x="1236.5" y="499.0" text-anchor="middle" font-family="Arial, sans-serif" font-size="11" fill="#374151"><tspan x="1236.5" dy="0">Q4</tspan></text>
<rect x="1295.7" y="416.2" width="23.3" height="64.8" fill="#0072B2" opacity="0.92"><title>Immigrants: 12.8%</title></rect>
<rect x="1321.9" y="398.6" width="23.3" height="82.4" fill="#D55E00" opacity="0.92"><title>Emigrants: 16.3%</title></rect>
<rect x="1348.1" y="437.3" width="23.3" height="43.7" fill="#6B7280" opacity="0.92"><title>Stayers: 8.6%</title></rect>
<text x="1333.5" y="499.0" text-anchor="middle" font-family="Arial, sans-serif" font-size="11" fill="#374151"><tspan x="1333.5" dy="0">Q5</tspan></text>
<text x="54.0" y="583.0" text-anchor="start" font-family="Arial, sans-serif" font-size="17" font-weight="600" fill="#1F2937">Sex</text>
<line x1="108.0" y1="856.0" x2="690.0" y2="856.0" stroke="#E5E7EB" stroke-width="1"/>
<text x="100.0" y="860.0" text-anchor="end" font-family="Arial, sans-serif" font-size="11" font-weight="400" fill="#6B7280">0%</text>
<line x1="108.0" y1="792.8" x2="690.0" y2="792.8" stroke="#E5E7EB" stroke-width="1"/>
<text x="100.0" y="796.8" text-anchor="end" font-family="Arial, sans-serif" font-size="11" font-weight="400" fill="#6B7280">15%</text>
<line x1="108.0" y1="729.5" x2="690.0" y2="729.5" stroke="#E5E7EB" stroke-width="1"/>
<text x="100.0" y="733.5" text-anchor="end" font-family="Arial, sans-serif" font-size="11" font-weight="400" fill="#6B7280">30%</text>
<line x1="108.0" y1="666.2" x2="690.0" y2="666.2" stroke="#E5E7EB" stroke-width="1"/>
<text x="100.0" y="670.2" text-anchor="end" font-family="Arial, sans-serif" font-size="11" font-weight="400" fill="#6B7280">45%</text>
<line x1="108.0" y1="603.0" x2="690.0" y2="603.0" stroke="#E5E7EB" stroke-width="1"/>
<text x="100.0" y="607.0" text-anchor="end" font-family="Arial, sans-serif" font-size="11" font-weight="400" fill="#6B7280">60%</text>
<line x1="108.0" y1="603.0" x2="108.0" y2="856.0" stroke="#9CA3AF"/>
<line x1="108.0" y1="856.0" x2="690.0" y2="856.0" stroke="#9CA3AF"/>
<rect x="140.0" y="650.8" width="69.8" height="205.2" fill="#0072B2" opacity="0.92"><title>Immigrants: 48.7%</title></rect>
<rect x="218.6" y="639.1" width="69.8" height="216.9" fill="#D55E00" opacity="0.92"><title>Emigrants: 51.4%</title></rect>
<rect x="297.1" y="646.0" width="69.8" height="210.0" fill="#6B7280" opacity="0.92"><title>Stayers: 49.8%</title></rect>
<text x="253.5" y="874.0" text-anchor="middle" font-family="Arial, sans-serif" font-size="11" fill="#374151"><tspan x="253.5" dy="0">Women</tspan></text>
<rect x="431.0" y="639.5" width="69.8" height="216.5" fill="#0072B2" opacity="0.92"><title>Immigrants: 51.3%</title></rect>
<rect x="509.6" y="651.2" width="69.8" height="204.8" fill="#D55E00" opacity="0.92"><title>Emigrants: 48.6%</title></rect>
<rect x="588.1" y="644.3" width="69.8" height="211.7" fill="#6B7280" opacity="0.92"><title>Stayers: 50.2%</title></rect>
<text x="544.5" y="874.0" text-anchor="middle" font-family="Arial, sans-serif" font-size="11" fill="#374151"><tspan x="544.5" dy="0">Men</tspan></text>
<text x="746.0" y="583.0" text-anchor="start" font-family="Arial, sans-serif" font-size="17" font-weight="600" fill="#1F2937">Literacy (age 15+)</text>
<line x1="800.0" y1="856.0" x2="1382.0" y2="856.0" stroke="#E5E7EB" stroke-width="1"/>
<text x="792.0" y="860.0" text-anchor="end" font-family="Arial, sans-serif" font-size="11" font-weight="400" fill="#6B7280">0%</text>
<line x1="800.0" y1="792.8" x2="1382.0" y2="792.8" stroke="#E5E7EB" stroke-width="1"/>
<text x="792.0" y="796.8" text-anchor="end" font-family="Arial, sans-serif" font-size="11" font-weight="400" fill="#6B7280">22.5%</text>
<line x1="800.0" y1="729.5" x2="1382.0" y2="729.5" stroke="#E5E7EB" stroke-width="1"/>
<text x="792.0" y="733.5" text-anchor="end" font-family="Arial, sans-serif" font-size="11" font-weight="400" fill="#6B7280">45%</text>
<line x1="800.0" y1="666.2" x2="1382.0" y2="666.2" stroke="#E5E7EB" stroke-width="1"/>
<text x="792.0" y="670.2" text-anchor="end" font-family="Arial, sans-serif" font-size="11" font-weight="400" fill="#6B7280">67.5%</text>
<line x1="800.0" y1="603.0" x2="1382.0" y2="603.0" stroke="#E5E7EB" stroke-width="1"/>
<text x="792.0" y="607.0" text-anchor="end" font-family="Arial, sans-serif" font-size="11" font-weight="400" fill="#6B7280">90%</text>
<line x1="800.0" y1="603.0" x2="800.0" y2="856.0" stroke="#9CA3AF"/>
<line x1="800.0" y1="856.0" x2="1382.0" y2="856.0" stroke="#9CA3AF"/>
<rect x="832.0" y="813.1" width="69.8" height="42.9" fill="#0072B2" opacity="0.92"><title>Immigrants: 15.3%</title></rect>
<rect x="910.6" y="822.0" width="69.8" height="34.0" fill="#D55E00" opacity="0.92"><title>Emigrants: 12.1%</title></rect>
<rect x="989.1" y="821.1" width="69.8" height="34.9" fill="#6B7280" opacity="0.92"><title>Stayers: 12.4%</title></rect>
<text x="945.5" y="874.0" text-anchor="middle" font-family="Arial, sans-serif" font-size="11" fill="#374151"><tspan x="945.5" dy="0">Not</tspan><tspan x="945.5" dy="13">literate</tspan></text>
<rect x="1123.0" y="617.8" width="69.8" height="238.2" fill="#0072B2" opacity="0.92"><title>Immigrants: 84.7%</title></rect>
<rect x="1201.6" y="608.9" width="69.8" height="247.1" fill="#D55E00" opacity="0.92"><title>Emigrants: 87.9%</title></rect>
<rect x="1280.2" y="609.8" width="69.8" height="246.2" fill="#6B7280" opacity="0.92"><title>Stayers: 87.6%</title></rect>
<text x="1236.5" y="874.0" text-anchor="middle" font-family="Arial, sans-serif" font-size="11" fill="#374151"><tspan x="1236.5" dy="0">Literate</tspan></text>
<text x="54.0" y="958.0" text-anchor="start" font-family="Arial, sans-serif" font-size="17" font-weight="600" fill="#1F2937">Years of schooling (age 15+)</text>
<text x="379.0" y="1117.5" text-anchor="middle" font-family="Arial, sans-serif" font-size="15" font-weight="400" fill="#6B7280">Not available</text>
<text x="746.0" y="958.0" text-anchor="start" font-family="Arial, sans-serif" font-size="17" font-weight="600" fill="#1F2937">Household size</text>
<line x1="800.0" y1="1231.0" x2="1382.0" y2="1231.0" stroke="#E5E7EB" stroke-width="1"/>
<text x="792.0" y="1235.0" text-anchor="end" font-family="Arial, sans-serif" font-size="11" font-weight="400" fill="#6B7280">0%</text>
<line x1="800.0" y1="1167.8" x2="1382.0" y2="1167.8" stroke="#E5E7EB" stroke-width="1"/>
<text x="792.0" y="1171.8" text-anchor="end" font-family="Arial, sans-serif" font-size="11" font-weight="400" fill="#6B7280">22.5%</text>
<line x1="800.0" y1="1104.5" x2="1382.0" y2="1104.5" stroke="#E5E7EB" stroke-width="1"/>
<text x="792.0" y="1108.5" text-anchor="end" font-family="Arial, sans-serif" font-size="11" font-weight="400" fill="#6B7280">45%</text>
<line x1="800.0" y1="1041.2" x2="1382.0" y2="1041.2" stroke="#E5E7EB" stroke-width="1"/>
<text x="792.0" y="1045.2" text-anchor="end" font-family="Arial, sans-serif" font-size="11" font-weight="400" fill="#6B7280">67.5%</text>
<line x1="800.0" y1="978.0" x2="1382.0" y2="978.0" stroke="#E5E7EB" stroke-width="1"/>
<text x="792.0" y="982.0" text-anchor="end" font-family="Arial, sans-serif" font-size="11" font-weight="400" fill="#6B7280">90%</text>
<line x1="800.0" y1="978.0" x2="800.0" y2="1231.0" stroke="#9CA3AF"/>
<line x1="800.0" y1="1231.0" x2="1382.0" y2="1231.0" stroke="#9CA3AF"/>
<rect x="810.7" y="1231.0" width="23.3" height="0.0" fill="#0072B2" opacity="0.92"><title>Immigrants: 0.0%</title></rect>
<rect x="836.9" y="1224.9" width="23.3" height="6.1" fill="#D55E00" opacity="0.92"><title>Emigrants: 2.2%</title></rect>
<rect x="863.0" y="1231.0" width="23.3" height="0.0" fill="#6B7280" opacity="0.92"><title>Stayers: 0.0%</title></rect>
<text x="848.5" y="1249.0" text-anchor="middle" font-family="Arial, sans-serif" font-size="11" fill="#374151"><tspan x="848.5" dy="0">1</tspan></text>
<rect x="907.7" y="1231.0" width="23.3" height="0.0" fill="#0072B2" opacity="0.92"><title>Immigrants: 0.0%</title></rect>
<rect x="933.9" y="1225.9" width="23.3" height="5.1" fill="#D55E00" opacity="0.92"><title>Emigrants: 1.8%</title></rect>
<rect x="960.0" y="1231.0" width="23.3" height="0.0" fill="#6B7280" opacity="0.92"><title>Stayers: 0.0%</title></rect>
<text x="945.5" y="1249.0" text-anchor="middle" font-family="Arial, sans-serif" font-size="11" fill="#374151"><tspan x="945.5" dy="0">2</tspan></text>
<rect x="1004.7" y="1231.0" width="23.3" height="0.0" fill="#0072B2" opacity="0.92"><title>Immigrants: 0.0%</title></rect>
<rect x="1030.9" y="1214.8" width="23.3" height="16.2" fill="#D55E00" opacity="0.92"><title>Emigrants: 5.8%</title></rect>
<rect x="1057.0" y="1231.0" width="23.3" height="0.0" fill="#6B7280" opacity="0.92"><title>Stayers: 0.0%</title></rect>
<text x="1042.5" y="1249.0" text-anchor="middle" font-family="Arial, sans-serif" font-size="11" fill="#374151"><tspan x="1042.5" dy="0">3</tspan></text>
<rect x="1101.7" y="1231.0" width="23.3" height="0.0" fill="#0072B2" opacity="0.92"><title>Immigrants: 0.0%</title></rect>
<rect x="1127.9" y="1220.9" width="23.3" height="10.1" fill="#D55E00" opacity="0.92"><title>Emigrants: 3.6%</title></rect>
<rect x="1154.1" y="1231.0" width="23.3" height="0.0" fill="#6B7280" opacity="0.92"><title>Stayers: 0.0%</title></rect>
<text x="1139.5" y="1249.0" text-anchor="middle" font-family="Arial, sans-serif" font-size="11" fill="#374151"><tspan x="1139.5" dy="0">4</tspan></text>
<rect x="1198.7" y="1231.0" width="23.3" height="0.0" fill="#0072B2" opacity="0.92"><title>Immigrants: 0.0%</title></rect>
<rect x="1224.9" y="1225.9" width="23.3" height="5.1" fill="#D55E00" opacity="0.92"><title>Emigrants: 1.8%</title></rect>
<rect x="1251.1" y="1231.0" width="23.3" height="0.0" fill="#6B7280" opacity="0.92"><title>Stayers: 0.0%</title></rect>
<text x="1236.5" y="1249.0" text-anchor="middle" font-family="Arial, sans-serif" font-size="11" fill="#374151"><tspan x="1236.5" dy="0">5</tspan></text>
<rect x="1295.7" y="1231.0" width="23.3" height="0.0" fill="#0072B2" opacity="0.92"><title>Immigrants: 0.0%</title></rect>
<rect x="1321.9" y="992.3" width="23.3" height="238.7" fill="#D55E00" opacity="0.92"><title>Emigrants: 84.9%</title></rect>
<rect x="1348.1" y="1231.0" width="23.3" height="0.0" fill="#6B7280" opacity="0.92"><title>Stayers: 0.0%</title></rect>
<text x="1333.5" y="1249.0" text-anchor="middle" font-family="Arial, sans-serif" font-size="11" fill="#374151"><tspan x="1333.5" dy="0">6+</tspan></text>
<text x="54.0" y="1333.0" text-anchor="start" font-family="Arial, sans-serif" font-size="17" font-weight="600" fill="#1F2937">Rooms in dwelling</text>
<line x1="108.0" y1="1606.0" x2="690.0" y2="1606.0" stroke="#E5E7EB" stroke-width="1"/>
<text x="100.0" y="1610.0" text-anchor="end" font-family="Arial, sans-serif" font-size="11" font-weight="400" fill="#6B7280">0%</text>
<line x1="108.0" y1="1542.8" x2="690.0" y2="1542.8" stroke="#E5E7EB" stroke-width="1"/>
<text x="100.0" y="1546.8" text-anchor="end" font-family="Arial, sans-serif" font-size="11" font-weight="400" fill="#6B7280">15%</text>
<line x1="108.0" y1="1479.5" x2="690.0" y2="1479.5" stroke="#E5E7EB" stroke-width="1"/>
<text x="100.0" y="1483.5" text-anchor="end" font-family="Arial, sans-serif" font-size="11" font-weight="400" fill="#6B7280">30%</text>
<line x1="108.0" y1="1416.2" x2="690.0" y2="1416.2" stroke="#E5E7EB" stroke-width="1"/>
<text x="100.0" y="1420.2" text-anchor="end" font-family="Arial, sans-serif" font-size="11" font-weight="400" fill="#6B7280">45%</text>
<line x1="108.0" y1="1353.0" x2="690.0" y2="1353.0" stroke="#E5E7EB" stroke-width="1"/>
<text x="100.0" y="1357.0" text-anchor="end" font-family="Arial, sans-serif" font-size="11" font-weight="400" fill="#6B7280">60%</text>
<line x1="108.0" y1="1353.0" x2="108.0" y2="1606.0" stroke="#9CA3AF"/>
<line x1="108.0" y1="1606.0" x2="690.0" y2="1606.0" stroke="#9CA3AF"/>
<rect x="118.7" y="1602.7" width="23.3" height="3.3" fill="#0072B2" opacity="0.92"><title>Immigrants: 0.8%</title></rect>
<rect x="144.9" y="1600.5" width="23.3" height="5.5" fill="#D55E00" opacity="0.92"><title>Emigrants: 1.3%</title></rect>
<rect x="171.1" y="1603.5" width="23.3" height="2.5" fill="#6B7280" opacity="0.92"><title>Stayers: 0.6%</title></rect>
<text x="156.5" y="1624.0" text-anchor="middle" font-family="Arial, sans-serif" font-size="11" fill="#374151"><tspan x="156.5" dy="0">1</tspan></text>
<rect x="215.7" y="1582.4" width="23.3" height="23.6" fill="#0072B2" opacity="0.92"><title>Immigrants: 5.6%</title></rect>
<rect x="241.9" y="1579.8" width="23.3" height="26.2" fill="#D55E00" opacity="0.92"><title>Emigrants: 6.2%</title></rect>
<rect x="268.1" y="1589.5" width="23.3" height="16.5" fill="#6B7280" opacity="0.92"><title>Stayers: 3.9%</title></rect>
<text x="253.5" y="1624.0" text-anchor="middle" font-family="Arial, sans-serif" font-size="11" fill="#374151"><tspan x="253.5" dy="0">2</tspan></text>
<rect x="312.7" y="1566.5" width="23.3" height="39.5" fill="#0072B2" opacity="0.92"><title>Immigrants: 9.4%</title></rect>
<rect x="338.9" y="1566.2" width="23.3" height="39.8" fill="#D55E00" opacity="0.92"><title>Emigrants: 9.4%</title></rect>
<rect x="365.1" y="1576.3" width="23.3" height="29.7" fill="#6B7280" opacity="0.92"><title>Stayers: 7.0%</title></rect>
<text x="350.5" y="1624.0" text-anchor="middle" font-family="Arial, sans-serif" font-size="11" fill="#374151"><tspan x="350.5" dy="0">3</tspan></text>
<rect x="409.7" y="1551.5" width="23.3" height="54.5" fill="#0072B2" opacity="0.92"><title>Immigrants: 12.9%</title></rect>
<rect x="435.9" y="1546.0" width="23.3" height="60.0" fill="#D55E00" opacity="0.92"><title>Emigrants: 14.2%</title></rect>
<rect x="462.1" y="1553.6" width="23.3" height="52.4" fill="#6B7280" opacity="0.92"><title>Stayers: 12.4%</title></rect>
<text x="447.5" y="1624.0" text-anchor="middle" font-family="Arial, sans-serif" font-size="11" fill="#374151"><tspan x="447.5" dy="0">4</tspan></text>
<rect x="506.7" y="1521.6" width="23.3" height="84.4" fill="#0072B2" opacity="0.92"><title>Immigrants: 20.0%</title></rect>
<rect x="532.9" y="1523.2" width="23.3" height="82.8" fill="#D55E00" opacity="0.92"><title>Emigrants: 19.6%</title></rect>
<rect x="559.1" y="1524.1" width="23.3" height="81.9" fill="#6B7280" opacity="0.92"><title>Stayers: 19.4%</title></rect>
<text x="544.5" y="1624.0" text-anchor="middle" font-family="Arial, sans-serif" font-size="11" fill="#374151"><tspan x="544.5" dy="0">5</tspan></text>
<rect x="603.7" y="1389.6" width="23.3" height="216.4" fill="#0072B2" opacity="0.92"><title>Immigrants: 51.3%</title></rect>
<rect x="629.9" y="1398.6" width="23.3" height="207.4" fill="#D55E00" opacity="0.92"><title>Emigrants: 49.2%</title></rect>
<rect x="656.0" y="1367.5" width="23.3" height="238.5" fill="#6B7280" opacity="0.92"><title>Stayers: 56.6%</title></rect>
<text x="641.5" y="1624.0" text-anchor="middle" font-family="Arial, sans-serif" font-size="11" fill="#374151"><tspan x="641.5" dy="0">6+</tspan></text>
<text x="746.0" y="1333.0" text-anchor="start" font-family="Arial, sans-serif" font-size="17" font-weight="600" fill="#1F2937">Refrigerator in dwelling</text>
<line x1="800.0" y1="1606.0" x2="1382.0" y2="1606.0" stroke="#E5E7EB" stroke-width="1"/>
<text x="792.0" y="1610.0" text-anchor="end" font-family="Arial, sans-serif" font-size="11" font-weight="400" fill="#6B7280">0%</text>
<line x1="800.0" y1="1542.8" x2="1382.0" y2="1542.8" stroke="#E5E7EB" stroke-width="1"/>
<text x="792.0" y="1546.8" text-anchor="end" font-family="Arial, sans-serif" font-size="11" font-weight="400" fill="#6B7280">17.5%</text>
<line x1="800.0" y1="1479.5" x2="1382.0" y2="1479.5" stroke="#E5E7EB" stroke-width="1"/>
<text x="792.0" y="1483.5" text-anchor="end" font-family="Arial, sans-serif" font-size="11" font-weight="400" fill="#6B7280">35%</text>
<line x1="800.0" y1="1416.2" x2="1382.0" y2="1416.2" stroke="#E5E7EB" stroke-width="1"/>
<text x="792.0" y="1420.2" text-anchor="end" font-family="Arial, sans-serif" font-size="11" font-weight="400" fill="#6B7280">52.5%</text>
<line x1="800.0" y1="1353.0" x2="1382.0" y2="1353.0" stroke="#E5E7EB" stroke-width="1"/>
<text x="792.0" y="1357.0" text-anchor="end" font-family="Arial, sans-serif" font-size="11" font-weight="400" fill="#6B7280">70%</text>
<line x1="800.0" y1="1353.0" x2="800.0" y2="1606.0" stroke="#9CA3AF"/>
<line x1="800.0" y1="1606.0" x2="1382.0" y2="1606.0" stroke="#9CA3AF"/>
<rect x="832.0" y="1466.0" width="69.8" height="140.0" fill="#0072B2" opacity="0.92"><title>Immigrants: 38.7%</title></rect>
<rect x="910.6" y="1480.5" width="69.8" height="125.5" fill="#D55E00" opacity="0.92"><title>Emigrants: 34.7%</title></rect>
<rect x="989.1" y="1479.9" width="69.8" height="126.1" fill="#6B7280" opacity="0.92"><title>Stayers: 34.9%</title></rect>
<text x="945.5" y="1624.0" text-anchor="middle" font-family="Arial, sans-serif" font-size="11" fill="#374151"><tspan x="945.5" dy="0">No</tspan></text>
<rect x="1123.0" y="1384.6" width="69.8" height="221.4" fill="#0072B2" opacity="0.92"><title>Immigrants: 61.3%</title></rect>
<rect x="1201.6" y="1370.1" width="69.8" height="235.9" fill="#D55E00" opacity="0.92"><title>Emigrants: 65.3%</title></rect>
<rect x="1280.2" y="1370.7" width="69.8" height="235.3" fill="#6B7280" opacity="0.92"><title>Stayers: 65.1%</title></rect>
<text x="1236.5" y="1624.0" text-anchor="middle" font-family="Arial, sans-serif" font-size="11" fill="#374151"><tspan x="1236.5" dy="0">Yes</tspan></text>
<text x="54.0" y="1692.0" text-anchor="start" font-family="Arial, sans-serif" font-size="13" font-weight="400" fill="#4B5563">Bars are percentages within migration group and panel; legend sizes use census person weights.</text>
<text x="54.0" y="1713.0" text-anchor="start" font-family="Arial, sans-serif" font-size="13" font-weight="400" fill="#4B5563">Income: no income plus national weighted quintiles among positive-income adults (1980 uses main-job income).</text>
</svg>