<svg xmlns="http://www.w3.org/2000/svg" width="1400" height="1730" viewBox="0 0 1400 1730" role="img">
<title>SP migration-group socioeconomic profile, 1970</title>
<rect width="100%" height="100%" fill="#FFFFFF"/>
<text x="54.0" y="54.0" text-anchor="start" font-family="Arial, sans-serif" font-size="29" font-weight="600" fill="#1F2937">SP: immigrants, emigrants, and stayers</text>
<text x="54.0" y="84.0" text-anchor="start" font-family="Arial, sans-serif" font-size="19" font-weight="400" fill="#374151">1970</text>
<text x="54.0" y="111.0" text-anchor="start" font-family="Arial, sans-serif" font-size="14" font-weight="400" fill="#6B7280">Proxy: previous state of residence</text>
<rect x="54" y="136" width="18" height="18" rx="2" fill="#0072B2"/>
<text x="83.0" y="150.0" text-anchor="start" font-family="Arial, sans-serif" font-size="15" font-weight="400" fill="#1F2937">Immigrants  |  N = 2,448.6k</text>
<rect x="474" y="136" width="18" height="18" rx="2" fill="#D55E00"/>
<text x="503.0" y="150.0" text-anchor="start" font-family="Arial, sans-serif" font-size="15" font-weight="400" fill="#1F2937">Emigrants  |  N = 1,014.4k</text>
<rect x="894" y="136" width="18" height="18" rx="2" fill="#6B7280"/>
<text x="923.0" y="150.0" text-anchor="start" font-family="Arial, sans-serif" font-size="15" font-weight="400" fill="#1F2937">Stayers  |  N = 12,607k</text>
<text x="54.0" y="208.0" text-anchor="start" font-family="Arial, sans-serif" font-size="17" font-weight="600" fill="#1F2937">Age</text>
<line x1="108.0" y1="481.0" x2="690.0" y2="481.0" stroke="#E5E7EB" stroke-width="1"/>
<text x="100.0" y="485.0" text-anchor="end" font-family="Arial, sans-serif" font-size="11" font-weight="400" fill="#6B7280">0%</text>
<line x1="108.0" y1="417.8" x2="690.0" y2="417.8" stroke="#E5E7EB" stroke-width="1"/>
<text x="100.0" y="421.8" text-anchor="end" font-family="Arial, sans-serif" font-size="11" font-weight="400" fill="#6B7280">10%</text>
<line x1="108.0" y1="354.5" x2="690.0" y2="354.5" stroke="#E5E7EB" stroke-width="1"/>
<text x="100.0" y="358.5" text-anchor="end" font-family="Arial, sans-serif" font-size="11" font-weight="400" fill="#6B7280">20%</text>
<line x1="108.0" y1="291.2" x2="690.0" y2="291.2" stroke="#E5E7EB" stroke-width="1"/>
<text x="100.0" y="295.2" text-anchor="end" font-family="Arial, sans-serif" font-size="11" font-weight="400" fill="#6B7280">30%</text>
<line x1="108.0" y1="228.0" x2="690.0" y2="228.0" stroke="#E5E7EB" stroke-width="1"/>
<text x="100.0" y="232.0" text-anchor="end" font-family="Arial, sans-serif" font-size="11" font-weight="400" fill="#6B7280">40%</text>
<line x1="108.0" y1="228.0" x2="108.0" y2="481.0" stroke="#9CA3AF"/>
<line x1="108.0" y1="481.0" x2="690.0" y2="481.0" stroke="#9CA3AF"/>
<rect x="117.1" y="389.7" width="20.0" height="91.3" fill="#0072B2" opacity="0.92"><title>Immigrants: 14.4%</title></rect>
<rect x="139.6" y="354.4" width="20.0" height="126.6" fill="#D55E00" opacity="0.92"><title>Emigrants: 20.0%</title></rect>
<rect x="162.0" y="282.3" width="20.0" height="198.7" fill="#6B7280" opacity="0.92"><title>Stayers: 31.4%</title></rect>
<text x="149.6" y="499.0" text-anchor="middle" font-family="Arial, sans-serif" font-size="11" fill="#374151"><tspan x="149.6" dy="0">5-14</tspan></text>
<rect x="200.3" y="324.7" width="20.0" height="156.3" fill="#0072B2" opacity="0.92"><title>Immigrants: 24.7%</title></rect>
<rect x="222.7" y="338.1" width="20.0" height="142.9" fill="#D55E00" opacity="0.92"><title>Emigrants: 22.6%</title></rect>
<rect x="245.2" y="334.4" width="20.0" height="146.6" fill="#6B7280" opacity="0.92"><title>Stayers: 23.2%</title></rect>
<text x="232.7" y="499.0" text-anchor="middle" font-family="Arial, sans-serif" font-size="11" fill="#374151"><tspan x="232.7" dy="0">15-24</tspan></text>
<rect x="283.4" y="331.6" width="20.0" height="149.4" fill="#0072B2" opacity="0.92"><title>Immigrants: 23.6%</title></rect>
<rect x="305.9" y="362.1" width="20.0" height="118.9" fill="#D55E00" opacity="0.92"><title>Emigrants: 18.8%</title></rect>
<rect x="328.3" y="382.9" width="20.0" height="98.1" fill="#6B7280" opacity="0.92"><title>Stayers: 15.5%</title></rect>
<text x="315.9" y="499.0" text-anchor="middle" font-family="Arial, sans-serif" font-size="11" fill="#374151"><tspan x="315.9" dy="0">25-34</tspan></text>
<rect x="366.6" y="372.5" width="20.0" height="108.5" fill="#0072B2" opacity="0.92"><title>Immigrants: 17.2%</title></rect>
<rect x="389.0" y="377.4" width="20.0" height="103.6" fill="#D55E00" opacity="0.92"><title>Emigrants: 16.4%</title></rect>
<rect x="411.5" y="400.6" width="20.0" height="80.4" fill="#6B7280" opacity="0.92"><title>Stayers: 12.7%</title></rect>
<text x="399.0" y="499.0" text-anchor="middle" font-family="Arial, sans-serif" font-size="11" fill="#374151"><tspan x="399.0" dy="0">35-44</tspan></text>
<rect x="449.7" y="416.1" width="20.0" height="64.9" fill="#0072B2" opacity="0.92"><title>Immigrants: 10.3%</title></rect>
<rect x="472.2" y="412.7" width="20.0" height="68.3" fill="#D55E00" opacity="0.92"><title>Emigrants: 10.8%</title></rect>
<rect x="494.6" y="427.6" width="20.0" height="53.4" fill="#6B7280" opacity="0.92"><title>Stayers: 8.4%</title></rect>
<text x="482.1" y="499.0" text-anchor="middle" font-family="Arial, sans-serif" font-size="11" fill="#374151"><tspan x="482.1" dy="0">45-54</tspan></text>
<rect x="532.9" y="443.1" width="20.0" height="37.9" fill="#0072B2" opacity="0.92"><title>Immigrants: 6.0%</title></rect>
<rect x="555.3" y="438.7" width="20.0" height="42.3" fill="#D55E00" opacity="0.92"><title>Emigrants: 6.7%</title></rect>
<rect x="577.8" y="447.6" width="20.0" height="33.4" fill="#6B7280" opacity="0.92"><title>Stayers: 5.3%</title></rect>
<text x="565.3" y="499.0" text-anchor="middle" font-family="Arial, sans-serif" font-size="11" fill="#374151"><tspan x="565.3" dy="0">55-64</tspan></text>
<rect x="616.0" y="456.8" width="20.0" height="24.2" fill="#0072B2" opacity="0.92"><title>Immigrants: 3.8%</title></rect>
<rect x="638.5" y="451.3" width="20.0" height="29.7" fill="#D55E00" opacity="0.92"><title>Emigrants: 4.7%</title></rect>
<rect x="660.9" y="459.1" width="20.0" height="21.9" fill="#6B7280" opacity="0.92"><title>Stayers: 3.5%</title></rect>
<text x="648.4" y="499.0" text-anchor="middle" font-family="Arial, sans-serif" font-size="11" fill="#374151"><tspan x="648.4" dy="0">65+</tspan></text>
<text x="746.0" y="208.0" text-anchor="start" font-family="Arial, sans-serif" font-size="17" font-weight="600" fill="#1F2937">Income rank</text>
<line x1="800.0" y1="481.0" x2="1382.0" y2="481.0" stroke="#E5E7EB" stroke-width="1"/>
<text x="792.0" y="485.0" text-anchor="end" font-family="Arial, sans-serif" font-size="11" font-weight="400" fill="#6B7280">0%</text>
<line x1="800.0" y1="417.8" x2="1382.0" y2="417.8" stroke="#E5E7EB" stroke-width="1"/>
<text x="792.0" y="421.8" text-anchor="end" font-family="Arial, sans-serif" font-size="11" font-weight="400" fill="#6B7280">10%</text>
<line x1="800.0" y1="354.5" x2="1382.0" y2="354.5" stroke="#E5E7EB" stroke-width="1"/>
<text x="792.0" y="358.5" text-anchor="end" font-family="Arial, sans-serif" font-size="11" font-weight="400" fill="#6B7280">20%</text>
<line x1="800.0" y1="291.2" x2="1382.0" y2="291.2" stroke="#E5E7EB" stroke-width="1"/>
<text x="792.0" y="295.2" text-anchor="end" font-family="Arial, sans-serif" font-size="11" font-weight="400" fill="#6B7280">30%</text>
<line x1="800.0" y1="228.0" x2="1382.0" y2="228.0" stroke="#E5E7EB" stroke-width="1"/>
<text x="792.0" y="232.0" text-anchor="end" font-family="Arial, sans-serif" font-size="11" font-weight="400" fill="#6B7280">40%</text>
<line x1="800.0" y1="228.0" x2="800.0" y2="481.0" stroke="#9CA3AF"/>
<line x1="800.0" y1="481.0" x2="1382.0" y2="481.0" stroke="#9CA3AF"/>
<rect x="810.7" y="460.5" width="23.3" height="20.5" fill="#0072B2" opacity="0.92"><title>Immigrants: 3.2%</title></rect>
<rect x="836.9" y="465.6" width="23.3" height="15.4" fill="#D55E00" opacity="0.92"><title>Emigrants: 2.4%</title></rect>
<rect x="863.0" y="461.2" width="23.3" height="19.8" fill="#6B7280" opacity="0.92"><title>Stayers: 3.1%</title></rect>
<text x="848.5" y="499.0" text-anchor="middle" font-family="Arial, sans-serif" font-size="11" fill="#374151"><tspan x="848.5" dy="0">No</tspan><tspan x="848.5" dy="13">income</tspan></text>
<rect x="907.7" y="441.2" width="23.3" height="39.8" fill="#0072B2" opacity="0.92"><title>Immigrants: 6.3%</title></rect>
<rect x="933.9" y="411.4" width="23.3" height="69.6" fill="#D55E00" opacity="0.92"><title>Emigrants: 11.0%</title></rect>
<rect x="960.0" y="425.6" width="23.3" height="55.4" fill="#6B7280" opacity="0.92"><title>Stayers: 8.8%</title></rect>
<text x="945.5" y="499.0" text-anchor="middle" font-family="Arial, sans-serif" font-size="11" fill="#374151"><tspan x="945.5" dy="0">Q1</tspan></text>
<rect x="1004.7" y="420.0" width="23.3" height="61.0" fill="#0072B2" opacity="0.92"><title>Immigrants: 9.7%</title></rect>
<rect x="1030.9" y="376.0" width="23.3" height="105.0" fill="#D55E00" opacity="0.92"><title>Emigrants: 16.6%</title></rect>
<rect x="1057.0" y="413.0" width="23.3" height="68.0" fill="#6B7280" opacity="0.92"><title>Stayers: 10.8%</title></rect>
<text x="1042.5" y="499.0" text-anchor="middle" font-family="Arial, sans-serif" font-size="11" fill="#374151"><tspan x="1042.5" dy="0">Q2</tspan></text>
<rect x="1101.7" y="276.4" width="23.3" height="204.6" fill="#0072B2" opacity="0.92"><title>Immigrants: 32.3%</title></rect>
<rect x="1127.9" y="296.2" width="23.3" height="184.8" fill="#D55E00" opacity="0.92"><title>Emigrants: 29.2%</title></rect>
<rect x="1154.1" y="307.5" width="23.3" height="173.5" fill="#6B7280" opacity="0.92"><title>Stayers: 27.4%</title></rect>
<text x="1139.5" y="499.0" text-anchor="middle" font-family="Arial, sans-serif" font-size="11" fill="#374151"><tspan x="1139.5" dy="0">Q3</tspan></text>
<rect x="1198.7" y="343.2" width="23.3" height="137.8" fill="#0072B2" opacity="0.92"><title>Immigrants: 21.8%</title></rect>
<rect x="1224.9" y="390.1" width="23.3" height="90.9" fill="#D55E00" opacity="0.92"><title>Emigrants: 14.4%</title></rect>
<rect x="1251.1" y="367.9" width="23.3" height="113.1" fill="#6B7280" opacity="0.92"><title>Stayers: 17.9%</title></rect>
<text x="1236.5" y="499.0" text-anchor="middle" font-family="Arial, sans-serif" font-size="11" fill="#374151"><tspan x="1236.5" dy="0">Q4</tspan></text>
<rect x="1295.7" y="312.3" width="23.3" height="168.7" fill="#0072B2" opacity="0.92"><title>Immigrants: 26.7%</title></rect>
<rect x="1321.9" y="314.2" width="23.3" height="166.8" fill="#D55E00" opacity="0.92"><title>Emigrants: 26.4%</title></rect>
<rect x="1348.1" y="278.2" width="23.3" height="202.8" fill="#6B7280" opacity="0.92"><title>Stayers: 32.1%</title></rect>
<text x="1333.5" y="499.0" text-anchor="middle" font-family="Arial, sans-serif" font-size="11" fill="#374151"><tspan x="1333.5" dy="0">Q5</tspan></text>
<text x="54.0" y="583.0" text-anchor="start" font-family="Arial, sans-serif" font-size="17" font-weight="600" fill="#1F2937">Sex</text>
<line x1="108.0" y1="856.0" x2="690.0" y2="856.0" stroke="#E5E7EB" stroke-width="1"/>
<text x="100.0" y="860.0" text-anchor="end" font-family="Arial, sans-serif" font-size="11" font-weight="400" fill="#6B7280">0%</text>
<line x1="108.0" y1="792.8" x2="690.0" y2="792.8" stroke="#E5E7EB" stroke-width="1"/>
<text x="100.0" y="796.8" text-anchor="end" font-family="Arial, sans-serif" font-size="11" font-weight="400" fill="#6B7280">15%</text>
<line x1="108.0" y1="729.5" x2="690.0" y2="729.5" stroke="#E5E7EB" stroke-width="1"/>
<text x="100.0" y="733.5" text-anchor="end" font-family="Arial, sans-serif" font-size="11" font-weight="400" fill="#6B7280">30%</text>
<line x1="108.0" y1="666.2" x2="690.0" y2="666.2" stroke="#E5E7EB" stroke-width="1"/>
<text x="100.0" y="670.2" text-anchor="end" font-family="Arial, sans-serif" font-size="11" font-weight="400" fill="#6B7280">45%</text>
<line x1="108.0" y1="603.0" x2="690.0" y2="603.0" stroke="#E5E7EB" stroke-width="1"/>
<text x="100.0" y="607.0" text-anchor="end" font-family="Arial, sans-serif" font-size="11" font-weight="400" fill="#6B7280">60%</text>
<line x1="108.0" y1="603.0" x2="108.0" y2="856.0" stroke="#9CA3AF"/>
<line x1="108.0" y1="856.0" x2="690.0" y2="856.0" stroke="#9CA3AF"/>
<rect x="140.0" y="647.9" width="69.8" height="208.1" fill="#0072B2" opacity="0.92"><title>Immigrants: 49.3%</title></rect>
<rect x="218.6" y="654.7" width="69.8" height="201.3" fill="#D55E00" opacity="0.92"><title>Emigrants: 47.7%</title></rect>
<rect x="297.1" y="645.2" width="69.8" height="210.8" fill="#6B7280" opacity="0.92"><title>Stayers: 50.0%</title></rect>
<text x="253.5" y="874.0" text-anchor="middle" font-family="Arial, sans-serif" font-size="11" fill="#374151"><tspan x="253.5" dy="0">Women</tspan></text>
<rect x="431.0" y="642.4" width="69.8" height="213.6" fill="#0072B2" opacity="0.92"><title>Immigrants: 50.7%</title></rect>
<rect x="509.6" y="635.7" width="69.8" height="220.3" fill="#D55E00" opacity="0.92"><title>Emigrants: 52.3%</title></rect>
<rect x="588.1" y="645.1" width="69.8" height="210.9" fill="#6B7280" opacity="0.92"><title>Stayers: 50.0%</title></rect>
<text x="544.5" y="874.0" text-anchor="middle" font-family="Arial, sans-serif" font-size="11" fill="#374151"><tspan x="544.5" dy="0">Men</tspan></text>
<text x="746.0" y="583.0" text-anchor="start" font-family="Arial, sans-serif" font-size="17" font-weight="600" fill="#1F2937">Literacy (age 15+)</text>
<line x1="800.0" y1="856.0" x2="1382.0" y2="856.0" stroke="#E5E7EB" stroke-width="1"/>
<text x="792.0" y="860.0" text-anchor="end" font-family="Arial, sans-serif" font-size="11" font-weight="400" fill="#6B7280">0%</text>
<line x1="800.0" y1="792.8" x2="1382.0" y2="792.8" stroke="#E5E7EB" stroke-width="1"/>
<text x="792.0" y="796.8" text-anchor="end" font-family="Arial, sans-serif" font-size="11" font-weight="400" fill="#6B7280">22.5%</text>
<line x1="800.0" y1="729.5" x2="1382.0" y2="729.5" stroke="#E5E7EB" stroke-width="1"/>
<text x="792.0" y="733.5" text-anchor="end" font-family="Arial, sans-serif" font-size="11" font-weight="400" fill="#6B7280">45%</text>
<line x1="800.0" y1="666.2" x2="1382.0" y2="666.2" stroke="#E5E7EB" stroke-width="1"/>
<text x="792.0" y="670.2" text-anchor="end" font-family="Arial, sans-serif" font-size="11" font-weight="400" fill="#6B7280">67.5%</text>
<line x1="800.0" y1="603.0" x2="1382.0" y2="603.0" stroke="#E5E7EB" stroke-width="1"/>
<text x="792.0" y="607.0" text-anchor="end" font-family="Arial, sans-serif" font-size="11" font-weight="400" fill="#6B7280">90%</text>
<line x1="800.0" y1="603.0" x2="800.0" y2="856.0" stroke="#9CA3AF"/>
<line x1="800.0" y1="856.0" x2="1382.0" y2="856.0" stroke="#9CA3AF"/>
<rect x="832.0" y="783.2" width="69.8" height="72.8" fill="#0072B2" opacity="0.92"><title>Immigrants: 25.9%</title></rect>
<rect x="910.6" y="779.8" width="69.8" height="76.2" fill="#D55E00" opacity="0.92"><title>Emigrants: 27.1%</title></rect>
<rect x="989.1" y="807.8" width="69.8" height="48.2" fill="#6B7280" opacity="0.92"><title>Stayers: 17.1%</title></rect>
<text x="945.5" y="874.0" text-anchor="middle" font-family="Arial, sans-serif" font-size="11" fill="#374151"><tspan x="945.5" dy="0">Not</tspan><tspan x="945.5" dy="13">literate</tspan></text>
<rect x="1123.0" y="647.6" width="69.8" height="208.4" fill="#0072B2" opacity="0.92"><title>Immigrants: 74.1%</title></rect>
<rect x="1201.6" y="651.1" width="69.8" height="204.9" fill="#D55E00" opacity="0.92"><title>Emigrants: 72.9%</title></rect>
<rect x="1280.2" y="623.1" width="69.8" height="232.9" fill="#6B7280" opacity="0.92"><title>Stayers: 82.9%</title></rect>
<text x="1236.5" y="874.0" text-anchor="middle" font-family="Arial, sans-serif" font-size="11" fill="#374151"><tspan x="1236.5" dy="0">Literate</tspan></text>
<text x="54.0" y="958.0" text-anchor="start" font-family="Arial, sans-serif" font-size="17" font-weight="600" fill="#1F2937">Years of schooling (age 15+)</text>
<text x="379.0" y="1117.5" text-anchor="middle" font-family="Arial, sans-serif" font-size="15" font-weight="400" fill="#6B7280">Not available</text>
<text x="746.0" y="958.0" text-anchor="start" font-family="Arial, sans-serif" font-size="17" font-weight="600" fill="#1F2937">Household size</text>
<line x1="800.0" y1="1231.0" x2="1382.0" y2="1231.0" stroke="#E5E7EB" stroke-width="1"/>
<text x="792.0" y="1235.0" text-anchor="end" font-family="Arial, sans-serif" font-size="11" font-weight="400" fill="#6B7280">0%</text>
<line x1="800.0" y1="1167.8" x2="1382.0" y2="1167.8" stroke="#E5E7EB" stroke-width="1"/>
<text x="792.0" y="1171.8" text-anchor="end" font-family="Arial, sans-serif" font-size="11" font-weight="400" fill="#6B7280">12.5%</text>
<line x1="800.0" y1="1104.5" x2="1382.0" y2="1104.5" stroke="#E5E7EB" stroke-width="1"/>
<text x="792.0" y="1108.5" text-anchor="end" font-family="Arial, sans-serif" font-size="11" font-weight="400" fill="#6B7280">25%</text>
<line x1="800.0" y1="1041.2" x2="1382.0" y2="1041.2" stroke="#E5E7EB" stroke-width="1"/>
<text x="792.0" y="1045.2" text-anchor="end" font-family="Arial, sans-serif" font-size="11" font-weight="400" fill="#6B7280">37.5%</text>
<line x1="800.0" y1="978.0" x2="1382.0" y2="978.0" stroke="#E5E7EB" stroke-width="1"/>
<text x="792.0" y="982.0" text-anchor="end" font-family="Arial, sans-serif" font-size="11" font-weight="400" fill="#6B7280">50%</text>
<line x1="800.0" y1="978.0" x2="800.0" y2="1231.0" stroke="#9CA3AF"/>
<line x1="800.0" y1="1231.0" x2="1382.0" y2="1231.0" stroke="#9CA3AF"/>
<rect x="810.7" y="1208.3" width="23.3" height="22.7" fill="#0072B2" opacity="0.92"><title>Immigrants: 4.5%</title></rect>
<rect x="836.9" y="1216.0" width="23.3" height="15.0" fill="#D55E00" opacity="0.92"><title>Emigrants: 3.0%</title></rect>
<rect x="863.0" y="1221.1" width="23.3" height="9.9" fill="#6B7280" opacity="0.92"><title>Stayers: 1.9%</title></rect>
<text x="848.5" y="1249.0" text-anchor="middle" font-family="Arial, sans-serif" font-size="11" fill="#374151"><tspan x="848.5" dy="0">1</tspan></text>
<rect x="907.7" y="1185.8" width="23.3" height="45.2" fill="#0072B2" opacity="0.92"><title>Immigrants: 8.9%</title></rect>
<rect x="933.9" y="1189.3" width="23.3" height="41.7" fill="#D55E00" opacity="0.92"><title>Emigrants: 8.2%</title></rect>
<rect x="960.0" y="1194.5" width="23.3" height="36.5" fill="#6B7280" opacity="0.92"><title>Stayers: 7.2%</title></rect>
<text x="945.5" y="1249.0" text-anchor="middle" font-family="Arial, sans-serif" font-size="11" fill="#374151"><tspan x="945.5" dy="0">2</tspan></text>
<rect x="1004.7" y="1165.5" width="23.3" height="65.5" fill="#0072B2" opacity="0.92"><title>Immigrants: 12.9%</title></rect>
<rect x="1030.9" y="1173.8" width="23.3" height="57.2" fill="#D55E00" opacity="0.92"><title>Emigrants: 11.3%</title></rect>
<rect x="1057.0" y="1170.4" width="23.3" height="60.6" fill="#6B7280" opacity="0.92"><title>Stayers: 12.0%</title></rect>
<text x="1042.5" y="1249.0" text-anchor="middle" font-family="Arial, sans-serif" font-size="11" fill="#374151"><tspan x="1042.5" dy="0">3</tspan></text>
<rect x="1101.7" y="1154.1" width="23.3" height="76.9" fill="#0072B2" opacity="0.92"><title>Immigrants: 15.2%</title></rect>
<rect x="1127.9" y="1161.3" width="23.3" height="69.7" fill="#D55E00" opacity="0.92"><title>Emigrants: 13.8%</title></rect>
<rect x="1154.1" y="1144.2" width="23.3" height="86.8" fill="#6B7280" opacity="0.92"><title>Stayers: 17.2%</title></rect>
<text x="1139.5" y="1249.0" text-anchor="middle" font-family="Arial, sans-serif" font-size="11" fill="#374151"><tspan x="1139.5" dy="0">4</tspan></text>
<rect x="1198.7" y="1154.8" width="23.3" height="76.2" fill="#0072B2" opacity="0.92"><title>Immigrants: 15.1%</title></rect>
<rect x="1224.9" y="1157.3" width="23.3" height="73.7" fill="#D55E00" opacity="0.92"><title>Emigrants: 14.6%</title></rect>
<rect x="1251.1" y="1142.5" width="23.3" height="88.5" fill="#6B7280" opacity="0.92"><title>Stayers: 17.5%</title></rect>
<text x="1236.5" y="1249.0" text-anchor="middle" font-family="Arial, sans-serif" font-size="11" fill="#374151"><tspan x="1236.5" dy="0">5</tspan></text>
<rect x="1295.7" y="1011.6" width="23.3" height="219.4" fill="#0072B2" opacity="0.92"><title>Immigrants: 43.4%</title></rect>
<rect x="1321.9" y="982.2" width="23.3" height="248.8" fill="#D55E00" opacity="0.92"><title>Emigrants: 49.2%</title></rect>
<rect x="1348.1" y="1007.2" width="23.3" height="223.8" fill="#6B7280" opacity="0.92"><title>Stayers: 44.2%</title></rect>
<text x="1333.5" y="1249.0" text-anchor="middle" font-family="Arial, sans-serif" font-size="11" fill="#374151"><tspan x="1333.5" dy="0">6+</tspan></text>
<text x="54.0" y="1333.0" text-anchor="start" font-family="Arial, sans-serif" font-size="17" font-weight="600" fill="#1F2937">Rooms in dwelling</text>
<line x1="108.0" y1="1606.0" x2="690.0" y2="1606.0" stroke="#E5E7EB" stroke-width="1"/>
<text x="100.0" y="1610.0" text-anchor="end" font-family="Arial, sans-serif" font-size="11" font-weight="400" fill="#6B7280">0%</text>
<line x1="108.0" y1="1542.8" x2="690.0" y2="1542.8" stroke="#E5E7EB" stroke-width="1"/>
<text x="100.0" y="1546.8" text-anchor="end" font-family="Arial, sans-serif" font-size="11" font-weight="400" fill="#6B7280">10%</text>
<line x1="108.0" y1="1479.5" x2="690.0" y2="1479.5" stroke="#E5E7EB" stroke-width="1"/>
<text x="100.0" y="1483.5" text-anchor="end" font-family="Arial, sans-serif" font-size="11" font-weight="400" fill="#6B7280">20%</text>
<line x1="108.0" y1="1416.2" x2="690.0" y2="1416.2" stroke="#E5E7EB" stroke-width="1"/>
<text x="100.0" y="1420.2" text-anchor="end" font-family="Arial, sans-serif" font-size="11" font-weight="400" fill="#6B7280">30%</text>
<line x1="108.0" y1="1353.0" x2="690.0" y2="1353.0" stroke="#E5E7EB" stroke-width="1"/>
<text x="100.0" y="1357.0" text-anchor="end" font-family="Arial, sans-serif" font-size="11" font-weight="400" fill="#6B7280">40%</text>
<line x1="108.0" y1="1353.0" x2="108.0" y2="1606.0" stroke="#9CA3AF"/>
<line x1="108.0" y1="1606.0" x2="690.0" y2="1606.0" stroke="#9CA3AF"/>
<rect x="118.7" y="1574.0" width="23.3" height="32.0" fill="#0072B2" opacity="0.92"><title>Immigrants: 5.1%</title></rect>
<rect x="144.9" y="1599.1" width="23.3" height="6.9" fill="#D55E00" opacity="0.92"><title>Emigrants: 1.1%</title></rect>
<rect x="171.1" y="1596.2" width="23.3" height="9.8" fill="#6B7280" opacity="0.92"><title>Stayers: 1.6%</title></rect>
<text x="156.5" y="1624.0" text-anchor="middle" font-family="Arial, sans-serif" font-size="11" fill="#374151"><tspan x="156.5" dy="0">1</tspan></text>
<rect x="215.7" y="1496.3" width="23.3" height="109.7" fill="#0072B2" opacity="0.92"><title>Immigrants: 17.3%</title></rect>
<rect x="241.9" y="1576.5" width="23.3" height="29.5" fill="#D55E00" opacity="0.92"><title>Emigrants: 4.7%</title></rect>
<rect x="268.1" y="1556.2" width="23.3" height="49.8" fill="#6B7280" opacity="0.92"><title>Stayers: 7.9%</title></rect>
<text x="253.5" y="1624.0" text-anchor="middle" font-family="Arial, sans-serif" font-size="11" fill="#374151"><tspan x="253.5" dy="0">2</tspan></text>
<rect x="312.7" y="1479.8" width="23.3" height="126.2" fill="#0072B2" opacity="0.92"><title>Immigrants: 19.9%</title></rect>
<rect x="338.9" y="1548.7" width="23.3" height="57.3" fill="#D55E00" opacity="0.92"><title>Emigrants: 9.1%</title></rect>
<rect x="365.1" y="1517.4" width="23.3" height="88.6" fill="#6B7280" opacity="0.92"><title>Stayers: 14.0%</title></rect>
<text x="350.5" y="1624.0" text-anchor="middle" font-family="Arial, sans-serif" font-size="11" fill="#374151"><tspan x="350.5" dy="0">3</tspan></text>
<rect x="409.7" y="1474.3" width="23.3" height="131.7" fill="#0072B2" opacity="0.92"><title>Immigrants: 20.8%</title></rect>
<rect x="435.9" y="1461.0" width="23.3" height="145.0" fill="#D55E00" opacity="0.92"><title>Emigrants: 22.9%</title></rect>
<rect x="462.1" y="1466.9" width="23.3" height="139.1" fill="#6B7280" opacity="0.92"><title>Stayers: 22.0%</title></rect>
<text x="447.5" y="1624.0" text-anchor="middle" font-family="Arial, sans-serif" font-size="11" fill="#374151"><tspan x="447.5" dy="0">4</tspan></text>
<rect x="506.7" y="1504.0" width="23.3" height="102.0" fill="#0072B2" opacity="0.92"><title>Immigrants: 16.1%</title></rect>
<rect x="532.9" y="1459.9" width="23.3" height="146.1" fill="#D55E00" opacity="0.92"><title>Emigrants: 23.1%</title></rect>
<rect x="559.1" y="1465.5" width="23.3" height="140.5" fill="#6B7280" opacity="0.92"><title>Stayers: 22.2%</title></rect>
<text x="544.5" y="1624.0" text-anchor="middle" font-family="Arial, sans-serif" font-size="11" fill="#374151"><tspan x="544.5" dy="0">5</tspan></text>
<rect x="603.7" y="1475.1" width="23.3" height="130.9" fill="#0072B2" opacity="0.92"><title>Immigrants: 20.7%</title></rect>
<rect x="629.9" y="1358.3" width="23.3" height="247.7" fill="#D55E00" opacity="0.92"><title>Emigrants: 39.2%</title></rect>
<rect x="656.0" y="1401.4" width="23.3" height="204.6" fill="#6B7280" opacity="0.92"><title>Stayers: 32.3%</title></rect>
<text x="641.5" y="1624.0" text-anchor="middle" font-family="Arial, sans-serif" font-size="11" fill="#374151"><tspan x="641.5" dy="0">6+</tspan></text>
<text x="746.0" y="1333.0" text-anchor="start" font-family="Arial, sans-serif" font-size="17" font-weight="600" fill="#1F2937">Refrigerator in dwelling</text>
<line x1="800.0" y1="1606.0" x2="1382.0" y2="1606.0" stroke="#E5E7EB" stroke-width="1"/>
<text x="792.0" y="1610.0" text-anchor="end" font-family="Arial, sans-serif" font-size="11" font-weight="400" fill="#6B7280">0%</text>
<line x1="800.0" y1="1542.8" x2="1382.0" y2="1542.8" stroke="#E5E7EB" stroke-width="1"/>
<text x="792.0" y="1546.8" text-anchor="end" font-family="Arial, sans-serif" font-size="11" font-weight="400" fill="#6B7280">20%</text>
<line x1="800.0" y1="1479.5" x2="1382.0" y2="1479.5" stroke="#E5E7EB" stroke-width="1"/>
<text x="792.0" y="1483.5" text-anchor="end" font-family="Arial, sans-serif" font-size="11" font-weight="400" fill="#6B7280">40%</text>
<line x1="800.0" y1="1416.2" x2="1382.0" y2="1416.2" stroke="#E5E7EB" stroke-width="1"/>
<text x="792.0" y="1420.2" text-anchor="end" font-family="Arial, sans-serif" font-size="11" font-weight="400" fill="#6B7280">60%</text>
<line x1="800.0" y1="1353.0" x2="1382.0" y2="1353.0" stroke="#E5E7EB" stroke-width="1"/>
<text x="792.0" y="1357.0" text-anchor="end" font-family="Arial, sans-serif" font-size="11" font-weight="400" fill="#6B7280">80%</text>
<line x1="800.0" y1="1353.0" x2="800.0" y2="1606.0" stroke="#9CA3AF"/>
<line x1="800.0" y1="1606.0" x2="1382.0" y2="1606.0" stroke="#9CA3AF"/>
<rect x="832.0" y="1403.5" width="69.8" height="202.5" fill="#0072B2" opacity="0.92"><title>Immigrants: 64.0%</title></rect>
<rect x="910.6" y="1377.9" width="69.8" height="228.1" fill="#D55E00" opacity="0.92"><title>Emigrants: 72.1%</title></rect>
<rect x="989.1" y="1434.3" width="69.8" height="171.7" fill="#6B7280" opacity="0.92"><title>Stayers: 54.3%</title></rect>
<text x="945.5" y="1624.0" text-anchor="middle" font-family="Arial, sans-serif" font-size="11" fill="#374151"><tspan x="945.5" dy="0">No</tspan></text>
<rect x="1123.0" y="1492.3" width="69.8" height="113.7" fill="#0072B2" opacity="0.92"><title>Immigrants: 36.0%</title></rect>
<rect x="1201.6" y="1517.8" width="69.8" height="88.2" fill="#D55E00" opacity="0.92"><title>Emigrants: 27.9%</title></rect>
<rect x="1280.2" y="1461.4" width="69.8" height="144.6" fill="#6B7280" opacity="0.92"><title>Stayers: 45.7%</title></rect>
<text x="1236.5" y="1624.0" text-anchor="middle" font-family="Arial, sans-serif" font-size="11" fill="#374151"><tspan x="1236.5" dy="0">Yes</tspan></text>
<text x="54.0" y="1692.0" text-anchor="start" font-family="Arial, sans-serif" font-size="13" font-weight="400" fill="#4B5563">Bars are percentages within migration group and panel; legend sizes use census person weights.</text>
<text x="54.0" y="1713.0" text-anchor="start" font-family="Arial, sans-serif" font-size="13" font-weight="400" fill="#4B5563">Income: no income plus national weighted quintiles among positive-income adults (1980 uses main-job income).</text>
<text x="775.0" y="1713.0" text-anchor="start" font-family="Arial, sans-serif" font-size="12" font-weight="400" fill="#6B7280">1970: Guanabara -&gt; RJ; Fernando de Noronha -&gt; PE; MT and GO retain historical boundaries.</text>
</svg>